<svg width="18" height="18" viewBox="0 0 18 18" fill="none" xmlns="http://www.w3.org/2000/svg">
    <path d="M9.484 4.198h-.966a.161.161 0 0 0-.161.161v5.53c0 .053.024.101.066.131l3.32 2.425a.16.16 0 0 0 .226-.034l.575-.784a.158.158 0 0 0-.035-.225l-2.864-2.07V4.358a.161.161 0 0 0-.161-.16zm4.415 1.511 3.15.77c.101.024.2-.053.2-.155l.016-3.245a.16.16 0 0 0-.26-.126L13.84 5.426a.16.16 0 0 0 .06.283zm3.37 6.049-1.14-.392a.16.16 0 0 0-.203.097 7.059 7.059 0 0 1-1.645 2.563 7.091 7.091 0 0 1-5.026 2.083 7.092 7.092 0 0 1-5.026-2.083 7.124 7.124 0 0 1-1.525-2.26A7.1 7.1 0 0 1 2.149 9c0-.96.187-1.893.559-2.769a7.059 7.059 0 0 1 1.525-2.26 7.091 7.091 0 0 1 7.79-1.524 7.09 7.09 0 0 1 2.835 2.173l1.201-.94A8.614 8.614 0 0 0 9.253.361a8.622 8.622 0 0 0-8.63 8.727c.048 4.731 3.895 8.55 8.634 8.55 3.726 0 6.9-2.362 8.11-5.671a.164.164 0 0 0-.099-.209z" fill="#999"/>
</svg>
