<svg width="20" height="20" viewBox="0 0 20 20" fill="none" xmlns="http://www.w3.org/2000/svg">
    <g clip-path="url(#kvgtxyjtaa)" fill="#999">
        <path d="M19.821 9.152h-2.727a7.145 7.145 0 0 0-6.246-6.246V.18A.18.18 0 0 0 10.67 0H9.33a.18.18 0 0 0-.178.179v2.727a7.145 7.145 0 0 0-6.246 6.246H.18A.18.18 0 0 0 0 9.33v1.34c0 .098.08.178.179.178h2.727a7.145 7.145 0 0 0 6.246 6.246v2.727c0 .099.08.179.178.179h1.34a.18.18 0 0 0 .178-.179v-2.727a7.145 7.145 0 0 0 6.246-6.246h2.727A.18.18 0 0 0 20 10.67V9.33a.18.18 0 0 0-.179-.178zM10 15.446A5.445 5.445 0 0 1 4.554 10 5.445 5.445 0 0 1 10 4.554 5.445 5.445 0 0 1 15.446 10 5.445 5.445 0 0 1 10 15.446z"/>
        <path d="M10 7.324c-.716 0-1.386.277-1.893.786a2.656 2.656 0 0 0-.785 1.893c0 .716.279 1.386.785 1.893a2.669 2.669 0 0 0 3.786 0 2.669 2.669 0 0 0 0-3.786A2.646 2.646 0 0 0 10 7.324z"/>
    </g>
    <defs>
        <clipPath id="kvgtxyjtaa">
            <path fill="#fff" d="M0 0h20v20H0z"/>
        </clipPath>
    </defs>
</svg>
