<svg width="20" height="20" viewBox="0 0 20 20" fill="none" xmlns="http://www.w3.org/2000/svg">
    <g clip-path="url(#wwlvwv0uza)">
        <path d="M10 0C4.478 0 0 4.478 0 10s4.478 10 10 10 10-4.478 10-10S15.522 0 10 0zm0 18.304A8.305 8.305 0 0 1 1.696 10 8.305 8.305 0 0 1 10 1.696 8.305 8.305 0 0 1 18.304 10 8.305 8.305 0 0 1 10 18.304zm1.065-8.822-.567-.132V6.353c.848.116 1.373.647 1.462 1.299.011.09.087.154.176.154h1.002a.18.18 0 0 0 .179-.197c-.136-1.39-1.281-2.283-2.81-2.437v-.73a.18.18 0 0 0-.179-.179h-.627a.18.18 0 0 0-.179.179v.737c-1.58.154-2.817 1.026-2.817 2.656 0 1.509 1.112 2.236 2.28 2.515l.55.141v3.185c-.986-.131-1.54-.658-1.653-1.368a.178.178 0 0 0-.177-.147h-1.03a.179.179 0 0 0-.18.194c.101 1.228 1.032 2.357 3.018 2.502v.701c0 .098.08.179.179.179h.634a.18.18 0 0 0 .178-.181l-.004-.708c1.748-.154 2.998-1.09 2.998-2.768-.002-1.549-.987-2.24-2.433-2.598zm-1.532-.361a3.268 3.268 0 0 1-.334-.112c-.755-.272-1.105-.712-1.105-1.28 0-.81.614-1.271 1.44-1.376V9.12zm.965 4.562v-2.984c.069.02.132.035.196.049 1.056.321 1.41.768 1.41 1.453 0 .873-.655 1.397-1.606 1.482z" fill="#999"/>
    </g>
    <defs>
        <clipPath id="wwlvwv0uza">
            <path fill="#fff" d="M0 0h20v20H0z"/>
        </clipPath>
    </defs>
</svg>
