<svg width="30" height="30" viewBox="0 0 30 30" fill="none" xmlns="http://www.w3.org/2000/svg">
    <g clip-path="url(#qqkkzbzwia)">
        <rect x="7" y="7" width="16" height="16" rx="2" fill="#5EA88E"/>
        <path d="M13.739 20.41c.522 0 .918-.2 1.186-.602l5.793-8.73c.096-.143.167-.283.213-.421.046-.142.069-.278.069-.408 0-.36-.125-.657-.377-.891A1.267 1.267 0 0 0 19.707 9c-.25 0-.464.05-.64.15-.172.097-.335.264-.49.503l-4.864 7.638-2.435-2.919a1.255 1.255 0 0 0-.991-.458c-.373 0-.68.12-.923.358a1.206 1.206 0 0 0-.364.897c0 .164.025.318.075.465.055.142.153.29.295.445l3.232 3.81c.298.347.676.521 1.136.521z" fill="#fff"/>
    </g>
    <defs>
        <clipPath id="qqkkzbzwia">
            <rect x="7" y="7" width="16" height="16" rx="2" fill="#fff"/>
        </clipPath>
    </defs>
</svg>
