<svg width="120" height="120" viewBox="0 0 120 120" fill="none" xmlns="http://www.w3.org/2000/svg">
<path d="M59.9423 0C26.8281 0.157062 -0.0195719 26.6024 1.07058e-05 59.9454C0.0195933 93.2688 26.3059 119.59 59.3744 119.996C92.8214 120.401 120.126 93.1902 120.002 60.0305C119.865 26.7791 93.3436 0.170151 59.9423 0ZM59.9423 21.3866C69.8054 21.3081 78.2259 29.6848 78.2455 39.5731C78.265 49.6055 69.4986 58.2308 60.0402 57.6222C50.8494 58.3028 41.724 50.0309 41.7305 39.4881C41.7305 29.6782 50.0139 21.4652 59.9423 21.3866ZM91.7836 95.2255C88.8657 96.554 85.7456 97.071 82.6254 97.4375C75.1123 98.3209 67.573 98.7529 60.0989 98.4518C52.3312 98.7463 44.6809 98.3078 37.0633 97.4244C34.2173 97.0972 31.3713 96.5736 28.6624 95.5004C27.0631 94.8656 26.2798 93.8577 26.3386 92.0254C26.5409 85.8279 27.6114 79.8792 31.0645 74.5915C34.9223 68.6885 40.5294 65.2266 47.2005 63.44C55.7255 61.1561 64.3092 61.1365 72.8211 63.4662C84.4466 66.6467 91.2157 74.3362 93.1543 86.2402C93.4872 88.2755 93.4415 90.3631 93.5851 92.4311C93.6896 93.825 93.0173 94.6627 91.7836 95.2255Z" fill="#5EA88E"/>
</svg>
