<svg width="18" height="18" viewBox="0 0 18 18" fill="none" xmlns="http://www.w3.org/2000/svg">
<g id="Company" clip-path="url(#clip0_271_222)">
<g id="Vector">
<path fill-rule="evenodd" clip-rule="evenodd" d="M0 16.5288C0 16.1823 0.309957 15.9014 0.692308 15.9014H17.3077C17.69 15.9014 18 16.1823 18 16.5288C18 16.8754 17.69 17.1562 17.3077 17.1562H0.692308C0.309957 17.1562 0 16.8754 0 16.5288Z" fill="#5EA88E"/>
<path fill-rule="evenodd" clip-rule="evenodd" d="M10.287 0.937453C10.4911 1.05177 10.6154 1.25371 10.6154 1.47115V16.5288C10.6154 16.8754 10.3054 17.1562 9.92308 17.1562C9.54073 17.1562 9.23077 16.8754 9.23077 16.5288V2.48632L3.23077 5.20507V16.5288C3.23077 16.8754 2.92081 17.1562 2.53846 17.1562C2.15611 17.1562 1.84615 16.8754 1.84615 16.5288V4.81731C1.84615 4.57967 1.99431 4.36242 2.22885 4.25614L9.61347 0.909987C9.82807 0.812744 10.0829 0.823136 10.287 0.937453Z" fill="#5EA88E"/>
<path fill-rule="evenodd" clip-rule="evenodd" d="M9.34704 4.46929C9.55913 4.18098 9.98896 4.10307 10.3071 4.29528L15.8456 7.64143C16.0382 7.75779 16.1538 7.95369 16.1538 8.16346V16.5288C16.1538 16.8754 15.8439 17.1563 15.4615 17.1563C15.0792 17.1563 14.7692 16.8754 14.7692 16.5288V8.49924L9.53905 5.33934C9.22092 5.14713 9.13495 4.7576 9.34704 4.46929Z" fill="#5EA88E"/>
<path fill-rule="evenodd" clip-rule="evenodd" d="M6.23077 5.86298C6.61312 5.86298 6.92308 6.14388 6.92308 6.49039V6.49875C6.92308 6.84526 6.61312 7.12615 6.23077 7.12615C5.84842 7.12615 5.53846 6.84526 5.53846 6.49875V6.49039C5.53846 6.14388 5.84842 5.86298 6.23077 5.86298Z" fill="#5EA88E"/>
<path fill-rule="evenodd" clip-rule="evenodd" d="M6.23077 8.3726C6.61312 8.3726 6.92308 8.65349 6.92308 9V9.00837C6.92308 9.35487 6.61312 9.63577 6.23077 9.63577C5.84842 9.63577 5.53846 9.35487 5.53846 9.00837V9C5.53846 8.65349 5.84842 8.3726 6.23077 8.3726Z" fill="#5EA88E"/>
<path fill-rule="evenodd" clip-rule="evenodd" d="M6.23077 10.8822C6.61312 10.8822 6.92308 11.1631 6.92308 11.5096V11.518C6.92308 11.8645 6.61312 12.1454 6.23077 12.1454C5.84842 12.1454 5.53846 11.8645 5.53846 11.518V11.5096C5.53846 11.1631 5.84842 10.8822 6.23077 10.8822Z" fill="#5EA88E"/>
<path fill-rule="evenodd" clip-rule="evenodd" d="M6.23077 13.3918C6.61312 13.3918 6.92308 13.6727 6.92308 14.0192V14.0276C6.92308 14.3741 6.61312 14.655 6.23077 14.655C5.84842 14.655 5.53846 14.3741 5.53846 14.0276V14.0192C5.53846 13.6727 5.84842 13.3918 6.23077 13.3918Z" fill="#5EA88E"/>
</g>
</g>
<defs>
<clipPath id="clip0_271_222">
<rect width="18" height="16.3125" fill="white" transform="translate(0 0.84375)"/>
</clipPath>
</defs>
</svg>
