<svg width="18" height="18" viewBox="0 0 18 18" fill="none"
    xmlns="http://www.w3.org/2000/svg">
    <g id="Compare" clip-path="url(#clip0_271_136)">
        <g id="Vector">
            <path fill-rule="evenodd" clip-rule="evenodd" d="M3.69231 16.4949C3.69231 16.1297 4.00226 15.8336 4.38462 15.8336H13.6154C13.9977 15.8336 14.3077 16.1297 14.3077 16.4949C14.3077 16.8602 13.9977 17.1563 13.6154 17.1563H4.38462C4.00226 17.1563 3.69231 16.8602 3.69231 16.4949Z" fill="#5EA88E"/>
            <path fill-rule="evenodd" clip-rule="evenodd" d="M8.88619 2.61626C8.96154 2.60426 9.03846 2.60426 9.11382 2.61626L14.6523 3.49802C15.0294 3.55806 15.2842 3.89879 15.2214 4.25906C15.1585 4.61932 14.8018 4.8627 14.4246 4.80266L9 3.93902L3.57535 4.80266C3.1982 4.8627 2.84151 4.61932 2.77865 4.25906C2.71579 3.89879 2.97058 3.55806 3.34772 3.49802L8.88619 2.61626Z" fill="#5EA88E"/>
            <path fill-rule="evenodd" clip-rule="evenodd" d="M9 0.84375C9.38235 0.84375 9.69231 1.13983 9.69231 1.50507V16.4949C9.69231 16.8602 9.38235 17.1563 9 17.1563C8.61765 17.1563 8.30769 16.8602 8.30769 16.4949V1.50507C8.30769 1.13983 8.61765 0.84375 9 0.84375Z" fill="#5EA88E"/>
            <path fill-rule="evenodd" clip-rule="evenodd" d="M3.46154 3.48902C3.72377 3.48902 3.96349 3.63054 4.08076 3.85459L6.84999 9.14513C6.89805 9.23696 6.92308 9.33821 6.92308 9.44088C6.92308 10.3178 6.55838 11.1589 5.90922 11.779C5.26005 12.3991 4.3796 12.7475 3.46154 12.7475C2.54348 12.7475 1.66303 12.3991 1.01386 11.779C0.364697 11.1589 0 10.3178 0 9.44088C0 9.33821 0.0250235 9.23696 0.0730889 9.14513L2.84232 3.85459C2.95959 3.63054 3.19931 3.48902 3.46154 3.48902ZM1.3902 9.58633C1.42658 10.0593 1.63948 10.5061 1.99293 10.8437C2.38243 11.2158 2.9107 11.4248 3.46154 11.4248C4.01237 11.4248 4.54065 11.2158 4.93015 10.8437C5.2836 10.5061 5.4965 10.0593 5.53288 9.58633L3.46154 5.62909L1.3902 9.58633Z" fill="#5EA88E"/>
            <path fill-rule="evenodd" clip-rule="evenodd" d="M14.5385 3.48902C14.8007 3.48902 15.0404 3.63054 15.1577 3.85459L17.9269 9.14513C17.975 9.23696 18 9.33821 18 9.44088C18 10.3178 17.6353 11.1589 16.9861 11.779C16.337 12.3991 15.4565 12.7475 14.5385 12.7475C13.6204 12.7475 12.7399 12.3991 12.0908 11.779C11.4416 11.1589 11.0769 10.3178 11.0769 9.44088C11.0769 9.33821 11.1019 9.23696 11.15 9.14513L13.9192 3.85459C14.0365 3.63054 14.2762 3.48902 14.5385 3.48902ZM12.4671 9.58633C12.5035 10.0593 12.7164 10.5061 13.0699 10.8437C13.4594 11.2158 13.9876 11.4248 14.5385 11.4248C15.0893 11.4248 15.6176 11.2158 16.0071 10.8437C16.3605 10.5061 16.5734 10.0593 16.6098 9.58633L14.5385 5.62909L12.4671 9.58633Z" fill="#5EA88E"/>
        </g>
    </g>
    <defs>
        <clipPath id="clip0_271_136">
            <rect width="18" height="16.3125" fill="white" transform="translate(0 0.84375)"/>
        </clipPath>
    </defs>
</svg>
