<svg width="18" height="18" viewBox="0 0 18 18" fill="none" xmlns="http://www.w3.org/2000/svg">
<g id="Preference" clip-path="url(#clip0_271_21)">
<path id="Vector" fill-rule="evenodd" clip-rule="evenodd" d="M5.89356 1.84433C6.23531 1.83106 6.54468 2.04752 6.65283 2.37558L9.87718 12.1561L11.326 5.56392C11.3966 5.24252 11.6598 5.00092 11.9829 4.96069C12.3061 4.92046 12.6193 5.09033 12.7649 5.38481L14.0908 8.06597H18.2308C18.6556 8.06597 19 8.41419 19 8.84375C19 9.2733 18.6556 9.62152 18.2308 9.62152H13.6154C13.324 9.62152 13.0577 9.45508 12.9274 9.19158L12.3578 8.03987L10.7766 15.2347C10.7015 15.576 10.4106 15.8247 10.0653 15.8427C9.71997 15.8607 9.40522 15.6436 9.29589 15.3119L6.02866 5.40135L5.13088 9.03239C5.04527 9.37863 4.73759 9.62152 4.38462 9.62152H-0.230769C-0.655604 9.62152 -1 9.2733 -1 8.84375C-1 8.41419 -0.655604 8.06597 -0.230769 8.06597H3.78402L5.17681 2.43289C5.25976 2.09742 5.55181 1.8576 5.89356 1.84433Z" fill="#5EA88E"/>
</g>
<defs>
<clipPath id="clip0_271_21">
<rect width="18" height="16.3125" fill="white" transform="translate(0 0.84375)"/>
</clipPath>
</defs>
</svg>
