<svg width="18" height="18" viewBox="0 0 18 18" fill="none" xmlns="http://www.w3.org/2000/svg">
<g id="Resume">
<g id="Vector">
<path fill-rule="evenodd" clip-rule="evenodd" d="M10.858 0C11.2428 0 11.5548 0.309957 11.5548 0.692308V4.38462C11.5548 4.44582 11.5792 4.50452 11.6228 4.54779C11.6663 4.59107 11.7254 4.61539 11.787 4.61539H15.5032C15.888 4.61539 16.1999 4.92534 16.1999 5.30769C16.1999 5.69004 15.888 6 15.5032 6H11.787C11.3558 6 10.9423 5.82981 10.6374 5.52687C10.3325 5.22392 10.1612 4.81304 10.1612 4.38462V0.692308C10.1612 0.309957 10.4732 0 10.858 0Z" fill="#5EA88E"/>
<path fill-rule="evenodd" clip-rule="evenodd" d="M4.35477 1.38462C4.04677 1.38462 3.75139 1.50618 3.53361 1.72257C3.31582 1.93896 3.19348 2.23244 3.19348 2.53846V15.4615C3.19348 15.7676 3.31582 16.061 3.53361 16.2774C3.75139 16.4938 4.04677 16.6154 4.35477 16.6154H13.6451C13.9531 16.6154 14.2485 16.4938 14.4662 16.2774C14.684 16.061 14.8064 15.7676 14.8064 15.4615V5.59446L10.5694 1.38462H4.35477ZM2.54822 0.743498C3.02735 0.267444 3.67718 0 4.35477 0H10.858C11.0428 0 11.22 0.0729393 11.3507 0.202772L15.9958 4.81816C16.1265 4.94799 16.1999 5.12408 16.1999 5.30769V15.4615C16.1999 16.1348 15.9308 16.7804 15.4516 17.2565C14.9725 17.7326 14.3227 18 13.6451 18H4.35477C3.67718 18 3.02735 17.7326 2.54822 17.2565C2.0691 16.7804 1.79993 16.1348 1.79993 15.4615V2.53846C1.79993 1.86522 2.0691 1.21955 2.54822 0.743498Z" fill="#5EA88E"/>
<path fill-rule="evenodd" clip-rule="evenodd" d="M5.51606 13.6154C5.51606 13.233 5.82801 12.9231 6.21283 12.9231H11.787C12.1718 12.9231 12.4838 13.233 12.4838 13.6154C12.4838 13.9977 12.1718 14.3077 11.787 14.3077H6.21283C5.82801 14.3077 5.51606 13.9977 5.51606 13.6154Z" fill="#5EA88E"/>
<path fill-rule="evenodd" clip-rule="evenodd" d="M5.51606 9.92308C5.51606 9.54073 5.82801 9.23077 6.21283 9.23077H11.787C12.1718 9.23077 12.4838 9.54073 12.4838 9.92308C12.4838 10.3054 12.1718 10.6154 11.787 10.6154H6.21283C5.82801 10.6154 5.51606 10.3054 5.51606 9.92308Z" fill="#5EA88E"/>
</g>
</g>
</svg>
