<svg width="868" height="170" viewBox="0 0 868 170" fill="none" xmlns="http://www.w3.org/2000/svg">
    <path d="M10.909 44.026A9 9 0 0 1 19.856 36H856.92c5.334 0 9.498 4.614 8.953 9.92l-8.221 80A9 9 0 0 1 848.7 134H11.148c-5.356 0-9.527-4.649-8.948-9.974l8.709-80z" fill="#fff" stroke="#317292" stroke-width="2"/>
    <path d="M242.841 8.9A10 10 0 0 1 252.78 0h412.051c5.959 0 10.596 5.178 9.94 11.1l-16.612 150.001A10 10 0 0 1 648.22 170H236.169c-5.959 0-10.596-5.178-9.94-11.101l16.612-150z" fill="#317292"/>
</svg>
