<svg width="127" height="116" viewBox="0 0 127 116" fill="none" xmlns="http://www.w3.org/2000/svg">
    <g clip-path="url(#3c1ytblcka)">
        <path d="m68.862 65.001 18.61-7.744-6.13 28.235-23.798-12.61 11.318-7.88zM54.405 56.651l-2.598-19.99L30.42 56.09l22.82 14.305 1.165-13.743z" fill="#F2AC3D"/>
        <path d="m77.753 103.722 28.397-25.99-30.836-3.152 4.258-44.827-36.692 26.1-18.147-25.128-8.32 37.583 61.34 35.414z" fill="#F7CC48"/>
        <path d="M99.33 77.04a6.91 6.91 0 0 0 1.774 5.313l5.046-4.616-6.82-.698z" fill="#F5C345"/>
        <path d="M109.977 79.947c-1.213 2.1-3.918 2.818-6.027 1.6-2.109-1.217-2.844-3.91-1.627-6.019 1.212-2.1 3.909-2.822 6.026-1.6 2.109 1.218 2.845 3.911 1.628 6.02z" fill="#F7CC48"/>
        <path d="M81.937 59.553a5.992 5.992 0 0 0 2.54 2.889c.552.319 1.137.543 1.723.667l1.278-5.866-5.54 2.31z" fill="#F1A43B"/>
        <path d="M90.577 59.047a3.567 3.567 0 0 1-4.875 1.294 3.567 3.567 0 0 1-1.316-4.869 3.567 3.567 0 0 1 4.874-1.294 3.56 3.56 0 0 1 1.317 4.869z" fill="#F2AC3D"/>
        <path d="M48.692 41.786a5.978 5.978 0 0 0 3.881.74l-.766-5.86-4.473 4.054c.39.406.84.767 1.358 1.066z" fill="#F1A43B"/>
        <path d="M54.783 38.383a3.567 3.567 0 0 1-4.874 1.294 3.567 3.567 0 0 1-1.316-4.869 3.567 3.567 0 0 1 4.874-1.294 3.554 3.554 0 0 1 1.316 4.868z" fill="#F2AC3D"/>
        <path d="M83.399 31.963c-1.212 2.1-3.909 2.823-6.026 1.6-2.11-1.218-2.845-3.911-1.628-6.019 1.212-2.1 3.909-2.823 6.026-1.6 2.11 1.217 2.845 3.91 1.628 6.019z" fill="#F7CC48"/>
        <path d="m24.733 30.727-1.474 6.677a6.86 6.86 0 0 0 5.488-1.12l-4.014-5.557z" fill="#F5C345"/>
        <path d="M28.56 32.94c-1.213 2.099-3.91 2.822-6.027 1.6-2.109-1.218-2.844-3.911-1.627-6.02 1.212-2.099 3.909-2.822 6.026-1.6 2.11 1.218 2.845 3.911 1.628 6.02z" fill="#F7CC48"/>
        <path d="M75.454 106.985 14.752 71.939a1.731 1.731 0 0 1-.64-2.367l.255-.44a1.731 1.731 0 0 1 2.37-.63l60.701 35.046a1.73 1.73 0 0 1 .64 2.367l-.254.441a1.732 1.732 0 0 1-2.37.629z" fill="#F2AC3D"/>
        <path d="M72.235 37.632 42.677 58.957l-3.555-3.407 5.366 10.424 27.747-28.342z" fill="#F9DF7F"/>
        <path d="m101.416 80.08-24.092 20.97-5.86-3.382 29.952-17.588z" fill="#F2AC3D"/>
        <path d="M78.83 27.332c-.612.313-1.22.345-1.358.073-.138-.271.237-.743.84-1.061.611-.313 1.22-.346 1.358-.074.146.277-.229.749-.84 1.062zM105.668 75.287c-.611.313-1.22.345-1.358.074-.146-.277.237-.744.84-1.062.611-.313 1.22-.345 1.358-.074.146.277-.242.753-.84 1.062z" fill="#FBE950"/>
        <path d="M86.745 55.574c-.612.313-1.22.345-1.358.074-.138-.272.236-.744.84-1.062.61-.313 1.22-.345 1.357-.074.152.268-.228.749-.84 1.062zM50.713 34.77c-.611.312-1.22.345-1.358.073-.138-.272.237-.744.84-1.062.611-.313 1.22-.345 1.358-.073.151.267-.228.748-.84 1.061z" fill="#F7CC48"/>
        <path d="M23.657 29.191c-.611.313-1.22.345-1.358.074-.137-.272.237-.744.84-1.062.612-.313 1.22-.345 1.358-.074.138.272-.236.744-.84 1.062z" fill="#FBE950"/>
    </g>
    <defs>
        <clipPath id="3c1ytblcka">
            <path fill="#fff" transform="rotate(30 18.18 69.6)" d="M0 0h102.85v73.337H0z"/>
        </clipPath>
    </defs>
</svg>
