<svg width="56" height="51" viewBox="0 0 56 51" fill="none" xmlns="http://www.w3.org/2000/svg">
    <path d="m29.92 28.375 8.153-3.393-2.686 12.37-10.426-5.525 4.959-3.452zM23.586 24.71l-1.138-8.757-9.37 8.51 9.998 6.267.51-6.02z" fill="#F2AC3D"/>
    <path d="m33.815 45.327 12.44-11.387-13.509-1.38 1.865-19.639-16.074 11.435-7.95-11.009-3.645 16.465 26.873 15.515z" fill="#F7CC48"/>
    <path d="M43.267 33.643c-.08.843.198 1.696.777 2.327l2.211-2.022-2.988-.305z" fill="#F5C345"/>
    <path d="M47.931 34.917a1.934 1.934 0 0 1-2.64.701 1.932 1.932 0 0 1-.712-2.637 1.932 1.932 0 0 1 2.64-.7 1.932 1.932 0 0 1 .712 2.636z" fill="#F7CC48"/>
    <path d="M35.648 25.982a2.625 2.625 0 0 0 1.867 1.558l.56-2.57-2.427 1.012z" fill="#F1A43B"/>
    <path d="M39.433 25.76c-.43.745-1.387 1-2.136.567a1.563 1.563 0 0 1-.577-2.133c.43-.746 1.387-1 2.136-.567a1.56 1.56 0 0 1 .577 2.133z" fill="#F2AC3D"/>
    <path d="M21.083 18.21a2.62 2.62 0 0 0 1.7.324l-.335-2.567-1.96 1.776c.171.178.368.336.595.467z" fill="#F1A43B"/>
    <path d="M23.752 16.713c-.43.745-1.387 1-2.136.567a1.563 1.563 0 0 1-.576-2.133c.43-.746 1.386-1 2.135-.567.751.428 1.01 1.384.577 2.133z" fill="#F2AC3D"/>
    <path d="M36.288 13.902a1.932 1.932 0 0 1-2.64.7 1.932 1.932 0 0 1-.713-2.636 1.932 1.932 0 0 1 2.64-.701 1.932 1.932 0 0 1 .713 2.637z" fill="#F7CC48"/>
    <path d="m10.587 13.36-.646 2.925c.84.188 1.717.002 2.404-.491l-1.758-2.435z" fill="#F5C345"/>
    <path d="M12.263 14.324a1.932 1.932 0 0 1-2.64.7 1.932 1.932 0 0 1-.713-2.636 1.932 1.932 0 0 1 2.64-.701 1.932 1.932 0 0 1 .713 2.637z" fill="#F7CC48"/>
    <path d="M32.807 46.763 6.215 31.41a.758.758 0 0 1-.28-1.037l.11-.193a.758.758 0 0 1 1.039-.276l26.593 15.354c.365.21.49.673.28 1.037l-.111.193a.758.758 0 0 1-1.039.275z" fill="#F2AC3D"/>
    <path d="m31.397 16.39-12.949 9.342-1.557-1.493 2.35 4.567 12.156-12.417z" fill="#F9DF7F"/>
    <path d="M44.181 34.982 33.627 44.17l-2.567-1.482 13.121-7.705z" fill="#F2AC3D"/>
    <path d="M34.286 11.876c-.267.137-.534.152-.595.033-.06-.12.104-.326.368-.466.268-.137.535-.15.595-.032.064.121-.1.328-.368.465zM46.044 32.893c-.268.137-.534.151-.595.032-.064-.121.104-.326.368-.465.268-.137.534-.151.595-.032.064.12-.106.33-.368.465z" fill="#FBE950"/>
    <path d="M37.754 24.243c-.268.137-.535.152-.595.033-.06-.12.104-.326.368-.465.268-.137.534-.152.595-.033.066.118-.1.328-.368.465zM21.969 15.134c-.268.137-.535.151-.595.032-.06-.119.103-.325.368-.465.267-.137.534-.151.595-.032.066.117-.1.328-.368.465z" fill="#F7CC48"/>
    <path d="M10.116 12.68c-.268.138-.535.152-.595.033-.06-.119.103-.326.368-.465.268-.137.534-.151.595-.032.06.119-.104.326-.368.465z" fill="#FBE950"/>
</svg>
