<svg width="277" height="202" viewBox="0 0 277 202" fill="none" xmlns="http://www.w3.org/2000/svg">
    <path d="M65.49 8.823A9 9 0 0 1 74.413 1h173.181c5.438 0 9.634 4.786 8.923 10.177l-24.007 182a9 9 0 0 1-8.923 7.823H50.406c-5.438 0-9.634-4.786-8.923-10.177l24.007-182z" fill="#fff" stroke="#317292" stroke-width="2"/>
    <path d="M10.42 65.697A10 10 0 0 1 20.335 57H265.6c6.04 0 10.702 5.314 9.915 11.303l-8.935 68a10 10 0 0 1-9.915 8.697H11.4c-6.04 0-10.702-5.314-9.915-11.303l8.935-68z" fill="#317292"/>
</svg>
