<svg width="20" height="20" viewBox="0 0 20 20" fill="none" xmlns="http://www.w3.org/2000/svg">
    <path d="m19.51 8.81-.662-6.978a.76.76 0 0 0-.683-.683l-6.977-.66h-.01a.229.229 0 0 0-.169.064L.556 11.006a.223.223 0 0 0 0 .315l8.12 8.12a.22.22 0 0 0 .159.065.22.22 0 0 0 .158-.065L19.447 8.988a.235.235 0 0 0 .062-.178zM8.832 17.2l-6.036-6.035 8.922-8.922 5.513.522.523 5.513L8.833 17.2zM13.75 4.283a1.967 1.967 0 0 0-1.964 1.964c0 1.083.882 1.964 1.964 1.964a1.967 1.967 0 0 0 1.964-1.964 1.967 1.967 0 0 0-1.964-1.964zm0 2.678a.714.714 0 1 1-.001-1.427.714.714 0 0 1 .001 1.427z" fill="#999"/>
</svg>
