<svg width="20" height="20" viewBox="0 0 20 20" fill="none" xmlns="http://www.w3.org/2000/svg">
    <path d="M19.2 1.8H15V.2a.2.2 0 0 0-.2-.2h-1.4a.2.2 0 0 0-.2.2v1.6H6.8V.2a.2.2 0 0 0-.2-.2H5.2a.2.2 0 0 0-.2.2v1.6H.8a.8.8 0 0 0-.8.8v16.6a.8.8 0 0 0 .8.8h18.4a.8.8 0 0 0 .8-.8V2.6a.8.8 0 0 0-.8-.8zm-1 16.4H1.8V3.6H5v1.2c0 .11.09.2.2.2h1.4a.2.2 0 0 0 .2-.2V3.6h6.4v1.2c0 .11.09.2.2.2h1.4a.2.2 0 0 0 .2-.2V3.6h3.2v14.6zM14.4 7.7h-1.38a.406.406 0 0 0-.325.165L8.922 13.06l-1.617-2.225a.403.403 0 0 0-.325-.165H5.6a.2.2 0 0 0-.162.318l3.16 4.35a.403.403 0 0 0 .65 0l5.315-7.318a.202.202 0 0 0-.163-.32z" fill="#999"/>
</svg>
