<svg width="26" height="26" viewBox="0 0 26 26" fill="none" xmlns="http://www.w3.org/2000/svg">
    <path d="M22.942 6.534a10.518 10.518 0 0 0-2.319-3.358A10.76 10.76 0 0 0 17.193.92 10.884 10.884 0 0 0 13 .089c-1.454 0-2.864.278-4.193.827a10.81 10.81 0 0 0-3.43 2.257A10.55 10.55 0 0 0 3.06 6.531a10.306 10.306 0 0 0-.853 4.12c0 2.049.49 4.089 1.453 6.056.775 1.582 1.857 3.123 3.221 4.588 2.33 2.502 4.774 4.03 5.467 4.44a1.274 1.274 0 0 0 1.3 0c.694-.41 3.137-1.938 5.467-4.44 1.364-1.462 2.447-3.006 3.221-4.588.97-1.964 1.46-4.001 1.46-6.053 0-1.427-.287-2.814-.853-4.12zM13 23.686c-1.912-1.216-8.705-6.03-8.705-13.032 0-2.26.902-4.384 2.542-5.986A8.77 8.77 0 0 1 13 2.178a8.76 8.76 0 0 1 6.164 2.493c1.64 1.599 2.542 3.723 2.542 5.983 0 7.002-6.793 11.816-8.706 13.032zm0-17.91a5.107 5.107 0 1 0 0 10.215 5.107 5.107 0 0 0 0-10.215zm2.298 7.406a3.238 3.238 0 0 1-2.298.951c-.867 0-1.683-.339-2.298-.951a3.237 3.237 0 0 1-.952-2.299c0-.867.34-1.683.952-2.298A3.227 3.227 0 0 1 13 7.634c.868 0 1.683.336 2.298.951.616.615.952 1.43.952 2.298 0 .868-.336 1.684-.952 2.299z" fill="#5EA88E"/>
</svg>
