<svg width="20" height="21" viewBox="0 0 20 21" fill="none" xmlns="http://www.w3.org/2000/svg">
    <g clip-path="url(#jydvsl09ea)">
        <path d="M10.537 5.484H9.464a.18.18 0 0 0-.179.179v6.145c0 .058.027.111.074.145l3.69 2.694c.08.058.192.043.25-.038l.638-.87a.176.176 0 0 0-.038-.25l-3.183-2.302V5.663a.18.18 0 0 0-.179-.179zm4.907 1.679 3.5.855a.18.18 0 0 0 .22-.172l.018-3.605a.178.178 0 0 0-.287-.14l-3.518 2.747a.179.179 0 0 0 .067.315zm3.743 6.72-1.266-.434a.179.179 0 0 0-.225.107 7.847 7.847 0 0 1-1.828 2.848 7.88 7.88 0 0 1-5.585 2.315 7.88 7.88 0 0 1-5.585-2.315 7.917 7.917 0 0 1-1.694-2.511 7.89 7.89 0 0 1-.616-3.074c0-1.067.207-2.103.62-3.076a7.843 7.843 0 0 1 1.695-2.511 7.88 7.88 0 0 1 5.582-2.315 7.88 7.88 0 0 1 6.223 3.036l1.335-1.045a9.572 9.572 0 0 0-7.562-3.687 9.58 9.58 0 0 0-9.59 9.696c.054 5.257 4.329 9.5 9.594 9.5 4.14 0 7.668-2.625 9.011-6.301a.182.182 0 0 0-.109-.232z" fill="#999"/>
    </g>
    <defs>
        <clipPath id="jydvsl09ea">
            <path fill="#fff" transform="translate(0 .82)" d="M0 0h20v20H0z"/>
        </clipPath>
    </defs>
</svg>
