<svg width="20" height="20" viewBox="0 0 20 20" fill="none" xmlns="http://www.w3.org/2000/svg">
    <path fill-rule="evenodd" clip-rule="evenodd" d="M7.607 5.641a1.966 1.966 0 0 0-1.966 1.966v8.888a1.966 1.966 0 0 0 1.966 1.966h8.888a1.966 1.966 0 0 0 1.966-1.966V7.607a1.966 1.966 0 0 0-1.966-1.966H7.607zM5.13 5.129a3.505 3.505 0 0 1 2.478-1.026h8.888A3.504 3.504 0 0 1 20 7.607v8.888A3.503 3.503 0 0 1 16.495 20H7.607a3.503 3.503 0 0 1-3.504-3.505V7.607c0-.93.369-1.82 1.026-2.478z" fill="#484848"/>
    <path fill-rule="evenodd" clip-rule="evenodd" d="M2.82 1.538c-.703 0-1.282.58-1.282 1.283v10.255a1.287 1.287 0 0 0 .65 1.114.77.77 0 1 1-.762 1.337A2.825 2.825 0 0 1 0 13.079V2.82A2.827 2.827 0 0 1 2.82 0h10.257c.529 0 .988.14 1.378.423.373.271.631.636.833.998a.77.77 0 0 1-1.345.748c-.15-.27-.276-.417-.392-.501-.1-.072-.234-.13-.474-.13H2.82z" fill="#484848"/>
</svg>
