<svg width="20" height="20" viewBox="0 0 20 20" fill="none" xmlns="http://www.w3.org/2000/svg">
    <path d="M10.537 4.664H9.464a.18.18 0 0 0-.179.178v6.145c0 .059.027.112.074.146l3.69 2.694c.08.058.192.042.25-.038l.638-.87a.176.176 0 0 0-.038-.25l-3.183-2.302V4.842a.18.18 0 0 0-.179-.178zm4.907 1.678 3.5.855a.18.18 0 0 0 .22-.172l.018-3.605a.178.178 0 0 0-.287-.14l-3.518 2.748a.179.179 0 0 0 .067.314zm3.743 6.721-1.266-.435a.178.178 0 0 0-.225.107 7.845 7.845 0 0 1-1.828 2.848 7.88 7.88 0 0 1-5.585 2.315 7.878 7.878 0 0 1-5.585-2.315 7.916 7.916 0 0 1-1.694-2.51 7.89 7.89 0 0 1-.616-3.074c0-1.067.207-2.103.62-3.076a7.843 7.843 0 0 1 1.695-2.511 7.88 7.88 0 0 1 5.582-2.315 7.88 7.88 0 0 1 6.223 3.036l1.335-1.045A9.572 9.572 0 0 0 10.281.4a9.58 9.58 0 0 0-9.59 9.697c.054 5.257 4.329 9.5 9.594 9.5 4.14 0 7.668-2.625 9.011-6.302a.182.182 0 0 0-.109-.232z" fill="#999"/>
</svg>
