<svg width="16" height="20" viewBox="0 0 16 20" fill="none" xmlns="http://www.w3.org/2000/svg">
<path d="M15.8588 15.0028C15.8588 12.5117 14.399 10.3599 12.2874 9.3577V5.65681C12.2874 5.31975 12.1691 4.99386 11.9503 4.73717L8.54855 0.703683C8.40569 0.53404 8.20257 0.449219 8.00168 0.449219C7.80078 0.449219 7.59766 0.53404 7.4548 0.703683L4.05301 4.73717C3.83575 4.99439 3.71637 5.32011 3.71596 5.65681V9.3577C1.60435 10.3599 0.144531 12.5117 0.144531 15.0028H3.63784C3.5865 15.1635 3.55971 15.3376 3.55971 15.534C3.55971 16.0273 3.72935 16.5095 4.03739 16.8912C4.28882 17.2034 4.62182 17.4398 4.99944 17.5742C5.51507 18.7796 6.68694 19.5564 8.00168 19.5564C8.65123 19.5564 9.28069 19.3644 9.81864 19.0028C10.3454 18.6501 10.7539 18.1568 11.0017 17.5742C11.3791 17.4406 11.7122 17.2049 11.9637 16.8934C12.2722 16.5083 12.4406 16.0297 12.4414 15.5363C12.4414 15.3488 12.4169 15.1702 12.3722 15.005H15.8588V15.0028ZM13.5887 12.4448C13.7986 12.7706 13.9682 13.1211 14.091 13.4849H12.1981V11.0452C12.755 11.4086 13.2289 11.8855 13.5887 12.4448ZM5.23382 9.3577V5.69029L8.00168 2.40904L10.7695 5.69029V13.4849H5.23382V9.3577ZM1.91239 13.4849C2.03516 13.1211 2.2048 12.7706 2.41462 12.4448C2.77846 11.8823 3.25167 11.4068 3.80525 11.0452V13.4849H1.91239ZM10.5932 16.0787C10.4771 16.1456 10.3432 16.1724 10.2115 16.1546L9.77623 16.101L9.71373 16.534C9.59319 17.38 8.85659 18.0184 8.00168 18.0184C7.14676 18.0184 6.41016 17.38 6.28962 16.534L6.22712 16.0988L5.79185 16.1546C5.65953 16.1703 5.52565 16.1429 5.41016 16.0765C5.21596 15.9648 5.09542 15.7573 5.09542 15.5318C5.09542 15.2952 5.22712 15.0988 5.42132 15.0006H10.5843C10.7807 15.101 10.9102 15.2974 10.9102 15.5318C10.9079 15.7595 10.7874 15.9693 10.5932 16.0787ZM6.93025 7.50279C6.93025 7.78695 7.04313 8.05947 7.24406 8.26041C7.44499 8.46134 7.71751 8.57422 8.00168 8.57422C8.28584 8.57422 8.55836 8.46134 8.75929 8.26041C8.96022 8.05947 9.0731 7.78695 9.0731 7.50279C9.0731 7.21863 8.96022 6.94611 8.75929 6.74518C8.55836 6.54424 8.28584 6.43136 8.00168 6.43136C7.71751 6.43136 7.44499 6.54424 7.24406 6.74518C7.04313 6.94611 6.93025 7.21863 6.93025 7.50279Z" fill="currentColor"/>
</svg>
