<svg width="18" height="18" viewBox="0 0 18 18" fill="none" xmlns="http://www.w3.org/2000/svg">
<path d="M14.3577 12.3929C13.7215 12.3929 13.1345 12.6161 12.6747 12.9888L8.04967 9.64286C8.12711 9.21778 8.12711 8.78222 8.04967 8.35714L12.6747 5.01116C13.1345 5.38393 13.7215 5.60714 14.3577 5.60714C15.8354 5.60714 17.0363 4.40625 17.0363 2.92857C17.0363 1.45089 15.8354 0.25 14.3577 0.25C12.88 0.25 11.6791 1.45089 11.6791 2.92857C11.6791 3.1875 11.7148 3.43527 11.784 3.67188L7.39118 6.85268C6.7394 5.98884 5.70368 5.42857 4.53627 5.42857C2.56306 5.42857 0.964844 7.02679 0.964844 9C0.964844 10.9732 2.56306 12.5714 4.53627 12.5714C5.70368 12.5714 6.7394 12.0112 7.39118 11.1473L11.784 14.3281C11.7148 14.5647 11.6791 14.8147 11.6791 15.0714C11.6791 16.5491 12.88 17.75 14.3577 17.75C15.8354 17.75 17.0363 16.5491 17.0363 15.0714C17.0363 13.5938 15.8354 12.3929 14.3577 12.3929ZM14.3577 1.76786C14.9983 1.76786 15.5184 2.28795 15.5184 2.92857C15.5184 3.5692 14.9983 4.08929 14.3577 4.08929C13.7171 4.08929 13.197 3.5692 13.197 2.92857C13.197 2.28795 13.7171 1.76786 14.3577 1.76786ZM4.53627 10.9643C3.45368 10.9643 2.57199 10.0826 2.57199 9C2.57199 7.91741 3.45368 7.03572 4.53627 7.03572C5.61886 7.03572 6.50056 7.91741 6.50056 9C6.50056 10.0826 5.61886 10.9643 4.53627 10.9643ZM14.3577 16.2321C13.7171 16.2321 13.197 15.7121 13.197 15.0714C13.197 14.4308 13.7171 13.9107 14.3577 13.9107C14.9983 13.9107 15.5184 14.4308 15.5184 15.0714C15.5184 15.7121 14.9983 16.2321 14.3577 16.2321Z" fill="#5ea88e"/>
</svg>
