<svg width="32" height="32" viewBox="0 0 32 32" fill="#ababab" xmlns="http://www.w3.org/2000/svg">
    <path fill-rule="evenodd" clip-rule="evenodd" d="M16 6.223c-.736 0-1.333.597-1.333 1.333v7.111H7.556a1.333 1.333 0 0 0 0 2.667h7.11v7.11a1.333 1.333 0 0 0 2.667 0v-7.11h7.111a1.333 1.333 0 1 0 0-2.667h-7.11V7.556c0-.736-.598-1.333-1.334-1.333z" fill="#999" style="mix-blend-mode:color-burn"/>
    <path fill-rule="evenodd" clip-rule="evenodd" d="M16 6.223c-.736 0-1.333.597-1.333 1.333v7.111H7.556a1.333 1.333 0 0 0 0 2.667h7.11v7.11a1.333 1.333 0 0 0 2.667 0v-7.11h7.111a1.333 1.333 0 1 0 0-2.667h-7.11V7.556c0-.736-.598-1.333-1.334-1.333z" fill="#999" fill-opacity=".4"/>
</svg>
