<svg width="50" height="50" viewBox="0 0 50 50" fill="none" xmlns="http://www.w3.org/2000/svg">
    <circle cx="25" cy="25" r="25" fill="#0AB378"/>
    <g clip-path="url(#ac8pphpz6a)" fill="#fff">
        <path d="M41.161 25.558c.101.27.184.538.248.803.397 1.64.09 3.197-.942 4.63-1.147 1.593-2.751 2.358-4.72 2.342-.89-.006-1.782 0-2.672 0v.003c-.653 0-1.307-.01-1.96.003-.548.01-1.101-.066-1.645.038-.34.065-.588.269-.668.62-.081.354.018.656.312.884.203.157.429.22.687.22 1.971-.005 3.943-.005 5.914-.002a7.68 7.68 0 0 0 2.456-.386c2.008-.667 3.494-1.953 4.406-3.86 1.011-2.113.997-4.249.015-6.376-.266-.642-.715-1.225-.715-1.225-.144-.176-.285-.355-.437-.523-1.191-1.306-2.64-2.143-4.4-2.4-.206-.03-.276-.118-.271-.314a6.459 6.459 0 0 0-.054-.994c-.305-2.247-1.397-4.018-3.273-5.267-1.506-1.002-3.17-1.428-4.995-1.19a7.594 7.594 0 0 0-2.956 1.026 7.141 7.141 0 0 0-2.4 2.342c-.133.212-.275.303-.51.173-.04-.021-.092-.026-.138-.034-1.068-.191-2.126-.186-3.177.123a6.38 6.38 0 0 0-1.94.925c-1.04.746-1.819 1.71-2.295 2.905-.069.172-.164.218-.342.209-1-.057-1.978.06-2.937.375-3.445 1.13-5.607 4.722-4.976 8.288.35 1.984 1.358 3.56 2.957 4.76 1.353 1.015 2.908 1.429 4.578 1.438 1.933.011 3.867.002 5.8.002.076 0 .152.004.227-.004.369-.038.745-.334.83-.65.098-.368-.048-.736-.388-.962-.235-.155-.505-.149-.77-.149-1.971-.002-3.943-.007-5.914.002a5.254 5.254 0 0 1-1.788-.285c-1.59-.56-2.757-1.604-3.418-3.172-.66-1.561-.62-3.118.093-4.656.306-.66.752-1.197 1.276-1.707a5.32 5.32 0 0 1 2.322-1.336 5.52 5.52 0 0 1 2.699-.09c.628.134.998-.114 1.16-.738.29-1.116.87-2.044 1.801-2.72 1.48-1.074 3.082-1.218 4.765-.54.25.1.467.091.708-.013.291-.126.41-.381.536-.636 1.14-2.302 3.49-3.51 6.056-3.101 1.614.258 2.864 1.114 3.765 2.464.785 1.175 1.073 2.489.886 3.884-.116.863.172 1.231 1.04 1.269 1.614.07 2.995.677 4.097 1.881.001.003.763.931 1.067 1.721z"/>
        <path d="M26.314 25.58c.562.565 1.127 1.125 1.689 1.69.744.745 1.488 1.488 2.227 2.237.425.432.445.9.067 1.28-.372.374-.896.356-1.315-.06-.943-.933-1.879-1.874-2.818-2.812-.064-.063-.117-.183-.22-.133-.081.039-.043.155-.043.237-.002 1.425-.001 2.85-.001 4.273 0 1.416.005 2.83-.002 4.245-.004.691-.597 1.129-1.215.905-.322-.116-.505-.362-.567-.693a2.3 2.3 0 0 1-.028-.425v-8.118c0-.085.002-.17-.003-.256-.004-.063.025-.147-.053-.177-.072-.027-.117.044-.162.089-.49.49-.976.981-1.465 1.47-.475.476-.943.962-1.432 1.423-.54.51-1.276.332-1.506-.346-.12-.356.027-.637.265-.875a1269.88 1269.88 0 0 1 4.795-4.776s.53-.45.98 0l.807.822z"/>
    </g>
    <defs>
        <clipPath id="ac8pphpz6a">
            <path fill="#fff" transform="translate(6.667 12.5)" d="M0 0h36.667v25H0z"/>
        </clipPath>
    </defs>
</svg>
