<svg width="60" height="60" viewBox="0 0 60 60" fill="none" xmlns="http://www.w3.org/2000/svg">
    <g clip-path="url(#tadprr6qsa)" fill="#484848">
        <path d="M.003 38.503c-.003-.11.003-.22.003-.33C.003 26.758 0 15.34 0 3.92c0-.825.003-1.65.003-2.478C.006.104.947.04 2.709.028c3.76-.03 6.533-.03 9.845-.028 1.699 0 2.6.098 2.615 1.421.012.997.015 1.993-.003 2.99-.006.348.11.47.46.464 1.108-.018 2.216-.003 3.327-.064.383-.022.77.055 1.157.055 8.517.003 17.035.003 25.55.003.157 0 .313-.003.47.003.887.024 1.416.556 1.426 1.452.009 1.045.012 2.09-.003 3.132-.007.336.11.44.44.434.993-.018 1.986.03 2.975-.015 1.43-.067 1.34 1.027 1.373 2.742.085 4.364.015 5.543.046 9.092.012 1.424-.457 2.289-1.577 1.98-.551-.153-.929-.642-.929-1.247-.003-2.659 0-5.32 0-7.98 0-.51-.015-1.02.003-1.53.01-.325-.13-.444-.435-.407-.06.006-.122 0-.183 0H31.954l-3.272.003c-.098 0-.195-.003-.29-.003H11.627l-1.072.006a.378.378 0 0 0-.377.379v1.43c-.006.135-.006.266-.006.4 0 4.872.003 9.74-.004 14.612 0 .492-.036.994-.02 1.48.063 2.42-.025 4.84.03 7.258.03 1.382-.26 2.674-.902 3.89-.203.389-.188.407.262.407 4.259 0 8.518.003 12.777-.003.359 0 .7.04 1.004.248.46.312.652.874.49 1.445-.155.541-.63.905-1.22.905-2.262.006-4.524.003-6.789.003-3.412 0-6.825-.052-10.234.021-1.982.043-3.285-.91-4.308-2.457a8.298 8.298 0 0 1-.76-1.485 9.888 9.888 0 0 1-.494-2.561zm2.691-17.57c0 5.904-.01 11.806.006 17.71.003 1.327.545 2.451 1.51 3.353.502.47 1.2.486 1.717.034.965-.85 1.522-1.929 1.543-3.215.037-2.366.013-4.735.013-7.103 0-6.73.006-13.46-.007-20.19-.003-.969.506-1.653 1.638-1.65 11.723.024 23.45.015 35.172.015.11 0 .22-.009.326 0 .207.019.27-.073.265-.278-.013-.51-.006-1.02-.006-1.531-.003-.562-.003-.562-.557-.562-10.116 0-20.229-.01-30.344.009a1.457 1.457 0 0 1-1.498-1.5c.033-.985.009-1.97.009-2.953 0-.529-.003-.529-.52-.529H3.247c-.554 0-.554 0-.554.572v17.818z"/>
        <path d="M43.708 59.998c-8.94.076-16.292-7.4-16.277-16.324.015-8.991 7.427-16.314 16.325-16.308 8.838.01 16.287 7.36 16.244 16.41-.04 8.856-7.343 16.304-16.292 16.222zm5.044-29.028c-2.384-.899-4.813-1.168-7.337-.743-2.593.437-4.864 1.537-6.791 3.3-2.968 2.718-4.469 6.125-4.502 10.166.009 2.481.502 4.486 1.72 6.656 1.975 3.524 4.956 5.743 8.861 6.681 2.14.517 4.283.462 6.423-.1 1.769-.468 3.385-1.22 4.828-2.342 3.504-2.73 5.276-6.345 5.392-10.77a12.56 12.56 0 0 0-.405-3.423c-.838-3.32-2.673-5.932-5.431-7.925-1.538-1.112-2.758-1.5-2.758-1.5z"/>
        <path d="M49.802 51.262c-.268.03-.584-.19-.868-.47-1.08-1.076-2.155-2.155-3.232-3.234-.573-.575-1.154-1.14-1.717-1.724-.201-.21-.335-.195-.533.003-1.629 1.645-3.264 3.283-4.898 4.921-.496.498-1.084.633-1.617.382-.864-.41-1.035-1.452-.34-2.152 1.235-1.25 2.477-2.487 3.72-3.731.429-.428.849-.865 1.284-1.287.189-.183.2-.318.006-.507-.901-.877-1.79-1.773-2.682-2.66-.806-.8-1.616-1.6-2.39-2.438-.52-.566-.502-1.33.004-1.84a1.31 1.31 0 0 1 1.863-.024c.8.758 1.567 1.546 2.347 2.329.91.91 1.823 1.821 2.721 2.74.198.206.32.206.52 0 1.65-1.67 3.313-3.333 4.975-4.996.46-.459 1.032-.565 1.561-.312.484.233.789.792.734 1.351-.036.391-.274.663-.533.926-1.616 1.623-3.226 3.249-4.852 4.863-.222.22-.243.345-.01.577a262.262 262.262 0 0 1 3.897 3.912c.43.44.92.822 1.276 1.336.28.406.313.831.103 1.274-.231.492-.636.734-1.34.761z"/>
    </g>
    <defs>
        <clipPath id="tadprr6qsa">
            <path fill="#fff" d="M0 0h60v60H0z"/>
        </clipPath>
    </defs>
</svg>
