<svg width="24" height="24" viewBox="0 0 24 24" fill="none" xmlns="http://www.w3.org/2000/svg">
    <g clip-path="url(#l0uj7zk4la)" fill="#fff">
        <path d="M13.634 9.562c-.618 0-1.098.48-1.098 1.072 0 .592.48 1.071 1.098 1.071.566 0 1.045-.48 1.045-1.071 0-.592-.48-1.072-1.045-1.072zm-7.5 0c-.618 0-1.098.48-1.098 1.072 0 .592.48 1.071 1.098 1.071.565 0 1.045-.48 1.045-1.071 0-.592-.48-1.072-1.045-1.072z"/>
        <path d="M22.232 7.525a9.212 9.212 0 0 0-5.063-3.483v.003a9.826 9.826 0 0 0-1.553-1.395C11.23-.538 5.076.434 1.875 4.82c-2.58 3.562-2.47 8.354.16 11.758l.022 3.552a.856.856 0 0 0 1.114.812l3.391-1.07a9.83 9.83 0 0 0 2.746.553l-.014.01a9.308 9.308 0 0 0 8.384 1.313l3.405 1.109a.856.856 0 0 0 1.122-.814v-3.59a9.264 9.264 0 0 0 .027-10.928zM6.937 17.97l-.321-.134-2.652.83-.027-2.785-.214-.241c-2.266-2.765-2.416-6.748-.295-9.67C6.01 2.43 10.96 1.648 14.491 4.203c3.54 2.574 4.326 7.516 1.768 11.036a7.964 7.964 0 0 1-9.322 2.732zm13.527-.455-.214.268.026 2.785-2.625-.884-.321.134c-1.5.557-3.1.603-4.58.188l-.006-.003a9.838 9.838 0 0 0 5.068-3.613 9.826 9.826 0 0 0 1.19-9.386l.015.01a7.234 7.234 0 0 1 1.661 1.661 7.271 7.271 0 0 1-.214 8.84z"/>
        <path d="M9.884 9.562c-.618 0-1.098.48-1.098 1.072 0 .592.48 1.071 1.098 1.071.566 0 1.045-.48 1.045-1.071 0-.592-.48-1.072-1.045-1.072z"/>
    </g>
    <defs>
        <clipPath id="l0uj7zk4la">
            <path fill="#fff" d="M0 0h24v24H0z"/>
        </clipPath>
    </defs>
</svg>
