<svg width="139" height="139" viewBox="0 0 139 139" fill="none" xmlns="http://www.w3.org/2000/svg">
    <circle cx="69.5" cy="69.5" r="69.5" fill="#fff"/>
    <g clip-path="url(#wj8zf75r2a)">
        <path d="M41.272 45.743c.445-.005.653.166.648.626-.02 2.138.235 1.737-1.662 1.785-.886.02-1.778-.09-2.66.061-1.297.223-2.069 1.16-2.071 2.48-.005 4.937-.003 9.875-.003 14.813 0 1.5.01 3.003-.005 4.503-.007.657.128 1.295.003 1.975-.133.702-.005 1.453.002 2.18.005.712.003 1.423.003 2.134V87.086c.002.877.002.88.897.88h66.059c1.004 0 1.004 0 1.004-1.013 0-4.326-.009-8.652.01-12.976l-.01-6.523c0-5.53-.009-11.06.008-16.591.002-1.045-.372-1.835-1.265-2.375-.438-.266-.928-.323-1.423-.33-.829-.01-1.658-.028-2.487.005-.532.021-.708-.228-.694-.706.012-.434.038-.868.029-1.3-.007-.334.187-.405.45-.405 1.203.003 2.418-.09 3.609.036 2.363.246 4.262 2.278 4.269 4.817.019 5.807.007 11.612.007 17.42 0 8.593-.014 17.183.01 25.776.005 2.072-1.284 3.904-3.183 4.706-.634.267-1.323.362-2.024.362-7.519-.007-15.035-.004-22.554-.002-.902 0-.902.002-.902.92 0 .988.026 1.977-.01 2.963-.02.566.171.753.742.749 2.96-.024 5.92-.012 8.88-.01.871 0 .914.041.912.894-.008 1.842.17 1.607-1.615 1.609-11.365.008-22.731.01-34.096.012-1.001 0-.999 0-1.001-1.024-.007-1.654-.043-1.484 1.465-1.486 2.724-.002 5.447 0 8.17-.002.746 0 .78-.034.78-.759.002-1.026-.003-2.055-.008-3.082-.002-.775-.014-.784-.805-.784-6.827 0-13.654.002-20.481-.005-.985 0-1.968.038-2.953-.095-2.532-.341-4.275-2.41-4.282-4.748-.028-6.559-.011-13.118-.011-19.674 0-7.82.035-15.64-.024-23.46-.021-2.826 2.247-5.301 5.134-5.145l3.138.003zm28.17 50.63v-.012c10.455 0 20.912-.021 31.367.026 1.4.007 2.823-1.15 2.69-2.704-.064-.745-.009-1.5-.009-2.25 0-.953 0-.955-.931-.955H77.008c-9.41 0-18.82-.005-28.23.005-1.044 0-2.093.078-3.13.045-3.176-.1-6.351-.003-9.525-.053-.43-.007-.601.176-.596.6.014.967-.005 1.934.007 2.904a2.418 2.418 0 0 0 2.37 2.38c.947.014 1.892.017 2.84.017 9.564-.003 19.131-.003 28.698-.003zm.028 2.49c-1.596 0-3.192.009-4.785-.008-.458-.005-.635.164-.626.623.022 1.143.022 2.288.007 3.43-.004.441.188.584.607.581 3.19-.009 6.382-.009 9.571 0 .429 0 .602-.168.597-.597-.014-1.083-.03-2.169.007-3.252.02-.584-.159-.806-.767-.792-1.54.038-3.076.014-4.61.014z" fill="#484848"/>
        <path d="M91.162 60.63v-23.7c0-.856-.003-.858-.841-.858H58.949c-.81 0-.812.002-.812.83-.003 2.962 0 5.926-.005 8.886 0 .818-.028.842-.826.844-2.88.003-5.762 0-8.642.003-.819 0-.821.002-.821.817v36.56c0 .197-.017.396.002.592.047.522-.184.69-.694.676-1.593-.04-1.444.192-1.444-1.41-.002-12.502.005-25.004-.014-37.508 0-.854.263-1.498.855-2.11 3.066-3.157 6.11-6.336 9.143-9.524.487-.515 1.023-.728 1.723-.728 11.642.012 23.283.007 34.925.01.937 0 .959.023.959.964.002 3.871.002 7.742.002 11.613v31.724c0 2.034.002 4.065 0 6.099 0 .832-.021.856-.874.851-1.345-.01-1.262.173-1.262-1.285-.002-7.782-.002-15.564-.002-23.346zM55.989 37.672a8.314 8.314 0 0 0-.14-.076c-2.171 2.276-4.34 4.554-6.512 6.83.03.047.062.096.09.144h6.14c.301 0 .422-.164.422-.448v-6.45z" fill="#0AB378"/>
        <path d="M67.661 69.74c-.22-.02-.291-.174-.308-.368-.002-.04-.007-.079-.007-.119-.005-1.825-.168-1.552 1.457-1.562 2.226-.012 4.454-.002 6.68-.002 2.444 0 4.888-.003 7.331 0 .765 0 .798.033.796.806-.002 1.429.097 1.249-1.22 1.251-3.21.007-6.424.017-9.635-.01l-5.094.003zM77.444 77.173h-9.227c-.857 0-.873-.016-.873-.848.002-1.38-.126-1.288 1.267-1.288h18.037c.912 0 .957.048.962.98 0 .137-.012.277.002.414.057.574-.213.754-.765.752-3.133-.02-6.268-.01-9.403-.01zM79.772 51.605c-3.887-.007-7.773-.002-11.656-.005-.73 0-.77-.04-.77-.772.003-1.375-.132-1.278 1.274-1.28h18.106c.836 0 .881.047.886.858.003.178-.007.355 0 .533.024.531-.194.702-.748.69l-7.093-.024zM77.441 64.394h-9.226c-.86 0-.869-.007-.869-.848 0-1.325-.092-1.214 1.215-1.214 6.034-.002 12.065-.002 18.099.005.31 0 .765-.162.879.263.142.526.189 1.104-.045 1.621-.121.268-.46.168-.706.17-3.117.006-6.233.003-9.347.003zM75.452 82.61c-2.406 0-4.812.003-7.218 0-.838 0-.89-.049-.888-.853.003-1.384-.135-1.275 1.272-1.277 4.712-.003 9.427 0 14.14 0 .847 0 .852.01.857.86.005 1.27.005 1.27-1.239 1.27-2.309.003-4.615.003-6.924 0zM75.419 57.044c-2.425 0-4.85.002-7.277 0-.765 0-.798-.036-.798-.806.002-1.333-.135-1.243 1.246-1.243h14.196c.808 0 .824.017.824.832-.002 1.302.111 1.217-1.212 1.219-2.326-.002-4.651-.002-6.98-.002zM55.236 69.93c-.374-.065-.722-.21-.98-.496a205.38 205.38 0 0 1-2.861-3.236c-.455-.526-.41-1.045.06-1.46.414-.363 1.089-.344 1.503.095.582.616 1.122 1.273 1.693 1.898.471.517.495.513.916-.05 1.045-1.386 2.082-2.777 3.126-4.162.493-.654 1.083-.784 1.613-.367.52.408.552.96.066 1.617-1.326 1.792-2.66 3.577-3.995 5.361-.288.384-.634.705-1.141.8zM60.72 76.668c-.019.28-.12.515-.274.723-1.374 1.854-2.735 3.72-4.137 5.554-.67.877-1.445.892-2.186.083a119.296 119.296 0 0 1-2.666-3.015c-.621-.723-.427-1.453.435-1.77.497-.183.843.094 1.14.412.58.618 1.14 1.256 1.69 1.903.294.346.478.351.762-.033 1.073-1.465 2.18-2.906 3.273-4.355.31-.41.69-.644 1.227-.462.466.159.682.503.736.96zM52.165 51.767c.428-.01.724.182.985.488.535.633 1.099 1.242 1.631 1.875.249.294.405.348.663-.01.936-1.296 1.897-2.574 2.856-3.854.202-.268.41-.533.647-.768.41-.405.975-.424 1.39-.08.412.341.507.89.166 1.386-.526.764-1.095 1.498-1.649 2.24-.85 1.138-1.747 2.245-2.543 3.419-.533.787-1.615.85-2.23.047-.837-1.093-1.81-2.081-2.714-3.127-.254-.294-.408-.614-.18-1.026.225-.403.532-.614.978-.59z" fill="#0AB378"/>
        <path d="M69.55 92.664c.81 0 1.618.012 2.428-.005.429-.007.587.176.606.598.064 1.465.076 1.462-1.411 1.462-1.34 0-2.683-.016-4.023.007-.54.01-.725-.204-.727-.734-.008-1.33-.026-1.33 1.295-1.33.608.002 1.22.002 1.833.002z" fill="#484848"/>
    </g>
    <defs>
        <clipPath id="wj8zf75r2a">
            <path fill="#fff" transform="translate(33 34)" d="M0 0h73v72H0z"/>
        </clipPath>
    </defs>
</svg>
