<svg width="139" height="139" viewBox="0 0 139 139" fill="none" xmlns="http://www.w3.org/2000/svg">
    <circle cx="69.5" cy="69.5" r="69.5" fill="#fff"/>
    <g clip-path="url(#cn7b806zda)">
        <path d="M30.063 72.608c0 6.486-.007 12.973.005 19.459.005 2.475.142 2.604 2.675 2.607 8.584.007 17.165.017 25.749-.01 1.847-.005 3.41.215 3.673 2.498.112.974.895 1.075 1.676 1.078 2.635.007 5.272-.008 7.907.007 1.01.005 1.666-.305 1.81-1.437.198-1.561 1.269-2.146 2.726-2.121 9.115.166 18.236-.422 27.343.317 1.614.131 2.196-.342 2.137-2.181-.196-6.208-.139-12.425-.136-18.638 0-.88.193-1.968 1.303-1.973 1.24-.005 1.108 1.155 1.116 2.003.062 6.212.161 12.427.096 18.64-.014 1.413.457 1.728 1.696 1.817 2.811.2 3.329.813 3.416 3.647.151 4.944-1.991 6.815-7.013 6.555-3.767-.196-7.555.047-11.33.109-3.956.065-7.94-.109-11.91-.116-18.045-.04-36.09-.02-54.133-.023-5.449 0-8.01-3.506-6.396-8.728.343-1.105 1.168-1.516 2.177-1.405 2.28.248 2.67-.92 2.66-2.897-.063-12.836-.035-25.676-.03-38.512 0-1.351-.028-2.716.808-3.898.89-1.26 2.12-1.795 3.646-1.795 9.057.01 18.112 0 27.17.015.53 0 1.08.082 1.583.245.479.157.746.588.717 1.113-.03.538-.362.897-.875.97-.667.09-1.344.123-2.018.123-8.514.008-17.031-.002-25.546.01-2.446.002-2.694.245-2.702 2.659-.012 6.62 0 13.24 0 19.862zm78.366 29.785c1.435.193 2.652-1.502 2.654-3.46.003-1.695-1.103-1.59-2.332-1.724-3.386-.374-6.728.483-10.094.218-6.947-.55-13.903-.124-20.853-.243-.883-.015-1.567.206-1.787 1.237-.365 1.705-1.763 2.21-3.213 2.257-3.306.107-6.618.089-9.925.01-1.299-.032-2.741-.406-3.086-1.841-.364-1.522-1.261-1.685-2.51-1.683-10.064.015-20.128.003-30.192.022-.902.003-2.06-.24-2.412.957-.332 1.128-.18 2.258.62 3.249.786.974 1.84 1.004 2.938 1.004 7.228-.005 14.453 0 21.681 0 19.505-.003 39.008-.003 58.511-.003z" fill="#484848"/>
        <path d="M91.434 35.002c6.752 0 13.507-.005 20.259.003 4.075.005 5.235 1.142 5.238 5.12.005 7.156-.147 14.318.062 21.468.104 3.61-1.525 5.407-5.595 5.437-9.927.072-19.86.218-29.78-.067-4.255-.122-7.793.81-10.866 3.69-.684.641-1.47 1.184-2.239 1.73-1.457 1.035-2.347.656-2.637-1.14-.097-.595-.08-1.212-.08-1.82-.004-9.654-.01-19.31 0-28.964.006-4.272 1.178-5.452 5.375-5.457 6.757-.005 13.509 0 20.263 0zm.236 2.488c-6.618 0-13.24-.002-19.857.003-3.205.002-3.56.352-3.565 3.635-.012 7.767-.037 15.53.025 23.297.012 1.428-.783 3.52.516 4.134 1.19.565 2.454-1.242 3.628-2.094 1.356-.984 2.586-2.102 4.48-2.072 11.68.19 23.359.265 35.039-.092 1.978-.06 2.558-.842 2.543-2.7-.062-7.158-.015-14.317-.03-21.474-.005-2.404-.243-2.627-2.716-2.632-6.69-.012-13.378-.005-20.063-.005z" fill="#0AB378"/>
        <path d="M54.308 77.733c5.398 2.31 7.634 6.332 7.389 11.833a7.231 7.231 0 0 1-.273 1.589c-.134.473-.441.84-.989.89-.664.059-.984-.382-1.197-.898-.483-1.164-.357-2.406-.295-3.608.226-4.294-3.225-7.206-6.926-7.638-3.162-.366-7.295 2.432-7.671 6.62-.114 1.276-.042 2.567-.08 3.848-.024.887-.304 1.685-1.353 1.66-1.009-.024-1.024-.88-1.093-1.638-.498-5.471.977-9.905 6.42-12.269.166-.072.282-.255.57-.525-2.437-1.338-4.338-3.103-4.893-5.853-.322-1.591-.33-3.225.337-4.78 1.406-3.294 4.824-5.44 8.182-5.133 3.037.28 6.264 3.147 7.003 6.22.922 3.854-.66 6.964-5.131 9.682zm-8.004-7.781c.015 3.11 2.43 5.59 5.421 5.568 2.895-.022 5.513-2.708 5.485-5.635-.03-2.996-2.572-5.529-5.57-5.546-3.016-.015-5.35 2.44-5.336 5.613z" fill="#484848"/>
        <path d="M80.57 53.174a2.912 2.912 0 1 0 0-5.824 2.912 2.912 0 0 0 0 5.824zM92.63 53.174a2.912 2.912 0 1 0 0-5.824 2.912 2.912 0 0 0 0 5.824zM104.688 53.174a2.912 2.912 0 1 0 .002-5.824 2.912 2.912 0 0 0-.002 5.824z" fill="#0AB378"/>
    </g>
    <defs>
        <clipPath id="cn7b806zda">
            <path fill="#fff" transform="translate(22 35)" d="M0 0h95v70H0z"/>
        </clipPath>
    </defs>
</svg>
