<svg width="139" height="139" viewBox="0 0 139 139" fill="none" xmlns="http://www.w3.org/2000/svg">
    <circle cx="69.5" cy="69.5" r="69.5" fill="#fff"/>
    <g clip-path="url(#5u1z3hc4sa)">
        <path d="M73.351 78.384c.466.566 1.08.692 1.78.687 3.97-.019 7.941-.01 11.912-.01.784 0 .816.033.816.804.005 2.346-.014 4.696.014 7.041.01.617-.17.818-.803.855-2.499.15-4.998.379-7.309 1.477-1.342.64-2.48 1.5-2.817 3.116-.932 4.466-1.891 8.924-2.837 13.385-.258 1.21-.525 2.416-.756 3.626-.161.869.185 1.444.895 1.602.632.141 1.222-.285 1.452-1.055.033-.099.065-.201.083-.304.342-1.598.683-3.191 1.02-4.789.765-3.644 1.558-7.284 2.268-10.937.25-1.295.844-2.159 2.076-2.63 1.462-.561 2.983-.81 4.524-.982 1.13-.126 2.264-.159 3.403-.154.64.005 1.167-.481 1.217-1.037.033-.397.056-.795.06-1.192.005-2.766.051-5.531-.032-8.297-.032-1.014.304-1.687 1.015-2.322a29.315 29.315 0 0 0 2.232-2.262c.654-.728.46-1.649-.374-2.023-.595-.266-1.042.028-1.443.425-.886.883-1.776 1.762-2.629 2.668-.373.397-.78.556-1.314.556-4.012-.014-8.024-.01-12.036-.01-.185 0-.374.005-.558-.027-.31-.06-.701-.864-.595-1.06.184-.234.281-.225.58-.225 3.33-.014 6.66-.023 9.99 0 .719.005 1.18-.294 1.484-.911.84-1.691 1.877-3.257 3.16-4.635.756-.817 1.535-1.714 2.757-1.766 1.402-.056 2.813-.032 4.22 0 1.023.023 1.77.729 1.987 1.752.092.435.101.874.101 1.313V89.42c0 .986.023 1.971-.009 2.953-.041 1.42-.585 2.733-2.68 2.677-3.43-.094-6.866-.028-10.297-.024-.959 0-1.434.346-1.683 1.248-.738 2.663-1.457 5.326-2.186 7.989-.466 1.696-.931 3.387-1.392 5.083-.194.715.11 1.322.77 1.565.58.211 1.176-.056 1.485-.686.092-.187.156-.388.207-.589 1.02-3.775 2.052-7.55 3.04-11.335.16-.621.447-.775 1.032-.77 3.02.023 6.041.009 9.057.013.604 0 1.2-.055 1.771-.252 2.011-.7 3.265-2.448 3.27-4.62.013-3.729.004-7.462.004-11.19 0-3.71.009-7.42-.004-11.13-.005-2.48-1.587-4.363-3.994-4.779-1.397-.238-2.808-.07-4.21-.112-1.07-.032-2.039.318-2.924.893-2.246 1.453-3.712 3.611-5.04 5.868-.305.518-.628.672-1.181.668-3.164-.019-6.327-.005-9.495-.014-.752 0-1.61.047-2.03.63-.71 1.02-.419.865.946 4.878zM36.717 81.388c0-3.625.041-7.25-.014-10.872-.046-3.018 2.163-4.933 4.907-5.031a49.542 49.542 0 0 1 3.537 0c1.909.07 3.334 1.14 4.602 2.453 1.264 1.308 2.315 2.789 3.191 4.387.236.425.508.584.978.584 3.187-.014 6.368-.01 9.555-.01.392 0 .77.056 1.162.154 1.716.421 2.057 1.995 1.38 3.355-.273.537-.614 1.042-.965 1.532-.567.795-1.296 1.164-2.324 1.15-3.887-.052-7.775-.023-11.663-.023-.917 0-.917.004-.917.953v6.854c0 .84.014.822.816.883 2.352.177 4.694.392 6.913 1.317 1.821.762 3.002 1.967 3.394 4.041.738 3.925 1.637 7.822 2.462 11.732.305 1.434.59 2.869.881 4.303.037.182.07.374.074.561.023.682-.332 1.154-.945 1.275-.558.112-1.2-.233-1.352-.841-.304-1.196-.548-2.406-.807-3.611-.963-4.5-1.927-8.999-2.873-13.503-.143-.691-.58-1.107-1.139-1.401-1.203-.636-2.5-.925-3.841-1.13-1.614-.253-3.228-.323-4.856-.37-.793-.023-1.204-.589-1.204-1.523-.004-3.037-.041-6.079.023-9.115.019-.916-.295-1.528-.917-2.112a38.181 38.181 0 0 1-2.325-2.346c-.659-.724-.46-1.649.374-2.023.595-.266 1.042.028 1.443.426.886.878 1.776 1.761 2.629 2.667.374.397.78.556 1.314.556 4.012-.014 8.024-.028 12.036.01.701.004 1.061-.332 1.38-.855.184-.304.124-.472-.245-.482-.166-.004-.332-.004-.498-.004-3.311 0-6.618-.024-9.929.014-.853.01-1.333-.36-1.702-1.08-.959-1.868-2.12-3.588-3.629-5.05-.834-.813-1.766-1.322-2.997-1.224-1.07.084-2.15.005-3.224.023-1.208.024-1.978.687-2.195 1.883-.194 1.08-.06 2.173-.074 3.261-.027 2.154-.009 4.313-.009 6.466 0 4.15-.005 8.298.005 12.447 0 .374.037.752.106 1.121.226 1.243.945 1.855 2.186 1.86 3.472.004 6.95.004 10.422.004 1.3 0 1.655.215 2.015 1.472.715 2.495 1.37 5.004 2.052 7.508.47 1.738.94 3.472 1.42 5.205.231.832-.06 1.486-.77 1.715-.659.214-1.305-.164-1.55-.977-.363-1.201-.682-2.415-1.009-3.625-.733-2.729-1.476-5.453-2.181-8.19-.13-.51-.392-.603-.84-.603-3.103.009-6.202.009-9.306.004-1.102 0-2.144-.252-3.03-.939-1.277-.995-1.9-2.35-1.909-3.976-.027-3.76-.018-7.508-.018-11.26z" fill="#000"/>
        <path d="M68.555 44.24a10.835 10.835 0 0 1-5.022 2.164c-1.346.21-2.716.233-4.063-.047-.475-.098-.917-.126-1.392.042-1.638.575-3.288 1.117-4.94 1.658-.212.07-.442.094-.668.108-.507.033-.885-.206-1.107-.659-.226-.467-.129-.91.217-1.275.627-.664 1.254-1.337 1.932-1.953.434-.397.397-.664.005-1.056-1.37-1.383-2.19-3.051-2.255-5.023-.115-3.406 1.563-5.826 4.32-7.531 2.897-1.79 6.065-2.056 9.275-1.191 2.845.766 5.146 2.415 6.391 5.228 1.08 2.443.895 4.85-.512 7.134-.184.299-.332.626-.632 1.01-.332.41-.894.92-1.549 1.391zm4.113 2.94c1.365.392 2.684.443 4.013.111.737-.182 1.461-.29 2.176.08.254.13.53.158.526-.234-.005-.635.383-.972.82-1.317 1.31-1.038 2.302-2.271 2.5-4.032.208-1.874-.429-3.42-1.752-4.682-1.84-1.752-4.077-2.41-6.553-2.285-.609.033-.992-.107-1.14-.738-.045-.2-.165-.383-.253-.57-.424-.948-.429-1 .586-1.074 3.989-.3 7.489.785 10.02 4.074 2.191 2.845 2.196 6.466-.124 9.451-.194.248-.369.519-.608.71-.42.342-.3.599.027.912.6.579 1.18 1.177 1.757 1.775.604.626.701 1.065.37 1.607-.342.556-.942.72-1.703.463-1.332-.453-2.683-.855-3.989-1.374-1.07-.43-2.12-.364-3.218-.233-2.86.34-5.497-.323-7.886-1.958-.641-.44-.641-.523.06-.878.53-.271.78-.64.72-1.248l3.651 1.44zM61.495 44.1a8.805 8.805 0 0 0 5.054-1.378c3.431-2.145 3.924-6.275 1.065-9.04-3.076-2.981-8.96-3.014-12.04-.033-1.342 1.299-2.145 2.86-1.845 4.826.267 1.733 1.185 3.05 2.578 4.046.429.304.788.654.742 1.215-.032.406.106.402.415.318.512-.14 1.001-.402 1.568-.243a7.891 7.891 0 0 0 2.463.29z" fill="#0AB378"/>
        <path d="M104.977 79.285c.018 1.594.005 3.182.005 4.775 0 2.64.009 5.28-.005 7.92-.009 1.868-.332 3.662-1.282 5.302-1.204 2.075-2.979 3.332-5.303 3.757-.586.107-.743.359-.738.911.018 2.387.01 4.775.004 7.162 0 .29-.004.589-.064.874-.13.617-.613 1.018-1.176 1.009-.577-.005-1.098-.463-1.204-1.075-.037-.224-.032-.457-.032-.686v-7.163c0-.845-.01-.855-.816-.855-1.656-.004-3.307 0-4.962 0-.946-.004-1.48-.406-1.508-1.126-.032-.72.549-1.261 1.47-1.27 2.357-.024 4.714-.02 7.07-.01 1.287.005 2.518-.229 3.588-.995 1.734-1.243 2.43-3.05 2.467-5.102.06-3.644.019-7.288.019-10.933V70.722c0-.809.281-1.257.862-1.425.724-.21 1.384.182 1.527.953.184 1.018.055 2.046.083 3.074l-.005 5.961zM35.495 73.582c0 6.382-.028 12.769.014 19.15.014 2.164.807 4.014 2.679 5.233.968.626 2.061.837 3.196.841 2.246.005 4.496 0 6.742.005.267 0 .54 0 .802.037.724.108 1.195.612 1.176 1.234-.023.663-.53 1.121-1.314 1.13-1.715.014-3.431.005-5.146.005-.785 0-.969.159-.909.953.18 2.406.028 4.812.083 7.219.01.383-.018.752-.258 1.074-.282.383-.66.584-1.125.519-.462-.066-.798-.327-.974-.78-.105-.276-.129-.57-.124-.865.028-1.962.097-3.924.06-5.887-.01-.598.074-1.205-.041-1.803-.065-.336-.208-.519-.55-.57-4.127-.617-6.538-4.238-6.7-7.891-.212-4.836-.041-9.676-.092-14.512-.028-2.513-.005-5.022.005-7.536 0-.27.004-.547.05-.813.13-.733.614-1.126 1.287-1.08.669.048 1.111.515 1.125 1.253.023 1.028.01 2.056.014 3.084-.005 0-.005 0 0 0zM90.935 50.744c3.555-.117 6.696 2.854 6.705 6.68.01 3.757-3.011 6.845-6.756 6.803-3.74-.042-6.677-3.163-6.645-6.784.037-3.737 2.97-6.704 6.696-6.7zm.055 2.406c-2.444-.01-4.358 1.901-4.349 4.345.01 2.294 1.965 4.293 4.234 4.317 2.37.028 4.302-1.916 4.312-4.322.009-2.43-1.831-4.331-4.197-4.34zM47.065 50.74c3.731 0 6.678 2.952 6.682 6.694.005 3.752-2.988 6.794-6.691 6.794-3.639 0-6.719-3.08-6.71-6.738.014-3.92 3.339-6.919 6.72-6.75zm.037 2.41c-2.398-.005-4.275 1.855-4.284 4.247-.01 2.471 1.886 4.424 4.284 4.415 2.31-.01 4.284-2.023 4.261-4.35-.032-2.415-1.9-4.307-4.26-4.312zM69.002 83.336H54.176c-.415 0-.825 0-1.18-.285-.35-.285-.55-.645-.475-1.093.069-.435.318-.766.747-.93.373-.14.756-.2 1.153-.2 9.758.004 19.52.004 29.278 0 .337 0 .655.041.969.172.54.22.862.612.807 1.2-.056.608-.448.977-1.033 1.099-.24.051-.494.032-.743.032-4.897.005-9.795.005-14.697.005z" fill="#000"/>
    </g>
    <defs>
        <clipPath id="5u1z3hc4sa">
            <path fill="#fff" transform="translate(33 29)" d="M0 0h72v82H0z"/>
        </clipPath>
    </defs>
</svg>
