<svg width="139" height="139" viewBox="0 0 139 139" fill="none" xmlns="http://www.w3.org/2000/svg">
    <circle cx="69.5" cy="69.5" r="69.5" fill="#fff"/>
    <g clip-path="url(#7l1pjdz63a)">
        <path d="M127.885 63.918c-.28-1.414-.566-2.825-.831-4.24-.234-1.246-.484-2.493-.726-3.74-.268-1.385-.528-2.774-.815-4.158-.26-1.259-.506-2.52-.722-3.79a68.932 68.932 0 0 0-.577-2.982c-.168-.781-.302-1.57-.451-2.356-.238-1.262-.536-2.512-.77-3.774-.209-1.11-.335-2.237-.689-3.31-.402-1.228-1.236-2.062-2.517-2.415-.767-.212-1.504-.142-2.282-.023-1.314.205-2.61.507-3.913.752-1.332.253-2.665.521-3.994.797-1.999.413-4.017.744-6.013 1.191-.595.134-1.202.276-1.802.343-.752.085-1.511.204-2.222.39-1.36.354-2.748.54-4.118.816-1.846.376-3.697.759-5.554 1.083-.83.145-1.65.353-2.48.491-1.27.212-2.524.503-3.79.726-1.392.246-2.77.596-4.166.826-1.228.201-2.438.477-3.663.693-1.549.271-3.09.595-4.635.9a8.05 8.05 0 0 0-1.28.35c-1.468.551-2.778 2.733-2.208 4.326.078.223.007.339-.287.286-.633-.111-1.262-.256-1.888-.394-1.187-.257-2.382-.48-3.574-.719-.811-.163-1.623-.353-2.438-.498-1.14-.205-2.267-.477-3.407-.689-1.291-.242-2.557-.6-3.898-.432-1.82.227-3.458.879-4.724 2.219-1.456 1.537-2.818 3.16-4.222 4.746-1.776 2.006-3.551 4.005-5.323 6.015-1.877 2.126-3.746 4.255-5.618 6.384-1.314 1.493-2.625 2.99-3.94 4.478-.993 1.128-1.972 2.263-2.985 3.369a4.73 4.73 0 0 1-2.27 1.389 27.7 27.7 0 0 0-2.525.818c-.704.268-1.437.466-2.152.7-.744.246-1.489.499-2.234.745-.815.268-1.63.532-2.442.804-.782.26-1.563.528-2.345.8-.346.12-.47.369-.35.715.149.431.313.86.473 1.288.137.376.394.439.755.312 1.002-.342 2.007-.673 3.012-1.005 1.344-.439 2.692-.867 4.036-1.31 1.455-.476 2.892-1.009 4.363-1.426 1.575-.45 2.837-1.34 3.905-2.535 1.527-1.708 3.023-3.44 4.535-5.159l.718-.823c1.11-1.265 2.22-2.527 3.329-3.793.755-.86 1.504-1.723 2.26-2.583l5.431-6.142c1.694-1.92 3.373-3.856 5.09-5.755 1.075-1.19 2.453-1.835 4.065-1.801.778.015 1.556.208 2.327.36 1.117.224 2.226.492 3.343.723 1.176.242 2.357.454 3.533.688.994.202 1.98.417 2.97.626.935.197 1.87.398 2.804.592.201.04.283.156.313.35.06.38.145.759.22 1.139.178.912.36 1.82.54 2.732.044.234-.045.365-.291.435-.506.15-1.001.343-1.508.503-1.906.607-3.812 1.213-5.722 1.809-1.132.354-2.264.715-3.392 1.076-.443.141-.591.03-.785-.305a57.786 57.786 0 0 0-1.34-2.2c-.335-.521-.901-.693-1.419-.466-.841.365-1.083 1.128-.606 1.94.312.532.632 1.057.96 1.578.179.283.171.443-.194.558-1.295.402-2.606.77-3.879 1.24-.867.316-1.128.957-.845 1.846.361 1.136.596.804 1.377.573 1.192-.353 2.376-.733 3.563-1.105.737-.23 1.47-.458 2.204-.696.857-.276 1.705-.562 2.562-.838.815-.264 1.634-.513 2.45-.778.774-.25 1.544-.51 2.319-.755.789-.25 1.586-.477 2.375-.73 1.44-.462 2.878-.938 4.322-1.4 1.184-.38 2.38-.718 3.552-1.124 1.042-.357 2.096-.584 3.202-.469.77.082 1.478.365 2.096.808 1.608 1.15 2.245 2.729 1.936 4.68-.287 1.82-1.538 3.185-3.236 3.781-.703.246-1.414.454-2.126.678-1.377.428-2.74.9-4.11 1.35l-2.952.898c-1.322.432-2.606.867-3.894 1.273-1.824.573-3.66 1.117-5.484 1.697-2.122.674-4.237 1.374-6.359 2.059-.484.156-.625.435-.577.945.108 1.225.168 2.439-.212 3.656-.707 2.26-2.126 3.957-3.99 5.33-.857.63-1.78 1.135-2.74 1.586-.463.216-.544.443-.343.893.17.38.342.756.513 1.136.168.372.436.48.804.301.44-.212.88-.42 1.3-.662 1.567-.905 3.038-1.94 4.255-3.302.93-1.046 1.705-2.193 2.241-3.48.547-1.318.82-2.703.834-4.132.004-.231.078-.347.32-.421 1.121-.346 2.234-.719 3.347-1.083.63-.205.67-.172.551.469-.004.03-.004.055-.01.085-.31 1.727.14 3.231 1.34 4.512.208.22.212.316-.116.424-1.43.473-2.632 1.243-3.295 2.673-1.035 2.23-.555 4.53 1.37 6.1.19.157.257.22.078.455-.867 1.132-1.03 2.394-.595 3.734.082.249.015.364-.168.49-.514.362-1.046.693-1.567 1.043-1.702 1.14-3.507 2.096-5.372 2.922a48.664 48.664 0 0 1-4.557 1.731c-1.672.551-3.38.953-5.086 1.355-1.243.294-2.531.443-3.804.618-.86.12-1.74.164-2.618.134a2.654 2.654 0 0 0-.64.063c-.867.186-1.705.466-2.547.737-1.034.332-2.066.663-3.1.991-2.383.759-4.77 1.5-7.156 2.248-.518.16-.66.402-.529.938.1.417.298.8.41 1.217.074.29.294.428.633.313.621-.212 1.262-.376 1.883-.588 1.352-.466 2.73-.853 4.084-1.318 1.486-.514 3.03-.856 4.498-1.415a11.511 11.511 0 0 1 3.678-.729c1.928-.071 3.812-.398 5.689-.763 1.764-.346 3.5-.842 5.22-1.381a48.016 48.016 0 0 0 6.373-2.535c2.196-1.057 4.266-2.334 6.243-3.756.212-.153.372-.179.618-.07.67.297 1.377.368 2.103.226 1.002-.193 1.94-.6 2.912-.893a83.441 83.441 0 0 0 3.261-1.065c.838-.29 1.713-.472 2.49-.927 1.281-.748 1.866-1.924 1.925-3.335a3.257 3.257 0 0 0-.625-2.058c-.25-.34-.168-.45.201-.581 1.776-.63 2.855-1.899 3.284-3.715.204-.864.178-1.731-.179-2.572-.1-.231-.16-.458.253-.387.257.04.51-.015.767-.067 1.206-.242 2.412-.47 3.619-.7.912-.175 1.824-.35 2.736-.529 1.363-.272 2.718-.554 4.08-.819 1.221-.234 2.45-.435 3.671-.673 1.415-.276 2.826-.589 4.244-.868 1.207-.234 2.416-.435 3.623-.666 1.236-.238 2.464-.499 3.7-.74 1.419-.276 2.837-.537 4.256-.816 1.206-.234 2.408-.491 3.614-.726 1.419-.275 2.837-.536 4.256-.811 1.262-.246 2.516-.529 3.782-.745.875-.149 1.731-.383 2.61-.506.92-.127 1.824-.35 2.736-.529.719-.141 1.426-.327 2.022-.778 1.426-1.08 1.772-2.546 1.441-4.21zm-57.117-14.23c-.231-1.192-.458-2.383-.648-3.384-.015-1.05.432-1.534 1.28-1.675 1.352-.227 2.707-.447 4.044-.752 1.001-.23 2.017-.384 3.023-.592 1.634-.335 3.28-.63 4.918-.953 1.035-.205 2.08-.365 3.108-.596 1.393-.312 2.796-.55 4.189-.848 1.392-.298 2.8-.525 4.184-.864.741-.182 1.52-.23 2.271-.387 1.046-.22 2.1-.417 3.15-.618.588-.111 1.187-.186 1.764-.331 1.289-.324 2.61-.473 3.898-.782.76-.182 1.545-.268 2.312-.45.916-.216 1.847-.365 2.774-.529 1.336-.234 2.65-.554 3.994-.76 1.043-.156 2.067-.427 3.113-.595 1.4-.227 1.764.372 1.973 1.515.167.927.328 1.854.517 2.777.053.26-.026.32-.256.365-1.501.287-3.001.592-4.501.886-1.192.234-2.383.495-3.586.681-.763.12-1.511.305-2.267.454-1.541.31-3.086.607-4.627.92-1.166.234-2.32.524-3.489.71-1.213.19-2.416.459-3.619.697-1.388.275-2.78.536-4.165.826-1.218.253-2.446.465-3.664.718-1.318.272-2.643.503-3.954.793-1.258.28-2.531.48-3.793.73-1.415.283-2.826.596-4.24.879-1.192.234-2.39.435-3.586.666-.633.123-1.262.253-1.887.398-.585.138-1.192.149-1.765.35-.205.067-.413.011-.465-.25zm-5.953 22.006c1.102-.357 2.204-.707 3.31-1.06 1.198-.384 2.397-.76 3.588-1.158.287-.097.365.026.406.253.22 1.12.447 2.24.64 3.369.049.283.216.536.175.83.038.25-.04.413-.297.491-1.363.42-2.737.815-4.077 1.296-.737.264-1.493.476-2.23.759-.733.283-1.508.432-2.29.104-.718-.301-1.433-1.15-1.489-1.954-.111-1.645.7-2.427 2.264-2.93zm5.104 17.176c-1.486.457-2.945.997-4.434 1.44-.901.268-1.765.663-2.703.815-.89.15-1.336-.335-1.563-.953-.231-.629.174-1.392.84-1.619 1.542-.525 3.095-1.027 4.643-1.537.924-.305 1.843-.618 2.774-.905.927-.283 1.753.339 1.753 1.296 0 .755-.439 1.195-1.31 1.463zm4.188-8.019c-.294.879-.93 1.326-1.753 1.616-1.415.499-2.845.953-4.274 1.41-1.426.459-2.84.969-4.282 1.382-.51.145-.994.372-1.533.301-1.207-.156-2.227-1.146-2.212-2.483-.03-1.19.816-2.106 1.87-2.441 1.09-.35 2.177-.704 3.264-1.058 1.794-.58 3.6-1.131 5.38-1.76.796-.28 1.53-.395 2.315.01a2.504 2.504 0 0 1 1.225 3.023zm50.416-14.558c-.704.175-1.43.276-2.137.443-1.307.31-2.64.48-3.95.782-.804.186-1.627.305-2.439.476-.893.19-1.794.347-2.695.518-.674.126-1.355.216-2.018.38-1.303.327-2.639.454-3.942.789-.76.193-1.545.282-2.316.443-.92.193-1.847.383-2.774.536-1.351.223-2.695.502-4.035.766-1.37.272-2.755.488-4.114.827-.596.149-1.217.186-1.813.335-1.318.324-2.662.499-3.987.793-.86.19-1.735.346-2.606.495-.886.152-1.761.364-2.644.532-1.805.346-3.618.674-5.42 1.031-.35.07-.693.216-1.05.116a1.25 1.25 0 0 1-.89-.857c-.305-.926-.365-1.91-.6-2.847-.26-1.043-.342-2.115-.621-3.15-.153-.565-.07-.707.484-.882 1.173-.372 2.35-.725 3.526-1.083 2.11-.64 3.972-1.645 5.1-3.644.685-1.214 1.136-2.539 1.054-3.93-.13-2.171-.987-4.029-2.76-5.402-.915-.707-1.928-1.206-3.04-1.426-1.125-.223-2.275-.23-3.407.056-1.124.287-2.212.689-3.317 1.031-.518.16-.63.075-.689-.454-.03-.26.048-.376.328-.435 1.075-.228 2.163-.414 3.231-.648 1.352-.298 2.714-.54 4.066-.827 1.578-.33 3.16-.644 4.746-.945.711-.134 1.422-.294 2.152-.361.536-.048 1.065-.272 1.616-.354.8-.119 1.586-.338 2.383-.502 1.02-.209 2.043-.414 3.067-.596 1.236-.22 2.468-.473 3.7-.715 1.568-.309 3.135-.606 4.703-.923 1.065-.216 2.137-.387 3.19-.629 1.363-.309 2.744-.54 4.11-.837 1.493-.324 2.994-.61 4.494-.905.7-.138 1.422-.19 2.107-.38 1.225-.338 2.494-.446 3.723-.778.588-.156 1.214-.17 1.809-.33.242-.064.339.051.428.282.224.584.194 1.21.358 1.805.205.756.309 1.538.447 2.312l1.001 5.282c.372 1.541.618 3.108.923 4.664.235 1.188.533 2.368.715 3.566.138.89.41 1.754.495 2.654.038.41.146.816.253 1.214.205.8-.16 1.515-.945 1.712z" fill="#484848"/>
        <path d="M76.672 78.082c.257-.04.51-.015.767-.067 1.206-.242 2.413-.469 3.619-.7.912-.174 1.824-.35 2.736-.528 1.363-.272 2.718-.555 4.08-.82 1.222-.234 2.45-.435 3.671-.673 1.415-.275 2.826-.588 4.244-.867 1.207-.235 2.416-.436 3.623-.666 1.236-.239 2.464-.5 3.7-.741 1.419-.276 2.837-.536 4.256-.815 1.206-.235 2.408-.492 3.615-.726 1.418-.276 2.836-.536 4.255-.812 1.262-.245 2.517-.528 3.782-.744.875-.15 1.732-.384 2.61-.507.92-.126 1.824-.35 2.736-.528.719-.142 1.426-.328 2.022-.778 1.43-1.072 1.776-2.539 1.448-4.206-.279-1.415-.566-2.826-.83-4.24-.235-1.247-.484-2.494-.726-3.741-.268-1.385-.529-2.773-.815-4.158-.261-1.258-.507-2.52-.723-3.79a65.999 65.999 0 0 0-.577-2.981c-.167-.782-.301-1.571-.45-2.356-.238-1.262-.536-2.513-.771-3.775-.208-1.11-.335-2.237-.688-3.31-.403-1.227-1.236-2.061-2.517-2.415-.767-.212-1.504-.141-2.282-.022-1.314.204-2.61.506-3.913.752-1.333.253-2.666.52-3.995.796-1.999.413-4.017.745-6.012 1.191-.596.134-1.203.276-1.802.343-.752.085-1.512.205-2.223.39-1.359.354-2.747.54-4.117.816-1.847.376-3.697.76-5.555 1.083-.83.145-1.65.354-2.48.491-1.269.213-2.523.503-3.79.726-1.392.246-2.77.596-4.165.827-1.229.2-2.439.476-3.663.692-1.55.272-3.09.596-4.636.9a8.037 8.037 0 0 0-1.28.35c-1.467.552-2.777 2.733-2.208 4.326L69.224 55l2.642 13.497 1.776 9.068c.004 0 .45.92 3.03.517zm-5.949-28.405a881.32 881.32 0 0 1-.648-3.384c-.015-1.05.432-1.534 1.28-1.675 1.352-.227 2.707-.447 4.044-.752 1.001-.23 2.018-.383 3.023-.592 1.634-.335 3.28-.629 4.918-.953 1.035-.205 2.081-.365 3.109-.595 1.392-.313 2.796-.551 4.188-.85 1.392-.297 2.8-.524 4.184-.863.741-.182 1.52-.23 2.271-.387 1.046-.22 2.1-.417 3.15-.618.588-.111 1.188-.186 1.765-.331 1.288-.324 2.609-.473 3.898-.782.759-.182 1.545-.268 2.311-.45.916-.216 1.847-.365 2.774-.529 1.337-.234 2.651-.554 3.995-.76 1.042-.155 2.066-.427 3.112-.595 1.4-.227 1.765.373 1.973 1.515.168.927.328 1.854.518 2.777.052.26-.026.32-.257.365-1.501.287-3.001.592-4.501.886-1.192.235-2.383.495-3.585.681-.764.12-1.512.305-2.268.454-1.541.31-3.086.607-4.627.92-1.165.234-2.32.525-3.489.71-1.213.19-2.416.459-3.618.697-1.389.275-2.781.536-4.166.826-1.218.253-2.446.465-3.663.719-1.318.271-2.644.502-3.954.792-1.259.28-2.532.48-3.794.73-1.415.283-2.826.596-4.24.878-1.192.235-2.39.436-3.585.667-.633.123-1.262.253-1.888.398-.585.138-1.191.149-1.765.35-.208.07-.413.011-.465-.25zm.648 3.283c-.03-.26.048-.376.327-.436 1.076-.227 2.163-.413 3.232-.647 1.351-.298 2.714-.54 4.065-.827 1.579-.331 3.161-.644 4.747-.945.711-.134 1.422-.294 2.152-.361.536-.049 1.065-.272 1.616-.354.8-.12 1.586-.339 2.382-.502a123.65 123.65 0 0 1 3.068-.596c1.236-.22 2.468-.473 3.7-.715 1.568-.309 3.135-.607 4.703-.923 1.064-.216 2.137-.387 3.19-.629 1.363-.309 2.744-.54 4.11-.838 1.493-.323 2.993-.61 4.494-.904.7-.138 1.422-.19 2.107-.38 1.225-.338 2.494-.447 3.723-.778.588-.156 1.214-.171 1.809-.331.242-.063.339.052.428.283.224.584.194 1.21.358 1.805.204.756.309 1.538.446 2.312l1.002 5.282c.372 1.541.618 3.108.923 4.664.235 1.188.533 2.367.715 3.566.138.89.41 1.753.495 2.654.037.41.145.815.253 1.214.213.793-.152 1.511-.934 1.704-.704.175-1.43.276-2.137.444-1.307.309-2.64.48-3.95.781-.804.186-1.627.305-2.439.477-.893.19-1.794.346-2.695.517-.674.127-1.355.216-2.018.38-1.303.327-2.639.454-3.942.789-.76.194-1.545.283-2.316.443-.92.194-1.847.383-2.774.536-1.351.223-2.695.502-4.035.767-1.37.271-2.755.487-4.114.826-.596.149-1.218.186-1.813.335-1.318.324-2.662.499-3.987.793-.86.19-1.735.346-2.606.495-.887.153-1.761.365-2.644.532-1.805.347-3.618.674-5.42 1.031-.35.071-.693.216-1.05.116a1.251 1.251 0 0 1-.89-.856c-.305-.927-.365-1.91-.6-2.848-.26-1.042-.342-2.114-.621-3.15l-3.06-15.726z" fill="#0AB378"/>
        <path d="m68.772 54.456 3.332-1.031.328 2.498-3.448 1.101-.212-2.568z" fill="#484848"/>
        <path d="M69 57.031 72.332 56l2.168 9.5-4 1-1.5-9.469z" fill="#fff"/>
        <path d="m70.6 66.591 4.058-1.258.722 2.364L71.1 69.68l-.499-3.09z" fill="#484848"/>
    </g>
    <defs>
        <clipPath id="7l1pjdz63a">
            <path fill="#fff" transform="translate(11 33)" d="M0 0h117v73H0z"/>
        </clipPath>
    </defs>
</svg>
