<svg width="22" height="22" viewBox="0 0 22 22" fill="none" xmlns="http://www.w3.org/2000/svg">
    <g clip-path="url(#eyu8eqfhqa)" fill="#fff" stroke="#fff" stroke-width=".5">
        <path d="M18.857 6.136c-.003 4.687-.002 9.373-.002 14.06v.78s.002.896-.814.989c-.11.012-.221.032-.332.032C13.491 22 9.271 22 5.053 22c-.399 0-.797.003-1.195 0-.65-.006-1.092-.433-1.103-1.078l.001-9.852.002-1.245c-.01-2.91-.01-5.82-.004-8.729C2.755.405 3.18.01 3.894.008 5.491.005 7.091.007 8.69.007c1.319 0 2.638.011 3.957-.007a1.38 1.38 0 0 1 1.018.424c1.477 1.45 2.94 2.916 4.406 4.378 0 0 .763.698.785 1.334zm-1.093 7.478c-.004-2.37-.005-4.741 0-7.113 0-.17-.045-.22-.219-.218-1.319.007-2.638.004-3.957.003-.701 0-1.11-.408-1.11-1.107V1.334c0-.239 0-.239-.246-.239H4.129c-.283 0-.284 0-.284.279V16.75l-.005 3.93c-.002.187.048.238.24.238 4.48-.006 8.96-.004 13.44-.004.241 0 .242-.001.242-.246 0-2.1-.001-4.197.003-6.296l-.001-.759zM13.589 5.18h3.259L13.589 1.94V5.18z"/>
        <path d="M10.787 13.855h-4.03c-.276 0-.433-.106-.503-.327-.079-.249.01-.555.214-.676a.626.626 0 0 1 .298-.083c2.687-.004 5.373-.004 8.06-.002.314 0 .557.26.555.577-.001.306-.224.51-.563.51-1.344.002-2.688 0-4.031 0zM10.802 17.262h4.011c.275 0 .467.152.543.42a.496.496 0 0 1-.245.585.687.687 0 0 1-.318.079c-2.663.005-5.325.004-7.987.002-.332 0-.531-.158-.575-.44-.042-.277.11-.553.356-.622.081-.023.171-.023.257-.024h3.958zM9.513 8.344c.89 0 1.778-.001 2.667.002.123.001.253.007.366.05.245.09.352.304.313.566a.587.587 0 0 1-.492.467c-.05.007-.1.004-.15.004-1.802 0-3.606-.006-5.408.006-.48.003-.638-.416-.567-.726.054-.231.211-.36.473-.364.442-.008.883-.004 1.324-.004.492-.002.983-.002 1.474 0z"/>
    </g>
    <defs>
        <clipPath id="eyu8eqfhqa">
            <path fill="#fff" d="M0 0h22v22H0z"/>
        </clipPath>
    </defs>
</svg>
