<svg width="22" height="22" viewBox="0 0 22 22" fill="none" xmlns="http://www.w3.org/2000/svg">
    <path d="M21.092 5.386a6.385 6.385 0 0 0-1.397-2.033 6.515 6.515 0 0 0-4.577-1.861 6.557 6.557 0 0 0-4.117 1.451 6.558 6.558 0 0 0-4.118-1.451 6.515 6.515 0 0 0-4.577 1.861A6.346 6.346 0 0 0 .394 7.888c0 .818.167 1.67.498 2.537a11.36 11.36 0 0 0 1.183 2.234c.806 1.2 1.913 2.453 3.288 3.722 2.279 2.105 4.535 3.558 4.631 3.617l.582.373c.258.165.59.165.847 0l.582-.373a37.224 37.224 0 0 0 4.63-3.617c1.376-1.269 2.483-2.521 3.288-3.722.509-.759.909-1.51 1.184-2.234.331-.867.498-1.719.498-2.537a6.252 6.252 0 0 0-.513-2.502zM11.001 18.43S2.26 12.83 2.26 7.89c0-2.503 2.07-4.53 4.623-4.53a4.636 4.636 0 0 1 4.118 2.464 4.636 4.636 0 0 1 4.117-2.465c2.554 0 4.624 2.028 4.624 4.53C19.742 12.828 11 18.43 11 18.43z" fill="#fff"/>
</svg>
