<svg width="54" height="45" viewBox="0 0 54 45" fill="none" xmlns="http://www.w3.org/2000/svg">
<path d="M4.13 27.4681C3.654 27.4681 3.20133 27.4121 2.772 27.3001C2.352 27.1788 1.974 26.9968 1.638 26.7541C1.31133 26.5021 1.05 26.1895 0.854 25.8161C0.658 25.4428 0.550667 25.0041 0.532 24.5001C0.532 24.4161 0.56 24.3461 0.616 24.2901C0.672 24.2248 0.746667 24.1921 0.84 24.1921H1.596C1.69867 24.1921 1.778 24.2248 1.834 24.2901C1.89933 24.3461 1.94133 24.4208 1.96 24.5141C1.99733 24.9341 2.11867 25.2748 2.324 25.5361C2.52933 25.7881 2.79067 25.9748 3.108 26.0961C3.42533 26.2175 3.77533 26.2781 4.158 26.2781C4.86733 26.2781 5.40867 26.0448 5.782 25.5781C6.15533 25.1115 6.342 24.4908 6.342 23.7161V18.7461H1.372C1.27867 18.7461 1.19933 18.7181 1.134 18.6621C1.078 18.5968 1.05 18.5175 1.05 18.4241V17.8501C1.05 17.7568 1.078 17.6821 1.134 17.6261C1.19933 17.5608 1.27867 17.5281 1.372 17.5281H7.406C7.50867 17.5281 7.588 17.5608 7.644 17.6261C7.70933 17.6821 7.742 17.7615 7.742 17.8641V23.7441C7.742 24.5001 7.59733 25.1581 7.308 25.7181C7.01867 26.2781 6.608 26.7121 6.076 27.0201C5.544 27.3188 4.89533 27.4681 4.13 27.4681ZM12.891 27.4681C12.1817 27.4681 11.589 27.3328 11.113 27.0621C10.637 26.7915 10.273 26.4181 10.021 25.9421C9.76905 25.4568 9.62905 24.9061 9.60105 24.2901C9.59171 24.1315 9.58705 23.9308 9.58705 23.6881C9.58705 23.4361 9.59171 23.2355 9.60105 23.0861C9.62905 22.4608 9.76905 21.9101 10.021 21.4341C10.2824 20.9581 10.651 20.5848 11.127 20.3141C11.603 20.0435 12.191 19.9081 12.891 19.9081C13.591 19.9081 14.179 20.0435 14.655 20.3141C15.131 20.5848 15.495 20.9581 15.747 21.4341C16.0084 21.9101 16.153 22.4608 16.181 23.0861C16.1904 23.2355 16.195 23.4361 16.195 23.6881C16.195 23.9308 16.1904 24.1315 16.181 24.2901C16.153 24.9061 16.013 25.4568 15.761 25.9421C15.509 26.4181 15.145 26.7915 14.669 27.0621C14.193 27.3328 13.6004 27.4681 12.891 27.4681ZM12.891 26.3901C13.4697 26.3901 13.9317 26.2081 14.277 25.8441C14.6224 25.4708 14.809 24.9295 14.837 24.2201C14.8464 24.0801 14.851 23.9028 14.851 23.6881C14.851 23.4735 14.8464 23.2961 14.837 23.1561C14.809 22.4468 14.6224 21.9101 14.277 21.5461C13.9317 21.1728 13.4697 20.9861 12.891 20.9861C12.3124 20.9861 11.8457 21.1728 11.491 21.5461C11.1457 21.9101 10.9637 22.4468 10.945 23.1561C10.9357 23.2961 10.931 23.4735 10.931 23.6881C10.931 23.9028 10.9357 24.0801 10.945 24.2201C10.9637 24.9295 11.1457 25.4708 11.491 25.8441C11.8457 26.2081 12.3124 26.3901 12.891 26.3901ZM21.5461 27.4681C20.9861 27.4681 20.5194 27.3701 20.1461 27.1741C19.7728 26.9688 19.4741 26.7168 19.2501 26.4181V27.0061C19.2501 27.0995 19.2174 27.1788 19.1521 27.2441C19.0961 27.3001 19.0214 27.3281 18.9281 27.3281H18.2841C18.1908 27.3281 18.1114 27.3001 18.0461 27.2441C17.9901 27.1788 17.9621 27.0995 17.9621 27.0061V17.7101C17.9621 17.6168 17.9901 17.5421 18.0461 17.4861C18.1114 17.4208 18.1908 17.3881 18.2841 17.3881H18.9561C19.0588 17.3881 19.1381 17.4208 19.1941 17.4861C19.2501 17.5421 19.2781 17.6168 19.2781 17.7101V20.9301C19.5114 20.6408 19.8101 20.3981 20.1741 20.2021C20.5474 20.0061 21.0048 19.9081 21.5461 19.9081C22.0688 19.9081 22.5121 20.0015 22.8761 20.1881C23.2494 20.3655 23.5528 20.6128 23.7861 20.9301C24.0288 21.2475 24.2108 21.6068 24.3321 22.0081C24.4534 22.4095 24.5188 22.8295 24.5281 23.2681C24.5374 23.4175 24.5421 23.5575 24.5421 23.6881C24.5421 23.8188 24.5374 23.9588 24.5281 24.1081C24.5188 24.5561 24.4534 24.9808 24.3321 25.3821C24.2108 25.7835 24.0288 26.1428 23.7861 26.4601C23.5528 26.7681 23.2494 27.0155 22.8761 27.2021C22.5121 27.3795 22.0688 27.4681 21.5461 27.4681ZM21.2521 26.3341C21.7374 26.3341 22.1154 26.2315 22.3861 26.0261C22.6661 25.8115 22.8668 25.5361 22.9881 25.2001C23.1094 24.8548 23.1794 24.4861 23.1981 24.0941C23.2074 23.8235 23.2074 23.5528 23.1981 23.2821C23.1794 22.8901 23.1094 22.5261 22.9881 22.1901C22.8668 21.8448 22.6661 21.5695 22.3861 21.3641C22.1154 21.1495 21.7374 21.0421 21.2521 21.0421C20.8134 21.0421 20.4494 21.1448 20.1601 21.3501C19.8708 21.5555 19.6514 21.8168 19.5021 22.1341C19.3621 22.4515 19.2874 22.7735 19.2781 23.1001C19.2688 23.2495 19.2641 23.4315 19.2641 23.6461C19.2641 23.8515 19.2688 24.0288 19.2781 24.1781C19.2968 24.5235 19.3714 24.8641 19.5021 25.2001C19.6421 25.5268 19.8521 25.7975 20.1321 26.0121C20.4214 26.2268 20.7948 26.3341 21.2521 26.3341ZM30.0419 29.9881C29.9486 29.9881 29.8693 29.9555 29.8039 29.8901C29.7479 29.8341 29.7199 29.7595 29.7199 29.6661V20.3701C29.7199 20.2768 29.7479 20.2021 29.8039 20.1461C29.8693 20.0808 29.9486 20.0481 30.0419 20.0481H30.6859C30.7793 20.0481 30.8539 20.0808 30.9099 20.1461C30.9753 20.2021 31.0079 20.2768 31.0079 20.3701V20.9861C31.2319 20.6781 31.5306 20.4215 31.9039 20.2161C32.2773 20.0108 32.7439 19.9081 33.3039 19.9081C33.8266 19.9081 34.2699 19.9968 34.6339 20.1741C35.0073 20.3515 35.3106 20.5941 35.5439 20.9021C35.7866 21.2101 35.9686 21.5601 36.0899 21.9521C36.2113 22.3441 36.2766 22.7641 36.2859 23.2121C36.2953 23.3615 36.2999 23.5201 36.2999 23.6881C36.2999 23.8561 36.2953 24.0148 36.2859 24.1641C36.2766 24.6028 36.2113 25.0228 36.0899 25.4241C35.9686 25.8161 35.7866 26.1661 35.5439 26.4741C35.3106 26.7728 35.0073 27.0155 34.6339 27.2021C34.2699 27.3795 33.8266 27.4681 33.3039 27.4681C32.7626 27.4681 32.3053 27.3701 31.9319 27.1741C31.5679 26.9688 31.2693 26.7168 31.0359 26.4181V29.6661C31.0359 29.7595 31.0079 29.8341 30.9519 29.8901C30.8959 29.9555 30.8166 29.9881 30.7139 29.9881H30.0419ZM33.0099 26.3341C33.4953 26.3341 33.8733 26.2315 34.1439 26.0261C34.4239 25.8115 34.6246 25.5361 34.7459 25.2001C34.8673 24.8548 34.9373 24.4861 34.9559 24.0941C34.9653 23.8235 34.9653 23.5528 34.9559 23.2821C34.9373 22.8901 34.8673 22.5261 34.7459 22.1901C34.6246 21.8448 34.4239 21.5695 34.1439 21.3641C33.8733 21.1495 33.4953 21.0421 33.0099 21.0421C32.5526 21.0421 32.1793 21.1495 31.8899 21.3641C31.6099 21.5788 31.3999 21.8541 31.2599 22.1901C31.1293 22.5168 31.0546 22.8528 31.0359 23.1981C31.0266 23.3475 31.0219 23.5248 31.0219 23.7301C31.0219 23.9355 31.0266 24.1175 31.0359 24.2761C31.0453 24.6028 31.1199 24.9248 31.2599 25.2421C31.4093 25.5595 31.6286 25.8208 31.9179 26.0261C32.2073 26.2315 32.5713 26.3341 33.0099 26.3341ZM40.0758 27.4681C39.6091 27.4681 39.1844 27.3748 38.8018 27.1881C38.4191 27.0015 38.1111 26.7495 37.8778 26.4321C37.6444 26.1148 37.5278 25.7555 37.5278 25.3541C37.5278 24.7101 37.7891 24.1968 38.3118 23.8141C38.8344 23.4315 39.5158 23.1795 40.3558 23.0581L42.4418 22.7641V22.3581C42.4418 21.9101 42.3111 21.5601 42.0498 21.3081C41.7978 21.0561 41.3824 20.9301 40.8038 20.9301C40.3838 20.9301 40.0431 21.0141 39.7818 21.1821C39.5298 21.3501 39.3524 21.5648 39.2498 21.8261C39.1938 21.9661 39.0958 22.0361 38.9558 22.0361H38.3258C38.2231 22.0361 38.1438 22.0081 38.0878 21.9521C38.0411 21.8868 38.0178 21.8121 38.0178 21.7281C38.0178 21.5881 38.0691 21.4155 38.1718 21.2101C38.2838 21.0048 38.4518 20.8041 38.6758 20.6081C38.8998 20.4121 39.1844 20.2488 39.5298 20.1181C39.8844 19.9781 40.3138 19.9081 40.8178 19.9081C41.3778 19.9081 41.8491 19.9828 42.2318 20.1321C42.6144 20.2721 42.9131 20.4635 43.1278 20.7061C43.3518 20.9488 43.5104 21.2241 43.6038 21.5321C43.7064 21.8401 43.7578 22.1528 43.7578 22.4701V27.0061C43.7578 27.0995 43.7251 27.1788 43.6598 27.2441C43.6038 27.3001 43.5291 27.3281 43.4358 27.3281H42.7918C42.6891 27.3281 42.6098 27.3001 42.5538 27.2441C42.4978 27.1788 42.4698 27.0995 42.4698 27.0061V26.4041C42.3484 26.5721 42.1851 26.7401 41.9798 26.9081C41.7744 27.0668 41.5178 27.2021 41.2098 27.3141C40.9018 27.4168 40.5238 27.4681 40.0758 27.4681ZM40.3698 26.4181C40.7524 26.4181 41.1024 26.3388 41.4198 26.1801C41.7371 26.0121 41.9844 25.7555 42.1618 25.4101C42.3484 25.0648 42.4418 24.6308 42.4418 24.1081V23.7161L40.8178 23.9541C40.1551 24.0475 39.6558 24.2061 39.3198 24.4301C38.9838 24.6448 38.8158 24.9201 38.8158 25.2561C38.8158 25.5175 38.8904 25.7368 39.0398 25.9141C39.1984 26.0821 39.3944 26.2081 39.6278 26.2921C39.8704 26.3761 40.1178 26.4181 40.3698 26.4181ZM46.0924 27.3281C45.999 27.3281 45.9197 27.3001 45.8544 27.2441C45.7984 27.1788 45.7704 27.0995 45.7704 27.0061V20.3701C45.7704 20.2768 45.7984 20.2021 45.8544 20.1461C45.9197 20.0808 45.999 20.0481 46.0924 20.0481H46.7644C46.8577 20.0481 46.9324 20.0808 46.9884 20.1461C47.0444 20.2021 47.0724 20.2768 47.0724 20.3701V27.0061C47.0724 27.0995 47.0444 27.1788 46.9884 27.2441C46.9324 27.3001 46.8577 27.3281 46.7644 27.3281H46.0924ZM45.9804 18.6901C45.887 18.6901 45.8077 18.6621 45.7424 18.6061C45.6864 18.5408 45.6584 18.4615 45.6584 18.3681V17.6121C45.6584 17.5188 45.6864 17.4441 45.7424 17.3881C45.8077 17.3228 45.887 17.2901 45.9804 17.2901H46.8624C46.9557 17.2901 47.0304 17.3228 47.0864 17.3881C47.1517 17.4441 47.1844 17.5188 47.1844 17.6121V18.3681C47.1844 18.4615 47.1517 18.5408 47.0864 18.6061C47.0304 18.6621 46.9557 18.6901 46.8624 18.6901H45.9804ZM49.6197 27.3281C49.5264 27.3281 49.4471 27.3001 49.3817 27.2441C49.3257 27.1788 49.2977 27.0995 49.2977 27.0061V20.3841C49.2977 20.2908 49.3257 20.2115 49.3817 20.1461C49.4471 20.0808 49.5264 20.0481 49.6197 20.0481H50.2637C50.3571 20.0481 50.4364 20.0808 50.5017 20.1461C50.5671 20.2115 50.5997 20.2908 50.5997 20.3841V21.0001C50.7864 20.6828 51.0431 20.4448 51.3697 20.2861C51.6964 20.1275 52.0884 20.0481 52.5457 20.0481H53.1057C53.1991 20.0481 53.2737 20.0808 53.3297 20.1461C53.3857 20.2021 53.4137 20.2768 53.4137 20.3701V20.9441C53.4137 21.0375 53.3857 21.1121 53.3297 21.1681C53.2737 21.2241 53.1991 21.2521 53.1057 21.2521H52.2657C51.7617 21.2521 51.3651 21.4015 51.0757 21.7001C50.7864 21.9895 50.6417 22.3861 50.6417 22.8901V27.0061C50.6417 27.0995 50.6091 27.1788 50.5437 27.2441C50.4784 27.3001 50.3991 27.3281 50.3057 27.3281H49.6197Z" fill="#E2E8F0"/>
</svg>
