<svg width="85" height="18" viewBox="0 0 85 18" fill="none" xmlns="http://www.w3.org/2000/svg">
<path d="M27.9319 8.64128C27.9319 6.25967 27.9616 3.87805 27.9141 1.49643C27.8963 0.655527 28.1572 0.322552 29.0823 0.328195C30.9799 0.345126 30.9859 0.305621 30.9859 2.10594C30.9859 3.45477 30.9918 4.79796 30.9859 6.14679C30.9859 6.66036 31.0689 6.83532 31.65 6.53056C34.2474 5.17044 37.3369 5.605 39.0329 7.52384C40.7051 9.41446 40.7882 13.2409 39.1989 15.1992C37.5741 17.197 34.3185 17.7783 31.8576 16.5085C31.484 16.3166 31.3001 16.0006 30.8376 16.6496C30.3158 17.3833 29.1891 16.9826 28.347 16.8979C27.7362 16.8359 27.9378 16.1925 27.9319 15.7918C27.9141 13.4102 27.926 11.0285 27.926 8.64693L27.9319 8.64128ZM30.9443 11.4631C30.9443 13.5287 32.0355 14.6235 34.0754 14.6123C36.1153 14.601 37.2302 13.4892 37.2302 11.4575C37.2302 9.42575 36.1212 8.3196 34.0695 8.30831C32.0295 8.29702 30.9444 9.39189 30.9503 11.4631H30.9443Z" fill="white"/>
<path d="M44.9747 8.97426C44.9747 6.68858 44.9925 4.39726 44.9629 2.11159C44.951 1.35534 45.2179 1.02801 46.054 1.06187C48.3193 1.16345 50.6082 0.858698 52.8557 1.23118C55.7318 1.70524 57.2854 3.6128 57.2854 6.4967C57.2854 9.31288 55.5361 11.3785 52.7846 11.8977C51.5096 12.1403 50.2228 12.0726 48.9478 12.0613C48.2659 12.0613 47.999 12.2814 48.0228 12.9361C48.0583 13.9689 48.005 15.0073 48.0406 16.0401C48.0583 16.6891 47.7737 16.9149 47.1095 16.9431C45.0103 17.039 44.9807 17.0277 44.9807 15.0807C44.9807 13.0433 44.9807 11.006 44.9807 8.96861L44.9747 8.97426ZM48.0287 6.55878C48.0287 7.2473 48.0406 7.93583 48.0287 8.62435C48.0168 9.13228 48.2362 9.37496 48.7877 9.36367C49.7425 9.34674 50.6972 9.39753 51.646 9.32981C53.2767 9.21694 54.0951 8.18979 54.0654 6.38947C54.0417 4.79796 53.1937 3.89498 51.5867 3.82161C50.6675 3.77646 49.7484 3.82725 48.8292 3.80468C48.2244 3.78775 48.005 4.04171 48.0287 4.59479C48.0524 5.24945 48.0287 5.90976 48.0346 6.56442L48.0287 6.55878Z" fill="white"/>
<path d="M66.8802 15.8821C65.5696 16.9487 64.2473 17.2027 62.8241 17.1632C60.1971 17.0842 58.2461 15.583 57.7005 13.1393C57.4633 12.0557 57.4455 10.9439 57.6946 9.8716C58.507 6.33868 62.6758 4.66251 66.0322 6.48541C66.3998 6.68294 66.6133 6.86353 67.153 6.5362C67.8053 6.1355 68.7481 6.31046 69.5605 6.47977C69.9163 6.55313 69.9104 6.90304 69.9104 7.18522C69.9104 10.1933 69.9104 13.2013 69.9104 16.2151C69.9104 16.7738 69.6317 17.0108 69.0565 16.9882C68.6592 16.9713 68.2619 16.9657 67.8705 16.9882C67.2004 17.0334 66.7616 16.8528 66.8743 15.8934L66.8802 15.8821ZM66.892 11.5139C66.898 9.44268 65.8128 8.34217 63.7729 8.34781C61.7626 8.35346 60.6359 9.49912 60.6359 11.5308C60.6359 13.5343 61.7092 14.601 63.7254 14.6179C65.8009 14.6348 66.8802 13.5738 66.892 11.5139Z" fill="white"/>
<path d="M26.4672 11.1866C26.4672 14.7477 23.9114 17.1463 20.0984 17.1519C16.3387 17.1519 13.7414 14.7308 13.7711 11.243C13.8007 7.74959 16.4396 5.28332 20.1162 5.30589C23.9173 5.32846 26.4613 7.68751 26.4672 11.1866ZM23.3955 11.3107C23.4073 9.14921 22.2272 7.93018 20.1162 7.9189C17.9873 7.90761 16.908 9.01941 16.908 11.2148C16.908 13.3086 18.1059 14.5728 20.1162 14.5953C22.1679 14.6179 23.3895 13.3932 23.4014 11.3107H23.3955Z" fill="white"/>
<path d="M12.2352 6.82403C12.2352 8.29702 12.253 9.77001 12.2352 11.243C12.1759 16.0853 7.95372 18.6249 3.25716 16.6609C1.91105 16.0965 0.902946 15.2048 0.173555 13.9971C-0.122945 13.5061 -0.0517868 13.1844 0.481914 12.9417C0.659814 12.8627 0.819925 12.7442 0.985966 12.6483C1.74105 12.2118 2.39928 12.3341 2.96066 13.0151C3.93911 14.2116 5.58765 14.7195 7.01085 14.2624C8.45184 13.8052 9.16344 12.8345 9.1753 11.1471C9.19902 8.139 9.1753 5.13094 9.1753 2.12852C9.1753 1.1691 9.68923 0.689389 10.7171 0.689389C10.8476 0.689389 10.984 0.700676 11.1144 0.689389C11.9565 0.593447 12.2945 0.903847 12.2648 1.74475C12.2115 3.4322 12.247 5.12529 12.247 6.81839H12.2411L12.2352 6.82403Z" fill="white"/>
<path d="M80.8631 7.5577C81.9009 6.87482 82.8615 6.34996 83.9764 6.15244C84.6702 6.02828 84.9786 6.19194 84.9963 6.94819C85.026 7.97533 84.9015 8.60178 83.6324 8.99119C81.6578 9.6007 80.9343 11.2599 80.8276 13.1393C80.7683 14.1382 80.7979 15.1428 80.8157 16.1473C80.8276 16.7456 80.5666 16.9657 79.9381 16.9882C77.9219 17.0729 77.9219 17.0898 77.9219 15.1766C77.9219 12.6708 77.9219 10.1651 77.9219 7.65929C77.9219 6.31046 77.9219 6.33868 79.3213 6.29353C80.2168 6.26531 80.9995 6.2766 80.8572 7.5577H80.8631Z" fill="white"/>
<path d="M75.4728 11.6493C75.4728 13.1223 75.449 14.5897 75.4846 16.0627C75.5024 16.7568 75.2059 16.9769 74.4943 16.9882C72.4247 17.0221 72.4247 17.0447 72.4247 15.1089C72.4247 12.541 72.4544 9.97318 72.407 7.40533C72.3951 6.5362 72.7212 6.26531 73.6167 6.28224C75.4787 6.3161 75.4787 6.28224 75.4787 8.07128C75.4787 9.26208 75.4787 10.4529 75.4787 11.6381L75.4728 11.6493Z" fill="white"/>
<path d="M73.9903 1.94228C74.9746 1.95921 75.71 2.65902 75.6684 3.55072C75.6269 4.38598 74.8382 5.06886 73.9487 5.04628C72.9999 5.02371 72.2231 4.26746 72.2587 3.41527C72.3002 2.58001 73.0592 1.93099 73.9903 1.94792V1.94228Z" fill="white"/>
</svg>
