<svg width="20" height="20" viewBox="0 0 20 20" fill="none" xmlns="http://www.w3.org/2000/svg">
<g id="Eye">
<g id="Vector">
<path fill-rule="evenodd" clip-rule="evenodd" d="M17.4662 10C17.3963 9.83587 17.2892 9.61643 17.1407 9.35519C16.8011 8.75775 16.2846 8.01086 15.6064 7.28557C14.2408 5.82523 12.3434 4.575 10 4.575C7.65657 4.575 5.75916 5.82523 4.39365 7.28557C3.71545 8.01086 3.1989 8.75775 2.85933 9.35519C2.71085 9.61643 2.60374 9.83587 2.53378 10C2.60374 10.1641 2.71085 10.3836 2.85933 10.6448C3.1989 11.2423 3.71545 11.9891 4.39365 12.7144C5.75916 14.1748 7.65657 15.425 10 15.425C12.3434 15.425 14.2408 14.1748 15.6064 12.7144C16.2846 11.9891 16.8011 11.2423 17.1407 10.6448C17.2892 10.3836 17.3963 10.1641 17.4662 10ZM10 17C15.7273 17 19 10.875 19 10C19 9.125 15.7273 3 10 3C4.27273 3 1 9.125 1 10C1 10.875 4.27273 17 10 17Z" fill="#5EA88E"/>
<path fill-rule="evenodd" clip-rule="evenodd" d="M9.99999 8.44445C9.19667 8.44445 8.54544 9.14089 8.54544 10C8.54544 10.8591 9.19667 11.5556 9.99999 11.5556C10.8033 11.5556 11.4545 10.8591 11.4545 10C11.4545 9.14089 10.8033 8.44445 9.99999 8.44445ZM7.0909 10C7.0909 8.28178 8.39334 6.88889 9.99999 6.88889C11.6066 6.88889 12.9091 8.28178 12.9091 10C12.9091 11.7182 11.6066 13.1111 9.99999 13.1111C8.39334 13.1111 7.0909 11.7182 7.0909 10Z" fill="#5EA88E"/>
</g>
</g>
</svg>
