<svg width="36" height="36" viewBox="0 0 36 36" fill="none" xmlns="http://www.w3.org/2000/svg">
    <path fill-rule="evenodd" clip-rule="evenodd" d="M18 6.375c.621 0 1.125.504 1.125 1.125v21a1.125 1.125 0 0 1-2.25 0v-21c0-.621.504-1.125 1.125-1.125z" fill="#fff"/>
    <path fill-rule="evenodd" clip-rule="evenodd" d="M27.796 18.704c.439.44.439 1.152 0 1.591l-9 9a1.125 1.125 0 0 1-1.591-1.59l9-9c.439-.44 1.151-.44 1.59 0z" fill="#fff"/>
    <path fill-rule="evenodd" clip-rule="evenodd" d="M8.204 18.704c.44-.439 1.152-.439 1.591 0l9 9a1.125 1.125 0 0 1-1.59 1.591l-9-9a1.125 1.125 0 0 1 0-1.59z" fill="#fff"/>
</svg>
