<svg width="36" height="36" viewBox="0 0 36 36" fill="none" xmlns="http://www.w3.org/2000/svg">
    <path fill-rule="evenodd" clip-rule="evenodd" d="M21.23 12.256c0-.594.483-1.076 1.078-1.076h.014a1.077 1.077 0 0 1 0 2.153h-.014a1.077 1.077 0 0 1-1.077-1.077z" fill="#fff"/>
    <path fill-rule="evenodd" clip-rule="evenodd" d="M9.385 6.154a3.23 3.23 0 0 0-3.231 3.23v17.231a3.23 3.23 0 0 0 3.23 3.231h17.231a3.23 3.23 0 0 0 3.231-3.23V9.384a3.23 3.23 0 0 0-3.23-3.231H9.384zm-3.808-.577A5.385 5.385 0 0 1 9.385 4h17.23A5.385 5.385 0 0 1 32 9.385v17.23A5.385 5.385 0 0 1 26.615 32H9.385A5.385 5.385 0 0 1 4 26.615V9.385c0-1.428.567-2.798 1.577-3.808z" fill="#fff"/>
    <path fill-rule="evenodd" clip-rule="evenodd" d="m13.01 17.333-7.172 7.172a1.077 1.077 0 1 1-1.523-1.523l7.18-7.18.015-.014c.828-.797 1.828-1.263 2.9-1.263 1.072 0 2.073.466 2.9 1.263l.016.015 7.18 7.18a1.077 1.077 0 1 1-1.524 1.522l-7.172-7.172c-.502-.48-.986-.654-1.4-.654-.413 0-.898.174-1.4.654z" fill="#fff"/>
    <path fill-rule="evenodd" clip-rule="evenodd" d="m23.061 20.205-1.428 1.428a1.077 1.077 0 1 1-1.523-1.523l1.436-1.436.015-.014c.828-.797 1.829-1.263 2.9-1.263 1.073 0 2.073.466 2.901 1.263l.015.014 4.308 4.308a1.077 1.077 0 0 1-1.523 1.523l-4.3-4.3c-.502-.48-.987-.654-1.4-.654-.414 0-.898.174-1.4.654z" fill="#fff"/>
</svg>
