<svg width="36" height="36" viewBox="0 0 36 36" fill="none" xmlns="http://www.w3.org/2000/svg">
    <path fill-rule="evenodd" clip-rule="evenodd" d="M22.2 4.2A1.2 1.2 0 0 1 23.4 3h6.4A1.2 1.2 0 0 1 31 4.2v6.4a1.2 1.2 0 0 1-2.4 0V5.4h-5.2a1.2 1.2 0 0 1-1.2-1.2z" fill="#fff"/>
    <path fill-rule="evenodd" clip-rule="evenodd" d="M30.648 3.351a1.2 1.2 0 0 1 0 1.698l-9.6 9.6a1.2 1.2 0 1 1-1.696-1.697l9.6-9.6a1.2 1.2 0 0 1 1.696 0zM4.2 22.2a1.2 1.2 0 0 1 1.2 1.2v5.2h5.2a1.2 1.2 0 0 1 0 2.4H4.2A1.2 1.2 0 0 1 3 29.8v-6.4a1.2 1.2 0 0 1 1.2-1.2z" fill="#fff"/>
    <path fill-rule="evenodd" clip-rule="evenodd" d="M14.649 19.352a1.2 1.2 0 0 1 0 1.697l-9.6 9.6A1.2 1.2 0 1 1 3.35 28.95l9.6-9.6a1.2 1.2 0 0 1 1.697 0zM29.8 22.2a1.2 1.2 0 0 1 1.2 1.2v6.4a1.2 1.2 0 0 1-1.2 1.2h-6.4a1.2 1.2 0 0 1 0-2.4h5.2v-5.2a1.2 1.2 0 0 1 1.2-1.2z" fill="#fff"/>
    <path fill-rule="evenodd" clip-rule="evenodd" d="M19.352 19.352a1.2 1.2 0 0 1 1.697 0l9.6 9.6a1.2 1.2 0 1 1-1.698 1.696l-9.6-9.6a1.2 1.2 0 0 1 0-1.696zM3 4.2A1.2 1.2 0 0 1 4.2 3h6.4a1.2 1.2 0 0 1 0 2.4H5.4v5.2a1.2 1.2 0 0 1-2.4 0V4.2z" fill="#fff"/>
    <path fill-rule="evenodd" clip-rule="evenodd" d="M3.351 3.351a1.2 1.2 0 0 1 1.698 0l9.6 9.6a1.2 1.2 0 1 1-1.697 1.697l-9.6-9.6a1.2 1.2 0 0 1 0-1.697z" fill="#fff"/>
</svg>
