<svg width="36" height="36" viewBox="0 0 36 36" fill="none" xmlns="http://www.w3.org/2000/svg">
    <path fill-rule="evenodd" clip-rule="evenodd" d="M5 10.308c0-.638.499-1.154 1.114-1.154h23.772c.615 0 1.114.516 1.114 1.154 0 .637-.499 1.153-1.114 1.153H6.114C5.5 11.461 5 10.945 5 10.308zM15.029 15.308c.615 0 1.114.516 1.114 1.154v9.23c0 .638-.499 1.154-1.114 1.154-.616 0-1.115-.516-1.115-1.154v-9.23c0-.638.5-1.154 1.115-1.154zM20.971 15.308c.616 0 1.115.516 1.115 1.154v9.23c0 .638-.5 1.154-1.115 1.154s-1.114-.516-1.114-1.154v-9.23c0-.638.499-1.154 1.114-1.154z" fill="#fff"/>
    <path fill-rule="evenodd" clip-rule="evenodd" d="M7.507 9.158c.614-.053 1.152.419 1.203 1.054l1.486 18.461c.003.032.004.064.004.096 0 .51.196 1 .544 1.36.348.36.82.563 1.313.563h11.886c.492 0 .965-.202 1.313-.563.348-.36.544-.85.544-1.36 0-.032.001-.064.004-.096l1.486-18.461c.05-.635.59-1.107 1.203-1.054.613.053 1.069.61 1.017 1.245l-1.482 18.418a4.307 4.307 0 0 1-1.196 2.94A4.016 4.016 0 0 1 23.942 33H12.058a4.016 4.016 0 0 1-2.889-1.24 4.306 4.306 0 0 1-1.196-2.939L6.49 10.403c-.052-.635.404-1.192 1.017-1.245z" fill="#fff"/>
    <path fill-rule="evenodd" clip-rule="evenodd" d="M15.029 5.308a.365.365 0 0 0-.263.112.392.392 0 0 0-.109.272v4.616c0 .637-.499 1.153-1.114 1.153-.615 0-1.114-.516-1.114-1.153V5.692c0-.714.274-1.399.761-1.903A2.556 2.556 0 0 1 15.03 3h5.942c.69 0 1.351.284 1.839.789.488.504.761 1.19.761 1.903v4.616c0 .637-.498 1.153-1.114 1.153-.615 0-1.114-.516-1.114-1.153V5.692c0-.102-.04-.2-.109-.272a.365.365 0 0 0-.263-.112H15.03z" fill="#fff"/>
</svg>
