<svg width="36" height="36" viewBox="0 0 36 36" fill="none" xmlns="http://www.w3.org/2000/svg">
    <path fill-rule="evenodd" clip-rule="evenodd" d="M3 7.23c0-.636.517-1.153 1.154-1.153h16.923a1.154 1.154 0 1 1 0 2.308H4.154A1.154 1.154 0 0 1 3 7.23z" fill="#fff"/>
    <path fill-rule="evenodd" clip-rule="evenodd" d="M17.184 3.338c.45-.45 1.181-.45 1.632 0l3.077 3.077c.45.45.45 1.181 0 1.632l-3.077 3.077a1.154 1.154 0 0 1-1.632-1.632l2.261-2.261-2.26-2.261a1.154 1.154 0 0 1 0-1.632zM8.047 3.338c.45.45.45 1.181 0 1.632L5.786 7.23l2.26 2.262a1.154 1.154 0 0 1-1.631 1.632L3.338 8.047a1.154 1.154 0 0 1 0-1.632l3.077-3.077c.45-.45 1.181-.45 1.632 0zM28.77 13.77c.637 0 1.153.516 1.153 1.153v16.923a1.154 1.154 0 0 1-2.308 0V14.923c0-.637.517-1.154 1.154-1.154z" fill="#fff"/>
    <path fill-rule="evenodd" clip-rule="evenodd" d="M24.876 27.953c.451-.45 1.182-.45 1.632 0l2.261 2.261 2.261-2.26a1.154 1.154 0 1 1 1.632 1.631l-3.077 3.077c-.45.45-1.181.45-1.632 0l-3.077-3.077a1.154 1.154 0 0 1 0-1.632zM27.953 14.107c.45-.45 1.181-.45 1.632 0l3.077 3.077a1.154 1.154 0 1 1-1.632 1.632l-2.26-2.261-2.262 2.26a1.154 1.154 0 0 1-1.632-1.63l3.077-3.078zM7.23 16.077A1.923 1.923 0 0 0 5.309 18v10.77a1.923 1.923 0 0 0 1.923 1.922H18a1.923 1.923 0 0 0 1.923-1.923V18A1.923 1.923 0 0 0 18 16.077H7.23zm-2.99-1.069a4.23 4.23 0 0 1 2.99-1.239H18A4.23 4.23 0 0 1 22.23 18v10.77A4.23 4.23 0 0 1 18 33H7.23A4.23 4.23 0 0 1 3 28.77V18a4.23 4.23 0 0 1 1.24-2.992z" fill="#fff"/>
</svg>
