<svg width="80" height="80" viewBox="0 0 80 80" fill="none" xmlns="http://www.w3.org/2000/svg">
    <g clip-path="url(#958czxab5a)" fill="#484848">
        <path d="M.004 51.336c-.004-.146.004-.293.004-.44C.004 35.676 0 20.452 0 5.228c0-1.1.004-2.2.004-3.305C.008.138 1.262.053 3.612.036c5.013-.04 8.71-.04 13.127-.036 2.265 0 3.466.13 3.486 1.895.016 1.328.02 2.657-.004 3.985-.008.465.146.628.613.62 1.477-.025 2.955-.005 4.436-.086.512-.029 1.027.073 1.543.073 11.357.004 22.713.004 34.066.004.21 0 .418-.004.629.004 1.181.033 1.887.742 1.9 1.936.012 1.394.016 2.787-.005 4.177-.008.448.147.587.589.578 1.323-.024 2.646.041 3.965-.02 1.908-.09 1.786 1.37 1.83 3.655.115 5.82.021 7.392.062 12.123.016 1.9-.609 3.053-2.103 2.64-.734-.203-1.238-.855-1.238-1.662-.004-3.545 0-7.094 0-10.64 0-.68-.02-1.36.004-2.041.013-.432-.174-.59-.58-.542-.081.008-.162 0-.243 0H42.606l-4.364.004c-.13 0-.26-.004-.385-.004H15.5l-1.429.008a.504.504 0 0 0-.503.505v1.908c-.008.179-.008.354-.008.533 0 6.496.004 12.987-.004 19.483 0 .656-.05 1.324-.029 1.972.085 3.228-.032 6.455.04 9.678.041 1.842-.344 3.566-1.2 5.188-.273.517-.252.542.348.542 5.679 0 11.357.004 17.035-.004.48 0 .934.053 1.34.33.613.415.868 1.165.653 1.927-.207.721-.84 1.206-1.627 1.206-3.016.008-6.032.004-9.052.004-4.55 0-9.1-.069-13.645.029-2.643.057-4.38-1.214-5.744-3.276-.402-.608-.722-1.26-1.014-1.98a13.184 13.184 0 0 1-.658-3.416zM3.592 27.91c0 7.873-.012 15.742.008 23.615.004 1.768.727 3.268 2.013 4.47.67.628 1.6.648 2.29.045 1.286-1.133 2.029-2.571 2.057-4.287.05-3.154.017-6.312.017-9.47 0-8.973.008-17.946-.008-26.92-.005-1.291.673-2.204 2.183-2.2 15.63.033 31.266.02 46.896.02.146 0 .292-.012.434 0 .276.025.362-.098.354-.37-.017-.681-.008-1.361-.008-2.042-.005-.75-.005-.75-.743-.75-13.488 0-26.971-.012-40.459.012a1.943 1.943 0 0 1-1.997-2c.045-1.313.012-2.625.012-3.937 0-.705-.004-.705-.694-.705H4.331c-.739 0-.739 0-.739.762V27.91z"/>
        <path d="M58.277 79.996c-11.92.102-21.723-9.866-21.703-21.765.02-11.988 9.904-21.752 21.768-21.744C70.125 36.5 80.057 46.3 80 58.366c-.053 11.81-9.79 21.74-21.723 21.63zm6.725-38.704c-3.178-1.198-6.417-1.557-9.781-.99-3.458.582-6.486 2.05-9.056 4.4-3.957 3.623-5.958 8.167-6.003 13.554.013 3.309.67 5.982 2.294 8.875 2.634 4.699 6.607 7.657 11.815 8.908 2.853.689 5.71.615 8.564-.134 2.358-.624 4.514-1.626 6.437-3.122 4.672-3.639 7.034-8.46 7.189-14.36.04-1.532-.159-3.06-.54-4.564-1.116-4.425-3.564-7.91-7.241-10.567-2.05-1.483-3.678-2-3.678-2z"/>
        <path d="M66.403 68.35c-.357.04-.78-.253-1.157-.628-1.44-1.435-2.874-2.873-4.31-4.312-.764-.766-1.539-1.52-2.29-2.298-.267-.281-.446-.26-.71.004a2448.247 2448.247 0 0 1-6.53 6.56c-.662.665-1.446.844-2.156.51-1.153-.546-1.38-1.935-.455-2.869 1.648-1.666 3.304-3.316 4.96-4.975.573-.57 1.133-1.153 1.713-1.716.252-.244.268-.423.008-.676-1.201-1.17-2.386-2.364-3.575-3.545-1.076-1.068-2.156-2.136-3.187-3.252-.694-.754-.67-1.773.004-2.453a1.747 1.747 0 0 1 2.484-.033c1.068 1.01 2.09 2.062 3.13 3.105 1.213 1.215 2.431 2.429 3.628 3.656.264.273.427.273.694 0 2.2-2.23 4.416-4.446 6.633-6.663.612-.611 1.376-.754 2.082-.416.645.31 1.051 1.056.978 1.802-.049.521-.365.884-.71 1.234-2.156 2.164-4.303 4.332-6.47 6.483-.296.294-.325.46-.012.77a349.042 349.042 0 0 1 5.195 5.217c.572.586 1.226 1.096 1.7 1.78.374.542.419 1.109.139 1.7-.309.656-.849.978-1.786 1.014z"/>
    </g>
    <defs>
        <clipPath id="958czxab5a">
            <path fill="#fff" d="M0 0h80v80H0z"/>
        </clipPath>
    </defs>
</svg>
