<svg width="32" height="32" viewBox="0 0 32 32" fill="none" xmlns="http://www.w3.org/2000/svg">
    <path d="M30.68 7.836a9.288 9.288 0 0 0-2.033-2.957 9.443 9.443 0 0 0-3-1.982 9.476 9.476 0 0 0-3.657-.725A9.538 9.538 0 0 0 16 4.282a9.538 9.538 0 0 0-5.99-2.11 9.476 9.476 0 0 0-3.656.725 9.423 9.423 0 0 0-3 1.982 9.23 9.23 0 0 0-2.782 6.597c0 1.189.243 2.428.725 3.689.404 1.053.982 2.146 1.722 3.25C4.19 20.16 5.8 21.983 7.8 23.829c3.314 3.06 6.596 5.175 6.736 5.26l.846.544c.375.239.857.239 1.232 0l.847-.543c.139-.09 3.417-2.2 6.735-5.261 2-1.846 3.611-3.668 4.782-5.414.74-1.104 1.322-2.197 1.722-3.25.482-1.261.725-2.5.725-3.69a9.093 9.093 0 0 0-.747-3.639zM16 26.808S3.288 18.66 3.288 11.476c0-3.64 3.01-6.59 6.725-6.59 2.61 0 4.875 1.457 5.989 3.586 1.114-2.129 3.378-3.586 5.99-3.586 3.713 0 6.724 2.95 6.724 6.59 0 7.185-12.714 15.332-12.714 15.332z" fill="#fff"/>
</svg>
