<svg width="32" height="32" viewBox="0 0 32 32" fill="none" xmlns="http://www.w3.org/2000/svg">
    <g clip-path="url(#je47uwhz9a)" fill="#fff">
        <path d="M18.18 12.75c-.826 0-1.465.64-1.465 1.428 0 .79.64 1.43 1.464 1.43.754 0 1.393-.64 1.393-1.43 0-.789-.64-1.428-1.393-1.428zm-10 0c-.826 0-1.465.64-1.465 1.428 0 .79.64 1.43 1.464 1.43.754 0 1.393-.64 1.393-1.43 0-.789-.64-1.428-1.393-1.428z"/>
        <path d="M29.642 10.033a12.283 12.283 0 0 0-6.75-4.643v.004c-.61-.679-1.3-1.304-2.071-1.861C14.974-.717 6.767.579 2.5 6.426c-3.44 4.75-3.293 11.139.214 15.678l.028 4.736a1.141 1.141 0 0 0 1.486 1.082l4.522-1.425c1.196.425 2.432.668 3.66.736l-.018.014a12.41 12.41 0 0 0 11.179 1.75l4.54 1.479a1.142 1.142 0 0 0 1.497-1.086v-4.786a12.353 12.353 0 0 0 .034-14.571zM9.25 23.96l-.43-.178-3.535 1.107-.035-3.714-.286-.322C1.942 17.17 1.742 11.858 4.57 7.961 8.014 3.24 14.614 2.197 19.32 5.604c4.721 3.432 5.768 10.022 2.357 14.715A10.619 10.619 0 0 1 9.25 23.96zm18.035-.607-.285.357.035 3.715-3.5-1.179-.428.179c-2 .743-4.133.803-6.107.25l-.008-.004a13.118 13.118 0 0 0 6.758-4.818A13.101 13.101 0 0 0 25.335 9.34l.022.014a9.649 9.649 0 0 1 2.214 2.215 9.695 9.695 0 0 1-.286 11.785z"/>
        <path d="M13.18 12.75c-.826 0-1.465.64-1.465 1.428 0 .79.64 1.43 1.464 1.43.754 0 1.393-.64 1.393-1.43 0-.789-.64-1.428-1.393-1.428z"/>
    </g>
    <defs>
        <clipPath id="je47uwhz9a">
            <path fill="#fff" d="M0 0h32v32H0z"/>
        </clipPath>
    </defs>
</svg>
