<svg width="32" height="30" viewBox="0 0 32 30" fill="none" xmlns="http://www.w3.org/2000/svg">
    <path d="M15.974 16.297c0 2.45.014 4.901-.009 7.35-.007.611.16.836.71.823 1.468-.034 2.937-.016 4.403-.008 1.116.005 1.43.374 1.435 1.661.002.753-.003 1.504-.005 2.258-.002.572-.221.861-.757.861-4.347-.01-8.696-.003-13.043-.008-.62 0-.77-.178-.777-.88-.012-.838-.007-1.676-.002-2.514.006-.95.343-1.352 1.217-1.368 1.505-.026 3.012-.008 4.517-.01 1.258-.003 1.172.11 1.172-1.31 0-4.665-.006-9.329.01-13.993.002-.617-.082-1.094-.638-1.336a.779.779 0 0 1-.361-.3c-.332-.608-.757-.516-1.254-.314-1.631.655-3.272 1.274-4.905 1.919-.669.263-.696.322-.393 1.04 1.06 2.515 2.132 5.022 3.194 7.535.152.356.335.588.726.57.492-.02.707.312.698.86-.012.776-.308 1.418-.755 1.96-.96 1.16-2.191 1.751-3.55 1.92-1.81.22-3.574.035-5.124-1.24a4.23 4.23 0 0 1-1.366-2.001c-.292-.903-.039-1.396.784-1.504.293-.039.422-.23.533-.493 1.037-2.432 2.078-4.863 3.118-7.295.115-.269.244-.493-.01-.805-.37-.462-.248-.89.299-1.127.703-.305 1.416-.57 2.13-.844 1.496-.575 2.99-1.15 4.49-1.708.37-.14.537-.374.57-.83.076-1.146.65-1.922 1.565-2.312.947-.402 1.853-.188 2.53.673.342.434.626.4 1.022.24 2.18-.866 4.367-1.72 6.55-2.577.266-.103.526-.129.713.168.183.289.13.585-.079.818-.21.234-.151.459-.05.701 1.124 2.624 2.249 5.247 3.372 7.871.097.225.228.369.463.413.84.165 1.062.658.745 1.581-.33.962-.894 1.713-1.685 2.175-2.637 1.535-5.246 1.509-7.761-.359-.79-.588-1.283-1.44-1.32-2.564-.018-.521.186-.825.66-.823.319.003.504-.134.649-.48.987-2.34 1.997-4.669 2.996-7.004.07-.165.232-.353.104-.529-.147-.203-.348-.051-.522.016-1.528.596-3.053 1.205-4.587 1.785-.33.127-.497.33-.542.72-.124 1.112-.608 1.924-1.543 2.342-.362.163-.346.514-.346.862.01 2.471.01 4.943.01 7.414zm-.748 11.748c0 .003 0 .003 0 0 1.693.003 3.383.01 5.075 0 1.28-.008 1.161.194 1.166-1.352.002-.91-.023-.934-.825-.934-3.46-.002-6.916-.007-10.375.003-1.48.003-1.27-.204-1.313 1.53-.013.603.181.774.69.766 1.861-.028 3.723-.013 5.582-.013zm9.275-16.884c.904 0 1.807-.008 2.709.002.323.005.407-.11.258-.451-.916-2.118-1.826-4.239-2.732-6.362-.17-.397-.287-.302-.425.024a934.87 934.87 0 0 1-2.673 6.25c-.196.452-.07.55.321.542.85-.016 1.695-.003 2.542-.005zm-18.07 7.1c.826 0 1.653.004 2.483-.003.569-.005.594-.06.336-.663-.813-1.912-1.626-3.82-2.444-5.727-.077-.18-.098-.47-.337-.452-.18.016-.237.253-.31.423-.833 1.945-1.658 3.898-2.503 5.836-.22.5-.056.595.35.588.807-.01 1.616 0 2.425-.003zm18.063-5.908c-1.073 0-2.146-.013-3.22.007-.302.006-.783-.19-.874.153-.108.412.308.73.592 1.01.057.055.129.088.192.138 1.507 1.148 3.175 1.266 4.878.884.886-.198 1.735-.598 2.345-1.434.125-.17.335-.359.217-.614-.101-.224-.339-.137-.517-.137-1.204-.007-2.409-.005-3.613-.007zM6.476 21.869c1.45.013 3.025-.606 3.789-1.496.183-.212.474-.46.38-.733-.105-.302-.464-.157-.708-.15-2.307.088-4.616.11-6.923-.012-.228-.013-.542-.152-.653.178-.101.302.168.495.337.686 1.05 1.176 2.388 1.437 3.778 1.527zm8.951-17.916c-.775 0-1.378.67-1.36 1.514.016.826.662 1.548 1.383 1.546.72-.003 1.292-.674 1.297-1.525 0-.91-.533-1.535-1.32-1.535z" fill="#fff" stroke="#fff" stroke-width=".8"/>
</svg>
