<svg width="32" height="32" viewBox="0 0 32 32" fill="none" xmlns="http://www.w3.org/2000/svg">
    <path d="M28.572 24.005a9.995 9.995 0 0 0-5.715-9.033V9.051c0-.54-.189-1.06-.539-1.472l-5.443-6.453a1.141 1.141 0 0 0-1.75 0L9.682 7.579a2.285 2.285 0 0 0-.539 1.472v5.921a9.995 9.995 0 0 0-5.714 9.033h5.589a2.759 2.759 0 0 0-.125.85 3.468 3.468 0 0 0 2.304 3.264A5.207 5.207 0 0 0 16 31.29c1.04 0 2.047-.307 2.907-.886A5.184 5.184 0 0 0 20.8 28.12a3.465 3.465 0 0 0 1.54-1.09 3.483 3.483 0 0 0 .764-2.171c0-.3-.04-.586-.111-.85h5.579v-.003zm-3.633-4.093c.336.521.608 1.082.804 1.664h-3.029v-3.904a7.556 7.556 0 0 1 2.225 2.24zm-13.367-4.94V9.104L16 3.854l4.429 5.25v12.472h-8.857v-6.604zm-5.315 6.604a7.6 7.6 0 0 1 3.029-3.904v3.904H6.257zm13.89 4.15a.963.963 0 0 1-.611.121l-.697-.085-.1.692A2.78 2.78 0 0 1 16 28.83a2.78 2.78 0 0 1-2.74-2.375l-.1-.696-.696.09a.989.989 0 0 1-.61-.126 1.005 1.005 0 0 1-.504-.871c0-.379.21-.693.522-.85h8.26c.315.16.522.475.522.85-.004.364-.197.7-.507.875zm-5.861-13.721a1.714 1.714 0 1 0 3.428 0 1.714 1.714 0 0 0-3.428 0z" fill="#fff"/>
</svg>
