<svg width="18" height="18" viewBox="0 0 18 18" fill="none" xmlns="http://www.w3.org/2000/svg">
    <g clip-path="url(#ffgk67d2ta)">
        <path d="M9.034 0C13.832-.053 18.049 4 18 9.047c-.05 4.994-4.056 8.954-8.993 8.953C3.921 17.999-.03 13.91 0 8.9.03 4.036 4.069-.046 9.034.001zM3.448 9.262c-.1.47.243.786.562 1.109.843.852 1.678 1.713 2.547 2.539.746.709.984.797 1.734.06.968-.948 1.85-1.974 2.777-2.96 1.068-1.134 2.107-2.297 3.154-3.452.255-.28.432-.601.366-1.003-.079-.473-.345-.794-.797-.957-.466-.168-.874-.036-1.203.298a64.14 64.14 0 0 0-1.69 1.79A409.132 409.132 0 0 0 7.78 10.11c-.26.29-.454.25-.705-.013A45.068 45.068 0 0 0 5.39 8.416c-.38-.357-.825-.452-1.323-.219-.437.2-.637.533-.62 1.064z" fill="#5ea88e"/>
    </g>
    <defs>
        <clipPath id="ffgk67d2ta">
            <path fill="#fff" d="M0 0h18v18H0z"/>
        </clipPath>
    </defs>
</svg>
