<svg width="269" height="204" viewBox="0 0 269 204" fill="none" xmlns="http://www.w3.org/2000/svg">
    <path d="M248.312 39.605 266.246.8c.283-.618-.621-1.096-1.081-.583L228.978 39.34H23.465C10.564 39.34.002 48.833.002 60.413L0 180.927C0 192.524 10.562 202 23.463 202h221.072c12.901 0 23.463-9.493 23.463-21.073L268 60.413c0-10.448-8.559-19.164-19.688-20.808z" fill="#fff"/>
    <path d="M244.7 204H24.293C10.901 204 0 194.103 0 181.936L.007 61.525c0-12.168 10.9-22.065 24.293-22.065h204.488L264.601.51a1.562 1.562 0 0 1 2.049-.23c.619.408.831 1.17.53 1.827l-17.385 37.85c5.141 1.01 9.823 3.53 13.304 7.2 3.816 4.01 5.901 9.118 5.901 14.385l-.006 120.429C269.011 194.103 258.093 204 244.7 204zM24.3 41.287c-12.403 0-22.474 9.081-22.474 20.238L1.82 181.953c0 11.157 10.088 20.238 22.473 20.238H244.7c12.403 0 22.474-9.081 22.474-20.238l.006-120.428c0-4.79-1.926-9.454-5.406-13.108-3.463-3.654-8.233-6.084-13.445-6.846l-1.202-.177 17.597-38.33-35.141 38.24H24.3v-.017z" fill="#999"/>
</svg>
