<svg width="68" height="108" viewBox="0 0 68 108" fill="none" xmlns="http://www.w3.org/2000/svg">
    <path d="M1.217 34.992a1.134 1.134 0 1 0 .001-2.267 1.134 1.134 0 0 0-.001 2.267z" fill="#332E3C"/>
    <path d="M1.217 35.075A1.213 1.213 0 0 1 0 33.859c0-.673.543-1.215 1.217-1.215s1.217.542 1.217 1.215c0 .674-.56 1.216-1.217 1.216zm0-2.25c-.576 0-1.053.476-1.053 1.051s.477 1.05 1.053 1.05c.575 0 1.052-.475 1.052-1.05 0-.575-.477-1.05-1.052-1.05zM8.765 34.992a1.134 1.134 0 1 0 .002-2.267 1.134 1.134 0 0 0-.002 2.267z" fill="#332E3C"/>
    <path d="M8.765 35.075a1.213 1.213 0 0 1-1.217-1.216c0-.673.543-1.215 1.217-1.215s1.217.542 1.217 1.215c0 .674-.543 1.216-1.217 1.216zm0-2.25c-.575 0-1.052.476-1.052 1.051s.477 1.05 1.052 1.05c.576 0 1.052-.475 1.052-1.05 0-.575-.476-1.05-1.052-1.05zM15.966 34.992a1.134 1.134 0 1 0 .001-2.267 1.134 1.134 0 0 0-.001 2.267z" fill="#332E3C"/>
    <path d="M15.966 35.075a1.213 1.213 0 0 1-1.217-1.216c0-.673.543-1.215 1.217-1.215s1.217.542 1.217 1.215c0 .674-.56 1.216-1.217 1.216zm0-2.25c-.576 0-1.053.476-1.053 1.051s.477 1.05 1.053 1.05c.575 0 1.052-.475 1.052-1.05 0-.575-.477-1.05-1.052-1.05z" fill="#332E3C"/>
    <path d="M62.054 76.517s-.296 1.001-.954 1.445c-.657.443-1.841.985-2.581 1.1-.757.115-2.187.148-2.927-.132-.74-.279-1.365-.624-1.365-.624l-1.496-6.32-1.348-6.109h-2.927l-.313 1.527-.69 3.399s-1.233 6.502-1.135 8.34c-.312.428-.312.46-.838.69-.526.23-2.22.444-3.256.263-1.036-.18-3.7-.755-5.08-1.872-.823-.394-.773-1.264-.773-1.264l-.214-3.399s.362-3.957.608-5.024c.247-1.067.74-2.693.69-2.66-1.413.132-3.337-.18-3.337-.18s-1.464-1.1-1.809-1.708c-.345-.591-1.184-2.643-1.299-3.35-.115-.706-1.101-3.842 1.727-9.129.608.64 1.134 1.33 3.436 1.74a730.36 730.36 0 0 1 3.338-1.624l3.88-1.445s2.977-.986 4.687.443c1.71 1.428 1.562 2.167 1.562 2.167.098-.985.493-3.152.871-3.694.56.361.74 1.05.74 1.05s.74 1.955.69 2.447c-.032.493.576 1.691.576 1.691l1.381 1.002s.773.607 1.053.23c.28-.361-.214-.854-.263-.92-.05-.065-.74-.739-.79-.804-.033-.066-.444-.838-.41-1.51.032-.674.081-.97.081-.97s1.267 2.053 1.415 2.135c.131.082 2.006 2.266 2.006 2.266s.805.279 1.118-.066l.312-.345s.74.477 1.151-.147c.197-.312.165-.427.526-.312.378-.132.658-.148.658-.559 0-.41-.082-1.609-.082-1.609l-.592-2.052-.773-1.478.526.099 1.036-.214.822 1.199s1.776 2.643 2.072 4.794c.296 2.151.296 3.218.296 3.218s0 3.465-.872 5.435c-1.052 1.691-1.463 2.233-1.858 2.348-.23.033-.246.246-.246.28 0 .048.329 6.813.822 9.16.066.493.148 1.052.148 1.052z" fill="#FCD68B"/>
    <path d="m59.373 21.05-4.571-1.067s0-1.79.395-2.316c-.346.033-1.2 0-1.2 0s-1.415-.919-1.152-1.182c.411-.164 1.283-.755 1.414-.936.132-.18.855-1.001.033-1.838-.395-.362-1.414-.345-1.414-.345s-1.677-.936-2.187-3.202a41.36 41.36 0 0 0-.674-2.102l.28-3.661s-.23-.92-.675-1.396c-.213-.213-.772-.755-.888-.755-.098 0-1.792.312-3.206 2.693-.246.476-.92 1.757-1.25 2.692-.312.395-.838.887-1.677 1.018-.164.05-.345.575-.295 1.018.065.296.526.46.115 2.07l1.644.574-.181.345s-.411.427-1.677.443c-.066.164-.346.657-.46 1.543-.116.559.575 1.61 1.085 1.856s2.17.771 2.86.722c.33.394.773.805.921 2.644-.197.246-.559.279-.74.394-.18.115-2.236.673-3.946.722.099.345.888 3.218 1.809 3.678-.082.41-.329 1.05-.46 1.199-.132.13-3.059 2.873-3.7 3.924-.395.377-.839 1.412-.247 2.315s6.725 10.656 6.725 10.656.23.131.494 0c.263-.132 1.578-.87 2.071-2.873.51-2.02.165-3.793.165-3.793l-.444-.28-3.7-3.562-1.25-1.199.626-.82 3.354-3.416 1.397.197s2.566.41 5.46-.87c2.926-1.314 5.146-5.09 5.146-5.09zM46.678 49.95l2.566-1.971s.772.706.888.804c.131.099.937.74 1.233 1.724.296.985.756 3.35.986 3.613.23.262 2.006 1.707 2.516 1.527.51-.181-.51-1.347-.51-1.347s-1.167-.591-.806-2.988c.33.59 1.957 2.906 3.059 3.924.822.608 1.2.837 1.71.131.345.115.92.345 1.348-.46-.016-.246.346-.065.346-.065s.822 0 .69-1.067c-.132-1.051-.493-3.087-.806-3.596-.312-.493-.657-1.05-.657-1.05s1.02.13 1.463-.1c.444-.23.954-.41 1.036-1.001-.28-.05-1.644-.476-1.644-.476s-2.006-1.084-2.78-1.757c-.953-.427-2.285-.985-2.285-.985s-2.696-1.297-3.502-1.494c-.806-.18-2.105-.559-4.39.443-1.414.575-2.417 1.084-2.417 1.084s-.428.837-.493 1.445c-.066.607-.362 2.61 1.183 3.513.625.066 1.267.148 1.267.148zM61.657 77.418c-.213.246-.805.854-1.463 1.116-.658.28-2.664 1.248-5.344.132.313 1.116.592 2.43.592 2.43s.674 2.857.33 5.352c-.33 2.48-.757 4.17-.757 4.17s-1.562 4.697-2.138 5.977c-.592 1.281-2.022 3.777-2.105 4.746-.082.968.346 1.526 1.546 1.773 1.217.262 4.473-1.281 4.473-1.281s3.107-1.494 3.551-3.333c.444-1.855.313-3.53.313-3.53l.032-4.581.609-2.15.23-1.232-.23-1.724s-.197-1.987-.066-2.71c.115-.705.428-5.155.428-5.155zM44.936 80.076s-1.694.099-1.825.099c-.132 0-2.253-.132-3.19-.608-.937-.476-2.779-1.231-2.779-1.231l.181 3.185.756 10.016s.346 2.331-.378 4.367c-.214.821-.97 2.84.329 4.138 1.299 1.297 2.302 3.333 2.434 3.908.131.591.082 2.463 2.186 2.972 2.582.935 6.166.18 6.166.18s.609-.427 0-1.231c-.608-.821-1.447-2.003-1.447-2.003l-1.282-1.774-1.118-2.578-.987-3.48-.493-3.087s-.543-4.088.263-7.8c.822-3.693 1.184-5.073 1.184-5.073z" fill="#FCD7C3"/>
    <path d="m42.47 11.824 1.464.624s-.625.739-1.71.591l.247-1.215z" fill="#fff"/>
    <path d="M55.048 17.669s-1.694.345-2.319-1.15c.708-.295 1.464-.706 1.694-1.182.23-.476.444-1.15-.115-1.642-.543-.492-.658-.344-.97-.36-.526-.017-2.023-.46-2.795-2.792-.444-1.264-.46-.985-.526-2.48-.05-1.494.427-2.906.361-3.07-.066-.164.214-1.231-.822-1.97-.329-.345-.937-.657-1.134-.64-.198.016-.888.164-1.464.853-.74.887-1.463 1.774-1.463 1.774s-.23.427-.378.722c-.148.296-.362-.016-.642-.295-.575-.591.033-2.266.033-2.266s.296-1.084 1.809-1.987 3.305-1.067 4.045-.69c1.101.559 1.693-.279 3.42.148 1.315.329 3.88.953 5.426 2.315 1.546 1.347 2.335 2.61 2.5 4.368.427.131.92.082 1.348.377.427.296 1.38 1.018 1.759 2.118.378 1.117.954 2.775.329 5.73-.625 2.956-1.579 5.797-1.579 6.24-.641-.148-4.045-1.28-4.045-1.28l-.131.163-1.3-.098s.626-4.04 1.086-5.008c-.477.542-1.694 1.445-1.694 1.445s-1.858.739-2.433.657zM62.775 44.283c1.036-2.446-.707-6.14-.707-6.14l.822-2.037 1.562-3.25 1.053 2.61s1.315 3.153 1.529 5.123c.213 1.954-.313 3.694-.313 3.694s-.822 2.38-2.104 3.383l-.822.673s-2.5-.41-1.02-4.056z" fill="#7C7474"/>
    <path d="M59.604 20.576c.05-.115 3.387.837 4.604 1.593 1.216.755 2.006 1.97 2.055 2.709.05.738.345 1.707-.132 3.316-.46 1.61-1.233 3.81-1.742 4.91-.51 1.1-2.467 4.942-2.582 5.648-.115.706-1.924 4.466-2.088 6.633-.05.755-.033 1.938-.033 1.938s-1.233-.64-2.17-1.396a68.183 68.183 0 0 0-2.138-.936l-3.37-1.494s-1.58-.558-2.04-.361c-.476.032-3.37.87-3.37.87l-.724-1.084s.69-.098.954-.262c.263-.165 1.381-1.084 1.694-2.283.312-1.198.69-2.807.295-4.285-.575-.361-4.538-4.22-4.538-4.22l-.888-.903.675-.739 3.436-3.431s1.973.295 2.581.262c.609-.032 3.601-.279 4.95-1.346 1.332-1.067 3.847-3.431 4.57-5.14z" fill="#A3B8C9"/>
    <path d="M42.025 20.625s.543 3.58 1.611 4.072c-.033.492-.066.788-.246 1.002-.181.213-2.401 2.43-2.828 2.89-.428.459-1.891 1.608-1.234 3.513.05.082.46.722.46.722l6.2 9.852s-.379 0 .065.542c.444.558.51.788.395.87-.099.066-1.694.804-1.694.804s-.476.772-.542 2.118c-.066 1.347.723 2.808 1.25 2.84.526.034 1.15.165 1.529-.13.378-.296 2.252-1.774 2.252-1.774l1.25 1.183-.872 3.562s-.559-1.083-.69-1.247c-.148-.165-1.316-1.248-2.236-1.478-.888-.164-2.17-.132-2.368.016-.197.148-2.845.74-4.834 1.675-1.99.936-3.223 1.576-3.223 1.576s-1.398-.23-1.595-.312c-.197-.082-1.677-.673-1.94-1.362-.247-.69-.592-.772.197-2.053.773-1.297 2.17-3.3 2.17-3.3s1.678-2.414 1.744-3.038c-.083-.771-.592-3.53-.592-3.53l-.938-6.157s-.41-3.858-.444-5.73a6.085 6.085 0 0 1 2.417-5.008c1.53-1.231 4.736-2.118 4.736-2.118z" fill="#A3B8C9"/>
    <path d="M44.887 99.073c-.28.953-4.16 2.118-6.758-4.745-.296 1.182-.625 2.332-.657 2.447-.033.13-.658 1.871.394 3.086 1.052 1.215 1.743 1.921 2.055 2.709.313.789.658 2.02.658 2.02s.05 1.708 1.66 2.167c1.629.46 3.47.591 3.47.591l2.845-.18s.904.049.246-1.297c-.657-1.347-1.825-2.447-1.825-2.447s-2.137-3.382-2.088-4.35zM61.181 83.918c.033.18-.164 2.02-.345 2.66-.592 2.134-1.743 5.188-4.325 4.269-1.611-.575-.953-2.627-.953-2.627l-.872 3.431s-1.644 4.614-2.006 5.304c-.361.69-1.973 3.628-1.94 4.351.033.739-.115 1.51 1.546 1.806 1.677.295 3.896-.985 3.896-.985s2.829-1.494 3.338-2.184c.494-.673 1.086-1.626 1.102-3.251.017-1.642-.05-3.694-.05-3.694s-.197-2.808.61-4.433c.821-1.626.13-3.054.13-3.054l-.13-1.593z" fill="#A0A9AF"/>
    <path d="M59.39 21.05c-1.579-.032-3.174-.213-4.604-.919a.243.243 0 0 1-.083-.328.24.24 0 0 1 .33-.082c1.348.673 2.877.837 4.357.854.312 0 .312.476 0 .476zM45.084 99.09c-.017.607-.642.853-1.151.919a3.833 3.833 0 0 1-1.875-.247 4.148 4.148 0 0 1-.986-.542 6.49 6.49 0 0 1-.855-.788c-.493-.525-.97-1.1-1.349-1.724a8.74 8.74 0 0 1-1.003-2.266c-.082-.295.379-.426.46-.13.363 1.296 1.053 2.446 1.941 3.447.46.51.92 1.018 1.53 1.347.525.279 1.117.443 1.71.443.279 0 .526-.033.789-.132.032-.016-.033.017 0 0 .016 0 .032-.016.049-.016.033-.016.05-.033.082-.05.017 0 .017-.016.033-.016.033-.016-.033.017 0 0a.226.226 0 0 1 .066-.049c.033-.033 0 .016.016-.033 0-.016.033-.065.033-.049-.016.016.017-.033.017-.05v-.032c-.017.066 0-.016 0-.016.016-.329.51-.329.493-.017zM61.43 84.804a23.505 23.505 0 0 1-.56 2.364c-.23.755-.51 1.51-.937 2.184-.378.624-.888 1.231-1.546 1.576-.641.329-1.38.41-2.039.066-.657-.345-1.167-1.034-1.2-1.79-.016-.312.477-.312.477 0 .016.542.395 1.035.839 1.314.526.312 1.134.262 1.66 0 .592-.312 1.036-.854 1.381-1.412.379-.608.625-1.281.855-1.97.264-.805.444-1.626.592-2.463.017-.132.181-.198.296-.165.148.033.198.165.181.296zM49.69 2.827c.591.361.838 1.034.87 1.691.017.378-.032.755-.065 1.133-.033.394-.082.772-.115 1.166-.083.739-.181 1.51-.066 2.266a4.107 4.107 0 0 0 2.023 2.972c.262.147.032.574-.247.41-1.053-.607-1.858-1.642-2.154-2.824-.181-.706-.165-1.445-.099-2.167.066-.772.164-1.527.23-2.299.05-.657.033-1.527-.608-1.921-.28-.18-.033-.591.23-.427zM60.788 10.495c-.198.673-.806 1.132-1.382 1.477-.624.378-1.332.657-2.055.74-.411.048-.839.015-1.233-.1-.296-.082-.165-.558.131-.46.625.182 1.266.116 1.858-.098a5.243 5.243 0 0 0 1.678-.92c.246-.213.46-.443.542-.754.082-.312.56-.197.46.114zM53.321 15.189c-.016-.017-.033-.033-.066-.033-.016-.017-.05-.017-.066-.033.033.033.033.016 0 0-.016 0-.032-.016-.032-.016-.017 0-.05-.017-.066-.017-.017 0-.05 0-.066-.016.017 0 .05 0 0 0h-.181.017-.033c-.017 0-.05.016-.066.016-.017 0-.05.017-.066.017s-.033.016-.033.016c.017 0 .05-.016.017 0a.359.359 0 0 0-.132.082s-.033.033 0 0c.033-.016 0 0-.016.017-.017.016-.033.032-.066.049-.082.098-.263.098-.345 0-.083-.099-.099-.247 0-.345a1.173 1.173 0 0 1 1.463-.164c.099.066.164.213.082.328-.082.115-.23.164-.345.099z" fill="#332E3C"/>
    <path d="M52.418 13.221c.559-.18 1.2-.164 1.743.099.526.246.838.772.756 1.363-.066.558-.428 1.034-.839 1.395a3.445 3.445 0 0 1-1.331.69 3.355 3.355 0 0 1-1.71 0c-.296-.082-.181-.542.131-.46a2.88 2.88 0 0 0 2.368-.427c.345-.23.657-.558.822-.936.164-.394.099-.853-.28-1.1-.444-.295-1.036-.295-1.529-.148-.312.083-.427-.377-.131-.476zM42.485 11.513c.296.099.592.213.872.312.148.05.296.115.444.164.164.05.394.099.46.263.148.312-.197.591-.428.739-.213.148-.46.263-.723.312a2.254 2.254 0 0 1-.937.016c-.132-.016-.198-.18-.165-.295.033-.132.165-.197.296-.164.28.049.576.032.872-.066.131-.05.263-.115.394-.197a.512.512 0 0 0 .148-.115c.033-.017.05-.05.066-.066 0 0 .033-.033.017-.033v-.016.033c.016.033.049.065.065.098l-.016-.016c.033.016.066.05.099.066-.264-.115-.543-.197-.806-.296-.263-.099-.543-.197-.806-.296-.115-.049-.197-.164-.164-.295.05-.099.197-.197.312-.148zM45.644 6.471c.592-.164 1.266.131 1.562.673a.24.24 0 0 1-.411.246c-.033-.049-.05-.114-.098-.147.016.016.016.016 0 0l-.033-.033c-.017-.016-.033-.05-.066-.066-.017-.016-.082-.065-.033-.033-.016-.016-.05-.032-.066-.049-.05-.033-.098-.066-.164-.082-.033-.016 0 0 .016 0l-.05-.016c-.032-.017-.048-.017-.081-.033-.033 0-.066-.017-.082-.017h-.033.016-.247c.017-.016.033 0 0 0-.032 0-.065.017-.098.017-.115.033-.263-.033-.296-.164-.05-.132.033-.263.164-.296zM44.524 7.506c-.131.706-.789 1.117-1.463 1.215-.132.017-.296.017-.411.099-.05.033-.066.065-.099.115-.016.033-.016.065-.033.115 0 .016-.016.082 0 .032-.032.247.033.542.132.772.05.115.033.263-.082.329-.099.065-.28.032-.33-.082-.262-.542-.394-1.495.33-1.757.148-.05.312-.066.477-.099.164-.033.328-.082.476-.164.28-.148.477-.394.527-.69.016-.131.18-.197.295-.164.148.017.214.148.181.28zM45.297 4.88a9.438 9.438 0 0 1 1.464-1.773c.542-.509 1.2-1.067 1.99-1.084.312 0 .312.477 0 .477-.675.016-1.25.558-1.694 1.001a8.362 8.362 0 0 0-1.332 1.61c-.164.278-.592.032-.428-.23zM42.059 14.367c-.28.64.132 1.395.641 1.773.658.509 1.546.657 2.351.771.543.083 1.086.115 1.628.132.313 0 .313.492 0 .476a13.316 13.316 0 0 1-1.611-.131 10.48 10.48 0 0 1-1.43-.28c-.872-.262-1.678-.755-2.006-1.625-.181-.443-.181-.936.016-1.38.05-.114.23-.147.329-.081.131.082.148.213.082.345z" fill="#332E3C"/>
    <path d="M44.295 5.568c-.51-1.199-.164-2.562.658-3.547.822-.985 2.072-1.592 3.288-1.888.757-.18 1.546-.213 2.253.131.115.066.148.23.082.329a.24.24 0 0 1-.329.082C49.705.412 49.08.429 48.505.56c-.56.115-1.119.328-1.645.575-1.003.509-1.89 1.297-2.22 2.397-.164.575-.18 1.215.05 1.773.05.115.033.263-.082.328-.083.083-.264.05-.313-.065zM61.329 8.97c.51-1.675-.066-3.498-1.168-4.795-1.15-1.363-2.779-2.25-4.456-2.808A13.383 13.383 0 0 0 52.5.727c-.132-.016-.247-.099-.247-.246 0-.132.115-.247.247-.247 1.99.148 3.98.723 5.722 1.724 1.579.92 2.943 2.283 3.519 4.04.329 1.001.378 2.085.066 3.086-.1.312-.56.18-.477-.115zM61.592 10.41c-.296 1.527-.74 3.07-1.562 4.4-.41.657-.904 1.281-1.496 1.774a5.02 5.02 0 0 1-1.069.706 5.61 5.61 0 0 1-1.118.377c-.888.214-1.841.28-2.746.066-.296-.082-.18-.542.132-.46.74.18 1.513.148 2.252-.016.757-.148 1.447-.427 2.056-.903 1.167-.92 1.94-2.25 2.433-3.629.28-.804.494-1.625.658-2.463.016-.13.18-.197.296-.164a.26.26 0 0 1 .164.312z" fill="#332E3C"/>
    <path d="M55.377 17.834c-.46.542-.428 1.412-.247 2.052.083.296-.378.427-.46.131-.23-.82-.197-1.838.378-2.512.082-.098.247-.082.345 0 .083.082.066.23-.016.329zM45.775 17.06c.56.197.806.755.888 1.313.099.674.05 1.363-.05 2.036-.048.345-.13.674-.213 1.002-.082.295-.559.164-.46-.131a7.744 7.744 0 0 0 .296-2.628 3.644 3.644 0 0 0-.066-.377c-.017-.066-.033-.115-.05-.18-.016-.034-.016-.05-.032-.083 0-.016-.017-.033-.017-.033-.033-.065.017.05-.016-.016-.033-.05-.05-.115-.082-.164-.017-.017-.066-.082-.033-.05-.017-.016-.033-.049-.05-.065a40.79 40.79 0 0 1-.065-.066s-.033-.033-.017-.016c.033.016-.016-.017-.016-.017-.033-.016-.05-.033-.082-.049-.017 0-.017-.016-.033-.016.033.016.016 0-.017 0-.115-.05-.197-.165-.164-.296.016-.115.148-.213.28-.164zM63.37 21.707c.197-1.182.509-2.331.854-3.48.33-1.117.658-2.25.855-3.4.33-2.019.214-4.318-1.085-5.992-.559-.723-1.348-1.248-2.253-1.265-.312 0-.312-.492 0-.476 2.023.017 3.272 2.02 3.716 3.76.592 2.332.05 4.712-.608 6.962-.395 1.33-.79 2.66-1.02 4.039-.016.131-.18.197-.295.164-.132-.05-.181-.18-.165-.312zM63.68 48.123c1.002-.722 1.841-1.658 2.384-2.774.23-.477.41-.97.542-1.495a7.5 7.5 0 0 0 .23-1.461 9.878 9.878 0 0 0-.065-2.036c0-.016 0-.05-.017-.066 0-.016-.016-.082 0-.049v-.05c0-.032-.016-.065-.016-.081l-.05-.28c-.148-.87-.41-1.707-.723-2.528-.493-1.33-1.069-2.627-1.595-3.94-.05-.148-.115-.296-.164-.427-.05-.115.049-.263.164-.296.132-.033.247.05.296.164.493 1.33 1.085 2.627 1.595 3.957.345.903.658 1.806.839 2.759a10.7 10.7 0 0 1 .197 2.61c-.05 1.084-.263 2.151-.69 3.136-.494 1.15-1.3 2.151-2.27 2.94-.148.114-.296.23-.444.328-.099.082-.263.016-.329-.082a.304.304 0 0 1 .115-.329z" fill="#332E3C"/>
    <path d="M62.777 43.921c1.085-1.855.937-4.121.164-6.059a5.708 5.708 0 0 0-.526-1.05c-.164-.263.263-.51.411-.247.444.723.757 1.544.954 2.365.263 1.083.345 2.216.131 3.3a6.117 6.117 0 0 1-.723 1.938c-.148.262-.576.016-.411-.247zM59.47 15.599c-.476 1.56-.87 3.136-1.052 4.745-.016.131-.098.246-.246.246-.115 0-.263-.115-.247-.246.197-1.659.592-3.284 1.069-4.877.099-.295.575-.164.477.132zM45.808 8.837c.164-.23.164-.509.016-.608-.148-.098-.395 0-.559.23-.164.23-.164.51-.016.608.148.115.41.016.559-.23z" fill="#332E3C"/>
    <path d="M45.2 9.15c-.198-.131-.198-.443 0-.722a.717.717 0 0 1 .312-.28c.131-.049.263-.049.361.017.198.131.198.443 0 .722-.131.197-.328.312-.493.312a.375.375 0 0 1-.18-.049zm.542-.345c.131-.197.148-.427.033-.492-.066-.05-.148-.017-.198 0a.511.511 0 0 0-.246.213c-.132.197-.148.427-.033.493.115.065.312-.033.444-.214zM39.131 32.218a2.187 2.187 0 0 1-.246-1.363c.066-.41.246-.804.477-1.166.427-.673 1.035-1.215 1.562-1.806.542-.623 1.15-1.182 1.759-1.74.115-.115.247-.23.362-.345l.131-.131c.017-.017.05-.082.017-.017.016-.016.016-.032.033-.049.246-.41.345-.936.345-1.412 0-.394.115-.788.28-1.15.18-.393.51-.787.953-.853.164-.033.28.066.313.23.098.788.098 1.593.065 2.397-.016.296-.016.608-.082.887-.082.328-.28.64-.477.936-.197.279-.41.558-.625.804-.082.099-.246.082-.345 0-.099-.098-.082-.246 0-.345.18-.213.329-.394.493-.607.181-.263.379-.558.477-.838.017-.032.017-.065.033-.098 0-.017.017-.099.017-.033.016-.066.016-.115.016-.18.016-.148.016-.313.033-.46.016-.378.016-.756.016-1.133-.016-.444-.033-.887-.082-1.33.099.082.197.148.313.23-.05 0-.083.016-.132.033-.017 0-.05.016-.017 0-.016.016-.049.016-.065.032-.083.05-.099.066-.181.132a1.467 1.467 0 0 0-.263.41c-.033.066-.05.115-.082.214-.033.082-.05.18-.083.279-.016.066-.032.148-.049.213-.016.066 0-.033 0 0V24.107c-.016.476-.082.952-.263 1.412-.066.18-.148.328-.263.476-.082.099-.181.197-.28.28-.575.574-1.2 1.1-1.743 1.69-.213.247-.444.493-.657.74-.28.279-.56.574-.79.886-.263.345-.51.739-.624 1.15-.05.213-.066.393-.05.623 0 .082.033.197.066.296.033.115.082.23.148.328.05.263-.362.51-.51.23z" fill="#332E3C"/>
    <path d="M44.491 27.522c.411-.41.839-.788 1.283-1.182.197-.18.41-.361.608-.558l.23-.23c.083-.099.115-.132.181-.23.033-.05.066-.115.099-.164l.05-.099c.016-.016.016-.033.016-.05 0 0 .032-.081.016-.032.082-.197.148-.378.214-.575.18-.509.345-1.001.51-1.51.18-.542.361-1.084.559-1.626.016-.049.032-.098.049-.131.016-.017 0-.05 0 .016 0-.049.016.066 0 .017 0 .033.033.05.05.066-.034-.017-.034 0 .016 0-.017 0-.033-.017-.05-.017.083.017-.016 0-.033 0-.016 0-.115.017-.049 0-.082.017-.18.033-.263.066-.164.049-.263.082-.427.197-.017.016-.033.016-.05.033-.05.032.033-.033 0 0l-.05.049c-.032.016.017-.05 0 0 0 .016-.016.033-.032.05-.033.048-.066.098-.082.163-.263.51-.477 1.035-.707 1.544-.033.049-.05.115-.082.164.016-.033 0 0 0 0-.017.033-.017.05-.033.082a2.196 2.196 0 0 1-.115.295 7.089 7.089 0 0 1-.264.625c-.263.541-.674 1.001-1.15 1.395-.1.082-.247.099-.346 0-.082-.082-.098-.263 0-.345.428-.36.806-.755 1.053-1.264.098-.18.148-.312.213-.509.066-.197.132-.378.214-.558.23-.542.477-1.084.74-1.61.082-.18.164-.344.329-.459.148-.115.329-.197.51-.28.28-.098.822-.262 1.019.067.132.213 0 .426-.066.623l-.296.838a66.805 66.805 0 0 0-.559 1.675c-.148.427-.28.853-.477 1.264-.18.394-.51.706-.838 1.001-.444.41-.904.805-1.349 1.215-.098.099-.213.197-.312.312-.197.247-.542-.098-.329-.328z" fill="#332E3C"/>
    <path d="M43.473 30.542c.494-.591 1.07-1.117 1.595-1.659a58.995 58.995 0 0 0 2.368-2.594c.263-.295.51-.624.674-.985-.016.05.017-.033.017-.05 0-.016.016-.016.016-.032.017-.033.017-.082.033-.115.033-.115.066-.246.099-.361.18-.706.345-1.412.493-2.118.033-.164.082-.329.115-.493.016-.065.033-.115.05-.18 0-.017.016-.099.016-.05v-.049.017c0-.017 0-.017.016.016-.016-.016-.033-.033 0 0-.033-.033.05.033 0 0-.016-.016-.05-.016 0 0-.016 0-.033 0-.05-.016-.048-.017.05 0 0 0h-.048c-.017 0-.132.016-.066 0a1.207 1.207 0 0 0-.23.065c-.033.017.049-.033 0 0-.017.017-.033.017-.05.017-.016 0-.016.016-.033.016.033-.033.033-.033.017-.016-.017.016-.017.016.016-.033-.082.098-.214.164-.329.082-.098-.066-.164-.23-.082-.328.197-.247.608-.329.904-.28.181.033.346.148.379.345.033.148-.017.312-.05.46-.164.722-.329 1.445-.51 2.167-.065.296-.13.575-.213.87-.082.296-.23.559-.395.805a4.83 4.83 0 0 1-.51.64c-.213.247-.443.493-.657.756-.395.46-.822.903-1.233 1.346-.395.41-.79.821-1.2 1.232-.28.279-.56.558-.823.87-.082.098-.263.082-.345 0-.082-.099-.066-.247.016-.345zM40.02 32.678a315.887 315.887 0 0 1 4.85 7.7c.46.755.938 1.51 1.398 2.266.165.263-.246.509-.41.246-.823-1.313-1.629-2.627-2.45-3.94-.79-1.265-1.58-2.529-2.369-3.777-.476-.755-.953-1.494-1.447-2.233-.164-.295.247-.525.428-.262z" fill="#332E3C"/>
    <path d="M41.4 31.07c.444-.395 1.036-.608 1.612-.543.065 0 .148.017.213.033.1.017.165.082.23.164l.346.345.707.706 2.86 2.808c.527.525 1.053 1.034 1.58 1.56.213.213-.116.558-.346.344-1.447-1.46-2.927-2.873-4.39-4.301-.411-.394-.806-.805-1.217-1.215.033.016.066.049.099.065a1.663 1.663 0 0 0-1.398.378c-.197.197-.542-.148-.296-.345zM44.64 44.66a18.81 18.81 0 0 1 3.306-1.396c.591-.197 1.2-.361 1.841-.41.658-.05 1.316.098 1.94.279 1.217.36 2.335.968 3.47 1.494.559.262 1.15.476 1.71.722.28.115.559.246.822.427.263.164.51.361.756.558.247.197.493.394.773.558.263.148.526.28.806.41a8.33 8.33 0 0 0 1.759.526c.099.017.18.132.18.23.017.591-.608.953-1.068 1.166-.51.23-1.184.312-1.726.148-.296-.082-.165-.542.131-.46a2.17 2.17 0 0 0 1.332-.099c.197-.082.411-.197.576-.328.082-.066.164-.131.213-.197.066-.098.083-.131.066-.23.066.082.115.148.18.23a8.865 8.865 0 0 1-1.561-.443c-.51-.197-1.02-.427-1.464-.756-.493-.36-.937-.771-1.48-1.067-.542-.295-1.15-.476-1.71-.722-1.117-.493-2.186-1.084-3.337-1.494-.592-.214-1.2-.394-1.842-.444-.641-.049-1.25.082-1.841.263a19.034 19.034 0 0 0-3.601 1.461c-.247.148-.494-.279-.23-.427z" fill="#332E3C"/>
    <path d="M56.792 46.075a48.529 48.529 0 0 1 1.546 1.626c.477.541.97 1.1 1.381 1.69.411.608.641 1.282.822 1.988.181.738.362 1.477.428 2.216.033.378.05.805-.181 1.117-.23.311-.608.46-.97.295-.115-.05-.148-.23-.082-.328a.24.24 0 0 1 .328-.082c.148.065.346-.115.395-.28.099-.295.05-.623.016-.919-.082-.673-.246-1.346-.427-2.003a8.858 8.858 0 0 0-.296-.936 4.157 4.157 0 0 0-.46-.837c-.379-.542-.823-1.035-1.25-1.544a38.027 38.027 0 0 0-1.578-1.675c-.23-.197.098-.541.328-.328zM54.688 49.372c.28-.05.476.115.624.345.148.23.23.492.33.722.279.591.608 1.166.953 1.724.164.263-.247.51-.411.247a17.427 17.427 0 0 1-.871-1.527c-.066-.132-.116-.247-.181-.378-.033-.066-.066-.148-.1-.214-.015-.032-.032-.082-.048-.114 0-.017-.05-.099-.017-.033a.886.886 0 0 0-.115-.214l-.066-.065c-.016-.017-.016-.017 0 0h-.016.033c-.132.032-.263-.033-.296-.165-.033-.164.05-.312.18-.328zM53.7 51.033a15.237 15.237 0 0 0 2.515 3.464l.493.493c.165.164.329.328.51.476.164.131.345.18.526.131.18-.049.296-.164.378-.344.05-.115.23-.148.329-.083.132.066.132.214.082.329-.18.427-.674.657-1.134.575-.263-.05-.477-.214-.658-.378-.197-.18-.378-.345-.559-.542a16.227 16.227 0 0 1-2.006-2.364 14.255 14.255 0 0 1-.92-1.51c-.116-.28.295-.526.443-.247z" fill="#332E3C"/>
    <path d="M53.274 49.964c.477.558.493 1.28.477 1.986-.017.345-.033.706.032 1.051.066.345.247.624.494.87.246.247.526.46.723.772.132.23.247.51.214.788-.033.345-.362.493-.674.444-.296-.05-.56-.247-.806-.394a16.05 16.05 0 0 1-.871-.575c-.296-.214-.576-.46-.757-.772-.197-.345-.246-.722-.312-1.1a27.722 27.722 0 0 0-.23-1.133 9.805 9.805 0 0 0-.33-1.133c-.114-.328-.246-.673-.443-.968-.329-.493-.806-.805-1.25-1.183-.197-.164-.394-.344-.526-.574-.131-.197-.197-.444-.246-.673-.116-.559-.148-1.183 0-1.74.032-.116.082-.247.131-.362.05-.115.23-.148.329-.082a.239.239 0 0 1 .082.328c0 .017-.016.017-.016.033-.017.033.016-.033 0 0-.017.017-.017.05-.033.066-.017.049-.033.115-.05.18-.033.132-.049.214-.049.345-.016.263-.016.542.017.805.016.213.082.46.164.673 0 .016.016.033.016.05 0 0-.016-.034 0 0 .017.016.017.032.033.048.017.033.05.082.066.115a2.5 2.5 0 0 0 .214.247c.378.377.838.656 1.2 1.05.477.51.724 1.15.937 1.79.23.706.362 1.445.494 2.167.065.329.115.69.328.97.181.245.444.426.691.59.28.18.56.361.839.526.065.049.148.082.213.114.033.017.066.033.1.066.015 0 .098.05.048.033l.148.05c.033 0 0 0 0 0h.099c0 .016-.016 0-.016.032 0-.016 0-.033.016-.05-.016.05 0 0 0-.032v-.066c0 .05 0-.033-.016-.049-.017-.066-.033-.131-.05-.18-.115-.28-.329-.46-.559-.674-.246-.23-.493-.476-.641-.788a2.79 2.79 0 0 1-.23-1.034c-.017-.624.115-1.297-.115-1.905a1.177 1.177 0 0 0-.198-.345c-.082-.098-.098-.246 0-.344.05-.115.214-.132.313-.033zM56.61 48.67c.477.69 1.118 1.313 1.546 2.052.197.329.328.69.493 1.018.197.394.394.805.575 1.199.165.361.346.739.494 1.116.098.247.213.51.213.788 0 .41-.394.74-.756.87a.808.808 0 0 1-.674-.032c-.23-.115-.411-.329-.56-.526a15.665 15.665 0 0 1-.937-1.379c-.279-.46-.558-.903-.838-1.363-.164-.262.263-.509.411-.246.444.772.92 1.527 1.43 2.266.132.197.28.41.445.591.065.082.148.164.246.23.066.05.099.05.181.05.132 0 .296-.083.411-.198a.88.88 0 0 0 .148-.197c0 .017.017-.05.017-.05v.05-.098c0-.05.016.049 0 .016v-.033c-.017-.05-.033-.115-.05-.164a1.922 1.922 0 0 0-.148-.394c-.131-.328-.28-.657-.444-1.002-.18-.377-.361-.755-.542-1.116-.165-.329-.296-.673-.46-.985-.215-.394-.494-.756-.774-1.1-.28-.362-.575-.706-.838-1.068-.082-.115-.017-.262.082-.328.115-.131.247-.082.329.033z" fill="#332E3C"/>
    <path d="M49.442 47.995c-.016.114-.148.213-.23.295-.148.148-.296.28-.444.394a15.87 15.87 0 0 1-1.332 1.018 6.991 6.991 0 0 1-.756.443c-.115.05-.263.033-.33-.082-.065-.098-.032-.279.083-.328.46-.23.888-.526 1.3-.821.36-.263.723-.558 1.051-.87.05-.05.116-.099.165-.164l.033-.033c.033-.033-.033.033-.017.016.033-.05 0 .017 0 .017.017-.132.181-.197.296-.165.148.017.198.148.181.28zM45.346 50.047c-.97-.559-1.348-1.659-1.364-2.726a6.35 6.35 0 0 1 .148-1.478c.098-.443.263-.854.477-1.248.115-.23.263-.509.476-.656.313-.214.79-.099 1.02.18.082.099.099.246 0 .345-.082.082-.263.099-.345 0a.428.428 0 0 0-.264-.148c-.032 0-.082 0-.115.017-.016 0-.016 0-.049.016-.033.017 0 0 0 0l-.033.033c-.016.016-.016.033-.033.033-.016.016 0 0 0-.017 0 .017-.016.017-.016.033a.905.905 0 0 1-.099.132c-.066.098-.115.197-.18.311a3.077 3.077 0 0 0-.165.329.49.49 0 0 1-.066.131c.017-.033 0 .017-.016.033 0 .017-.017.033-.017.05-.066.163-.098.344-.148.508-.016.099-.05.197-.066.296-.016.05-.016.098-.032.164 0 .05 0 .05-.017.115-.033.23-.033.46-.033.69 0 .476.05.886.214 1.33.165.443.477.853.904 1.1.33.164.083.574-.18.427z" fill="#332E3C"/>
    <path d="M40.365 46.924c.247-.771.69-1.477 1.43-1.855.724-.361 1.497-.624 2.253-.87.395-.131.806-.263 1.2-.361.296-.083.428.394.132.46-.74.196-1.48.443-2.203.705a7.723 7.723 0 0 0-.987.41 2.3 2.3 0 0 0-.345.181.505.505 0 0 0-.115.082c.066-.049-.017.017-.033.033-.05.033-.082.082-.132.115-.361.345-.575.756-.723 1.232-.099.295-.56.164-.477-.132z" fill="#332E3C"/>
    <path d="M42.519 36.617c.543 1.97 1.036 3.957 1.348 5.96.099.607.165 1.231.23 1.839.017.131-.115.246-.246.246-.148 0-.23-.115-.247-.246-.213-2.052-.608-4.072-1.118-6.075a45.834 45.834 0 0 0-.427-1.61c-.083-.278.378-.41.46-.114zM42.273 20.773a20.707 20.707 0 0 0-3.107.985c-.56.23-1.118.509-1.644.82-.46.28-.905.608-1.234 1.035-.838 1.084-1.216 2.512-1.299 3.875-.065 1.084.033 2.151.148 3.218.115 1.035.313 2.151.477 3.219.198 1.28.378 2.577.576 3.858.394 2.529.805 5.057 1.38 7.536.231 1.002.478 1.987.807 2.956.23.657.46 1.28.871 1.872 0 .016.05.049 0 0 .017.016.017.032.033.032.016.017.033.033.05.066.032.05.081.082.114.131.23.214-.115.559-.345.345-.477-.443-.74-1.083-.97-1.675-.362-.903-.608-1.838-.855-2.774-.608-2.463-1.036-4.992-1.447-7.504-.411-2.512-.756-5.04-1.135-7.553a20.789 20.789 0 0 1-.246-3.02c.016-1.413.263-2.841.937-4.09.296-.541.658-1.034 1.135-1.428a9.39 9.39 0 0 1 1.545-.968c1.085-.542 2.253-.953 3.42-1.265.214-.049.411-.098.625-.147.345-.05.46.41.164.476zM48.538 35.664c.46-.016.477.493.526.821.05.46.099.92.099 1.38 0 .755-.1 1.527-.346 2.249a6.366 6.366 0 0 1-.79 1.61c-.18.262-.344.525-.591.738-.247.23-.543.41-.871.542-.23.098-.527.18-.757.115-.148-.05-.246-.164-.246-.329 0-.148.082-.262.18-.377.214-.23.543.115.346.345-.017.016-.05.065-.017.016-.016.016-.016.033-.033.05-.016.032.017-.05 0-.017v-.017c-.016-.082.033.082 0-.065 0 .016.017.016-.016-.033.016.016.016.016-.017-.033.017.016-.049-.033-.016-.017.017 0-.066-.016-.016-.016.049.017-.05 0 0 0h.115c.033 0 .049-.016.082-.016l.148-.05c.033-.016.05-.016.082-.032 0 0 .05-.017 0 0 .017 0 .033-.017.05-.017.262-.115.493-.263.69-.46.18-.18.312-.377.46-.59.28-.428.527-.887.675-1.347a6.408 6.408 0 0 0 .361-1.855c.017-.444.017-.87-.033-1.314-.016-.213-.049-.427-.065-.64 0-.05-.017-.099-.033-.18-.017-.034 0 .032 0 0-.017-.05-.017 0 0-.017 0 0-.033-.017 0 0 .016.016.066.016.016.016-.296.033-.296-.46.017-.46z" fill="#332E3C"/>
    <path d="M46.071 42.772c.198.312.411.608.609.92.033.049.082.115.115.164.066.098.033.279-.082.328a.24.24 0 0 1-.33-.082c-.197-.312-.41-.607-.608-.92-.033-.049-.082-.114-.115-.164-.066-.098-.033-.279.082-.328.116-.066.264-.016.33.082zM48.9 35.845l3.354 2.906c.559.476 1.118.969 1.677 1.462.51.443 1.02.886 1.414 1.444.428.624.658 1.38.51 2.118-.033.132-.181.197-.296.165-.132-.033-.198-.165-.165-.296.115-.591-.098-1.198-.41-1.691-.346-.526-.856-.952-1.333-1.38a496.729 496.729 0 0 0-3.255-2.823l-1.825-1.577c-.099-.082-.083-.246 0-.344a.273.273 0 0 1 .329.016z" fill="#332E3C"/>
    <path d="M57.763 28.128c.394 1.593-.116 3.186-.757 4.63-.329.756-.707 1.511-1.069 2.25-.361.772-.74 1.543-1.101 2.315-.428.87-.839 1.757-1.266 2.627-.05.115-.23.148-.33.082a.239.239 0 0 1-.082-.328c.724-1.527 1.464-3.038 2.187-4.565.362-.738.724-1.477 1.053-2.216.329-.706.624-1.429.822-2.184.214-.82.28-1.658.066-2.495-.066-.28.394-.411.477-.116zM62.843 36.75c-.543 1.428-1.086 2.856-1.661 4.268-.494 1.199-1.069 2.38-1.842 3.415a9.084 9.084 0 0 1-1.496 1.577c-.099.082-.247.098-.345 0-.083-.083-.099-.263 0-.345.986-.788 1.742-1.806 2.334-2.907.658-1.198 1.135-2.479 1.628-3.743.313-.788.609-1.593.921-2.38.05-.116.165-.214.296-.165.115.017.214.148.165.28z" fill="#332E3C"/>
    <path d="M62.398 36.566c.888-1.69 1.727-3.415 2.434-5.188.444-1.1.838-2.233 1.102-3.399.049-.213.082-.41.131-.624l.05-.279c0-.032.016-.082.016-.115v-.016c0-.017 0-.05.016-.066.033-.279.05-.542.05-.82 0-.1 0-.214-.017-.313 0-.049 0-.082-.016-.131 0-.05 0-.066 0 0a.97.97 0 0 0-.033-.23c-.181-.936-.707-1.806-1.349-2.512-.082-.082-.18-.164-.263-.246-.049-.05.033.033-.016-.017l-.033-.032c-.033-.017-.066-.05-.099-.066a2.396 2.396 0 0 0-.213-.148 8.247 8.247 0 0 0-1.07-.558c-.903-.41-1.873-.69-2.844-.854-.246-.033-.51-.066-.756-.082.082-.066.148-.115.23-.18-.099.295-.263.574-.427.853-.23.361-.494.723-.757 1.067a20.922 20.922 0 0 1-1.99 2.2c-.328.296-.657.591-1.019.854-.444.329-.953.558-1.447.788a10.326 10.326 0 0 1-3.584.854c-.987.05-1.973-.05-2.943-.23-.099-.016-.198-.032-.313-.065-.131-.033-.197-.181-.164-.296.033-.131.164-.197.296-.164.904.18 1.792.295 2.73.279a9.643 9.643 0 0 0 3.337-.64c.56-.214 1.118-.46 1.611-.789.066-.049.148-.098.214-.147a7.79 7.79 0 0 1 .214-.164c.164-.132.329-.263.477-.395a18.022 18.022 0 0 0 1.956-2.085c.297-.36.576-.738.84-1.149.114-.164.213-.328.295-.509.033-.066.066-.148.115-.214.017-.049-.016.05 0 0 0-.016.017-.032.017-.049.016-.033.016-.065.032-.098.033-.099.132-.18.23-.18 1.07.081 2.122.327 3.108.705.773.296 1.546.64 2.187 1.15.313.23.543.525.773.837.296.41.559.837.756 1.313.198.46.313.97.346 1.462.032.624-.066 1.247-.181 1.855-.214 1.1-.576 2.184-.987 3.235-.657 1.74-1.447 3.431-2.285 5.09-.132.262-.263.508-.395.771-.082.246-.51 0-.362-.263zM43.604 24.975c-.263-.148-.46-.394-.624-.64a4.88 4.88 0 0 1-.494-.97 6.97 6.97 0 0 1-.542-2.084c-.033-.263-.05-.558.033-.805.049-.115.164-.197.296-.164.115.033.213.18.164.296-.017.032-.017.082-.033.114v.033c-.016.05 0-.049 0-.016v.082c0 .115 0 .246.016.361 0 .066.017.132.017.197 0 .05-.017-.066 0 .017v.049c0 .05.016.098.016.131l.1.493c.164.673.377 1.297.739 1.888.05.066.082.148.131.213.017.017.017.033.033.05.033.049 0 0 .017.033.016.032.05.049.066.082l.148.147c.016.017.032.017.049.033.033.033-.033-.033 0 0 .033.017.05.033.082.05.296.147.05.574-.214.41z" fill="#332E3C"/>
    <path d="M42.24 20.756c1.085-.263 2.203-.427 3.289-.706.115-.033.246-.066.361-.099l.148-.049c.017 0 .05-.016.066-.016.017 0 .082-.033.017 0 .115-.05.263-.033.328.082.066.098.033.279-.082.328-.427.18-.888.263-1.332.361-.591.132-1.2.247-1.792.361-.296.066-.575.115-.871.197-.313.083-.444-.377-.132-.46zM61.166 41.113c-.428 1.133-.823 2.299-1.07 3.498l-.098.59c-.016.066 0-.016 0 .033v.066c0 .05-.016.082-.016.131-.017.083-.017.165-.017.247-.016.279-.033.558-.033.837 0 .263.017.526.017.788 0 .312-.477.312-.477 0 0-.509-.033-1.018 0-1.527.066-.87.246-1.724.493-2.561.214-.755.477-1.494.756-2.233.05-.115.165-.214.297-.164.098.032.197.164.148.295zM60.902 48.88c1.118 1.247 1.94 2.725 2.516 4.285.46 1.248.756 2.561.822 3.891.05 1.1 0 2.2-.148 3.3-.148 1.183-.378 2.365-.839 3.481-.361.903-.904 1.856-1.792 2.348a1.188 1.188 0 0 1-.329.148c-.115.05-.263-.05-.296-.164-.033-.131.05-.246.165-.296l.033-.016c.016-.016.049-.016.065-.033a.666.666 0 0 0 .148-.082c.083-.05.165-.115.247-.164.033-.033 0 0 0 0 .016 0 .016-.017.033-.017a.226.226 0 0 1 .066-.049c.049-.033.082-.082.131-.115a2.72 2.72 0 0 0 .214-.23 5.18 5.18 0 0 0 .395-.541c.131-.214.246-.444.345-.674.066-.131.082-.197.131-.328a9.1 9.1 0 0 1 .148-.378c.099-.262.165-.541.247-.82.148-.575.263-1.15.345-1.741.017-.148.033-.23.05-.394l.049-.443c.033-.28.05-.575.066-.854.033-.526.033-1.051.033-1.56 0-.23-.017-.443-.033-.673 0-.099-.017-.197-.033-.296 0-.049-.017-.098-.017-.131v-.066c0-.033-.016-.082 0-.016a15.53 15.53 0 0 0-.526-2.299c-.493-1.51-1.216-2.972-2.203-4.22-.115-.147-.247-.295-.378-.443-.198-.295.131-.64.345-.41z" fill="#332E3C"/>
    <path d="M60.868 55.63c.477 1.986.527 4.055.494 6.09-.033 2.037-.066 4.056.016 6.092.099 2.036.263 4.072.526 6.092l.198 1.477c.033.247.082.51.115.756l.05.344c.015.148.015.247-.05.378-.296.788-.954 1.363-1.677 1.757a6.798 6.798 0 0 1-4.703.64 5.65 5.65 0 0 1-1.151-.41 3.313 3.313 0 0 1-.526-.296.42.42 0 0 1-.197-.295l-.1-.394c-.246-1.035-.476-2.086-.723-3.12-.476-2.069-.97-4.138-1.43-6.223-.46-2.052-.904-4.105-1.283-6.157a79.534 79.534 0 0 1-.904-6.256c-.18-1.888-.28-3.825.214-5.664a7.87 7.87 0 0 1 .477-1.314c.049-.115.23-.148.328-.082a.239.239 0 0 1 .083.329c-.74 1.609-.839 3.415-.757 5.139.099 1.904.362 3.809.658 5.68.313 1.938.69 3.843 1.102 5.764.41 1.92.855 3.826 1.299 5.73.444 1.938.904 3.875 1.348 5.812.05.247.115.493.164.74-.032-.05-.082-.1-.115-.148.938.623 2.072.87 3.19.837 1.085-.033 2.203-.328 3.124-.936.526-.345.987-.805 1.168-1.428v.13a75.923 75.923 0 0 1-.888-8.16 66.986 66.986 0 0 1-.099-4.071c0-1.38.066-2.742.05-4.121-.017-1.544-.116-3.087-.477-4.598-.066-.295.394-.427.476-.115z" fill="#332E3C"/>
    <path d="M49.376 52.74c-.313-.969-1.07-1.74-1.957-2.2a3.903 3.903 0 0 0-1.53-.444c-.624-.049-1.232.033-1.84.181-.626.148-1.25.345-1.859.558-.608.214-1.2.427-1.792.673a40.108 40.108 0 0 0-3.404 1.577c-.624.328-1.233.657-1.841 1.018-.576.344-1.135.706-1.595 1.198-.214.23-.56-.115-.346-.345.428-.46.954-.82 1.497-1.149.542-.328 1.118-.64 1.677-.952a41.944 41.944 0 0 1 3.584-1.691c.609-.247 1.2-.476 1.826-.706.624-.214 1.25-.444 1.874-.608.641-.164 1.299-.279 1.973-.263a4.393 4.393 0 0 1 1.776.411c1.102.492 2.039 1.461 2.417 2.61.115.296-.362.428-.46.132zM32.554 51.687c-.346-.344-.362-.837-.263-1.297.131-.574.427-1.116.74-1.625.789-1.314 1.742-2.512 2.565-3.81.213-.328.427-.673.608-1.017l.247-.493a2.58 2.58 0 0 0 .164-.427c.099-.295.56-.164.46.132-.213.623-.526 1.198-.871 1.756-.395.64-.839 1.265-1.282 1.889-.428.607-.872 1.215-1.267 1.855-.18.279-.345.558-.493.854-.066.131-.131.262-.197.41 0 .017-.05.099-.017.05a.232.232 0 0 0-.032.098c-.017.066-.05.115-.066.18a1.73 1.73 0 0 0-.099.395c0 .016-.016.13-.016.049 0 .033 0 .066-.017.098v.279l.05.148c.016.033-.033-.049 0-.016 0 .016.016.016.016.033.016.016.033.049.033.065 0 .017.016.017.016.033.033.05-.033-.033 0 0 .017.017.033.033.05.066.23.18-.116.525-.33.295z" fill="#332E3C"/>
    <path d="M37.455 66.122c-.74.033-1.463.099-2.203.033-.576-.05-1.135-.131-1.644-.443-.872-.526-1.464-1.429-1.908-2.315a11.895 11.895 0 0 1-1.036-3.333c-.213-1.314-.164-2.627.083-3.94.28-1.479.822-2.89 1.496-4.237.082-.164.18-.328.263-.493a.239.239 0 0 1 .411 0c.016.017.016.033.033.033l.016.017c.033.032-.033-.05-.016-.017.016.017.033.05.05.066.114.131.23.246.36.361.034.033.083.066.133.099.016 0 .082.065.049.032.033.017.05.033.082.066.115.082.23.164.345.23.296.18.576.296.888.41.46.148.921.23 1.398.263.131 0 .246.099.246.246a.253.253 0 0 1-.246.247c-1.316-.066-2.68-.542-3.552-1.56l-.197-.246h.411c-.69 1.264-1.25 2.61-1.595 4.022-.296 1.265-.411 2.578-.263 3.875.131 1.084.411 2.2.855 3.202.214.476.46.952.756 1.38.247.36.56.722.905.984.131.115.345.23.51.312.016 0 .082.033.032.017.017.016.05.016.066.016l.148.05c.132.032.263.065.411.082.724.114 1.464.082 2.187.049.164-.017.329-.017.493-.033.132 0 .247.115.247.246.016.18-.082.28-.214.28z" fill="#332E3C"/>
    <path d="M50.016 56.318c-.082 2.069-.345 4.121-.69 6.157-.346 2.053-.773 4.072-1.2 6.108-.428 2.036-.839 4.088-1.135 6.157a46.34 46.34 0 0 0-.345 3.038c-.05.509-.066 1.018-.099 1.543 0 .082 0 .148-.05.213-.032.05-.081.083-.13.115-.083.066-.182.115-.264.181-.18.115-.378.197-.575.28-.79.311-1.661.377-2.5.344-.805-.033-1.595-.18-2.367-.378-.806-.213-1.612-.492-2.352-.87-.707-.345-1.397-.772-1.94-1.33a.466.466 0 0 1-.148-.312c-.016-.131-.05-.262-.066-.394-.033-.263-.066-.509-.098-.772a22.41 22.41 0 0 1-.115-1.51c-.033-1.002 0-1.987.082-2.988.18-2.02.608-4.023 1.184-5.96.575-1.954 1.299-3.859 2.12-5.73.198-.477.412-.937.626-1.396.197-.427.361-.87.345-1.363-.017-.772-.444-1.478-.428-2.266.017-.394.165-.739.411-1.05.083-.1.264-.083.346 0 .098.098.082.246 0 .344-.395.46-.263 1.035-.115 1.56.18.657.361 1.313.213 2.003-.082.41-.263.788-.427 1.166-.165.377-.345.755-.51 1.133-.329.755-.641 1.51-.937 2.282-.592 1.543-1.118 3.103-1.53 4.696a28.06 28.06 0 0 0-.838 4.81 22.546 22.546 0 0 0 .115 4.828l.099.607c-.017-.033-.05-.065-.066-.098.92.969 2.22 1.543 3.453 1.937 1.266.41 2.63.657 3.963.542.756-.066 1.512-.28 2.137-.755-.033.065-.082.131-.115.213.115-3.054.625-6.058 1.233-9.047.592-2.988 1.283-5.976 1.743-8.98.263-1.66.444-3.35.51-5.025-.016-.345.477-.345.46-.033zM55.081 78.6c.576 1.921.921 3.908.97 5.928.033.985-.016 1.97-.131 2.939-.115.985-.329 1.954-.592 2.922a46.196 46.196 0 0 1-2.039 5.829c-.378.87-.756 1.74-1.217 2.578-.378.722-.822 1.445-1.02 2.249-.081.312-.13.641-.048.936.065.23.197.411.394.542.493.328 1.151.378 1.76.345.328-.017.64-.066.953-.148a8.16 8.16 0 0 0 1.053-.394c.46-.197.904-.394 1.348-.624.41-.214.822-.46 1.217-.706.674-.427 1.447-.87 1.907-1.56.526-.755.674-1.724.74-2.627.131-2.02-.181-4.039.033-6.059.049-.492.131-1.001.263-1.477.131-.493.345-.953.477-1.445.28-1.018-.099-2.036-.198-3.054-.082-1.018.033-2.036.115-3.054.083-.969.148-1.938.23-2.923.034-.46.066-.92.116-1.379.016-.131.098-.246.246-.246.115 0 .247.115.247.246-.082.969-.148 1.954-.23 2.923-.082 1.001-.181 2.003-.23 2.988a8.947 8.947 0 0 0 .032 1.626c.066.525.181 1.034.247 1.56a3.77 3.77 0 0 1-.131 1.543c-.148.492-.346.968-.477 1.477-.51 2.004-.214 4.089-.214 6.125 0 .985-.033 1.986-.329 2.922-.148.444-.345.887-.641 1.265-.263.344-.608.624-.954.886-.345.263-.707.476-1.069.706-.41.263-.822.509-1.25.723-.443.23-.904.427-1.364.624-.362.147-.707.312-1.085.41a5.266 5.266 0 0 1-2.088.099c-.576-.099-1.217-.378-1.464-.936-.312-.69-.066-1.511.214-2.168.345-.804.79-1.56 1.184-2.331.904-1.84 1.644-3.776 2.269-5.73.312-.986.625-1.987.838-3.005.214-.969.346-1.938.395-2.923a21.232 21.232 0 0 0-.542-6.025c-.116-.477-.247-.953-.379-1.429-.115-.328.346-.46.444-.148z" fill="#332E3C"/>
    <path d="M45.167 80.144c-.773 2.578-1.365 5.221-1.546 7.914-.18 2.48 0 4.959.526 7.389.28 1.313.642 2.594 1.086 3.858.23.657.444 1.33.723 1.954.23.509.526 1.002.839 1.461.608.887 1.332 1.691 1.94 2.578.214.312.428.64.526 1.002.05.197.082.443 0 .64-.115.345-.427.427-.756.46a18.583 18.583 0 0 1-3.7.131c-.592-.033-1.2-.115-1.792-.246-.378-.082-.74-.247-1.085-.427-.395-.214-.822-.476-1.118-.821-.296-.361-.362-.854-.46-1.297-.215-.87-.445-1.724-.889-2.496a8.363 8.363 0 0 0-.953-1.313c-.395-.46-.888-.854-1.168-1.412-.477-.936-.329-2.036-.082-3.022.115-.476.263-.952.395-1.428.115-.394.213-.788.23-1.166a22.454 22.454 0 0 0-.066-2.101c-.115-2.02-.28-4.04-.444-6.059-.164-2.085-.345-4.187-.46-6.288-.017-.411-.05-.838-.05-1.248-.016-.312.477-.312.477 0 .066 1.954.23 3.907.378 5.861.165 2.085.346 4.17.494 6.256.066.837.115 1.675.131 2.512.017.328.017.64.017.969 0 .394-.082.771-.181 1.165-.247.936-.608 1.872-.674 2.857-.033.46 0 .936.18 1.363.23.542.708.92 1.086 1.347.674.771 1.233 1.609 1.595 2.577.148.411.263.838.361 1.265.05.229.116.459.165.689.05.214.082.427.197.591.23.329.642.575.987.756.345.197.625.328 1.003.41 1.184.279 2.417.312 3.617.246.576-.033 1.168-.065 1.743-.147.099-.017.247-.017.312-.115.033-.05.033-.099.033-.165v-.115a1.397 1.397 0 0 0-.131-.394c-.181-.377-.444-.722-.69-1.05-.33-.427-.659-.838-.987-1.265a16.01 16.01 0 0 1-.97-1.379 8.756 8.756 0 0 1-.773-1.576 37.054 37.054 0 0 1-1.266-3.891c-.642-2.414-.987-4.893-.954-7.389.033-2.561.444-5.106 1.085-7.586.165-.673.362-1.346.56-2.02.13-.262.608-.13.509.165z" fill="#332E3C"/>
</svg>
