<svg width="22" height="22" viewBox="0 0 22 22" fill="none" xmlns="http://www.w3.org/2000/svg">
    <path d="M3.06 3.768c1.62-.026 3.17-.003 4.754 0 .122 0 .159-.046.158-.167a93.176 93.176 0 0 1 0-1.432c.002-.622.513-1.162 1.118-1.165 1.274-.005 2.547-.005 3.821 0 .604.003 1.116.543 1.12 1.164.002.473.004.945-.002 1.417-.001.134.037.185.174.184 1.335-.006 2.67-.006 4.005-.007.533 0 1.067.019 1.6 0 .674-.023 1.194.567 1.192 1.241-.002 1.007 0 2.014 0 3.022 0 1.054.003 2.108-.002 3.163-.002.532-.22.941-.698 1.176-.095.046-.12.108-.12.208l.001 5.099c0 .718.002 1.437 0 2.155-.004.648-.51 1.17-1.14 1.173-.872.003-1.743 0-2.614 0H11c-2.67 0-5.34.002-8.01 0a1.156 1.156 0 0 1-1.157-1.018c-.029-.27-.011-.545-.011-.817-.001-2.172-.002-4.343.003-6.516 0-.151-.033-.24-.178-.316-.43-.224-.639-.614-.64-1.1a956.897 956.897 0 0 1-.001-6.216c0-.526.194-1.02.704-1.151.327-.085 1.012-.092 1.35-.097zm17.008 7.975c.042-.004.127-.072.149-.1.041-.088.05-.312.05-.44l-.001-4.517c0-.567-.002-1.133 0-1.7a.496.496 0 0 0-.159-.392c-.116-.107-.256-.118-.4-.118H2.308c-.41 0-.574.169-.574.59 0 2.036.006 4.072-.006 6.107-.002.361.241.57.556.569 2.114-.01 4.23-.006 6.344-.006.41 0 .41 0 .412-.424.002-.701.499-1.227 1.182-1.238.52-.008 1.04-.014 1.56.002.4.014.737.181.977.53.192.28.209.593.2.918-.005.208.003.212.204.212h5.703l1.201.007zm-9.079 8.525h5.366l2.598-.001c.08 0 .16.003.24-.033.236-.108.276-.312.276-.546v-6.97c0-.25-.001-.252-.25-.252H13.21c-.02 0-.04.002-.06 0-.136-.013-.202.043-.19.19.006.093.001.188 0 .283-.005.652-.504 1.167-1.137 1.17-.545.003-1.09 0-1.635 0-.418.002-.732-.19-.961-.54a1.202 1.202 0 0 1-.186-.684c.002-.471.055-.417-.408-.417-1.952-.002-3.903 0-5.855 0-.24 0-.243.002-.243.241 0 2.329.002 4.658-.003 6.987-.001.315.13.578.555.577 2.633-.01 5.268-.005 7.902-.005zm.622-16.5c.524-.003 1.048-.003 1.573-.001.097 0 .139-.043.138-.142v-.597c0-.278.01-.557-.008-.833-.02-.302-.202-.46-.494-.46h-1.803c-.6 0-1.201.013-1.802-.005-.324-.01-.538.216-.536.54.003.44.003.881 0 1.321-.002.126.039.18.167.178.48-.005.957-.006 1.436 0l1.329-.001zm-1.2 7.067c-.316-.012-.646.099-.654.42-.014.56-.01 1.12 0 1.681.005.257.158.424.41.445.543.044 1.088.036 1.631.005.307-.017.446-.202.45-.522.004-.257.001-.514.001-.77 0-.267.005-.535-.001-.802-.006-.282-.183-.457-.454-.464-.062-.001-.123.003-.184 0l-1.2.007z" fill="#5ea88e" stroke="#5ea88e" stroke-width=".88"/>
</svg>
