<svg width="20" height="20" viewBox="0 0 20 20" fill="none" xmlns="http://www.w3.org/2000/svg">
    <g clip-path="url(#nlh10kl29a)" fill="#5EA88E">
        <path d="M11.17 18.047H2.615a.57.57 0 0 1-.568-.569V2.615a.57.57 0 0 1 .568-.568h12.284a.57.57 0 0 1 .568.568v3.744a.57.57 0 0 0 .568.568.57.57 0 0 0 .568-.568V2.615c0-.94-.764-1.705-1.704-1.705H2.614c-.94 0-1.705.764-1.705 1.705v14.863c0 .94.764 1.705 1.705 1.705h8.556a.568.568 0 1 0 0-1.136z"/>
        <path d="m19.398 17.94-2.523-2.604a4.722 4.722 0 0 0 1.066-2.992A4.75 4.75 0 0 0 13.195 7.6a4.75 4.75 0 0 0-4.744 4.744 4.75 4.75 0 0 0 4.744 4.744 4.708 4.708 0 0 0 2.861-.963l2.528 2.608a.566.566 0 0 0 .804.009.568.568 0 0 0 .009-.801zm-6.205-1.985a3.613 3.613 0 0 1-3.608-3.608 3.613 3.613 0 0 1 3.608-3.608 3.613 3.613 0 0 1 3.608 3.608 3.613 3.613 0 0 1-3.608 3.608zM11.74 6.36a.57.57 0 0 0-.568-.568H4.458a.57.57 0 0 0-.569.568.57.57 0 0 0 .569.568h6.713a.568.568 0 0 0 .568-.568zM8.287 9.523a.57.57 0 0 0-.568-.568H4.458a.57.57 0 0 0-.569.568.57.57 0 0 0 .569.568h3.261a.566.566 0 0 0 .568-.568zm-3.83 2.594a.57.57 0 0 0-.568.568.57.57 0 0 0 .569.568H6.21a.57.57 0 0 0 .569-.568.57.57 0 0 0-.569-.568H4.458z"/>
    </g>
    <defs>
        <clipPath id="nlh10kl29a">
            <path fill="#fff" d="M0 0h20v20H0z"/>
        </clipPath>
    </defs>
</svg>
