<svg width="15" height="11" viewBox="0 0 15 11" fill="none" xmlns="http://www.w3.org/2000/svg">
    <g clip-path="url(#h7oot8x54a)">
        <path d="M7.522.013c2.038 0 4.076.025 6.112-.013.754-.014 1.37.713 1.364 1.467-.024 2.673-.03 5.347.002 8.02.01.847-.641 1.518-1.41 1.513-4.073-.027-8.149-.012-12.224-.015-.811 0-1.357-.584-1.358-1.456C.006 6.824.02 4.119 0 1.414-.005.724.606-.01 1.323 0c2.065.033 4.132.012 6.2.012zm-.018.7c-1.989 0-3.976 0-5.965.003-.092 0-.225-.051-.268.055-.046.11.086.172.15.241C2.714 2.407 4.03 3.78 5.3 5.2c1.164 1.305 3.182 1.362 4.386.01 1.268-1.423 2.585-2.793 3.88-4.187.047-.051.099-.102.14-.16.062-.085.03-.136-.064-.143-.087-.006-.175-.005-.263-.005H7.504zm-6.21 9.556h12.362c.002-.108-.069-.144-.116-.189-1.287-1.217-2.578-2.432-3.864-3.651-.155-.147-.278-.075-.422.008-1.162.679-2.332.667-3.493.007-.189-.107-.305-.095-.461.052-.946.89-1.907 1.763-2.85 2.655-.38.358-.787.681-1.157 1.118zm-.596-8.97c-.016.343-.04.653-.04.963C.653 4.59.655 6.917.655 9.244c0 .085 0 .168.005.252.007.093-.003.214.08.257.093.048.154-.066.216-.124C2.224 8.45 3.484 7.263 4.76 6.094c.219-.202.19-.315.005-.513C3.504 4.238 2.252 2.885.996 1.537.922 1.457.863 1.356.698 1.3zm13.644 4.235V1.696c0-.095.001-.19-.007-.284-.01-.12-.065-.147-.153-.069-.053.047-.1.1-.149.151-1.204 1.3-2.401 2.607-3.615 3.897-.38.404-.454.388.036.846 1.192 1.113 2.376 2.236 3.565 3.35.075.071.135.226.254.165.108-.057.067-.208.067-.319.002-1.299.002-2.6.002-3.9z" fill="#333"/>
    </g>
    <defs>
        <clipPath id="h7oot8x54a">
            <path fill="#fff" d="M0 0h15v11H0z"/>
        </clipPath>
    </defs>
</svg>
