<svg width="20" height="20" viewBox="0 0 20 20" fill="none" xmlns="http://www.w3.org/2000/svg">
    <path d="M19.175 4.898c-.3-.693-.731-1.32-1.27-1.849a5.922 5.922 0 0 0-4.16-1.692A5.961 5.961 0 0 0 10 2.677a5.962 5.962 0 0 0-3.743-1.32A5.923 5.923 0 0 0 2.096 3.05a5.769 5.769 0 0 0-1.74 4.123c0 .743.152 1.518.454 2.306.252.659.614 1.341 1.076 2.031.732 1.092 1.739 2.23 2.989 3.384a33.416 33.416 0 0 0 4.21 3.288l.528.34c.235.149.536.149.77 0l.53-.34a33.852 33.852 0 0 0 4.21-3.288c1.25-1.154 2.256-2.292 2.988-3.384.462-.69.826-1.373 1.076-2.031.301-.788.453-1.563.453-2.306a5.681 5.681 0 0 0-.466-2.274zM10 16.755s-7.946-5.092-7.946-9.583c0-2.274 1.882-4.118 4.203-4.118 1.632 0 3.047.91 3.744 2.24a4.215 4.215 0 0 1 3.743-2.24c2.321 0 4.203 1.844 4.203 4.118 0 4.491-7.946 9.583-7.946 9.583z" fill="#333"/>
</svg>
