<svg width="15" height="13" viewBox="0 0 15 13" fill="none" xmlns="http://www.w3.org/2000/svg">
    <g clip-path="url(#1dn622z97a)">
        <path d="M12.03 12.993c-1.512-.02-2.934-.359-4.297-.908-2.11-.85-3.92-2.087-5.412-3.716C1.273 7.223.498 5.943.14 4.464-.212 3.008.082 1.704 1.223.611 1.807.051 2.506-.125 3.32.087c.262.068.456.198.569.422.483.977.965 1.956 1.436 2.937.103.214.072.438-.081.638-.262.338-.514.682-.79 1.01-.167.2-.198.38-.082.615.607 1.248 1.596 2.169 2.836 2.873.542.308 1.117.553 1.71.767.244.089.417.073.6-.131.379-.42.786-.818 1.19-1.218.284-.281.452-.293.812-.122.994.468 1.991.932 2.99 1.395.394.182.567.475.458.869-.078.284-.103.577-.169.864-.238 1.018-1.42 2.09-2.77 1.987zm-.143-.49c.295-.022.536.024.771-.05 1.388-.432 1.674-1.4 1.775-2.446.02-.204-.131-.279-.296-.354-.902-.415-1.806-.826-2.697-1.26-.233-.113-.366-.083-.526.09-.371.4-.767.781-1.134 1.183-.251.276-.538.31-.882.197a10.332 10.332 0 0 1-2.528-1.21C5.236 7.895 4.35 6.949 3.812 5.74c-.12-.268-.12-.5.078-.739.272-.33.521-.677.79-1.01.138-.173.165-.334.063-.537-.425-.857-.844-1.717-1.25-2.582a.586.586 0 0 0-.46-.347C2.517.434 2.05.54 1.67.886.711 1.76.414 2.83.614 4.04c.26 1.579 1.088 2.899 2.185 4.093 1.187 1.293 2.616 2.309 4.225 3.1a12.31 12.31 0 0 0 4.863 1.272z" fill="#333" stroke="#333" stroke-width=".2"/>
    </g>
    <defs>
        <clipPath id="1dn622z97a">
            <path fill="#fff" d="M0 0h15v13H0z"/>
        </clipPath>
    </defs>
</svg>
