<svg width="22" height="22" viewBox="0 0 22 22" fill="none" xmlns="http://www.w3.org/2000/svg">
    <g clip-path="url(#k6ou8nawua)" fill="#5ea88e" stroke="#5ea88e">
        <path d="M9.727.001c2.422 0 4.845-.002 7.267 0 .942.002 1.314.348 1.324 1.28.016 1.406-.134 1.248 1.32 1.258.88.006 1.257.4 1.259 1.352.006 2.65.002 5.301.002 7.95v8.509c0 .186.006.373-.01.557-.064.723-.464 1.09-1.206 1.09-4.056.002-8.109.002-12.164.002-.893 0-1.787.004-2.68-.002-.724-.006-1.118-.37-1.16-1.076-.021-.336-.013-.674-.013-1.013-.002-.291-.145-.435-.443-.433-.326.002-.654.002-.98-.006-.668-.014-1.086-.405-1.136-1.06-.01-.133-.006-.27-.006-.405V1.444c0-.118-.004-.238.004-.355C1.146.384 1.532.007 2.254.005 4.746-.003 7.237.001 9.727.001zm-7.071 9.74c0 2.516-.002 5.03.002 7.546 0 .63.035.665.668.665h12.782c.635 0 .666-.033.666-.665.002-5.03.002-10.062 0-15.092 0-.634-.031-.665-.666-.665-4.262-.002-8.521-.002-12.782 0-.635 0-.668.035-.668.665-.004 2.514-.002 5.03-.002 7.546zm16.684 2.53V9.842c0-1.754-.004-3.51.003-5.265 0-.342-.05-.585-.495-.591-.518-.006-.526.304-.526.668.002 4.471.002 8.944-.002 13.415 0 1.027-.39 1.402-1.435 1.402-3.022.002-6.045 0-9.067 0-.705 0-1.408.01-2.111-.002-.36-.006-.466.162-.483.494-.024.506.285.523.662.523 4.241-.004 8.484-.002 12.725-.004.692 0 .727-.037.727-.717.005-2.5.002-4.998.002-7.494z"/>
        <path d="M9.595 13.606c-1.323 0-2.645.004-3.968 0-.6-.002-.712-.122-.712-.723 0-.604.112-.73.705-.73 2.664-.004 5.326-.004 7.99 0 .587.002.849.199.892.628.051.523-.21.817-.784.82-1.375.011-2.75.005-4.123.005zM9.636 7.534c-1.34 0-2.678.005-4.018-.002-.592-.002-.703-.125-.705-.727 0-.597.11-.717.713-.719 2.662-.004 5.324 0 7.983-.002.365 0 .693.06.843.442.219.557-.103.998-.748 1.002-1.355.013-2.711.006-4.068.006zM9.663 10.575c-1.356 0-2.713.004-4.07-.002-.558-.002-.674-.134-.678-.705-.006-.608.114-.75.685-.75 2.68-.004 5.358-.004 8.036 0 .571 0 .868.274.866.766-.002.464-.266.685-.872.689-1.322.006-2.643 0-3.967.002z"/>
    </g>
    <defs>
        <clipPath id="k6ou8nawua">
            <path fill="#fff" d="M0 0h22v22H0z"/>
        </clipPath>
    </defs>
</svg>
