<svg width="32" height="32" viewBox="0 0 32 32" fill="none" xmlns="http://www.w3.org/2000/svg">
    <path d="M10.854 3.7h-.27c.148 0 .27-.135.27-.3v.3h10.292v-.3c0 .165.122.3.27.3h-.27v2.7h2.437v-3c0-1.324-.971-2.4-2.166-2.4H10.583C9.388 1 8.417 2.076 8.417 3.4v3h2.437V3.7zm17.063 2.7H4.083C3.484 6.4 3 6.936 3 7.6v1.2c0 .165.122.3.27.3h2.046l.836 19.612C6.206 29.992 7.16 31 8.315 31h15.37c1.158 0 2.109-1.005 2.163-2.288L26.684 9.1h2.045c.15 0 .271-.135.271-.3V7.6c0-.664-.484-1.2-1.083-1.2zm-4.493 21.9H8.576l-.82-19.2h16.488l-.82 19.2z" fill="#da4437"/>
</svg>
