<svg width="15" height="12" viewBox="0 0 15 12" fill="none" xmlns="http://www.w3.org/2000/svg">
    <g clip-path="url(#3dhb1uqhwa)">
        <path d="M6.316 12H1.57C.605 12 .01 11.424 0 10.45-.009 7.173 0 3.906 0 .63 0 .195.175 0 .623 0c1.395.018 2.78.018 4.175 0 .395 0 .632.16.737.523.114.407.351.487.772.487 2.053-.01 4.096-.071 6.15.026.394.018.534.186.525.55-.017 1.018-.035.92.965.92 1.167 0 1.255.142.834 1.267-.913 2.47-1.816 4.941-2.72 7.412-.298.806-.29.815-1.131.815H6.316zm.614-.673c1.272 0 2.535-.009 3.807.009.368.009.588-.115.702-.47.105-.345.254-.681.377-1.018.737-2.002 1.473-3.994 2.193-5.996.201-.558.166-.584-.421-.584h-6.86c-.868 0-.85.009-1.167.832a500.132 500.132 0 0 1-2.701 6.82c-.176.425-.035.434.307.425 1.254-.027 2.508-.018 3.763-.018zM.746 5.792v4.694c0 .372.114.664.465.788.36.124.64-.044.86-.328.078-.097.148-.204.2-.319C2.632 9.724 3 8.812 3.36 7.9c.605-1.541 1.219-3.082 1.798-4.632.21-.576.535-.806 1.158-.77 1.096.044 2.193.017 3.29.008.754 0 1.5-.009 2.254 0 .403.01.473-.212.438-.549-.035-.363-.307-.3-.526-.3-1.939 0-3.886-.01-5.825.008-.456 0-.763-.115-.886-.576C4.965.726 4.737.602 4.36.611a70.157 70.157 0 0 1-3.053 0c-.439-.009-.57.15-.561.576.008 1.532 0 3.064 0 4.605z" fill="#333"/>
    </g>
    <defs>
        <clipPath id="3dhb1uqhwa">
            <path fill="#fff" d="M0 0h15v12H0z"/>
        </clipPath>
    </defs>
</svg>
