<svg width="18" height="18" viewBox="0 0 18 18" fill="none" xmlns="http://www.w3.org/2000/svg">
    <g clip-path="url(#tklskyqdka)" fill="#5EA88E">
        <path d="M12.665 6.352A5.996 5.996 0 0 1 11.489 10c-.239.326-.263.559.041.84.346.319.676.656.998.998.23.243.435.29.678.021.356-.393.717-.348 1.074.009 1.062 1.063 2.14 2.11 3.179 3.195.508.53.715 1.185.363 1.898-.32.65-.837 1.033-1.589 1.033-.447 0-.802-.23-1.102-.524-1.112-1.09-2.21-2.197-3.314-3.295-.317-.317-.332-.637.005-.937.287-.257.254-.468-.015-.718-.426-.393-.765-.967-1.26-1.172-.544-.224-.942.457-1.433.687-3.423 1.605-7.486-.05-8.758-3.627C-1.04 4.471 1.841.445 5.676.034c3.064-.33 6.111 1.77 6.804 4.765.12.518.196 1.024.185 1.553zm-6.28-5.313C3.5.91 1 3.427 1.025 6.334a5.325 5.325 0 0 0 5.284 5.348c2.927.03 5.374-2.416 5.37-5.332-.005-2.773-2.193-5.346-5.294-5.311zm10.511 15.22c.015-.252-.091-.452-.267-.626-.859-.856-1.721-1.709-2.569-2.577-.258-.265-.472-.235-.667.035-.196.27-.763.455-.326.911.902.94 1.836 1.851 2.764 2.766.187.185.417.288.693.157.28-.137.392-.363.372-.665z"/>
        <path d="M7.772 6.352c0 .532.006 1.063-.002 1.596-.007.396-.14.685-.488.665-.321-.02-.491-.263-.491-.678-.002-1.088 0-2.175 0-3.26 0-.396.157-.59.468-.6.334-.011.51.178.51.613.003.552.003 1.109.003 1.664zM3.434 6.83v1.105c0 .387-.137.598-.454.606-.326.01-.526-.158-.529-.593-.004-.783-.01-1.566.014-2.347.01-.376.154-.678.502-.65.335.026.459.313.465.705.007.391.002.783.002 1.174zM5.653 6.996c0 .255-.007.509 0 .761.013.494-.12.798-.557.788-.405-.011-.533-.292-.526-.757.006-.485.004-.97 0-1.455-.003-.503.117-.864.574-.87.463-.007.515.385.509.842-.003.23 0 .46 0 .691zM9 6.72c0-.417-.006-.832.003-1.25.008-.363.17-.539.452-.548.291-.01.444.172.446.537.004.857.004 1.714-.002 2.571-.005.385-.196.513-.47.507-.259-.007-.416-.155-.422-.496-.009-.44-.002-.879-.002-1.32H9z"/>
    </g>
    <defs>
        <clipPath id="tklskyqdka">
            <path fill="#fff" d="M0 0h18v18H0z"/>
        </clipPath>
    </defs>
</svg>
