<svg width="16" height="16" viewBox="0 0 16 16" fill="none" xmlns="http://www.w3.org/2000/svg">
    <path d="M7.63 5.012c.715.122 1.311.45 1.874.852.46.33.607.833.347 1.226-.238.36-.685.363-1.196 0-1.237-.874-2.35-.778-3.422.298-1.026 1.029-2.087 2.03-3.07 3.099-1.16 1.263-.718 3.24.856 3.836 1.009.383 1.93.11 2.694-.651.67-.667 1.32-1.351 2.006-1.998.397-.376.792-.365 1.106-.046.304.306.286.739-.093 1.106-.889.857-1.686 1.812-2.683 2.557-1.27.949-3.09.949-4.427-.022-1.35-.981-1.927-2.773-1.464-4.258.303-.972.96-1.682 1.65-2.332.886-.835 1.659-1.781 2.6-2.561.641-.534 1.305-.984 2.163-1.056.283-.024.375-.14.163-.372-.314-.345-.233-.693.046-.975C7.817 2.675 8.758 1.525 9.96.67c1.472-1.045 3.659-.833 4.855.41 1.397 1.452 1.587 3.456.406 5.023-1.033 1.37-2.384 2.446-3.547 3.696-.496.532-1.063.951-1.764 1.137-1.397.374-2.698.208-3.81-.8-.341-.308-.433-.706-.16-1.078.294-.4.716-.345 1.06-.063.697.575 1.463.743 2.34.564.282-.057.516-.162.723-.345 1.299-1.14 2.504-2.378 3.695-3.624.967-1.01.895-2.422.049-3.419-.616-.723-2.373-.935-3.286-.08-.988.926-1.91 1.923-2.892 2.922z" fill="#fff"/>
</svg>
