<svg width="18" height="20" viewBox="0 0 18 20" fill="none" xmlns="http://www.w3.org/2000/svg">
    <g clip-path="url(#43r22pouga)" fill="#5EA88E">
        <path d="M13.994 10.667v4.99c0 .296-.041.592-.025.88.034.621.017 1.242.025 1.864.009.665-.317 1.16-1.001 1.456a1.76 1.76 0 0 1-.684.148c-3.547 0-7.093.007-10.64-.008-.91-.007-1.669-.702-1.66-1.441.008-1.568 0-3.135 0-4.71 0-2.928.008-5.863-.009-8.791 0-.68.584-1.368 1.419-1.494.116-.014.233-.014.35-.014 3.472 0 6.935.007 10.406-.008.868-.007 1.828.584 1.82 1.605-.017 1.833 0 3.682 0 5.523zM1.277 11.754v6.632c0 .325.142.458.492.458h10.448c.342 0 .476-.126.476-.429V5.21c0-.444-.084-.517-.576-.517H1.836c-.46 0-.56.088-.56.502v6.559z"/>
        <path d="M10.098 0c.617-.008 1.234 0 1.852 0h4.314c.943 0 1.72.717 1.703 1.478-.017.584.042 1.168.016 1.745-.041 1.035-.016 2.07-.025 3.105-.008 2.16 0 4.326 0 6.485 0 .702-.016 1.404.009 2.107.033.887-.885 1.567-1.736 1.53-.125-.007-.25 0-.376 0a.685.685 0 0 1-.475-.184c-.192-.178-.217-.363-.117-.592.108-.244.325-.34.592-.362.134-.015.276-.008.418-.008.283-.007.417-.125.425-.377.009-.399 0-.798 0-1.197V1.64c0-.385-.125-.496-.559-.496H5.817c-.434 0-.543.097-.543.481 0 .163.033.333-.058.488-.125.214-.418.384-.635.347-.308-.044-.534-.214-.567-.487-.117-.784.1-1.45.968-1.82.217-.095.45-.147.701-.147.81 0 1.61-.008 2.42.007L10.098 0z"/>
    </g>
    <defs>
        <clipPath id="43r22pouga">
            <path fill="#fff" d="M0 0h18v20H0z"/>
        </clipPath>
    </defs>
</svg>
