<svg width="252" height="168" viewBox="0 0 252 168" fill="none" xmlns="http://www.w3.org/2000/svg">
    <g clip-path="url(#kzdf4lf0ha)">
        <path opacity=".7" d="M223.179.122c-15.271-1.48-27.127 10.908-32.011 16.01-12.389 12.942-8.373 20.288-19.715 31.31-13.921 13.532-32.56 14.709-37.689 14.83-17.834.422-25.875-8.268-39.658-13.297-33.879-12.37-84.667 3.849-92.847 28.05-9.272 27.435 34.187 71.085 78.929 85.396 40.917 13.088 76.372-.453 85.244-4.138 47.799-19.866 66.252-62.238 77.026-86.983 14.364-32.986 8.826-46.973 6.689-51.417-4.313-8.978-13.735-18.577-25.968-19.761z" fill="#EEF4FF"/>
        <path fill-rule="evenodd" clip-rule="evenodd" d="M199.136 82.114s.509-4.66.599-6.726c.062-1.452.321-3.897.46-5.798.152-2.135.207-3.73.792-5.26.318-.835 1.421-.773 2.452-2.113 1.218-1.592 2.12-4.309 1.152-6.747-.688-1.73-3.684-1.93-4.853-3.577-3.393-4.782-3.829-11.078-9.584-13.976-2.373-1.195-4.998.111-7.004 1.264-4.693 2.7-10.137 5.37-11.075 11.023-.377 2.278.723 5.82.896 8.077.204 2.675.792 8.324.792 8.324s1.307 4.043 3.729 6.645c2.424 2.602 4.748 2.887 4.748 2.887s-.518 2.644-.615 3.173c-.367 2.02-.682 3.79.595 5.59 3.185 4.49 11.469 3.159 14.938-.066 1.186-1.1 1.978-2.72 1.978-2.72z" fill="#FAEDE9"/>
        <path fill-rule="evenodd" clip-rule="evenodd" d="M161.762 73.323s2.276-1.64 2.431-1.783c1.059-.983 3.072-2.56 4.535-2.93 3.552-.895 5.551-2.26 8.733-4.005 3.58-1.968 8.861-2.772 10.113-7.387.27-.996.267-2.037.267-3.061 0-1.128-.004-2.233-.332-3.326-1.194-4.009-6.237-3.946-9.253-2.73-1.117.449-2.822 1.692-4.098 1.264-.702-.237-.529-1.568-.529-2.132 0-1.755-.758-3.894-2.909-3.462-.993.199-1.083 2.957-1.304 3.699-.502 1.69-1.352 2.678-1.861 4.381-.252.843-.45 2.334-.45 2.334s-.899 1.908-1.176 2.466c-1.857 3.74-7.934 6.554-7.934 6.554s-.003 1.209.63 3.285c.553 1.818 1.712 4.468 2.182 5.3.287.509.955 1.533.955 1.533zM73.644 83.692c.072-1.052.387-2.926.03-4.005-.37-1.118-2.199-1.881-3.012-2.61-1.252-1.12-2.262-2.5-3.133-3.942-4.168-6.896-5.316-18.964-.723-25.901.373-.568 1.203-1.752 1.746-2.243 6.658-6.019 14.216 1.675 19.338 5.701 3.967 3.12 8.657 6.339 7.589 12.253-.692 3.82-3.67 6.603-4.459 10.312-.736 3.466.879 6.426.543 9.825-.238 2.42-2.891 5.068-4.095 6.976-2.02 3.194-3.445 6.753-5.119 10.132-.76 1.529-1.74 3.796-3.192 4.792-2.701 1.856-4.088-3.148-4.458-4.733-.658-2.818-.391-5.914-.543-8.794-.132-2.515-.682-5.294-.512-7.763z" fill="#FAEDE9"/>
        <path fill-rule="evenodd" clip-rule="evenodd" d="M18.324 82.927c2.148 1.623 4.977 3.974 7.454 5.082 3.535 1.581 7.267 3.218 10.836 4.44 3.52 1.205 7.301 2.383 10.701 4.093 1.401.707 4.434 2.061 5.749 3.054 1.314.993 3.351 3.002 3.351 3.002s-.9 2.365-.837 5.531c.094 4.876.34 4.357 1.553 10.469.197.986.526 6.914.588 11.574.038 2.859-.041 5.179-.097 6.391h43.836l1.304-6.607.678 6.607h12.265c-.059-.997-.142-2.438-.142-2.821 0-4.183-.197-7.952-.197-12.124 0-6.684.142-16.192-.955-22.799-.249-1.494-1.47-4.235-3.822-5.924-4.448-3.2-11.407-4.611-16.38-6.614-1.57-.63-4.223-4.203-4.223-4.203s-2.03 2.427-3.106 3.151c-1.83 1.227-3.884 1.86-4.977 3.842-1.342 2.435-2.034 6.454-2.916 9.111-.27.815-1.598 4.765-1.598 4.765s-.304-2.372-.35-2.494c-.563-1.519-.805-2.933-.92-4.524-.138-1.94.495-6.085-.134-8.216-.412-1.397-.969-1.832-1.456-2.5-.505-.694-.941-1.589-.941-1.589s.432-3.894-.125-4.454c-.397-.401-1.46 1.654-1.46 1.654s-1.123-.147-2.393.167c-1.632.404-3.541 1.285-4.036 1.26-4.576-.233-2.504-.059-7.035-.971-2.456-.495-12.932-.665-15.367-1.278-1.37-.345-4.884-1.369-4.884-1.369s1.958-1.18 2.238-1.369c2.646-1.776 9.66-4.597 9.66-4.597s-.827-1.456-.906-1.936c-.177-1.07-.723-2.38-.855-4.343-.138-2.087.146-4.305.146-4.305s.432-.714-.076-.968c-.343-.171-3.995 2.103-4.369 2.242-1.878.711-3.925 1.502-5.835 2.205-5.907 2.163-13.464 4.413-17.843 7.384-1.685 1.139-3.829 2.055-4.14 4.242-.094.662.045 1.93.394 3.002.412 1.275 1.096 2.34 1.622 2.737z" fill="#fff"/>
        <path fill-rule="evenodd" clip-rule="evenodd" d="M73.125 69.15c-1.214.547-.097 3.226 1.425 2.613 1.28-.52-.263-3.135-1.425-2.612zM182.068 67.565c-1.118.884.211 3.528 1.559 2.776 1.342-.753-.3-3.772-1.559-2.776z" fill="#E3ABAA"/>
        <path fill-rule="evenodd" clip-rule="evenodd" d="M129.073 95.64c5.195 1.359 9.591 2.581 14.942 3.104 2.652.257 12.223-.028 12.223-.028l-.363 5.799c-.111 1.724-.716 5.757-1.021 8.442-.619 5.468-.871 11.35-1.169 17.912-.041.94-.577 4.068-.865 5.694h17.142c.024-1.065.086-2.73.232-3.705.602-4.103.799-6.541 1.667-10.616 1.695-7.969 4.756-16.637 6.336-24.599.692-3.486 1.328-5.84 2.138-9.306.577-2.473 1.172-7.843 1.362-9.066.187-1.222.651-2.995.651-2.995l-1.792-.777-1.85-1.08-1.467 1.686s-.449-.188-1.328-.066c-.868.119-2.151.547-3.459.45-2.407-.178-5.24-1.118-6.357-1.345-.519-.104-3.452-.15-3.452-.15s.09-.306-.263-.926c-.677-1.195-1.916-2.933-2.801-5.37-.934-2.567-1.536-5.319-1.536-5.319l.699-.463s-.107-.247-.339-.432c-1.076-.864-3.32.829-4.154 1.275-.785.421-2.774 1.435-3.898 2.253-1.743 1.271-2.57 2.372-2.57 2.372s-4.029 2.257-6.312 3.685c-4.362 2.727-8.633 4.848-12.313 8.23-1.965 1.807-5.572 5.353-6.572 7.94-1.902 4.908 2.466 6.35 6.489 7.401zM198.5 100.976c.702 3.249 1.702 6.673 1.826 9.992.228 6.182-.54 12.775.799 18.838.346 1.564 1.02 5.009 1.359 6.761h34.449c-.228-1.603-.674-4.612-.906-5.496-1.511-5.83-2.13-14.161-3.268-20.079-.806-4.189-1.367-8.79-1.847-11.322-.637-3.358-1.629-6.82-3.497-9.829-1.806-2.908-6.143-4.694-10.328-6.039-2.57-.825-5.074-1.334-6.928-2.267-.813-.411-3.261-1.909-3.261-1.909s-.312-1.18-.99-1.89a18.412 18.412 0 0 1-2.22-2.784c-1.131-1.713-1.66-3.8-2.293-4.827-.491-.8-1.038-.658-1.038-.658s-.245 2.393-.408 4.534c-.242 3.173-.246 2.888-.54 5.723-.294 2.835-2.666 8.926-2.39 13.9.128 2.361.983 5.04 1.481 7.352z" fill="#D7E7FF"/>
        <path fill-rule="evenodd" clip-rule="evenodd" d="M202.637 136.563a157.034 157.034 0 0 0-.29-3.11c-.357-2.696-1.059-4.733-1.429-7.565-.415-3.179-.474-7.16-.315-10.253.256-4.9-.266-10.56-.795-12.879-.529-2.32-2.812-7.78-2.525-10.943.211-2.348 1.121-4.577 1.549-6.882.066-.349.281-3.278.281-3.278s-1.339 1.477-1.702 1.742c-2.006 1.46-4.95 2.981-8.678 2.831-2.016-.083-4.296-1.132-5.181-2.128-.886-.996-2.114-2.71-2.114-2.71-.114.154-.477 4.291-1.054 7.106-1.553 7.533-3.265 13.92-5.019 19.987-1.332 4.605-2.739 8.774-3.78 14.552-.571 3.155-1.239 7.08-1.425 10.263-.052.871-.115 2.323-.156 3.271h32.633v-.004z" fill="#fff"/>
        <path fill-rule="evenodd" clip-rule="evenodd" d="M62.06 81.802s.83-2.013.875-2.24c.294-1.552.243-2.385.243-3.962 0-6.134-2.11-11.887-1.674-18.045.574-8.087 3.562-16.031 10.87-19.71 1.432-.72 3.639-.452 5.157-.368 2.127.118 5.303-1.097 7.817-.815 1.515.17 3.476.567 4.777 1.361 8.816 5.381 9.186 15.412 9.867 23.58.319 3.81 1.166 8.81 2.688 12.31 1.919 4.424 6.326 10.272 7.104 14.11.135.675.623 4.656.623 4.656s-2.667-1.727-2.916-1.818c-1.581-.578-2.521-.787-4.095-1.379-.228-.087-2.404-.64-2.404-.64s.782 2.02.885 2.353c.498 1.6.889 4.922.537 6.583-.972 4.569-5.628 8.533-8.236 12.179-2.58 3.612-5.247 6.896-4.482 11.525.304 1.832 1.093 3.075 1.629 4.845.214.71 1.518 2.81.57 2.427-.947-.383-3.372-2.762-3.846-3.956-.304-.767-1.075-2.02-1.075-2.02s-1.993-2.156-2.39-2.957c-1.66-3.34-1.602-5.851-.419-9.289 1.287-3.737 6.108-6.659 6.866-10.483.934-4.702-.557-10.024-.754-14.722-.139-3.288-.685-7.857-.47-11.932.079-1.553.508-3.455.698-4.733.19-1.278.62-1.815 1.038-2.097 1.366-.916 3.303-2.462 3.624-4.089.108-.536-.228-2.633-.716-3.319-.643-.909-2.365-.14-2.365-.14s-.284.05-.934-.198a10.262 10.262 0 0 1-4.524-3.483c-2.231-3.06-3.864-8.107-7.208-10.274-.706-.456-1.588-.944-2.383-.895-.958.056-1.844.71-2.83.794-1.552.13-2.382-1.379-3.897-.87-2.096.703-2.885 2.148-3.49 4.03-1.086 3.381-1.405 7.724-1.501 11.287-.135 4.893.422 9.299 2.76 13.618.47.867 2.355 3.033 3.154 3.636.567.428 2.376 1.243 2.376 1.243l-.097 1.205s-.339.035-.74.537c-.404.501-.854 1.417-.854 1.417s-1.349-.237-2.072-.115c-.861.143-3.953 1.32-3.953 1.32s-.46-.007-1.446-.077c-1.003-.076-2.387-.39-2.387-.39z" fill="#D7E7FF"/>
        <path fill-rule="evenodd" clip-rule="evenodd" d="M49.82 72.313s1.483-1.052 2.175-1.5c1.629-1.053 5.696-3.107 5.696-3.107s4.974-1.29 7.495-2.369c1.685-.72 3.32-1.745 5.143-2.09 2.328-.442 5.14-.052 7.105-1.654 2.38-1.94 4.437-5.778 2.438-8.637-2.85-4.075-8.246-2.487-12.223-1.606-.979.216-3.666 1.986-4.683 1.33-.688-.442.148-2.556.584-4.04a13.87 13.87 0 0 0 .422-2.002c.042-.393-.684-1.922-1.304-1.745-.913.261-1.373 2.438-1.722 3.208-.519 1.15-1.722 2.556-2.262 3.87-.685 1.675-.993 2.873-1.736 4.29-1.505 2.87-8.315 5.458-8.315 5.458s-.484 4.91-.128 6.425c.36 1.519 1.314 4.17 1.314 4.17z" fill="#FAEDE9"/>
        <path fill-rule="evenodd" clip-rule="evenodd" d="M171.574 50.84s.882-.055 1.612-1.438c.73-1.386 1.311-4.102 1.311-4.102.432 1.929 1.487 2.89 2.57 3.51a9.113 9.113 0 0 0 2.002.832s1.301-.679 3.418-.954a4.076 4.076 0 0 1 1.992.237s-1.145-3.448-1.062-4.033c.128-.92.349-2.344 1.408-4.176.909-1.57 2.307-2.797 3.465-2.602.934.157 1.038.802 1.567 1.338.592.595 2.162.087 2.629.557 1.487 1.498.792 4.73 1.688 6.534.363.731 1.082 2.365 1.829 2.922 1.079.801 2.197.383 2.197.383s.218 2.044.674 2.964c.657 1.323 1.038 2.438 2.245 2.09 1.248-.36 2.532-.317 2.532-.317s1.279-2.31 1.47-3.79c.273-2.093.096-4.914-.225-8.223-.305-3.141-.713-6.443-2.214-7.958-1.771-1.783-3.113-1.11-5.261-1.65-.754-.192-1.359-1.446-2.473-2.15-1.227-.773-2.978-1.208-4.129-1.441-2.076-.418-3.801-.018-5.42.616-.782.307-1.408.812-2.283 1.031-2.023.509-3.96.049-5.918 1.03-.764.384-2.684 1.7-3.479 3.087-.972 1.692-1.38 4.256-1.826 5.97-.215.821-.907 1.368-1.149 1.838-.318.62-.505 1.087-.505 1.087s1.259.15 1.643.916c.235.463.367 1.288.332 1.954-.107 2.455-.64 3.939-.64 3.939z" fill="#D7E7FF"/>
        <path d="M184.883 76.938c-.328 0-.532-.014-.577-.017-4.96-.383-8.782-3.995-10.764-10.163a.352.352 0 0 1 .225-.442c.187-.06.38.041.439.226 1.097 3.406 3.871 9.195 10.155 9.679.294.024 7.291.494 10.601-5.594a.347.347 0 0 1 .474-.139.351.351 0 0 1 .138.477c-3.002 5.51-8.823 5.973-10.691 5.973zM200.952 64.288a.352.352 0 0 1-.045-.7c1.601-.209 3.393-2.883 3.687-4.848.266-1.78-.059-3.1-.885-3.629-.834-.533-2.162-.268-3.639.725a.348.348 0 0 1-.484-.098.355.355 0 0 1 .097-.487c1.746-1.174 3.31-1.435 4.403-.735 1.086.693 1.511 2.232 1.2 4.329-.339 2.257-2.324 5.186-4.289 5.44-.014.003-.028.003-.045.003z" fill="#333"/>
        <path d="M200.862 59.506a.308.308 0 0 1-.155-.038.35.35 0 0 1-.156-.47c.277-.558.958-1.14 1.591-1.352a.353.353 0 0 1 .221.669c-.449.153-.992.61-1.186.996a.352.352 0 0 1-.315.195zM181.536 62.8c-.021 0-.045-.003-.07-.006-.491-.101-.729-.478-.92-.784-.034-.056-.069-.115-.107-.167a.354.354 0 0 1 .09-.491.35.35 0 0 1 .488.09c.041.063.083.126.124.192.166.264.28.432.467.47a.353.353 0 0 1 .273.414.361.361 0 0 1-.345.282z" fill="#333"/>
        <path fill-rule="evenodd" clip-rule="evenodd" d="M187.297 56.427c0-.484.387-.874.865-.874a.87.87 0 0 1 .864.874.868.868 0 0 1-.864.874.869.869 0 0 1-.865-.874z" fill="#333"/>
        <path d="M196.55 33.326a.35.35 0 0 1-.349-.352c0-1.086-1.484-1.999-2.363-2.368-3.313-1.39-6.52-1.327-9.529.188a.35.35 0 0 1-.314-.627c3.199-1.609 6.599-1.679 10.11-.205 1.29.54 2.791 1.654 2.791 3.02a.343.343 0 0 1-.346.344zM170.672 42.9a.346.346 0 0 1-.325-.227.348.348 0 0 1 .204-.453c.837-.32 1.207-1.048 1.411-2.786.339-2.904 1.556-5.241 3.521-6.76 1.885-1.46 4.309-2.058 6.827-1.696a.353.353 0 0 1-.097.697c-2.334-.338-4.569.215-6.305 1.556-1.809 1.4-2.933 3.574-3.251 6.287-.201 1.717-.581 2.877-1.857 3.36a.43.43 0 0 1-.128.022zM171.802 51.099a.352.352 0 0 1-.145-.672c1.02-.467 1.335-1.456 1.494-2.268a.35.35 0 1 1 .685.14c-.18.898-.568 2.166-1.892 2.768a.339.339 0 0 1-.142.032zM177.416 49.158a.35.35 0 0 1-.118-.02c-1.297-.464-2.452-1.732-3.016-3.31-.758-2.124-.422-4.558.948-6.85a.34.34 0 0 1 .477-.118.357.357 0 0 1 .121.484c-1.259 2.107-1.574 4.325-.889 6.251.495 1.386 1.487 2.49 2.591 2.884a.35.35 0 0 1 .211.45.34.34 0 0 1-.325.23zM181.189 48.735a.345.345 0 0 1-.253-.108c-1.705-1.773-1.497-5.117-.242-7.008a.35.35 0 1 1 .581.39c-1.103 1.669-1.31 4.598.166 6.13a.353.353 0 0 1-.007.498.348.348 0 0 1-.245.098zM184.025 48.045a.34.34 0 0 1-.311-.195c-1.463-2.933-.045-7.15 2.199-9.247.592-.554 1.865-1 2.805-.766.599.146 1.028.53 1.239 1.11a.358.358 0 0 1-.208.454.352.352 0 0 1-.449-.21.99.99 0 0 0-.748-.668c-.754-.181-1.767.226-2.165.599-2.016 1.884-3.355 5.806-2.051 8.414a.353.353 0 0 1-.155.474.362.362 0 0 1-.156.035zM191.265 38.356a.352.352 0 0 1-.312-.508c.706-1.425 2.691-3.47 4.005-4.135a.35.35 0 0 1 .471.157.355.355 0 0 1-.156.474c-1.186.599-3.05 2.525-3.694 3.817a.36.36 0 0 1-.314.195zM197.573 50.172a3.115 3.115 0 0 1-1.691-.474c-2.144-1.348-2.549-5.238-2.743-7.108l-.038-.376c-.066-.61-.408-1.717-1.041-2.093-.287-.171-.616-.175-1.003-.014a.351.351 0 0 1-.457-.188.356.356 0 0 1 .187-.46c.588-.248 1.149-.227 1.626.055.927.55 1.307 1.954 1.38 2.623l.041.38c.184 1.758.564 5.422 2.418 6.586.74.463 1.636.49 2.746.083a.348.348 0 0 1 .446.21.357.357 0 0 1-.207.452c-.591.216-1.145.324-1.664.324zM199.659 54.286a.34.34 0 0 1-.204-.066c-.851-.62-1.318-2.542-1.363-2.977a.348.348 0 0 1 .311-.384c.19-.02.363.122.384.314.042.439.508 2.062 1.076 2.476.155.115.19.334.079.491a.344.344 0 0 1-.283.146zM203.681 54.846a.336.336 0 0 1-.245-.104.35.35 0 0 1 0-.498c1.387-1.397 1.446-5.1 1.352-6.409a.351.351 0 0 1 .325-.376.36.36 0 0 1 .374.324c.003.049.342 5.047-1.553 6.959a.371.371 0 0 1-.253.104zM206.49 46.797a.36.36 0 0 1-.184-.052c-1.182-.731-1.791-2.472-1.981-5.645-.139-2.313-.682-5.367-2.494-6.77-.955-.743-2.203-.962-3.704-.663a.348.348 0 0 1-.412-.275.35.35 0 0 1 .273-.414c1.709-.345 3.144-.077 4.265.794 1.619 1.257 2.549 3.709 2.763 7.286.173 2.88.699 4.496 1.65 5.088a.351.351 0 0 1 .114.484.327.327 0 0 1-.29.167zM183.195 70.652c-.56 0-1.162-.237-1.387-.693a.355.355 0 0 1 .156-.474.349.349 0 0 1 .47.157c.108.213.661.387 1.062.261.28-.083.26-.24.246-.32-.114-.87-.723-1.679-1.193-1.856-.035-.011-.18.003-.301.1-.121.098-.173.244-.152.429a.353.353 0 0 1-.312.386.354.354 0 0 1-.384-.313c-.045-.435.108-.811.429-1.062.291-.227.678-.303.965-.195.782.296 1.501 1.358 1.643 2.424.066.508-.214.926-.733 1.086-.159.046-.329.07-.509.07zM66 52.545h-.007a.35.35 0 0 1-.343-.36c.032-1.587.547-4.252 1.903-6.526a.35.35 0 0 1 .48-.122.357.357 0 0 1 .122.484c-1.204 2.017-1.771 4.556-1.802 6.179a.353.353 0 0 1-.353.345zM76.085 78.589c-.19 0-.377-.007-.564-.018-2.66-.17-5.012-1.504-6.62-3.754-2.085-2.912-3.244-5.935-3.649-9.515a.35.35 0 0 1 .308-.39.355.355 0 0 1 .387.31c.398 3.503 1.484 6.335 3.525 9.184 1.484 2.076 3.652 3.305 6.098 3.465 2.542.16 5.129-.888 6.92-2.81a.348.348 0 0 1 .495-.018.354.354 0 0 1 .017.498c-1.805 1.933-4.354 3.048-6.917 3.048zM91.19 66.952c-.125 0-.246-.01-.367-.028a.351.351 0 0 1 .104-.697c.723.108 1.397-.268 1.833-.599 1.072-.822 1.961-2.33 2.113-3.587.163-1.344-.3-2.56-1.124-2.953-.602-.286-1.293-.063-1.95.63a.351.351 0 0 1-.506-.488c.872-.916 1.879-1.201 2.757-.78 1.11.53 1.72 2.003 1.518 3.671-.172 1.449-1.151 3.12-2.383 4.061-.657.512-1.338.77-1.995.77z" fill="#333"/>
        <path d="M91.386 63.777a.355.355 0 0 1-.308-.519c.298-.568.754-1.08 1.083-1.414a.351.351 0 0 1 .495.498c-.294.296-.703.756-.959 1.244a.342.342 0 0 1-.31.191zM89.56 54.8c-1.394 0-2.902-.856-3.587-1.386-1.342-1.034-2.438-2.63-3.5-4.169-.948-1.379-1.93-2.803-3.04-3.736-1.003-.843-2.38-1.648-4.13-.39a.346.346 0 0 1-.488-.084.354.354 0 0 1 .083-.491c2.415-1.735 4.348-.112 4.984.421 1.183.993 2.193 2.459 3.169 3.877 1.03 1.497 2.096 3.044 3.348 4.012 1 .77 2.639 1.445 3.707 1.177a.344.344 0 0 1 .422.258.348.348 0 0 1-.252.425 2.92 2.92 0 0 1-.716.087zM89.965 57.633c-1.598 0-2.736-1.146-3.255-1.669a.357.357 0 0 1 0-.497.348.348 0 0 1 .495 0c.837.842 1.871 1.671 3.251 1.417a.351.351 0 0 1 .125.69c-.211.041-.419.059-.616.059zM73.063 45.153a.348.348 0 0 1-.301-.17c-.173-.29-.616-.62-1.225-.707-.695-.102-1.404.142-1.992.686a.348.348 0 0 1-.495-.021.354.354 0 0 1 .021-.498c.747-.69 1.66-.996 2.567-.864.747.108 1.407.508 1.725 1.041.1.168.045.383-.12.484a.366.366 0 0 1-.18.05zM74.66 43.38a.35.35 0 0 1-.322-.48c.713-1.79 1.38-3.285 2.933-4.81a.348.348 0 0 1 .495.007.354.354 0 0 1-.007.498c-1.456 1.431-2.093 2.852-2.77 4.566a.36.36 0 0 1-.33.22zM89.83 77.993a.351.351 0 0 1-.35-.348c-.003-.313-.013-.64-.02-.982-.056-2.281-.128-5.12.726-8.129a.346.346 0 0 1 .432-.24.348.348 0 0 1 .24.435c-.824 2.905-.755 5.684-.7 7.916.007.345.018.676.021.99a.353.353 0 0 1-.346.358h-.003zM73.65 83.569a.35.35 0 0 1-.35-.352c0-1.54.084-5.123.084-5.161.003-.195.162-.324.356-.345a.352.352 0 0 1 .343.359c0 .035-.084 3.611-.084 5.144 0 .198-.159.355-.349.355zM72.17 64.616a.364.364 0 0 1-.146-.03c-.72-.328-1.155-1.077-1-1.711a.351.351 0 0 1 .423-.258c.186.049.3.237.255.429-.065.264.17.7.61.898a.35.35 0 0 1 .172.463.334.334 0 0 1-.314.21z" fill="#333"/>
        <path fill-rule="evenodd" clip-rule="evenodd" d="M79.298 59.333c0-.45-.335-.811-.754-.811-.415 0-.754.362-.754.811 0 .45.339.812.754.812s.754-.363.754-.812z" fill="#333"/>
        <path d="M102.378 89.455c10.622 2.661 11.584 8.805 11.898 10.821l.035.227c.557 3.364 1.02 8 .636 19.04-.083 2.361.26 13.238.464 17.021h.702c-.19-3.602-.557-14.506-.47-16.997.387-11.099-.083-15.777-.647-19.179l-.035-.223c-.332-2.132-1.349-8.624-12.42-11.396a.346.346 0 0 0-.422.258.362.362 0 0 0 .259.428zM91.234 126.519a.346.346 0 0 1-.308-.185c-4.427-8.24.793-14.161 5.4-19.389 2.32-2.629 4.51-5.116 5.295-7.658 1.231-3.999.169-7.008-1.062-10.49-1.09-3.083-2.324-6.573-2.075-11.323a.353.353 0 0 1 .366-.334.35.35 0 0 1 .332.369c-.242 4.611.969 8.031 2.038 11.05 1.221 3.456 2.372 6.716 1.072 10.937-.83 2.685-3.068 5.227-5.44 7.916-4.674 5.301-9.502 10.779-5.306 18.588a.353.353 0 0 1-.312.519zM85.393 121.311a.347.347 0 0 1-.277-.135c-2.348-3.041-2.78-7.673-1.051-11.274.66-1.373 1.722-2.602 2.846-3.905 1.501-1.737 3.054-3.535 3.74-5.812.84-2.797.265-7.332-.291-11.716-.374-2.957-.765-6.012-.706-8.509.003-.195.173-.33.356-.345a.352.352 0 0 1 .343.359c-.056 2.441.328 5.471.702 8.404.563 4.458 1.151 9.066.266 12.009-.73 2.42-2.331 4.277-3.88 6.07-1.094 1.264-2.124 2.459-2.747 3.748-1.619 3.368-1.217 7.7.972 10.532a.355.355 0 0 1-.062.494.313.313 0 0 1-.211.08z" fill="#333"/>
        <path d="M110.312 92.97h-.024a.35.35 0 0 1-.325-.377c.308-4.503-2.684-9.668-5.084-13.82-.768-1.326-1.494-2.577-2.048-3.695-2.379-4.792-2.898-10.378-3.4-15.784-.484-5.217-.94-10.145-2.985-14.112-1.92-3.723-8.404-10.5-16.207-7.67a.351.351 0 0 1-.236-.66c8.236-2.986 15.056 4.102 17.066 8.006 2.106 4.089 2.57 9.083 3.057 14.37.495 5.34 1.007 10.863 3.328 15.533.546 1.098 1.262 2.34 2.027 3.657 2.452 4.235 5.502 9.505 5.177 14.224a.348.348 0 0 1-.346.328zM64.02 47.198a.392.392 0 0 1-.137-.028.354.354 0 0 1-.184-.463c2.49-5.886 8.682-10.825 12.05-9.61.18.067.277.269.211.45a.35.35 0 0 1-.446.212c-3.002-1.09-8.85 3.74-11.171 9.223a.351.351 0 0 1-.322.216zM62.177 82.107a.35.35 0 0 1-.3-.53c1.69-2.849 1.085-7.63.387-13.172-.083-.668-.17-1.347-.253-2.034a.35.35 0 1 1 .692-.083c.083.682.17 1.362.252 2.03.716 5.67 1.335 10.564-.48 13.621a.343.343 0 0 1-.298.168zM73.888 72.233h-.044a.354.354 0 0 1-.346-.356.353.353 0 0 1 .349-.348h.041c.398 0 .869-.097.941-.536.073-.46-.29-1.066-.72-1.202-.421-.135-.77-.118-.94.042-.163.153-.194.474-.087.906a.352.352 0 0 1-.255.424.35.35 0 0 1-.422-.257c-.218-.885.038-1.352.287-1.588.363-.345.94-.415 1.629-.199.754.24 1.325 1.184 1.197 1.985-.042.269-.284 1.129-1.63 1.129zM92.085 129.128a.352.352 0 0 1-.156-.035c-2.307-1.149-4.185-3.531-5.153-6.534-1.041-3.232-.851-6.586.515-9.208.09-.171.301-.237.47-.146.17.09.236.303.146.473-1.283 2.452-1.453 5.611-.47 8.662.909 2.825 2.66 5.057 4.797 6.119a.355.355 0 0 1 .159.471.33.33 0 0 1-.308.198zM161.913 73.48a.353.353 0 0 1-.204-.637l1.221-.889c1.816-1.327 4.078-2.974 4.701-3.295.581-.3 1.501-.623 2.562-.996 1.242-.439 2.65-.937 3.649-1.456 1.602-.828 2.259-1.34 3.725-2.528.232-.188.516-.463.81-.756.754-.745 1.612-1.588 2.445-1.787 2.117-.505 2.598-.404 3.753-.163.411.083.923.191 1.639.296 1.045.153 2.345.345 2.684.031.025-.024.083-.076.076-.254-.024-.394-.743-.634-1.217-.798-.142-.048-.27-.09-.374-.136a6.9 6.9 0 0 1-1.21-.647c-.346-.22-.675-.425-1.162-.606-.747-.276-2.819-.404-4.331-.498-.906-.056-1.618-.101-1.95-.164a.353.353 0 0 1 .128-.693c.29.056 1.02.1 1.867.153 1.643.101 3.684.23 4.528.54.557.205.93.442 1.293.669.329.209.644.404 1.104.592.093.038.211.076.335.118.654.223 1.643.554 1.695 1.421.024.418-.149.672-.301.812-.581.536-1.823.355-3.258.146a26.522 26.522 0 0 1-1.678-.303c-1.11-.23-1.487-.307-3.451.16-.647.153-1.463.958-2.117 1.606-.311.306-.602.592-.861.804-1.508 1.216-2.186 1.745-3.846 2.605-1.042.54-2.473 1.045-3.739 1.494-.996.352-1.934.683-2.477.962-.577.296-3.002 2.065-4.607 3.235-.467.341-.889.651-1.224.892a.34.34 0 0 1-.208.07z" fill="#333"/>
        <path d="M190.113 60.834c-.363 0-.765-.13-1.308-.303-.162-.053-.339-.108-.536-.171-.619-.191-1.138-.45-1.518-.637-.208-.105-.387-.195-.519-.24a.35.35 0 0 1-.214-.45.347.347 0 0 1 .446-.216c.169.06.37.16.598.275.377.188.848.422 1.411.596.201.063.381.118.543.17 1.007.324 1.207.377 1.612.05.076-.06.073-.091.073-.105-.021-.383-1.2-1.132-1.768-1.49-.169-.109-.325-.206-.456-.293a21.161 21.161 0 0 1-1.059-.77c-.954-.721-1.705-1.289-2.991-1.38l-.716-.048c-1.28-.084-1.809-.119-3.476-.39-1.003-.164-1.737-.129-2.695.125a.348.348 0 0 1-.425-.25.35.35 0 0 1 .249-.429c1.051-.279 1.888-.317 2.985-.14 1.636.269 2.155.3 3.41.384l.716.049c1.494.104 2.359.759 3.365 1.518.319.24.651.491 1.028.745.124.084.276.182.439.283 1.162.735 2.054 1.354 2.092 2.044.011.185-.038.456-.332.693-.339.275-.633.38-.954.38z" fill="#333"/>
        <path d="M180.093 55.288a.35.35 0 0 1-.315-.198.355.355 0 0 1 .163-.47c.906-.443 3.87-1.665 5.558-1.512.975.09 2.034.216 3.331.397l.107.014c.885.125 2.532.358 2.839-.411.045-.112.021-.164.007-.185-.173-.33-1.186-.575-1.926-.749-.36-.083-.699-.163-.993-.257-.332-.108-.667-.22-1.003-.335-.923-.313-1.795-.613-2.642-.742-1.104-.17-1.847.077-2.705.366-.512.17-1.09.366-1.799.488-1.477.25-3.524.661-4.237 1.358a.347.347 0 0 1-.494-.007.353.353 0 0 1 .007-.498c.657-.64 2.078-1.118 4.607-1.546.653-.112 1.183-.29 1.695-.46.902-.303 1.757-.592 3.033-.394.906.14 1.847.46 2.76.77.329.111.661.223.989.328.27.087.598.163.944.243 1.062.251 2.065.491 2.387 1.111a.915.915 0 0 1 .021.774c-.512 1.278-2.435 1.006-3.584.842l-.107-.014a66.166 66.166 0 0 0-3.299-.393c-1.291-.122-3.857.79-5.192 1.442a.337.337 0 0 1-.152.038z" fill="#333"/>
        <path d="M172.687 52.373a.353.353 0 0 1-.11-.686c.702-.233 1.366-.442 2.016-.648 1.626-.511 3.161-.992 4.967-1.783 1.743-.763 3.068-1.27 4.227-.895.937.307 1.929.585 2.805.833.94.264 1.75.494 2.334.707 1.56.567 1.29 1.612 1.28 1.657a.348.348 0 0 1-.429.244.355.355 0 0 1-.246-.425c.007-.035.07-.487-.84-.815-.56-.202-1.359-.428-2.286-.69a73.866 73.866 0 0 1-2.833-.839c-.923-.303-2.13.171-3.732.871-1.84.805-3.393 1.292-5.039 1.811-.647.202-1.308.411-2.003.644-.038.007-.073.014-.111.014z" fill="#333"/>
        <path d="M158.202 63.62a.352.352 0 0 1-.19-.644c5.226-3.476 6.776-4.946 7.153-5.566.498-.815 1.708-3.305 1.76-4.193.063-1.027.54-1.964 1-2.87.104-.202.204-.4.297-.599.675-1.403.962-2.671 1.266-4.012.038-.167.073-.324.1-.467.229-1.051.391-1.81 1.47-1.584.46.094.824.376 1.083.829.699 1.225.45 3.5.066 4.653-.163.477-.381 2.11-.004 2.497.028.028.107.108.363.024a.351.351 0 0 1 .218.669c-.553.18-.889-.007-1.075-.199-.813-.829-.17-3.193-.163-3.214.353-1.045.55-3.097-.01-4.079-.156-.278-.36-.439-.616-.49-.373-.08-.405-.084-.647 1.044a46.65 46.65 0 0 1-.103.474c-.315 1.382-.613 2.685-1.318 4.162-.097.202-.201.404-.305.613-.428.843-.871 1.713-.923 2.59-.069 1.14-1.435 3.822-1.861 4.522-.612 1.003-3.019 2.894-7.364 5.781a.343.343 0 0 1-.197.06zM50.12 72.289a.345.345 0 0 1-.304-.181.354.354 0 0 1 .135-.478c.757-.424 1.77-1.006 2.815-1.612 2.754-1.588 4.597-2.643 5.116-2.814.574-.188 1.297-.376 2.058-.578.965-.258 2.061-.547 3.11-.895 1.673-.554 2.002-.704 3.52-1.575.256-.15.547-.362.854-.592.713-.529 1.519-1.125 2.328-1.187l.851-.07c1.958-.16 2.421-.198 4.704.515.93.29 1.778.293 2.213 0a.624.624 0 0 0 .291-.484c-.135-.268-1.736-.828-2.504-1.1-.668-.233-1.245-.435-1.57-.62-.616-.345-2.318-.578-3.556-.749-.9-.125-1.612-.223-1.954-.345a.352.352 0 0 1-.211-.449.35.35 0 0 1 .446-.212c.277.097 1.024.202 1.816.31 1.439.198 3.071.421 3.801.832.273.153.85.355 1.46.568 1.888.661 3.043 1.104 2.97 1.832-.04.421-.248.766-.598 1-.626.417-1.65.448-2.805.083-2.154-.672-2.504-.645-4.437-.484l-.855.07c-.608.045-1.331.58-1.964 1.051-.322.24-.63.467-.92.637-1.557.895-1.93 1.063-3.65 1.634-1.064.355-2.171.648-3.147.905-.754.199-1.466.39-2.02.568-.49.16-2.98 1.599-4.983 2.755-1.052.606-2.065 1.191-2.826 1.616a.4.4 0 0 1-.184.049z" fill="#333"/>
        <path d="M78.786 63.714c-.442 0-.806-.188-1.003-.289-.038-.017-.066-.034-.093-.045a.354.354 0 0 1-.183-.463.35.35 0 0 1 .46-.185c.037.018.082.039.134.066.34.175.706.324 1.107.094.073-.041.076-.066.076-.076.035-.359-1.003-1.271-1.446-1.662a18.667 18.667 0 0 1-.387-.344c-.332-.307-.615-.603-.889-.885-.792-.822-1.418-1.473-2.615-1.748l-.68-.157c-1.194-.272-1.689-.383-3.218-.892-.923-.306-1.618-.383-2.563-.285a.354.354 0 0 1-.383-.314.354.354 0 0 1 .31-.386c1.038-.108 1.838-.018 2.85.317 1.502.498 1.986.606 3.155.874l.685.157c1.4.324 2.124 1.076 2.96 1.947.267.275.544.564.858.856.108.098.236.21.374.331.993.874 1.747 1.595 1.681 2.26-.017.182-.107.436-.425.617a1.473 1.473 0 0 1-.765.212z" fill="#333"/>
        <path d="M80.457 57.696c-.713 0-1.508-.244-2.09-.422l-.096-.031a71.074 71.074 0 0 0-3.058-.87c-1.193-.304-3.756.166-5.112.584a.349.349 0 0 1-.435-.233.354.354 0 0 1 .231-.439c.92-.282 3.909-1 5.49-.592.916.233 1.895.512 3.088.878l.097.031c.813.25 2.331.714 2.729.045.055-.094.041-.139.034-.163-.11-.335-1.068-.728-1.701-.99-.325-.135-.633-.26-.9-.393-.3-.15-.601-.31-.902-.467-.823-.435-1.602-.846-2.38-1.093-1.017-.324-1.754-.202-2.604-.06-.509.088-1.086.182-1.775.189-.826.006-3.337.03-4.199.644a.35.35 0 0 1-.404-.575c.72-.508 2.137-.749 4.593-.773.633-.007 1.159-.094 1.667-.181.903-.15 1.754-.293 2.93.084.837.268 1.677.71 2.493 1.142.294.157.592.313.89.46.241.122.539.243.853.372.972.4 1.889.777 2.1 1.418a.879.879 0 0 1-.097.745c-.311.523-.85.69-1.442.69z" fill="#333"/>
        <path d="M79.751 55.16a.353.353 0 0 1-.322-.488c.011-.03.132-.438-.667-.88-.875-.485-2.13-.958-3.237-1.38l-.384-.146c-1.055-.4-2.528-.258-4.396-.077l-.353.035c-2.594.251-4.856.537-6.907.878a.35.35 0 0 1-.114-.693c2.068-.345 4.344-.634 6.955-.885l.35-.035c1.957-.191 3.503-.34 4.71.122l.384.147c1.128.428 2.408.912 3.328 1.42 1.404.777.989 1.739.968 1.78a.346.346 0 0 1-.315.202z" fill="#333"/>
        <path d="M48.605 62.213a.354.354 0 0 1-.141-.676c3.337-1.46 6.194-3.309 7.294-4.381 1.39-1.358 1.799-2.835 1.889-3.257.259-1.18 1.259-3.065 1.885-3.97.843-1.223 1.304-2.379 1.791-3.601.062-.154.114-.296.166-.425.36-.93.647-1.665 1.647-1.285.418.16.73.49.906.957.48 1.268-.094 3.39-.63 4.42-.221.425-.67 1.926-.373 2.34.02.032.076.109.325.07a.353.353 0 0 1 .11.697c-.56.09-.85-.143-1.003-.355-.65-.913.312-3.058.322-3.08.484-.93.976-2.834.595-3.84-.107-.283-.27-.46-.502-.551-.328-.125-.352-.136-.747.885-.052.132-.107.278-.17.431-.5 1.261-.974 2.452-1.863 3.741-.578.836-1.54 2.643-1.775 3.723-.103.47-.556 2.118-2.085 3.612-1.356 1.323-4.441 3.183-7.502 4.52a.483.483 0 0 1-.139.025zM75.652 136.563c-.276-5.405.121-9.404.543-13.625.132-1.33.27-2.706.391-4.162.139-1.654.066-3.354-.003-4.997-.083-1.961-.166-3.988.107-5.921.297-2.093.906-3.995 1.553-6.012.228-.707.457-1.417.671-2.145.232-.773.474-1.724.73-2.73.674-2.637 1.515-5.914 2.594-7.729.968-1.626 1.802-2.058 2.957-2.65.176-.09.36-.185.55-.29 1.335-.717 3.386-2.42 4.51-4.032a.354.354 0 0 0-.086-.491.348.348 0 0 0-.488.087c-1.065 1.525-3.006 3.138-4.265 3.817a20.85 20.85 0 0 1-.54.282c-1.21.623-2.164 1.118-3.237 2.915-1.134 1.902-1.95 5.099-2.673 7.916-.256 1-.498 1.94-.723 2.703-.215.724-.443 1.428-.668 2.132-.657 2.044-1.276 3.973-1.58 6.126-.284 1.999-.197 4.061-.114 6.053.069 1.619.138 3.298.003 4.907a225.94 225.94 0 0 1-.39 4.152c-.423 4.238-.824 8.257-.547 13.694h.705z" fill="#333"/>
        <path d="M88.184 94.857a.782.782 0 0 1-.21-.027c-.613-.154-.952-.948-1.204-1.707l-.035-.108c-.377-1.139-.802-2.427-1.532-3.347-.405-.512-1.439-1.215-2.048-1.153-.218.025-.505.133-.588.258a.345.345 0 0 1-.484.098.354.354 0 0 1-.097-.488c.311-.467 1.014-.557 1.093-.568.917-.104 2.158.77 2.667 1.414.806 1.014 1.255 2.368 1.65 3.563l.034.108c.336 1.014.588 1.216.71 1.247.086.02.165-.063.352-.37.035-.052.066-.107.1-.156l.187-.282c.55-.832 1.024-1.553 1.771-2.306a.348.348 0 0 1 .495 0 .357.357 0 0 1 0 .498c-.696.704-1.152 1.397-1.681 2.198l-.187.286c-.028.041-.059.09-.087.139-.166.268-.435.703-.906.703zM101.884 136.563c.816-4.681 1.432-9.114 1.93-12.89.128-.975.249-1.933.37-2.876.522-4.152 1.017-8.077 2.11-12.298.47-1.818 1.518-3.863 2.532-5.834.871-1.699 1.698-3.305 2.189-4.796a.35.35 0 1 0-.664-.223c-.477 1.439-1.287 3.02-2.148 4.695-1.031 2.01-2.096 4.086-2.587 5.98-1.107 4.267-1.602 8.213-2.127 12.389-.118.94-.239 1.894-.367 2.869-.501 3.797-1.124 8.269-1.947 12.981h.709v.003z" fill="#333"/>
        <path d="M103.191 136.562h.699c-.076-1.804-.305-3.883-.512-5.76-.08-.711-.152-1.397-.215-2.02a.349.349 0 1 0-.695.07c.063.626.139 1.313.218 2.027.204 1.856.429 3.914.505 5.683zM56.74 118.021c.568 3.914.935 11.939.589 18.545h.698c.343-6.641-.027-14.704-.598-18.646-.19-1.313-.45-2.442-.702-3.532-.46-1.992-.858-3.713-.723-6.004.145-2.463.75-5.615 1.287-8.394.114-.599.224-1.177.328-1.713.906-4.87.796-8.805.298-13.956a.35.35 0 1 0-.696.066c.492 5.088.602 8.972-.29 13.757-.1.536-.211 1.111-.325 1.71-.54 2.8-1.152 5.977-1.297 8.488-.139 2.392.287 4.245.74 6.203.249 1.079.508 2.194.692 3.476zM77.403 103.759a.349.349 0 0 1-.349-.351c0-1.439-.315-2.727-.65-4.09-.308-1.26-.626-2.563-.682-4.004-.03-.808.035-1.71.104-2.661.11-1.515.225-3.083-.059-4.312-.204-.881-.95-1.992-1.553-2.884-.335-.494-.622-.923-.778-1.25-.474-.993-.408-1.818-.187-2.257a.35.35 0 0 1 .47-.157c.174.087.243.3.156.474-.138.279-.169.874.194 1.64.132.279.408.687.727 1.157.632.94 1.421 2.11 1.653 3.12.304 1.334.186 2.954.072 4.521-.065.933-.131 1.814-.103 2.584.051 1.372.36 2.64.66 3.866.329 1.341.668 2.731.668 4.256a.338.338 0 0 1-.343.348z" fill="#333"/>
        <path d="M70.582 91.01h.003-.003zm-.07.694a.538.538 0 0 1-.266-.077c-.77-.421-.92-2.079-1.01-3.74-.013-.272-.024-.491-.041-.61-.048-.334-.187-.714-.332-1.118-.256-.7-.519-1.424-.384-2.1.118-.592.737-.916 1.287-1.205.245-.129.477-.25.612-.37.63-.553 1.027-1.235 1.449-1.96.18-.313.37-.634.581-.95a.346.346 0 0 1 .484-.098c.16.108.204.327.097.487-.2.303-.384.617-.56.92-.433.738-.875 1.504-1.591 2.135-.197.174-.467.313-.75.463-.388.202-.872.456-.924.717-.097.481.135 1.112.356 1.718.152.42.311.856.37 1.26.02.133.031.373.049.672.038.75.141 2.668.57 3.1.197-.195.55-.84.817-1.323.75-1.37 1.684-3.076 2.915-3.267.522-.08 1.028.111 1.508.575a.354.354 0 0 1 .01.497.348.348 0 0 1-.494.01c-.318-.305-.62-.434-.92-.386-.896.14-1.77 1.742-2.41 2.912-.558 1.017-.952 1.738-1.422 1.738zM49.961 72.888a.356.356 0 0 1-.3-.171c-1.658-2.783-2.263-8.599-1.222-11.74a.35.35 0 1 1 .664.222c-.972 2.933-.387 8.565 1.159 11.16.1.166.045.382-.121.483a.405.405 0 0 1-.18.046z" fill="#333"/>
        <path d="M55.364 101.899a.346.346 0 0 1-.256-.115c-2.19-2.403-6.084-4.141-9.85-5.82-1.36-.606-3.425-1.317-5.815-2.138-4.828-1.662-10.84-3.73-15.16-6.325l-.674-.404c-3.137-1.87-7.045-4.194-7.557-7.82-.491-3.457 1.155-4.523 3.434-6 .24-.153.485-.313.74-.484 3.833-2.543 7.686-4.277 13.75-6.182 5.208-1.64 8.753-2.93 11.154-4.058.93-.435 1.594-.863 2.13-1.204.951-.61 1.64-1.052 2.29-.171a.352.352 0 0 1-.073.49.346.346 0 0 1-.487-.072c-.225-.307-.294-.335-1.356.345-.523.334-1.239.794-2.21 1.25-2.432 1.142-6.001 2.441-11.245 4.092-5.997 1.888-9.802 3.594-13.575 6.099-.256.17-.505.33-.747.487-2.29 1.48-3.55 2.295-3.12 5.308.467 3.291 4.213 5.524 7.222 7.314l.678.404c4.254 2.56 10.227 4.615 15.024 6.262 2.407.829 4.483 1.543 5.87 2.16 3.832 1.71 7.796 3.475 10.085 5.986a.354.354 0 0 1-.02.498.319.319 0 0 1-.232.098z" fill="#333"/>
        <path d="M28.583 83.636a.352.352 0 0 1-.083-.693c3.653-.892 6.202-2.497 8.9-4.2 1.4-.885 2.853-1.798 4.51-2.64 1.684-.86 3.289-1.568 4.7-2.191 2.324-1.028 4.334-1.916 4.49-2.574a.353.353 0 0 1 .418-.261.353.353 0 0 1 .26.425c-.236 1-1.986 1.773-4.888 3.054-1.404.62-2.998 1.327-4.666 2.177-1.629.829-3.064 1.734-4.454 2.609-2.75 1.734-5.344 3.368-9.107 4.287a.67.67 0 0 1-.08.007zM65.588 82.567c-.052 0-.108-.004-.16-.007-1.328-.09-2.84-.314-5.343-.686a465.83 465.83 0 0 0-2.594-.38c-1.927-.279-3.999-.366-6.195-.456-3.61-.15-7.346-.303-11.044-1.324a.35.35 0 0 1 .183-.68c3.622.997 7.316 1.15 10.889 1.3 2.213.09 4.306.178 6.267.463.968.14 1.826.269 2.597.38 2.487.37 3.988.592 5.289.68.605.037 1.404-.266 2.255-.586 1.332-.505 2.836-1.073 4.233-.606a.353.353 0 0 1-.22.669c-1.16-.39-2.484.111-3.767.595-.862.328-1.678.638-2.39.638zM198.428 99.166c.657 2.504 1.338 5.092 1.608 7.787.29 2.919.235 5.942.18 8.864-.056 3.075-.114 6.255.225 9.341.193 1.762.546 3.462.885 5.106.439 2.124.858 4.148.968 6.3h.699c-.114-2.239-.557-4.371-.986-6.443-.335-1.627-.684-3.312-.875-5.04-.335-3.04-.276-6.196-.221-9.25.055-2.943.111-5.987-.183-8.947-.274-2.752-.962-5.367-1.626-7.9-.498-1.898-1.013-3.862-1.342-5.844-.273-1.647.228-3.566.713-5.419.304-1.163.591-2.26.705-3.316.118-1.058.242-2.124.367-3.193.55-4.744 1.12-9.648 1.12-14.436a.35.35 0 1 0-.698 0c0 4.747-.568 9.633-1.117 14.356-.125 1.069-.25 2.135-.367 3.197-.111 1.003-.391 2.076-.688 3.211-.502 1.926-1.024 3.915-.727 5.712.336 2.02.858 3.998 1.36 5.914zM170.36 136.564c.207-8.875 2.646-17.926 5.012-26.693 1.103-4.088 2.241-8.316 3.109-12.384.311-1.47.712-2.989 1.1-4.458.65-2.47 1.325-5.023 1.636-7.52.045-.372.097-.84.152-1.358.263-2.417.657-6.07 1.411-7.59a.351.351 0 1 0-.626-.317c-.809 1.63-1.214 5.358-1.48 7.827-.056.519-.107.978-.152 1.348-.305 2.448-.972 4.98-1.619 7.425-.391 1.477-.792 3.006-1.11 4.49-.862 4.05-1.999 8.268-3.103 12.349-2.379 8.812-4.832 17.912-5.036 26.877h.706v.004z" fill="#333"/>
        <path d="M179.374 92.662c-.021 0-.039-.004-.059-.004a.351.351 0 0 1-.287-.404c.162-.975.477-5.698.532-6.586.038-.63.038-1.316 0-1.985a7.05 7.05 0 0 0-.193-1.191c-.104-.45-.305-1.007-.671-1.118-.637-.206-1.747.808-2.56 1.546-.377.345-.737.669-1.034.868-.294.195-.595.386-.892.578l-.419.268c-.571.366-1.733 1.118-2.542.651a.635.635 0 0 1-.322-.435c-.072-.383.222-.76.415-1.007l.07-.087c.473-.637 1.003-1.254 1.518-1.853.342-.397.681-.797 1.006-1.198a25.019 25.019 0 0 0 2.646-3.998l.073-.136c.398-.76 1-1.912 1.792-2.309a.349.349 0 0 1 .47.157.355.355 0 0 1-.156.474c-.591.299-1.151 1.368-1.487 2.01l-.073.138a25.577 25.577 0 0 1-2.722 4.11c-.328.408-.674.812-1.02 1.216-.505.588-1.027 1.198-1.487 1.814l-.08.101c-.065.084-.228.293-.269.408.466.209 1.418-.404 1.784-.641l.433-.275c.294-.188.591-.377.878-.572.256-.17.595-.48.955-.804 1.041-.944 2.22-2.013 3.234-1.696.553.174.927.707 1.141 1.63.076.327.183.818.211 1.31.041.696.041 1.41 0 2.068-.055.895-.374 5.653-.54 6.66a.349.349 0 0 1-.345.292zM197.48 90.823a.351.351 0 0 1-.329-.47c.218-.63.436-1.3.658-1.971 1.248-3.814 2.327-7.102 3.932-6.858 1.308.202 2.107 1.829 2.809 3.263.256.523.498 1.017.729 1.355l.083.126c1.19 1.838 1.688 2.215 1.841 2.291.373-.53-.052-3.712-.284-5.45-.138-1.035-.266-2.01-.315-2.724-.097-1.47-1.006-2.462-1.888-3.424-.464-.504-.903-.982-1.214-1.518-.889-1.529-1.221-2.365-1.726-3.632-.042-.105-.08-.237-.125-.39-.228-.805-.508-1.533-1.397-1.627a.353.353 0 0 1-.311-.387.344.344 0 0 1 .384-.313c1.431.153 1.798 1.442 1.995 2.135.035.125.066.237.101.32.511 1.285.816 2.059 1.681 3.542.273.467.688.92 1.124 1.397.92 1 1.961 2.135 2.071 3.855.045.69.173 1.655.308 2.675.464 3.466.692 5.607-.034 6.154a.557.557 0 0 1-.447.101c-.345-.063-.923-.414-2.351-2.619l-.073-.111c-.26-.38-.512-.895-.782-1.442-.598-1.22-1.342-2.734-2.289-2.88-1.035-.157-2.259 3.622-3.162 6.38-.221.68-.442 1.348-.66 1.985a.346.346 0 0 1-.329.237z" fill="#333"/>
        <path d="M212.726 82.88c.744.223 1.539.442 2.38.672 3.926 1.076 8.377 2.292 10.836 5.043 3.566 3.991 4.5 10.072 5.327 15.436.141.909.276 1.8.425 2.661.706 4.151 1.411 8.613 2.093 12.928.895 5.663 1.819 11.504 2.787 16.947h.709c-.975-5.471-1.905-11.357-2.808-17.059-.681-4.318-1.391-8.783-2.096-12.935-.145-.857-.284-1.745-.422-2.65-.841-5.461-1.792-11.654-5.496-15.798-2.598-2.905-7.353-4.204-11.175-5.249-.837-.23-1.626-.446-2.359-.665-2.131-.644-4.327-1.4-5.738-2.929a.349.349 0 0 0-.495-.017.355.355 0 0 0-.017.498c1.532 1.65 3.829 2.445 6.049 3.117z" fill="#333"/>
        <path d="M220.636 136.563c.055-1.902.09-3.713.124-5.468.121-6.168.225-11.493 1.072-18.131.125-.962.222-2.299.329-3.72.221-2.981.495-6.694 1.131-8.617.443-1.333 2.272-6.112 2.926-7.432a.35.35 0 1 0-.626-.313c-.664 1.34-2.518 6.171-2.964 7.523-.664 2.006-.93 5.61-1.166 8.787-.103 1.407-.2 2.741-.325 3.681-.854 6.673-.958 12.019-1.079 18.205-.034 1.762-.069 3.576-.124 5.482h.702v.003zM153.291 136.563c.778-3.295 1.014-8.432 1.242-13.416.173-3.841.356-7.811.785-10.803.93-6.503 1.508-13.378 1.435-17.111-.076-3.87-.619-6.544-1.214-9.167a.35.35 0 0 0-.418-.265.354.354 0 0 0-.263.422c.588 2.588 1.121 5.22 1.197 9.024.072 3.698-.502 10.532-1.425 16.996-.433 3.026-.616 7.014-.792 10.873-.229 5.043-.467 10.24-1.263 13.447h.716zM188.992 86.613a6.703 6.703 0 0 1-1.526-.157c-1.314-.314-4.555-1.407-6.253-4.824a.355.355 0 0 1 .156-.473.349.349 0 0 1 .47.156c1.508 3.04 4.275 4.096 5.79 4.455 2.802.665 9.162-1.104 11.116-4.368a.345.345 0 0 1 .481-.118.35.35 0 0 1 .118.48c-1.827 3.052-6.983 4.849-10.352 4.849zM172.771 76.89c-.128 0-.256-.004-.384-.015-.927-.07-1.979-.344-3.093-.63-1.404-.362-2.846-.739-4.025-.68a.353.353 0 0 1-.367-.334.35.35 0 0 1 .332-.369c1.266-.063 2.777.324 4.233.7 1.083.282 2.103.544 2.971.61.73.056 1.422-.084 2.152-.237.823-.17 1.674-.348 2.594-.22.19.025.325.203.297.397a.35.35 0 0 1-.394.3c-.802-.111-1.556.045-2.359.212-.622.133-1.273.265-1.957.265z" fill="#333"/>
        <path d="M149.649 99.22c-4.272 0-9.218-.313-11.971-.933l-1.363-.303c-3.583-.798-6.415-1.428-9.691-2.895-.2-.09-.436-.177-.692-.275-1.373-.519-3.448-1.299-4.043-3.695-.56-2.246 1.058-4.2 2.483-5.924.381-.46.737-.892 1.038-1.31 2.601-3.625 8.014-7.063 11.964-9.574.602-.383 1.179-.749 1.712-1.094 2.117-1.372 7.896-4.823 8.605-5.248.204-.307 1.024-1.435 2.625-2.396.416-.248.858-.516 1.308-.79 3.593-2.185 5.361-3.188 6.056-2.968.152.049.266.15.329.289a.35.35 0 0 1-.578.376h-.007c-.667 0-3.642 1.807-5.44 2.901l-1.311.794c-1.685 1.01-2.428 2.222-2.439 2.236a.366.366 0 0 1-.121.122c-.062.038-6.419 3.828-8.654 5.276-.536.349-1.113.715-1.715 1.098-3.902 2.48-9.249 5.875-11.77 9.39-.311.435-.678.877-1.065 1.347-1.322 1.595-2.816 3.4-2.345 5.3.508 2.038 2.3 2.718 3.61 3.212.27.101.519.195.73.29 3.21 1.434 6.012 2.057 9.56 2.845l1.363.303c4.009.902 12.752 1.142 17.096.707a.352.352 0 0 1 .384.317.346.346 0 0 1-.311.383c-1.421.15-3.306.219-5.347.219z" fill="#333"/>
        <path d="M156.12 80.407c-.834 0-1.65-.76-3.31-2.658-1.899-2.17-3.715-5.363-4.631-8.132a.35.35 0 1 1 .664-.223c.889 2.689 2.653 5.785 4.493 7.889 1.691 1.936 2.369 2.497 2.908 2.406.72-.122 1.246-.748 1.799-1.414.37-.439.75-.898 1.207-1.215.322-.223.785-.38 1.28-.547.726-.247 1.553-.526 1.733-.982.179-.453-.848-2.327-1.232-3.034-.166-.303-.301-.55-.366-.696l-.246-.54c-1.024-2.243-2.732-6-2.732-8.185a.35.35 0 1 1 .698 0c0 2.027 1.671 5.698 2.671 7.889l.245.543c.062.136.187.362.342.648.858 1.57 1.55 2.93 1.27 3.633-.301.755-1.287 1.09-2.158 1.386-.447.153-.865.296-1.107.46-.381.26-.716.665-1.069 1.086-.612.731-1.245 1.49-2.22 1.654a.826.826 0 0 1-.239.032z" fill="#333"/>
        <path d="M136.554 93.404a.35.35 0 0 1-.349-.352.35.35 0 0 1 .349-.352c5.303 0 9.242-4.221 13.054-8.306 1.774-1.902 3.452-3.7 5.229-5.04a.346.346 0 0 1 .488.07.355.355 0 0 1-.069.49c-1.73 1.307-3.386 3.083-5.14 4.96-3.912 4.194-7.958 8.53-13.562 8.53z" fill="#333"/>
    </g>
    <defs>
        <clipPath id="kzdf4lf0ha">
            <path fill="#fff" d="M0 0h252v168H0z"/>
        </clipPath>
    </defs>
</svg>
