<svg class="svg-icon" style="width: 1em; height: 1em;vertical-align: middle;fill: #999;overflow: hidden;" viewBox="0 0 1024 1024" version="1.1" xmlns="http://www.w3.org/2000/svg"><path d="M545 793.6H243.8c-11 0-20-9-20-20V250.4c0-11 9-20 20-20h432.4c11 0 20 9 20 20v131.8c0 11 9 20 20 20s20-9 20-20V250.4c0-33.1-26.9-60-60-60H243.8c-33.1 0-60 26.9-60 60v523.2c0 33.1 26.9 60 60 60H545c11 0 20-9 20-20s-8.9-20-20-20z"  /><path d="M834.6 789.8l-88.8-91.7c23.4-28.7 37.5-65.4 37.5-105.3 0-92.1-74.9-167-167-167s-167 74.9-167 167 74.9 167 167 167c37.8 0 72.7-12.6 100.7-33.9l89 91.8c3.9 4 9.1 6 14.3 6 5 0 10.1-1.9 14-5.7 7.8-7.6 8-20.3 0.3-28.2z m-218.4-69.9c-70 0-127-57-127-127s57-127 127-127 127 57 127 127-57 127-127 127zM565 382.2c0-11-9-20-20-20H308.7c-11 0-20 9-20 20s9 20 20 20H545c11.1 0 20-9 20-20zM443.5 493.5c0-11-9-20-20-20H308.7c-11 0-20 9-20 20s9 20 20 20h114.8c11.1 0 20-8.9 20-20zM308.7 584.8c-11 0-20 9-20 20s9 20 20 20h61.7c11 0 20-9 20-20s-9-20-20-20h-61.7z"  /></svg>