<svg width="20" height="18" viewBox="0 0 20 18" xmlns="http://www.w3.org/2000/svg">
<path d="M19.1763 3.89762C18.8771 3.20484 18.4457 2.57706 17.9063 2.0494C17.3664 1.52017 16.7298 1.0996 16.0313 0.810563C15.3069 0.509654 14.5299 0.355632 13.7455 0.357438C12.6451 0.357438 11.5714 0.658777 10.6384 1.22797C10.4152 1.36413 10.2031 1.51369 10.0022 1.67663C9.80134 1.51369 9.58929 1.36413 9.36607 1.22797C8.43304 0.658777 7.35938 0.357438 6.25893 0.357438C5.46652 0.357438 4.69866 0.509223 3.97321 0.810563C3.27232 1.10074 2.64062 1.51815 2.09821 2.0494C1.55803 2.57646 1.12651 3.2044 0.828125 3.89762C0.517857 4.6186 0.359375 5.38422 0.359375 6.17217C0.359375 6.91547 0.511161 7.69003 0.8125 8.47797C1.06473 9.13646 1.42634 9.81949 1.88839 10.5092C2.62054 11.6007 3.62723 12.7391 4.87723 13.8932C6.94866 15.8061 9 17.1275 9.08705 17.1811L9.61607 17.5204C9.85045 17.6699 10.1518 17.6699 10.3862 17.5204L10.9152 17.1811C11.0022 17.1253 13.0513 15.8061 15.125 13.8932C16.375 12.7391 17.3817 11.6007 18.1138 10.5092C18.5759 9.81949 18.9397 9.13646 19.1897 8.47797C19.4911 7.69003 19.6429 6.91547 19.6429 6.17217C19.6451 5.38422 19.4866 4.6186 19.1763 3.89762ZM10.0022 15.7548C10.0022 15.7548 2.0558 10.6632 2.0558 6.17217C2.0558 3.89762 3.9375 2.05387 6.25893 2.05387C7.89063 2.05387 9.3058 2.96458 10.0022 4.29494C10.6987 2.96458 12.1138 2.05387 13.7455 2.05387C16.067 2.05387 17.9487 3.89762 17.9487 6.17217C17.9487 10.6632 10.0022 15.7548 10.0022 15.7548Z" fill="white"/>
</svg>
