<svg width="20" height="20" viewBox="0 0 20 20" fill="none" xmlns="http://www.w3.org/2000/svg">
    <path d="M17.857 15.003a6.247 6.247 0 0 0-3.571-5.645V5.657c0-.337-.118-.663-.337-.92L10.547.704a.713.713 0 0 0-1.094 0L6.052 4.737a1.428 1.428 0 0 0-.337.92v3.7a6.247 6.247 0 0 0-3.572 5.646h3.493c-.051.16-.078.335-.078.531a2.168 2.168 0 0 0 1.44 2.04A3.254 3.254 0 0 0 10 19.556c.65 0 1.28-.192 1.817-.553A3.24 3.24 0 0 0 13 17.574c.378-.133.71-.37.962-.68.309-.386.477-.864.478-1.358 0-.187-.025-.366-.07-.531h3.487v-.002zm-2.27-2.558c.21.326.38.676.503 1.04h-1.893v-2.44c.557.364 1.03.84 1.39 1.4zM7.232 9.358V5.69L10 2.41l2.768 3.281v7.795H7.232V9.358zm-3.321 4.127a4.75 4.75 0 0 1 1.893-2.44v2.44H3.91zm8.68 2.594a.602.602 0 0 1-.381.076l-.435-.054-.063.433A1.738 1.738 0 0 1 10 18.018a1.738 1.738 0 0 1-1.712-1.484l-.062-.435-.436.056a.628.628 0 0 1-.696-.623c0-.237.132-.433.326-.531h5.163a.59.59 0 0 1 .326.53.633.633 0 0 1-.317.548zM8.93 7.503a1.071 1.071 0 1 0 2.143 0 1.071 1.071 0 0 0-2.143 0z" fill="#969696"/>
</svg>
