<svg width="20" height="20" viewBox="0 0 20 20" fill="none" xmlns="http://www.w3.org/2000/svg">
    <path d="M19.174 4.898c-.299-.693-.73-1.32-1.27-1.849a5.923 5.923 0 0 0-4.16-1.692A5.962 5.962 0 0 0 10 2.677a5.962 5.962 0 0 0-3.743-1.32 5.923 5.923 0 0 0-4.16 1.692 5.769 5.769 0 0 0-1.74 4.123c0 .743.152 1.518.454 2.306.252.659.613 1.341 1.075 2.031.733 1.092 1.74 2.23 2.99 3.384a33.416 33.416 0 0 0 4.21 3.288l.528.34c.234.149.536.149.77 0l.53-.34a33.835 33.835 0 0 0 4.209-3.288c1.25-1.154 2.257-2.292 2.989-3.384a10.21 10.21 0 0 0 1.076-2.031c.301-.788.453-1.563.453-2.306a5.683 5.683 0 0 0-.467-2.274zM10 16.755s-7.946-5.092-7.946-9.583c0-2.274 1.882-4.118 4.203-4.118 1.632 0 3.047.91 3.743 2.24a4.215 4.215 0 0 1 3.744-2.24c2.321 0 4.203 1.844 4.203 4.118 0 4.491-7.947 9.583-7.947 9.583z" fill="#5EA88E"/>
</svg>
