<svg width="16" height="16" viewBox="0 0 16 16" fill="none" xmlns="http://www.w3.org/2000/svg">
<path fill-rule="evenodd" clip-rule="evenodd" d="M8 -8.39233e-05C8.42758 -8.39233e-05 8.77419 0.346534 8.77419 0.77411V7.22572H15.2258C15.6534 7.22572 16 7.57234 16 7.99992C16 8.42749 15.6534 8.77411 15.2258 8.77411H8.77419V15.2257C8.77419 15.6533 8.42758 15.9999 8 15.9999C7.57242 15.9999 7.22581 15.6533 7.22581 15.2257V8.77411H0.774194C0.346618 8.77411 0 8.42749 0 7.99992C0 7.57234 0.346618 7.22572 0.774194 7.22572H7.22581V0.77411C7.22581 0.346534 7.57242 -8.39233e-05 8 -8.39233e-05Z" fill="white"/>
</svg>
