<svg width="16" height="16" viewBox="0 0 16 16" fill="none" xmlns="http://www.w3.org/2000/svg">
<g id="Delete">
<g id="Vector">
<path d="M14.8112 1.18969C15.1413 1.52001 15.1413 1.99168 14.8112 2.32199L9.13128 8.00655L14.8112 13.6911C15.1413 14.0214 15.1413 14.4931 14.8112 14.8234C14.6498 14.985 14.488 15.043 14.3265 15.0563L14.2458 15.0595C14.057 15.0595 13.8211 14.9653 13.6799 14.8234L7.99999 9.13877L2.32012 14.8234C2.17839 14.9653 1.943 15.0595 1.75469 15.0595C1.5188 15.0595 1.33049 15.0119 1.18926 14.8234C0.858713 14.4931 0.858713 14.0214 1.18876 13.6911L6.86871 8.00655L1.18876 2.32199C0.858713 1.99168 0.858713 1.52001 1.18876 1.18969C1.5188 0.859377 1.99008 0.859377 2.32012 1.18969L7.99999 6.87433L13.6799 1.18969C14.0099 0.859377 14.4812 0.859377 14.8112 1.18969Z" fill="#A6A6A6"/>
<path fill-rule="evenodd" clip-rule="evenodd" d="M2.22026 1.28948C1.94535 1.01435 1.56353 1.01435 1.28862 1.28948C1.01366 1.56467 1.01366 1.94702 1.28862 2.22221C1.28862 2.22221 1.28862 2.22221 1.28862 2.22221L7.06828 8.00655L1.28862 13.7909C1.01367 14.0661 1.01367 14.4484 1.28905 14.7236L1.29618 14.7307L1.30223 14.7388C1.40508 14.876 1.53917 14.9183 1.75469 14.9183C1.90588 14.9183 2.10524 14.8387 2.22026 14.7236L7.99999 8.93904L13.7797 14.7236C13.8934 14.8378 14.0916 14.9174 14.2432 14.9183L14.3178 14.9154C14.4473 14.9042 14.5761 14.859 14.7114 14.7236C14.9863 14.4484 14.9863 14.0661 14.7114 13.7909L8.93171 8.00655L14.7114 2.22221C14.9863 1.94702 14.9863 1.56467 14.7114 1.28948C14.4365 1.01435 14.0546 1.01435 13.7797 1.28948L7.99999 7.07407L2.22026 1.28948C2.22026 1.28948 2.22026 1.28948 2.22026 1.28948ZM2.41999 1.08991L7.99999 6.6746L13.58 1.08991C13.9652 0.704406 14.5259 0.704405 14.9111 1.08991C15.2962 1.47535 15.2962 2.03634 14.9111 2.42178L9.33085 8.00655L14.9111 13.5913C15.2962 13.9768 15.2962 14.5378 14.9111 14.9232C14.7245 15.11 14.5307 15.1812 14.3381 15.197L14.3321 15.1975L14.2458 15.2008C14.0201 15.2008 13.7482 15.092 13.58 14.9232M13.58 14.9232L7.99999 9.33851L2.41999 14.9232C2.25154 15.0918 1.98012 15.2007 1.75469 15.2007C1.50136 15.2007 1.26144 15.149 1.08246 14.9162C0.703774 14.531 0.706097 13.9744 1.08889 13.5913L6.66914 8.00655L1.08889 2.42178C0.703769 2.03634 0.703768 1.47535 1.08889 1.08991C1.47408 0.704405 2.0348 0.704405 2.41999 1.08991" fill="#A6A6A6"/>
</g>
</g>
</svg>
