<svg width="26" height="26" viewBox="0 0 26 26" fill="none" xmlns="http://www.w3.org/2000/svg">
    <circle cx="13" cy="13" r="13" fill="#5EA88E"/>
    <path d="M19.991 9.107c-.007-1.766-1.338-3.091-3.115-3.099-2.58-.011-5.162-.01-7.743 0-1.796.006-3.118 1.336-3.129 3.128-.007 1.283-.001 2.566-.001 3.851 0 1.296-.008 2.593.001 3.89.012 1.723 1.313 3.082 3.042 3.1 2.632.031 5.266.03 7.898 0 1.737-.018 3.039-1.366 3.046-3.093.013-2.592.013-5.184.002-7.777zm-1.2 7.052c-.01 1.504-1.133 2.63-2.645 2.64a567.32 567.32 0 0 1-6.31 0c-1.485-.01-2.62-1.142-2.629-2.622a535.302 535.302 0 0 1 0-6.353c.008-1.38.971-2.447 2.343-2.63a3.81 3.81 0 0 1 .5-.036c1.989-.003 3.975-.012 5.963.001 1.394.009 2.453.84 2.727 2.114.043.198.05.407.051.611.005 1.028.003 2.054.002 3.081 0 1.064.006 2.13-.002 3.194z" fill="#fff"/>
    <path d="M16.755 8.627c-.377.01-.628.27-.617.641.01.36.289.62.657.612a.641.641 0 0 0 .628-.649c-.015-.35-.303-.613-.668-.604zM12.986 9.578c-1.904.014-3.421 1.527-3.421 3.41 0 1.914 1.515 3.406 3.454 3.4 1.916-.006 3.42-1.498 3.42-3.394a3.416 3.416 0 0 0-3.453-3.416zm.022 5.8c-1.284.01-2.392-1.107-2.382-2.397.01-1.286 1.09-2.366 2.367-2.37 1.294-.002 2.387 1.097 2.381 2.395-.006 1.28-1.086 2.364-2.366 2.372z" fill="#fff"/>
</svg>
