<svg width="26" height="26" viewBox="0 0 26 26" fill="none" xmlns="http://www.w3.org/2000/svg">
    <circle cx="13" cy="13" r="13" fill="#5EA88E"/>
    <path d="M10.926 16.634v3.098c0 .588.014.601.619.605h1.77c.652-.002.66-.009.66-.609.001-2.091.01-4.183-.008-6.274-.003-.414.156-.556.58-.541.559.021 1.122-.013 1.682.01.39.016.544-.14.572-.49.052-.648.121-1.297.19-1.946.03-.283-.1-.398-.394-.394-.446.006-.893.006-1.339-.002-1.303-.024-1.203.238-1.173-1.222.012-.561.306-.814.897-.829.532-.014 1.064-.01 1.598-.006.283.002.425-.108.42-.388-.009-.53-.009-1.06 0-1.59.005-.281-.14-.39-.422-.387-.993.008-1.99-.036-2.979.032-1.213.083-2.065.691-2.47 1.802-.186.508-.213 1.035-.213 1.566-.002 1.128.133 1.017-1.042 1.025-.03 0-.057.004-.087 0-.314-.022-.435.123-.428.415.012.46 0 .922.002 1.385.007 1.154-.118 1.022 1.04 1.019.383-.002.537.127.53.502-.017 1.073-.005 2.145-.005 3.22z" fill="#fff"/>
</svg>
