<svg width="18" height="18" viewBox="0 0 18 18" fill="none" xmlns="http://www.w3.org/2000/svg">
    <g clip-path="url(#xl40irzjfa)">
        <path d="M17.329 14.69a8.454 8.454 0 0 0-1.833-2.703 8.545 8.545 0 0 0-2.717-1.822l-.027-.012a5.586 5.586 0 0 0 2.337-4.545C15.09 2.51 12.565 0 9.45 0 6.336 0 3.812 2.51 3.812 5.608c0 1.87.92 3.528 2.337 4.548l-.027.01a8.47 8.47 0 0 0-2.717 1.823 8.492 8.492 0 0 0-1.833 2.703A8.366 8.366 0 0 0 .9 17.815a.18.18 0 0 0 .182.185h1.364c.1 0 .18-.08.182-.176a6.724 6.724 0 0 1 1.997-4.62 6.796 6.796 0 0 1 4.825-1.988c1.824 0 3.536.706 4.825 1.988a6.724 6.724 0 0 1 1.997 4.62.18.18 0 0 0 .182.176h1.364a.183.183 0 0 0 .182-.185 8.386 8.386 0 0 0-.671-3.126zm-7.88-5.193a3.897 3.897 0 0 1-2.764-1.14 3.853 3.853 0 0 1-1.146-2.749c0-1.038.407-2.015 1.146-2.75a3.897 3.897 0 0 1 2.765-1.14c1.044 0 2.026.405 2.765 1.14a3.853 3.853 0 0 1 1.146 2.75 3.853 3.853 0 0 1-1.146 2.75 3.897 3.897 0 0 1-2.765 1.14z" fill="#484848"/>
    </g>
    <defs>
        <clipPath id="xl40irzjfa">
            <path fill="#fff" d="M0 0h18v18H0z"/>
        </clipPath>
    </defs>
</svg>
