<svg width="20" height="20" viewBox="0 0 20 20" fill="none" xmlns="http://www.w3.org/2000/svg">
<g id="Trash" clip-path="url(#clip0_5_655)">
<g id="Vector">
<path fill-rule="evenodd" clip-rule="evenodd" d="M1 4.8718C1 4.44696 1.34538 4.10256 1.77143 4.10256H18.2286C18.6546 4.10256 19 4.44696 19 4.8718C19 5.29663 18.6546 5.64103 18.2286 5.64103H1.77143C1.34538 5.64103 1 5.29663 1 4.8718Z" fill="#484848"/>
<path fill-rule="evenodd" clip-rule="evenodd" d="M7.94286 8.20513C8.36891 8.20513 8.71429 8.54952 8.71429 8.97436V15.1282C8.71429 15.553 8.36891 15.8974 7.94286 15.8974C7.51681 15.8974 7.17143 15.553 7.17143 15.1282V8.97436C7.17143 8.54952 7.51681 8.20513 7.94286 8.20513Z" fill="#484848"/>
<path fill-rule="evenodd" clip-rule="evenodd" d="M12.0571 8.20513C12.4832 8.20513 12.8286 8.54952 12.8286 8.97436V15.1282C12.8286 15.553 12.4832 15.8974 12.0571 15.8974C11.6311 15.8974 11.2857 15.553 11.2857 15.1282V8.97436C11.2857 8.54952 11.6311 8.20513 12.0571 8.20513Z" fill="#484848"/>
<path fill-rule="evenodd" clip-rule="evenodd" d="M2.73594 4.10522C3.16051 4.06994 3.53338 4.38455 3.56876 4.80791L4.59733 17.1156C4.59911 17.1369 4.6 17.1582 4.6 17.1795C4.6 17.5195 4.73546 17.8456 4.97658 18.086C5.21769 18.3265 5.54472 18.4615 5.88571 18.4615H14.1143C14.4553 18.4615 14.7823 18.3265 15.0234 18.086C15.2645 17.8456 15.4 17.5195 15.4 17.1795C15.4 17.1582 15.4009 17.1369 15.4027 17.1156L16.4312 4.80791C16.4666 4.38455 16.8395 4.06994 17.2641 4.10522C17.6886 4.1405 18.0041 4.51231 17.9688 4.93568L16.9426 17.214C16.9336 17.9496 16.6367 18.6531 16.1144 19.1739C15.5839 19.7028 14.8645 20 14.1143 20H5.88571C5.13553 20 4.41607 19.7028 3.88561 19.1739C3.36332 18.6531 3.06637 17.9496 3.05735 17.214L2.03124 4.93568C1.99585 4.51231 2.31136 4.1405 2.73594 4.10522Z" fill="#484848"/>
<path fill-rule="evenodd" clip-rule="evenodd" d="M7.94286 1.53846C7.87466 1.53846 7.80925 1.56548 7.76103 1.61356C7.71281 1.66165 7.68571 1.72687 7.68571 1.79487V4.8718C7.68571 5.29663 7.34033 5.64103 6.91429 5.64103C6.48824 5.64103 6.14286 5.29663 6.14286 4.8718V1.79487C6.14286 1.31884 6.3325 0.862309 6.67006 0.525706C7.00763 0.189102 7.46547 0 7.94286 0H12.0571C12.5345 0 12.9924 0.189102 13.3299 0.525706C13.6675 0.862309 13.8571 1.31884 13.8571 1.79487V4.8718C13.8571 5.29663 13.5118 5.64103 13.0857 5.64103C12.6597 5.64103 12.3143 5.29663 12.3143 4.8718V1.79487C12.3143 1.72687 12.2872 1.66165 12.239 1.61356C12.1907 1.56548 12.1253 1.53846 12.0571 1.53846H7.94286Z" fill="#484848"/>
</g>
</g>
<defs>
<clipPath id="clip0_5_655">
<rect width="20" height="20" fill="white"/>
</clipPath>
</defs>
</svg>
