<svg width="20" height="20" viewBox="0 0 20 20" fill="none" xmlns="http://www.w3.org/2000/svg">
<g id="User">
<g id="Vector">
<path fill-rule="evenodd" clip-rule="evenodd" d="M7.28036 5.22908C8.00165 4.50778 8.97994 4.10256 10 4.10256C11.0201 4.10256 11.9983 4.50778 12.7196 5.22908C13.4409 5.95037 13.8462 6.92866 13.8462 7.94872C13.8462 8.96878 13.4409 9.94707 12.7196 10.6684C11.9983 11.3897 11.0201 11.7949 10 11.7949C8.97994 11.7949 8.00165 11.3897 7.28036 10.6684C6.55906 9.94707 6.15385 8.96878 6.15385 7.94872C6.15385 6.92866 6.55906 5.95037 7.28036 5.22908ZM10 5.64103C9.38796 5.64103 8.80099 5.88416 8.36821 6.31693C7.93544 6.74971 7.69231 7.33668 7.69231 7.94872C7.69231 8.56076 7.93544 9.14773 8.36821 9.5805C8.80099 10.0133 9.38796 10.2564 10 10.2564C10.612 10.2564 11.199 10.0133 11.6318 9.5805C12.0646 9.14773 12.3077 8.56076 12.3077 7.94872C12.3077 7.33668 12.0646 6.74971 11.6318 6.31693C11.199 5.88416 10.612 5.64103 10 5.64103Z" fill="#484848"/>
<path fill-rule="evenodd" clip-rule="evenodd" d="M3.15931 3.15931C2.01932 4.29931 1.53846 6.3022 1.53846 10C1.53846 13.6978 2.01932 15.7007 3.15931 16.8407C4.29931 17.9807 6.3022 18.4615 10 18.4615C13.6978 18.4615 15.7007 17.9807 16.8407 16.8407C17.9807 15.7007 18.4615 13.6978 18.4615 10C18.4615 6.3022 17.9807 4.29931 16.8407 3.15931C15.7007 2.01932 13.6978 1.53846 10 1.53846C6.3022 1.53846 4.29931 2.01932 3.15931 3.15931ZM2.07146 2.07146C3.70069 0.44222 6.31319 0 10 0C13.6868 0 16.2993 0.44222 17.9285 2.07146C19.5578 3.70069 20 6.31319 20 10C20 13.6868 19.5578 16.2993 17.9285 17.9285C16.2993 19.5578 13.6868 20 10 20C6.31319 20 3.70069 19.5578 2.07146 17.9285C0.44222 16.2993 0 13.6868 0 10C0 6.31319 0.44222 3.70069 2.07146 2.07146Z" fill="#484848"/>
<path fill-rule="evenodd" clip-rule="evenodd" d="M7.94872 14.8718C7.06466 14.8718 6.21682 15.223 5.5917 15.8481C4.96657 16.4732 4.61538 17.3211 4.61538 18.2051V18.2564C4.61538 18.6812 4.27099 19.0256 3.84615 19.0256C3.42132 19.0256 3.07692 18.6812 3.07692 18.2564V18.2051C3.07692 16.913 3.5902 15.6739 4.50384 14.7603C5.41748 13.8466 6.65664 13.3333 7.94872 13.3333H12.0513C13.3434 13.3333 14.5825 13.8466 15.4962 14.7603C16.4098 15.6739 16.9231 16.913 16.9231 18.2051V18.2564C16.9231 18.6812 16.5787 19.0256 16.1538 19.0256C15.729 19.0256 15.3846 18.6812 15.3846 18.2564V18.2051C15.3846 17.3211 15.0334 16.4732 14.4083 15.8481C13.7832 15.223 12.9353 14.8718 12.0513 14.8718H7.94872Z" fill="#484848"/>
</g>
</g>
</svg>
