<svg width="19" height="17" viewBox="0 0 19 17" fill="none"
    xmlns="http://www.w3.org/2000/svg">
    <g id="Company" clip-path="url(#clip0_86_679)">
        <g id="Vector">
            <path fill-rule="evenodd" clip-rule="evenodd" d="M0.125 16.0288C0.125 15.6823 0.434957 15.4014 0.817308 15.4014H17.4327C17.815 15.4014 18.125 15.6823 18.125 16.0288C18.125 16.3754 17.815 16.6562 17.4327 16.6562H0.817308C0.434957 16.6562 0.125 16.3754 0.125 16.0288Z" fill="#5EA88E"/>
            <path fill-rule="evenodd" clip-rule="evenodd" d="M10.412 0.437453C10.6161 0.55177 10.7404 0.75371 10.7404 0.971154V16.0288C10.7404 16.3754 10.4304 16.6562 10.0481 16.6562C9.66573 16.6562 9.35577 16.3754 9.35577 16.0288V1.98632L3.35577 4.70507V16.0288C3.35577 16.3754 3.04581 16.6562 2.66346 16.6562C2.28111 16.6562 1.97115 16.3754 1.97115 16.0288V4.31731C1.97115 4.07967 2.11931 3.86242 2.35385 3.75614L9.73847 0.409987C9.95307 0.312743 10.2079 0.323136 10.412 0.437453Z" fill="#5EA88E"/>
            <path fill-rule="evenodd" clip-rule="evenodd" d="M9.47204 3.96929C9.68413 3.68098 10.114 3.60307 10.4321 3.79528L15.9706 7.14143C16.1632 7.25779 16.2788 7.45369 16.2788 7.66346V16.0288C16.2788 16.3754 15.9689 16.6562 15.5865 16.6562C15.2042 16.6562 14.8942 16.3754 14.8942 16.0288V7.99924L9.66405 4.83934C9.34592 4.64713 9.25995 4.2576 9.47204 3.96929Z" fill="#5EA88E"/>
            <path fill-rule="evenodd" clip-rule="evenodd" d="M6.35577 5.36298C6.73812 5.36298 7.04808 5.64388 7.04808 5.99039V5.99875C7.04808 6.34526 6.73812 6.62615 6.35577 6.62615C5.97342 6.62615 5.66346 6.34526 5.66346 5.99875V5.99039C5.66346 5.64388 5.97342 5.36298 6.35577 5.36298Z" fill="#5EA88E"/>
            <path fill-rule="evenodd" clip-rule="evenodd" d="M6.35577 7.8726C6.73812 7.8726 7.04808 8.15349 7.04808 8.5V8.50837C7.04808 8.85487 6.73812 9.13577 6.35577 9.13577C5.97342 9.13577 5.66346 8.85487 5.66346 8.50837V8.5C5.66346 8.15349 5.97342 7.8726 6.35577 7.8726Z" fill="#5EA88E"/>
            <path fill-rule="evenodd" clip-rule="evenodd" d="M6.35577 10.3822C6.73812 10.3822 7.04808 10.6631 7.04808 11.0096V11.018C7.04808 11.3645 6.73812 11.6454 6.35577 11.6454C5.97342 11.6454 5.66346 11.3645 5.66346 11.018V11.0096C5.66346 10.6631 5.97342 10.3822 6.35577 10.3822Z" fill="#5EA88E"/>
            <path fill-rule="evenodd" clip-rule="evenodd" d="M6.35577 12.8918C6.73812 12.8918 7.04808 13.1727 7.04808 13.5192V13.5276C7.04808 13.8741 6.73812 14.155 6.35577 14.155C5.97342 14.155 5.66346 13.8741 5.66346 13.5276V13.5192C5.66346 13.1727 5.97342 12.8918 6.35577 12.8918Z" fill="#5EA88E"/>
        </g>
    </g>
    <defs>
        <clipPath id="clip0_86_679">
            <rect width="18" height="16.3125" fill="white" transform="translate(0.125 0.34375)"/>
        </clipPath>
    </defs>
</svg>
