<svg width="19" height="17" viewBox="0 0 19 17" fill="none" xmlns="http://www.w3.org/2000/svg">
<g id="Compare" clip-path="url(#clip0_86_682)">
<g id="Vector">
<path fill-rule="evenodd" clip-rule="evenodd" d="M4.56731 15.9949C4.56731 15.6297 4.87726 15.3336 5.25962 15.3336H14.4904C14.8727 15.3336 15.1827 15.6297 15.1827 15.9949C15.1827 16.3602 14.8727 16.6562 14.4904 16.6562H5.25962C4.87726 16.6562 4.56731 16.3602 4.56731 15.9949Z" fill="#A6A6A6"/>
<path fill-rule="evenodd" clip-rule="evenodd" d="M9.76119 2.11626C9.83654 2.10426 9.91346 2.10426 9.98882 2.11626L15.5273 2.99802C15.9044 3.05806 16.1592 3.39879 16.0964 3.75906C16.0335 4.11932 15.6768 4.3627 15.2996 4.30266L9.875 3.43902L4.45035 4.30266C4.0732 4.3627 3.71651 4.11932 3.65365 3.75906C3.59079 3.39879 3.84558 3.05806 4.22272 2.99802L9.76119 2.11626Z" fill="#A6A6A6"/>
<path fill-rule="evenodd" clip-rule="evenodd" d="M9.875 0.34375C10.2574 0.34375 10.5673 0.639832 10.5673 1.00507V15.9949C10.5673 16.3602 10.2574 16.6562 9.875 16.6562C9.49265 16.6562 9.18269 16.3602 9.18269 15.9949V1.00507C9.18269 0.639832 9.49265 0.34375 9.875 0.34375Z" fill="#A6A6A6"/>
<path fill-rule="evenodd" clip-rule="evenodd" d="M4.33654 2.98902C4.59877 2.98902 4.83849 3.13054 4.95576 3.35459L7.72499 8.64513C7.77305 8.73696 7.79808 8.83821 7.79808 8.94088C7.79808 9.81784 7.43338 10.6589 6.78422 11.279C6.13505 11.8991 5.2546 12.2475 4.33654 12.2475C3.41848 12.2475 2.53803 11.8991 1.88886 11.279C1.2397 10.6589 0.875 9.81784 0.875 8.94088C0.875 8.83821 0.900024 8.73696 0.948089 8.64513L3.71732 3.35459C3.83459 3.13054 4.07431 2.98902 4.33654 2.98902ZM2.2652 9.08633C2.30158 9.55932 2.51448 10.0061 2.86793 10.3437C3.25743 10.7158 3.7857 10.9248 4.33654 10.9248C4.88737 10.9248 5.41565 10.7158 5.80515 10.3437C6.1586 10.0061 6.3715 9.55932 6.40788 9.08633L4.33654 5.12909L2.2652 9.08633Z" fill="#A6A6A6"/>
<path fill-rule="evenodd" clip-rule="evenodd" d="M15.4135 2.98902C15.6757 2.98902 15.9154 3.13054 16.0327 3.35459L18.8019 8.64513C18.85 8.73696 18.875 8.83821 18.875 8.94088C18.875 9.81784 18.5103 10.6589 17.8611 11.279C17.212 11.8991 16.3315 12.2475 15.4135 12.2475C14.4954 12.2475 13.6149 11.8991 12.9658 11.279C12.3166 10.6589 11.9519 9.81784 11.9519 8.94088C11.9519 8.83821 11.9769 8.73696 12.025 8.64513L14.7942 3.35459C14.9115 3.13054 15.1512 2.98902 15.4135 2.98902ZM13.3421 9.08633C13.3785 9.55932 13.5914 10.0061 13.9449 10.3437C14.3344 10.7158 14.8626 10.9248 15.4135 10.9248C15.9643 10.9248 16.4926 10.7158 16.8821 10.3437C17.2355 10.0061 17.4484 9.55932 17.4848 9.08633L15.4135 5.12909L13.3421 9.08633Z" fill="#A6A6A6"/>
</g>
</g>
<defs>
<clipPath id="clip0_86_682">
<rect width="18" height="16.3125" fill="white" transform="translate(0.875 0.34375)"/>
</clipPath>
</defs>
</svg>
