<svg width="18" height="18" viewBox="0 0 18 18" fill="none" xmlns="http://www.w3.org/2000/svg">
    <path d="M2.504 3.083c1.326-.022 2.593-.002 3.89 0 .099 0 .13-.038.128-.136a76.05 76.05 0 0 1 0-1.172c.002-.51.42-.951.915-.953 1.042-.005 2.085-.005 3.127 0 .494.002.913.444.916.952.002.386.003.773-.001 1.16-.002.109.03.15.141.15 1.093-.005 2.185-.006 3.277-.006.437 0 .874.015 1.31 0 .551-.019.976.464.975 1.015v2.472c0 .863.003 1.726-.001 2.589-.002.435-.18.77-.572.962-.077.038-.098.088-.098.17l.001 4.172c0 .588.002 1.176 0 1.763a.948.948 0 0 1-.933.96c-.713.003-1.426 0-2.139 0H2.447a.946.946 0 0 1-.947-.833c-.024-.22-.01-.446-.01-.668 0-1.777 0-3.554.003-5.331 0-.124-.027-.197-.145-.259-.352-.184-.523-.503-.525-.9-.006-1.695-.005-3.39 0-5.086.001-.43.159-.834.576-.942.268-.07.828-.075 1.105-.08zM16.42 9.608c.034-.004.103-.059.121-.081.034-.073.04-.256.04-.36V4.08a.405.405 0 0 0-.13-.322c-.095-.087-.21-.096-.328-.096H1.89c-.336 0-.47.138-.47.483 0 1.666.005 3.331-.005 4.997-.002.295.197.466.454.465 1.73-.009 3.461-.005 5.191-.005.336 0 .336 0 .337-.346.002-.574.408-1.005.968-1.014.425-.006.851-.012 1.276.002.327.011.603.148.799.434.157.228.171.485.164.75-.004.17.002.174.167.174h4.666l.983.006zM8.99 16.582h6.516c.066 0 .13.002.196-.027.194-.088.226-.255.226-.446v-5.704c0-.205 0-.205-.205-.205h-4.965c-.11-.011-.165.034-.156.154.006.077.002.155.001.232-.004.534-.413.955-.93.958-.446.002-.892 0-1.338 0-.342.001-.6-.156-.787-.442a.984.984 0 0 1-.152-.56c.002-.385.046-.34-.334-.341h-4.79c-.196 0-.2.002-.2.197 0 1.906.003 3.811-.002 5.717 0 .257.107.473.455.472 2.154-.008 4.31-.005 6.465-.005zm.509-13.5c.429-.002.858-.001 1.287 0 .08 0 .114-.035.113-.116v-.489c0-.227.008-.455-.007-.681-.016-.248-.165-.376-.404-.376H9.014c-.491 0-.983.01-1.474-.004-.266-.008-.44.176-.439.442.002.36.003.72 0 1.08-.002.103.032.147.137.146.392-.005.783-.005 1.175 0L9.5 3.083zm-.982 5.783c-.258-.01-.528.081-.535.343-.011.459-.008.918 0 1.376.004.21.13.347.335.364.445.036.891.03 1.335.005.251-.015.365-.166.369-.428.003-.21 0-.42 0-.63 0-.219.004-.437 0-.656-.006-.23-.15-.374-.373-.38-.05 0-.1.003-.15 0l-.981.006z" fill="#333" stroke="#484848" stroke-width=".7"/>
</svg>
