<svg width="18" height="20" viewBox="0 0 18 20" fill="none" xmlns="http://www.w3.org/2000/svg">
    <g clip-path="url(#4xeidpge5a)" fill="#5ea88e">
        <path d="M7.842.002c2.202 0 4.404-.002 6.606 0 .857.002 1.194.317 1.204 1.164.015 1.278-.122 1.134 1.2 1.143.8.006 1.142.363 1.144 1.229.006 2.409.002 4.82.002 7.228v7.735c0 .17.006.339-.01.506-.057.658-.421.991-1.096.991C13.206 20 9.521 20 5.834 20c-.811 0-1.625.004-2.436-.002-.658-.005-1.016-.337-1.055-.978-.019-.305-.012-.613-.012-.92-.001-.266-.13-.396-.402-.395-.297.002-.595.002-.89-.005-.608-.013-.988-.369-1.033-.963-.01-.122-.006-.245-.006-.369V1.313c0-.107-.004-.215.004-.322C.04.35.392.007 1.048.006 3.314-.002 5.578.002 7.842.002zM1.413 8.856c0 2.288-.002 4.573.002 6.86 0 .573.032.604.607.604 3.874.002 7.746.002 11.62 0 .578 0 .606-.029.606-.604.002-4.572.002-9.147 0-13.72 0-.576-.028-.604-.606-.604-3.874-.002-7.746-.002-11.62 0-.577 0-.607.032-.607.604-.004 2.286-.002 4.573-.002 6.86zm15.168 2.3V8.949c0-1.594-.004-3.191.002-4.786 0-.311-.045-.532-.45-.538-.47-.005-.478.277-.478.608.002 4.065.002 8.13-.002 12.195 0 .934-.354 1.275-1.304 1.275-2.748.002-5.495 0-8.243 0-.64 0-1.28.009-1.919-.002-.328-.006-.424.147-.439.45-.022.46.259.474.602.474 3.855-.003 7.712-.002 11.568-.003.63 0 .661-.034.661-.652.004-2.273.002-4.544.002-6.812z"/>
        <path d="M7.722 12.37c-1.203 0-2.405.004-3.608 0-.546-.002-.647-.11-.647-.657 0-.55.101-.663.641-.663 2.422-.004 4.841-.004 7.263 0 .534.002.772.18.811.57.047.476-.19.743-.712.746-1.25.01-2.5.004-3.748.004zM7.76 6.85c-1.22 0-2.435.005-3.654-.001-.538-.002-.639-.114-.64-.661 0-.543.099-.652.648-.654 2.42-.004 4.839 0 7.257-.002.332 0 .63.055.766.402.199.506-.093.908-.68.911-1.231.011-2.465.006-3.698.006zM7.784 9.615c-1.233 0-2.467.004-3.7-.002-.508-.002-.613-.121-.617-.64-.005-.553.104-.682.623-.682 2.436-.004 4.87-.004 7.305 0 .52 0 .79.248.788.696-.002.422-.242.622-.793.626-1.202.006-2.403 0-3.606.002z"/>
    </g>
    <defs>
        <clipPath id="4xeidpge5a">
            <path fill="#fff" d="M0 0h18v20H0z"/>
        </clipPath>
    </defs>
</svg>
