<svg width="22" height="22" viewBox="0 0 22 22" fill="none" xmlns="http://www.w3.org/2000/svg">
    <path d="M17.642 16.78v-3.658c0-.295.042-.568.405-.605.342-.035.582.033.6.476.07 1.723.005 3.446.038 5.169.004.216-.12.529.095.628.214.098.443-.127.625-.277.437-.365.614-.874.618-1.424.014-2.147.023-4.293-.002-6.44-.013-1.088-.77-1.832-1.83-1.841-1.672-.016-3.342-.004-5.013-.004-.707 0-1.209.355-1.558.952-.216.369-.145.494.273.498 1.035.007 2.068 0 3.103.003.674.004.88.31.67.964-.474 1.481-.94 2.962-1.41 4.443-.062.201-.059.388.119.529.3.238.35.568.327.92-.033.52-.06 1.043-.32 1.51-.076.136-.179.317-.307.356-.727.227-.641.808-.632 1.378.008.538-.153.69-.592.632-.223-.03-.347-.142-.36-.375-.006-.113-.027-.232-.006-.341.168-.833-.205-1.475-.726-2.04-.313-.339-.754-.18-1.132-.14-.335.038-.237.373-.24.6-.014.585-.014 1.17-.005 1.755.008.406-.19.553-.561.541-.36-.01-.449-.205-.426-.544.044-.666.002-1.331-.04-1.997-.02-.302-.117-.384-.393-.396-.667-.027-.743-.119-.73-.798.004-.208-.105-.26-.261-.26-1.21-.003-2.42-.003-3.628 0-.348.003-.348.266-.348.518-.002.976.004 1.951-.006 2.927-.004.462-.172.603-.576.544-.338-.049-.386-.28-.386-.566.002-.96-.008-1.918.004-2.878.004-.341-.09-.507-.457-.59-1.138-.262-1.558-.844-1.56-2.04-.002-1.268.048-2.539-.011-3.805-.075-1.557 1.312-2.823 2.736-2.88 1.717-.066 3.437-.031 5.154-.008.613.008 1.128.307 1.539.775.176.199.334.297.527.014.697-1.017 1.747-1.269 2.859-1.259 1.46.012 2.921-.05 4.382.055 1.684.123 2.791 1.274 2.795 3.009.004 2.033-.01 4.064.006 6.097.011 1.397-.596 2.36-1.86 2.878-.323.133-.489.314-.466.685.023.365-.185.525-.536.521-.367-.004-.503-.195-.5-.554.007-1.218.003-2.437.003-3.657zm-9.036-3.594c-.196-.254-.33-.394-.427-.556-.138-.228-.145-.474.059-.67.221-.212.445-.112.64.057.168.147.332.305.477.475.176.206.307.22.391-.063.14-.466.306-.929.396-1.405.171-.917-.516-1.812-1.41-1.822-1.638-.02-3.278-.053-4.915.011-1.046.041-1.877.812-1.846 1.948.034 1.217.006 2.439.008 3.656.002.93.242 1.179 1.17 1.183 1.432.006 2.864.012 4.295-.002 1.355-.012 1.105.203 1.521-1.177.167-.55.157-.558-.408-.558-1.51-.004-3.023.002-4.533-.006-.554-.004-.76-.17-.78-.696a35.401 35.401 0 0 1 .004-2.34c.01-.289.07-.628.464-.614.398.011.474.322.478.657.004.504.006 1.009.004 1.512 0 .248.086.41.355.41h4.057zm1.962 3.907c.143 0 .288-.016.43.001.469.06.824-.046 1.025-.548.124-.312.42-.503.739-.568.372-.074.519-.322.618-.65.369-1.207.733-2.415 1.115-3.619.102-.316.04-.468-.3-.466-.906.002-1.813.004-2.719 0-.238-.002-.376.084-.446.335-.17.591-.369 1.175-.552 1.76-.334 1.066-.674 2.13-.999 3.198-.155.512-.114.55.42.556.222.002.445 0 .669 0zm2.11.542c-.008.277.11.554.507.607.392.05.428-.238.463-.525a1.78 1.78 0 0 1 .076-.332c.082-.26-.021-.388-.264-.466-.435-.14-.754.107-.783.716zM9.552 4.368c.166 1.739-1.553 3.323-3.168 3.294A3.285 3.285 0 0 1 3.16 4.376a3.271 3.271 0 0 1 3.22-3.294c1.702-.021 3.333 1.563 3.17 3.286zm-.905-.031c-.012-1.23-1.06-2.293-2.276-2.262-1.4.037-2.181 1.038-2.23 2.303-.05 1.26 1.01 2.277 2.243 2.277 1.254 0 2.274-1.046 2.263-2.318zM12.584 4.114C12.592 2.442 14.031.996 15.687 1c1.717.004 3.078 1.399 3.082 3.161.004 1.748-1.413 3.186-3.13 3.175-1.646-.012-3.064-1.507-3.055-3.222zm3.1 2.236c1.145.012 2.11-.973 2.123-2.171.015-1.195-.885-2.15-2.047-2.178-1.2-.03-2.206.939-2.214 2.129-.01 1.194.967 2.207 2.137 2.22z" fill="#5ea88e" stroke="#5ea88e" stroke-width=".3"/>
</svg>
