<svg width="19" height="17" viewBox="0 0 19 17" fill="none" xmlns="http://www.w3.org/2000/svg">
<g id="Preference" clip-path="url(#clip0_86_685)">
<path id="Vector" fill-rule="evenodd" clip-rule="evenodd" d="M6.51856 1.34433C6.86031 1.33106 7.16968 1.54752 7.27783 1.87558L10.5022 11.6561L11.951 5.06392C12.0216 4.74252 12.2848 4.50092 12.6079 4.46069C12.9311 4.42046 13.2443 4.59033 13.3899 4.88481L14.7158 7.56597H18.8558C19.2806 7.56597 19.625 7.91419 19.625 8.34375C19.625 8.7733 19.2806 9.12152 18.8558 9.12152H14.2404C13.949 9.12152 13.6827 8.95508 13.5524 8.69158L12.9828 7.53987L11.4016 14.7347C11.3265 15.076 11.0356 15.3247 10.6903 15.3427C10.345 15.3607 10.0302 15.1436 9.92089 14.8119L6.65366 4.90135L5.75588 8.53239C5.67027 8.87863 5.36259 9.12152 5.00962 9.12152H0.394231C-0.0306037 9.12152 -0.375 8.7733 -0.375 8.34375C-0.375 7.91419 -0.0306037 7.56597 0.394231 7.56597H4.40902L5.80181 1.93289C5.88476 1.59742 6.17681 1.3576 6.51856 1.34433Z" fill="#5EA88E"/>
</g>
<defs>
<clipPath id="clip0_86_685">
<rect width="18" height="16.3125" fill="white" transform="translate(0.625 0.34375)"/>
</clipPath>
</defs>
</svg>
