<svg width="19" height="19" viewBox="0 0 19 19" fill="none" xmlns="http://www.w3.org/2000/svg">
<g id="Resume" clip-path="url(#clip0_86_676)">
<g id="Vector">
<path fill-rule="evenodd" clip-rule="evenodd" d="M11.2331 0.5C11.6179 0.5 11.9299 0.809957 11.9299 1.19231V4.88462C11.9299 4.94582 11.9544 5.00452 11.9979 5.04779C12.0415 5.09107 12.1005 5.11539 12.1621 5.11539H15.8783C16.2631 5.11539 16.575 5.42534 16.575 5.80769C16.575 6.19004 16.2631 6.5 15.8783 6.5H12.1621C11.731 6.5 11.3174 6.32981 11.0125 6.02687C10.7076 5.72392 10.5363 5.31304 10.5363 4.88462V1.19231C10.5363 0.809957 10.8483 0.5 11.2331 0.5Z" fill="#5EA88E"/>
<path fill-rule="evenodd" clip-rule="evenodd" d="M4.72989 1.88462C4.42189 1.88462 4.12652 2.00618 3.90873 2.22257C3.69095 2.43896 3.5686 2.73244 3.5686 3.03846V15.9615C3.5686 16.2676 3.69095 16.561 3.90873 16.7774C4.12652 16.9938 4.42189 17.1154 4.72989 17.1154H14.0202C14.3282 17.1154 14.6236 16.9938 14.8414 16.7774C15.0592 16.561 15.1815 16.2676 15.1815 15.9615V6.09446L10.9445 1.88462H4.72989ZM2.92334 1.2435C3.40247 0.767444 4.0523 0.5 4.72989 0.5H11.2331C11.4179 0.5 11.5951 0.572939 11.7258 0.702772L16.371 5.31816C16.5016 5.44799 16.575 5.62408 16.575 5.80769V15.9615C16.575 16.6348 16.3059 17.2804 15.8268 17.7565C15.3476 18.2326 14.6978 18.5 14.0202 18.5H4.72989C4.0523 18.5 3.40247 18.2326 2.92334 17.7565C2.44422 17.2804 2.17505 16.6348 2.17505 15.9615V3.03846C2.17505 2.36522 2.44422 1.71955 2.92334 1.2435Z" fill="#5EA88E"/>
<path fill-rule="evenodd" clip-rule="evenodd" d="M5.89118 14.1154C5.89118 13.733 6.20313 13.4231 6.58795 13.4231H12.1621C12.547 13.4231 12.8589 13.733 12.8589 14.1154C12.8589 14.4977 12.547 14.8077 12.1621 14.8077H6.58795C6.20313 14.8077 5.89118 14.4977 5.89118 14.1154Z" fill="#5EA88E"/>
<path fill-rule="evenodd" clip-rule="evenodd" d="M5.89118 10.4231C5.89118 10.0407 6.20313 9.73077 6.58795 9.73077H12.1621C12.547 9.73077 12.8589 10.0407 12.8589 10.4231C12.8589 10.8054 12.547 11.1154 12.1621 11.1154H6.58795C6.20313 11.1154 5.89118 10.8054 5.89118 10.4231Z" fill="#5EA88E"/>
</g>
</g>
<defs>
<clipPath id="clip0_86_676">
<rect width="18" height="18" fill="white" transform="translate(0.375 0.5)"/>
</clipPath>
</defs>
</svg>
