<svg width="32" height="32" viewBox="0 0 32 32" fill="none" xmlns="http://www.w3.org/2000/svg">
    <path d="M17.873 28.873H4.182c-.5 0-.91-.409-.91-.909V4.182c0-.5.41-.909.91-.909h19.654c.5 0 .91.41.91.91v5.99c0 .5.409.91.909.91s.909-.41.909-.91v-5.99a2.73 2.73 0 0 0-2.728-2.728H4.182a2.73 2.73 0 0 0-2.727 2.727v23.782a2.73 2.73 0 0 0 2.727 2.727h13.69a.909.909 0 1 0 0-1.818z" fill="#5ea88e" stroke="#5ea88e" stroke-width=".4"/>
    <path d="M31.037 28.702 27 24.534a7.554 7.554 0 0 0 1.705-4.787c0-4.186-3.405-7.59-7.59-7.59-4.187 0-7.592 3.404-7.592 7.59 0 4.187 3.405 7.591 7.591 7.591a7.534 7.534 0 0 0 4.577-1.54l4.046 4.172a.913.913 0 0 0 1.286.014.91.91 0 0 0 .014-1.282zm-9.927-3.177a5.78 5.78 0 0 1-5.773-5.773 5.78 5.78 0 0 1 5.773-5.773 5.78 5.78 0 0 1 5.772 5.773 5.78 5.78 0 0 1-5.773 5.773zm-2.328-15.35c0-.5-.409-.91-.909-.91H7.133c-.5 0-.91.41-.91.91s.41.909.91.909h10.74c.505 0 .91-.41.91-.91zm-5.523 5.059c0-.5-.409-.91-.909-.91H7.132c-.5 0-.909.41-.909.91s.41.909.91.909h5.217c.505 0 .91-.405.91-.91zm-6.127 4.15c-.5 0-.909.409-.909.909s.41.909.91.909h2.804c.5 0 .909-.41.909-.91s-.41-.908-.91-.908H7.133z" fill="#5ea88e" stroke="#5ea88e" stroke-width=".4"/>
</svg>
