<svg width="30" height="30" viewBox="0 0 30 30" fill="none" xmlns="http://www.w3.org/2000/svg">
    <circle cx="15" cy="15" r="15" fill="#5EA88E"/>
    <g clip-path="url(#5jsiobn09a)" fill="#fff">
        <path d="M24.697 15.335c.06.162.11.323.148.482.239.983.055 1.918-.565 2.778-.688.955-1.65 1.415-2.832 1.405-.534-.004-1.069 0-1.603 0V20c-.392 0-.784-.005-1.176.002-.329.007-.66-.04-.987.023-.204.039-.353.161-.401.372a.489.489 0 0 0 .188.53.643.643 0 0 0 .412.133c1.182-.003 2.366-.003 3.548-.002a4.61 4.61 0 0 0 1.474-.23c1.205-.402 2.096-1.173 2.643-2.317.607-1.268.599-2.55.01-3.826a3.758 3.758 0 0 0-.43-.735c-.086-.105-.17-.213-.262-.314-.715-.784-1.584-1.285-2.64-1.44-.123-.018-.166-.07-.163-.188a3.877 3.877 0 0 0-.032-.596c-.183-1.348-.838-2.411-1.964-3.16-.903-.602-1.902-.857-2.997-.714a4.557 4.557 0 0 0-1.774.615 4.286 4.286 0 0 0-1.44 1.405c-.08.127-.164.182-.306.104-.024-.013-.054-.016-.082-.02-.641-.115-1.276-.112-1.906.074a3.88 3.88 0 0 0-2.541 2.298c-.042.103-.099.13-.205.125a4.734 4.734 0 0 0-1.763.225c-2.067.677-3.364 2.833-2.985 4.972.21 1.19.814 2.137 1.774 2.857.812.609 1.745.857 2.746.862 1.16.007 2.32.002 3.48.002.046 0 .092.002.137-.003.221-.023.447-.2.498-.39a.52.52 0 0 0-.233-.577c-.14-.093-.303-.09-.462-.09-1.183 0-2.366-.003-3.548.002-.37.002-.73-.05-1.073-.17-.954-.337-1.654-.964-2.05-1.904-.397-.937-.373-1.871.055-2.794.184-.396.451-.718.766-1.024a3.192 3.192 0 0 1 1.393-.802 3.31 3.31 0 0 1 1.619-.054c.377.08.599-.068.696-.443.174-.67.522-1.226 1.08-1.632.889-.644 1.85-.73 2.86-.323.15.06.28.054.425-.009.174-.075.245-.228.321-.381.684-1.381 2.094-2.106 3.634-1.86.968.154 1.718.668 2.259 1.478.47.705.644 1.493.531 2.33-.07.518.103.739.625.761.968.043 1.796.407 2.458 1.13 0 0 .458.558.64 1.032z"/>
        <path d="m15.789 15.348 1.013 1.013c.446.448.893.893 1.336 1.343.255.26.267.54.04.768-.223.224-.537.213-.788-.035-.566-.561-1.128-1.125-1.692-1.688-.038-.038-.07-.11-.132-.08-.048.023-.025.093-.025.142-.002.855 0 1.71 0 2.564 0 .85.002 1.698-.002 2.547-.002.415-.358.677-.729.543a.515.515 0 0 1-.34-.416 1.378 1.378 0 0 1-.017-.255v-4.87c0-.052.002-.103-.002-.154-.002-.038.015-.089-.031-.106-.044-.017-.07.026-.098.053-.293.294-.585.589-.879.882-.285.286-.566.577-.859.854-.324.306-.766.199-.903-.208-.073-.213.016-.382.159-.525a769.49 769.49 0 0 1 2.877-2.866s.317-.27.587 0l.485.494z"/>
    </g>
    <defs>
        <clipPath id="5jsiobn09a">
            <path fill="#fff" transform="translate(4 7.5)" d="M0 0h22v15H0z"/>
        </clipPath>
    </defs>
</svg>
