<svg width="300" height="313" viewBox="0 0 300 313" fill="none" xmlns="http://www.w3.org/2000/svg">
<path d="M79.106 312.996C56.8274 311.911 32.2815 303.033 10.5944 287.25C-34.3571 254.499 -73.2954 215.139 -108.291 172.228C-140.328 132.869 -137.765 96.6655 -105.037 58.0949C-90.0536 40.4373 -73.3939 24.8512 -53.5798 12.8164C-25.8794 -3.95348 2.21526 -4.24942 30.5071 11.8299C47.3639 21.3986 61.6577 34.1239 75.36 47.4411C82.5562 54.445 87.4851 54.2477 94.287 47.2438C108.088 33.1374 123.269 20.5107 140.717 11.0407C167.432 -3.46025 194.442 -3.5589 220.467 11.9285C247.181 27.8106 268.77 49.4141 286.021 75.2593C307.215 106.925 303.272 138.787 281.191 166.902C244.914 213.068 203.906 254.992 155.8 289.124C132.93 305.302 106.116 313.194 78.9088 312.996H79.106Z" fill="#1BCCC6"/>
</svg>
