<svg width="25" height="18" viewBox="0 0 25 18" fill="none" xmlns="http://www.w3.org/2000/svg">
<g clip-path="url(#clip0_1986:6035)">
<path d="M19.9462 5.77607C19.8524 5.77607 19.7621 5.77607 19.6719 5.77607C19.6263 4.77779 19.1979 3.83544 18.4756 3.14484C17.7533 2.45424 16.7927 2.06849 15.7934 2.06774C15.4181 2.0695 15.045 2.12564 14.6858 2.2344C14.127 1.58499 13.4342 1.06434 12.6549 0.708292C11.8757 0.352245 11.0286 0.169252 10.1719 0.171903C8.86529 0.173368 7.59556 0.605012 6.55879 1.40016C5.52203 2.1953 4.77595 3.3097 4.43577 4.57121C3.17506 4.85772 2.04863 5.56295 1.24022 6.57189C0.431806 7.58083 -0.010877 8.83392 -0.015625 10.1268C-0.015625 11.6444 0.587237 13.0999 1.66036 14.173C2.73349 15.2461 4.18896 15.849 5.70659 15.849H9.2934V15.1545H5.70659C5.04621 15.1552 4.3922 15.0255 3.78205 14.7729C3.17191 14.5202 2.61765 14.1496 2.15104 13.6823C1.21507 12.7415 0.69059 11.4678 0.692701 10.1407C0.692839 8.96815 1.10277 7.83255 1.85158 6.9303C2.6004 6.02805 3.64099 5.41588 4.79339 5.19968L5.01562 5.15801L5.06769 4.93579C5.33578 3.77885 5.98748 2.74666 6.91674 2.00716C7.846 1.26766 8.99817 0.864362 10.1858 0.862877C10.9769 0.862506 11.7579 1.04095 12.4704 1.38487C13.1829 1.72879 13.8085 2.2293 14.3003 2.84899L14.4566 3.0469L14.6927 2.9601C15.0445 2.82729 15.4174 2.75907 15.7934 2.75871C16.2132 2.75734 16.6291 2.83918 17.0171 2.99949C17.4051 3.15981 17.7574 3.39543 18.0538 3.69274C18.351 3.98848 18.5866 4.34023 18.7469 4.72764C18.9072 5.11505 18.9891 5.53041 18.9878 5.94968C18.9878 5.99482 18.9878 6.05385 18.9878 6.13024L18.9635 6.55037L19.3802 6.49482C19.5713 6.46899 19.7638 6.45507 19.9566 6.45315C20.5286 6.45194 21.0953 6.56391 21.6238 6.78261C22.1524 7.00132 22.6325 7.32243 23.0364 7.72746C23.4408 8.13228 23.761 8.61317 23.9785 9.14238C24.196 9.67158 24.3066 10.2386 24.3038 10.8108C24.3048 11.3836 24.1924 11.951 23.9731 12.4802C23.7538 13.0094 23.432 13.4899 23.026 13.8941C22.6221 14.2992 22.142 14.6203 21.6134 14.839C21.0848 15.0577 20.5182 15.1696 19.9462 15.1684H15.6892V15.8629H19.9462C20.6098 15.8633 21.2669 15.733 21.8801 15.4792C22.4932 15.2255 23.0503 14.8534 23.5196 14.3842C23.9888 13.915 24.3609 13.3578 24.6146 12.7447C24.8684 12.1315 24.9987 11.4744 24.9983 10.8108C24.9946 9.47362 24.4606 8.19253 23.5134 7.24863C22.5663 6.30474 21.2834 5.77515 19.9462 5.77607Z" fill="#29B0AB"/>
<path d="M9.66016 11.0712L10.1706 11.5434L12.1532 9.40799V17.8316H12.8477V9.40799L14.8338 11.5434L15.3407 11.0712L12.5004 8.01562L9.66016 11.0712Z" fill="#29B0AB"/>
</g>
<defs>
<clipPath id="clip0_1986:6035">
<rect width="25" height="17.6632" fill="white" transform="translate(0 0.167969)"/>
</clipPath>
</defs>
</svg>
