<svg width="16" height="17" viewBox="0 0 16 17" fill="none" xmlns="http://www.w3.org/2000/svg">
<g clip-path="url(#clip0_4764_486)">
<rect y="0.5" width="16" height="16" rx="2" fill="#5EA88E"/>
<path d="M6.73849 13.91C7.26151 13.91 7.6569 13.7092 7.92469 13.3075L13.7176 4.57741C13.8138 4.43515 13.8849 4.29498 13.931 4.1569C13.977 4.01464 14 3.87866 14 3.74895C14 3.38912 13.8745 3.09205 13.6234 2.85774C13.3766 2.61925 13.0711 2.5 12.7071 2.5C12.4561 2.5 12.2427 2.55021 12.0669 2.65063C11.8954 2.74686 11.7322 2.91423 11.5774 3.15272L6.71339 10.7908L4.27824 7.87239C4.01464 7.56695 3.6841 7.41423 3.28661 7.41423C2.91423 7.41423 2.60669 7.53347 2.36402 7.77197C2.12134 8.01046 2 8.30962 2 8.66946C2 8.83264 2.0251 8.98745 2.07531 9.13389C2.12971 9.27615 2.22803 9.42469 2.37029 9.5795L5.60251 13.3891C5.89958 13.7364 6.27824 13.91 6.73849 13.91Z" fill="white"/>
</g>
<defs>
<clipPath id="clip0_4764_486">
<rect y="0.5" width="16" height="16" rx="2" fill="white"/>
</clipPath>
</defs>
</svg>
