<svg width="30" height="30" viewBox="0 0 30 30" fill="none" xmlns="http://www.w3.org/2000/svg">
    <path fill="#484848" d="M7 6h19v18H7z"/>
    <path d="M15 0C6.716 0 0 6.716 0 15c0 8.284 6.716 15 15 15 8.284 0 15-6.716 15-15 0-8.284-6.716-15-15-15zm-3.672 21.217H8.291v-9.775h3.037v9.775zM9.791 10.242c-.96 0-1.58-.68-1.58-1.52 0-.858.639-1.517 1.619-1.517s1.58.66 1.598 1.517c0 .84-.619 1.52-1.637 1.52zm12.63 10.975h-3.037V15.8c0-1.26-.44-2.117-1.539-2.117-.839 0-1.337.58-1.557 1.137-.082.199-.102.48-.102.76v5.636h-3.04v-6.657c0-1.22-.038-2.24-.079-3.118h2.64l.138 1.357h.061c.4-.637 1.38-1.578 3.019-1.578 1.998 0 3.497 1.34 3.497 4.217v5.78z" fill="#EDEAEA"/>
</svg>
