<svg width="30" height="30" viewBox="0 0 30 30" fill="none" xmlns="http://www.w3.org/2000/svg">
    <rect width="30" height="30" rx="15" fill="#EDEAEA"/>
    <path fill-rule="evenodd" clip-rule="evenodd" d="M17.825 12.176a.6.6 0 0 1 0 .849l-4.8 4.8a.6.6 0 1 1-.849-.848l4.8-4.8a.6.6 0 0 1 .85 0z" fill="#484848"/>
    <path fill-rule="evenodd" clip-rule="evenodd" d="m15.01 10.181-.355.412a.6.6 0 0 1-.909-.785l.37-.429a4.6 4.6 0 1 1 6.505 6.503l-.427.372a.6.6 0 0 1-.787-.906l.411-.357a3.4 3.4 0 0 0-4.808-4.81zM10.65 13.803a.6.6 0 0 1-.052.847l-.406.36a3.378 3.378 0 0 0 .011 4.792 3.455 3.455 0 0 0 4.827.03l.29-.389a.6.6 0 0 1 .962.716l-.317.427a.598.598 0 0 1-.06.069 4.655 4.655 0 0 1-6.546 0 4.578 4.578 0 0 1 .025-6.534l.42-.37a.6.6 0 0 1 .846.052z" fill="#484848"/>
</svg>
