<svg width="122" height="198" viewBox="0 0 122 198" fill="none" xmlns="http://www.w3.org/2000/svg">
    <path fill-rule="evenodd" clip-rule="evenodd" d="M52.991 8.616c2.283-2.061 5.362-2.692 8.359-4.158C64.108 3.1 66.748.859 69.827.585c14.898-1.298 22.222 9.461 22.222 9.461s2.698 4.528 5.79 11.678c2.497 5.755 5.243 13.202 7.062 21.34.868 3.897-.547 7.877-1.177 12.547-.404 2.955-.273 6.84.274 9.056 1.034 4.159 5.397 9.83 6.028 12.821 1.866 8.83-4.661 8.985-4.661 8.985l-70.838-6.697s2.08-4.123 2.176-8.186c.095-3.741-1.831-7.245-1.249-11.892.19-1.513.618-3.61 1.035-4.944 1.296-4.171 3.317-7.102 4.53-12.238 1.414-6.005 1.676-13.012 3.293-18.79 1.914-6.769 5.29-12.06 8.68-15.11z" fill="#BF8C6A"/>
    <path fill-rule="evenodd" clip-rule="evenodd" d="m5.029 109.736-1.736-2.133s1.605-11.558 2.425-16.324c.298-1.751 4.554-1.728 4.554-1.728l18.037-7.4s10.474-3.907 16.526-6.66c6.052-2.764 7.704-4.373 7.704-4.373s.5-2.097 2.117-4.6c1.605-2.49 4.328-5.385 4.328-5.385l24.444 5.79L94.01 78.102s9.88 6.744 12.841 9.723c3.591 3.622 5.196 6.72 6.266 14.537 1.272 9.282 1.831 22.556 2.734 35.77 1.772 25.976 5.529 56.063 5.529 56.063s-19.451 3.622-42.85 3.622-50.72-3.622-50.72-3.622 1.58-7.781 3.53-15.467c1.249-4.945 2.96-9.139 3.496-13.583.44-3.635-.737-5.529-.928-7.9-.416-5.064-.57-8.472-.57-8.472s-1.914 6.148-4.554 11.415c-2.14 4.278-4.732 7.769-7.348 8.698-2.342.834-6.908 1.752-9.202.572-5.933-3.062-8.917-12.475-10.035-16.598-.69-2.55-1.498-6.542-1.557-9.104-.12-5.088 1.212-8.674 1.593-13.178.547-6.327.285-10.855.88-14.585.51-3.36 1.914-6.256 1.914-6.256z" fill="#61A48D"/>
    <path fill-rule="evenodd" clip-rule="evenodd" d="m60.838 84.126 26.478-.751s5.624 12.38 9.762 26.453c4.137 14.072 6.777 29.848 6.777 29.848l-1.082 18.457s1.106 10.927 1.973 20.519c.857 9.592 1.475 17.825 1.475 17.825-7.075.811-16.17 1.526-26.264 1.526-5.196 0-10.665-.191-16.015-.489 0 0 .297-13.679 1.438-28.895 1.165-15.55 3.15-32.804 2.759-47.126-.274-9.938-2.937-20.471-4.72-27.394-1.736-6.732-2.58-9.973-2.58-9.973z" fill="#fff"/>
    <path fill-rule="evenodd" clip-rule="evenodd" d="M60.065 22.787c1.76-3.05 5.053-2.741 7.8-3.623 2.723-.87 4.887-2.943 7.229-1.132 1.902 1.478 2.949 4.91 4.173 7.829.916 2.18 2.01 3.92 3.294 5.255 3.27 3.407 8.714 5.54 8.714 5.54s-.202 2.24-.32 5.577c-.12 3.277-.143 7.614-.975 10.879-1.308 5.1-5.767 9.782-5.767 9.782l-1.926 9.676 4.934 10.474s.5 4.158-.737 9.163c-.999 4.075-3.353 9.175-6.36 9.282-3.354.107-9.096-5.029-13.174-9.437-4.09-4.42-6.528-8.103-6.528-8.103l-3.46-11.284s1.439-3.42 1.95-7.03c.511-3.61.095-7.388.095-7.388s-1.13-1.584-2.033-3.944c-.903-2.359-1.593-5.48-1.593-5.48s-1.748-.323-3.056-1.312c-1.296-.989-2.152-2.645-2.152-2.645s2.045-1.585 3.377-3.42c1.938-2.669 3.412-6.053 3.65-7.268.832-4.1 1.332-8.722 2.865-11.391zM14.338 58.35s1-.608 2.022-.918c2.806-.834 8.096-2.037 11.116-2.335 3.722-.37 3.413 2.37 3.413 2.37s1.58.406 2.39 1.24c.808.822.832 2.074.832 2.074s1.13.19 1.89 1.37c.773 1.18 1.177 3.396 1.177 3.396s1.82 1.525.321 4.063c-.594 1.013-1.07 2.574-2.27 3.372-1.356.906-3.698.727-3.698.727s-1.926 6.053-4.304 11.331c-1.38 3.063-2.973 6.709-3.08 8.043-.309 3.992.12 9.39.12 9.39s-4.222.298-7.836-1.299c-3.615-1.597-6.61-5.1-6.61-5.1s.201-3.455.808-7.209c.678-4.182 1.783-8.936 2.2-13.988.368-4.469.26-8.842.404-12.31.154-3.478 1.105-4.217 1.105-4.217z" fill="#FFDDC0"/>
    <path fill-rule="evenodd" clip-rule="evenodd" d="M74.166 52.995c-3.34.274-6.67-.036-6.67-.036s2.021 5.815 7.193 5.887c5.256.071 6.147-6.971 6.147-6.971s-3.329.846-6.67 1.12z" fill="#fff"/>
    <path d="M74.773 59.348h-.084c-5.445-.072-7.561-5.97-7.645-6.22a.5.5 0 0 1 .072-.465.502.502 0 0 1 .428-.19c.035 0 3.329.297 6.587.035 3.257-.262 6.563-1.084 6.598-1.096a.491.491 0 0 1 .44.107.477.477 0 0 1 .155.429c0 .072-.999 7.4-6.551 7.4zm-6.504-5.839c.713 1.49 2.723 4.802 6.432 4.85h.072c3.816 0 5.1-4.123 5.457-5.827-1.177.262-3.579.75-6.016.953-2.39.19-4.744.096-5.945.024zM74.57 67.89c-1.842 0-5.35-.644-10.676-4.17-4.138-2.741-5.6-5.673-6.385-7.245-1.415-2.824-2.354-6.554-3.174-10.153a.49.49 0 0 1 .368-.583.489.489 0 0 1 .583.369c.797 3.539 1.724 7.197 3.091 9.938.75 1.489 2.128 4.265 6.052 6.863 6.48 4.278 10.07 4.099 11.01 3.932a.478.478 0 0 1 .559.405.478.478 0 0 1-.405.56 5.38 5.38 0 0 1-1.022.084z" fill="#5B2714"/>
    <path d="M75.534 67.828a.485.485 0 0 1-.488-.464.483.483 0 0 1 .464-.513c.047 0 3.662-.25 7.466-3.741 3.175-2.92 5.291-6.613 6.136-8.877.867-2.348 1.081-5.744 1.272-10.307.023-.691.071-1.406.107-2.18.083-1.466.166-3.135.202-4.91 0-.262.226-.477.487-.477h.012c.274 0 .488.227.476.5-.036 1.8-.131 3.468-.202 4.946-.036.762-.084 1.477-.107 2.168-.203 4.648-.416 8.127-1.332 10.605-.88 2.371-3.091 6.232-6.397 9.259-4.09 3.753-7.918 3.98-8.073 3.991h-.023zM55.012 49.261h-.06c-1.402-.178-3.554-1.227-5.005-3.586a.499.499 0 0 1 .155-.68.497.497 0 0 1 .678.156c1.188 1.93 3.008 2.955 4.292 3.121a.502.502 0 0 1 .428.549.498.498 0 0 1-.488.44zM53.55 43.74a.479.479 0 0 1-.392-.204l-.571-.798a.484.484 0 0 1 .119-.679.48.48 0 0 1 .677.12l.571.797a.484.484 0 0 1-.119.68.573.573 0 0 1-.285.083zM74.31 49.248a.468.468 0 0 1-.322-.119.491.491 0 0 1-.047-.69c.749-.87 1.117-1.538 1.081-1.967-.023-.345-.32-.62-.808-1.025-.583-.5-1.32-1.12-1.593-2.228-.583-2.383.856-5.54.915-5.672a.496.496 0 0 1 .654-.238c.25.12.357.405.238.656-.012.023-1.355 2.978-.856 5.028.19.798.737 1.263 1.272 1.716.535.452 1.094.93 1.153 1.692.06.727-.344 1.56-1.32 2.68a.45.45 0 0 1-.368.167zM62.134 33.368a.481.481 0 0 1-.404-.215.507.507 0 0 1 .13-.679c.12-.071 2.83-1.835 6.35-.06.238.12.333.418.214.656a.49.49 0 0 1-.654.214c-2.996-1.513-5.279-.06-5.374 0a.405.405 0 0 1-.262.084zM78.958 34.32a.498.498 0 0 1-.416-.226.499.499 0 0 1 .154-.679c3.341-2.109 6.207-.62 6.326-.56a.494.494 0 0 1 .202.667.489.489 0 0 1-.666.203c-.107-.06-2.509-1.275-5.35.524a.604.604 0 0 1-.25.072zM66.39 15.024a.496.496 0 0 1-.487-.417l-.047-.345c-.203-1.323-.38-2.574-2.533-4.945a.488.488 0 1 1 .725-.655c2.355 2.585 2.569 4.05 2.783 5.457l.047.333a.487.487 0 0 1-.404.56c-.036.012-.06.012-.083.012z" fill="#5B2714"/>
    <path d="M47.867 46.873a.505.505 0 0 1-.44-.262.477.477 0 0 1 .202-.656c1.902-1 3.697-2.478 5.196-4.301 2.33-2.824 3.816-6.304 4.327-10.08.809-5.994 2.45-12.786 8.109-12.238a.492.492 0 0 1-.095.977c-3.781-.37-5.945 3.146-7.05 11.391-.536 3.956-2.105 7.614-4.542 10.581-1.582 1.919-3.484 3.491-5.505 4.54-.048.036-.131.048-.202.048zM42.611 31.78h-.059a.495.495 0 0 1-.428-.549C43.622 19.387 49.388 6.828 58.9 5.434a.495.495 0 0 1 .559.417.502.502 0 0 1-.416.56C50.03 7.734 44.538 19.888 43.087 31.362a.468.468 0 0 1-.476.418zM110.204 86.21c-.048 0-.096-.011-.155-.023a.5.5 0 0 1-.321-.62c1.902-5.898-1.118-10.89-3.555-14.894-1.189-1.954-2.211-3.646-2.568-5.207-1.391-5.922-.713-8.96 0-12.178.357-1.585.713-3.217.868-5.314.416-5.78-1.689-11.463-4.126-18.052-.238-.644-.487-1.311-.725-1.978-.202-.56-.404-1.132-.618-1.704C96.15 18.364 92.595 8.557 84.95 4.089c-4.898-2.86-16.895-5.338-21.425.286a.492.492 0 0 1-.76-.62C67.71-2.38 80.158.157 85.437 3.243c7.966 4.635 11.58 14.632 14.493 22.663.214.572.416 1.144.618 1.704.25.667.488 1.323.726 1.978 2.473 6.697 4.613 12.488 4.173 18.47-.155 2.156-.523 3.836-.892 5.456-.713 3.241-1.332 6.03 0 11.737.333 1.418 1.32 3.039 2.461 4.933 2.533 4.183 5.683 9.378 3.65 15.705a.501.501 0 0 1-.463.322zM35.43 61.775a.486.486 0 0 1-.487-.465c-.238-3.813 1.51-7.912 2.853-10.664 1.475-3.038 3.306-6.816 4.043-15.133a.485.485 0 0 1 .535-.44.486.486 0 0 1 .44.535c-.75 8.496-2.628 12.369-4.138 15.479-1.284 2.657-2.972 6.59-2.758 10.176.012.274-.19.5-.464.524 0-.012-.012-.012-.024-.012zM34.277 80.293a.511.511 0 0 1-.285-.096.505.505 0 0 1-.107-.69c.166-.227.32-.453.463-.68l.096-.155c.701-1.12 2.151-3.443 2.08-7.804 0-.274.214-.489.476-.5.273 0 .487.214.5.476.082 4.659-1.475 7.15-2.224 8.353l-.095.154c-.155.25-.321.49-.5.74a.5.5 0 0 1-.404.202zM57.176 73.053a.696.696 0 0 1-.154-.023.499.499 0 0 1-.31-.62c2.688-7.84 1.69-14.048 1.677-14.108a.478.478 0 0 1 .404-.56.472.472 0 0 1 .56.405c.047.262 1.057 6.494-1.713 14.585a.502.502 0 0 1-.464.322zM81.348 77.721h-.072a.497.497 0 0 1-.416-.56c.892-5.922 2.842-14.477 2.854-14.56a.489.489 0 0 1 .95.214c-.023.083-1.96 8.603-2.84 14.489a.475.475 0 0 1-.476.417z" fill="#5B2714"/>
    <path fill-rule="evenodd" clip-rule="evenodd" d="M63.133 40.702c-.13-1.203.535-2.264 1.486-2.36.951-.094 1.82.8 1.95 2.003.13 1.203-.535 2.264-1.486 2.359-.951.107-1.82-.798-1.95-2.002z" fill="#5B2714"/>
    <path d="M95.044 45.878s-.011 0 0 0a.493.493 0 0 1-.487-.5c.083-6.518-2.675-7.888-6.147-9.604-1.712-.846-3.483-1.728-5.077-3.3-3.02-2.98-4.351-6.042-5.54-8.759-.714-1.632-1.32-3.038-2.188-4.17-.357-.477-1.141-1.287-2.33-1.43-1.058-.131-2.188.286-3.377 1.227a.49.49 0 0 1-.69-.083.493.493 0 0 1 .084-.691c1.403-1.108 2.782-1.585 4.102-1.43 1.141.143 2.2.786 2.996 1.8.94 1.226 1.605 2.752 2.318 4.372 1.142 2.622 2.438 5.6 5.327 8.448 1.486 1.466 3.186 2.312 4.827 3.122 3.484 1.728 6.777 3.36 6.694 10.498-.024.274-.25.5-.511.5zM24.313 102.732a.501.501 0 0 1-.487-.453c-.262-3.646-.404-6.494-.297-8.58.107-2.013 2.235-6.624 3.388-9.103.167-.345.297-.643.393-.858 1.379-3.074 2.46-6.196 3.245-8.484.738-2.133 1.225-3.539 1.641-4.11.928-1.264 3.4-1.919 3.508-1.955a.482.482 0 0 1 .594.346.484.484 0 0 1-.345.596c-.618.166-2.366.774-2.972 1.584-.333.453-.868 2.026-1.498 3.85-.797 2.299-1.879 5.457-3.282 8.566-.095.227-.238.525-.404.87-1.034 2.252-3.198 6.935-3.293 8.746-.107 2.026.035 4.85.297 8.46a.485.485 0 0 1-.452.525c-.012-.012-.024 0-.036 0zM9.832 96.196h-.047a.492.492 0 0 1-.44-.536c.142-1.346.297-2.61.44-3.777.309-2.42.749-5.076 1.165-7.638.487-3.003.963-5.839 1.225-8.258.344-3.05.404-6.482.451-9.508.06-3.182.095-5.684.452-6.852.678-2.24 2.533-2.61 4.685-3.026.463-.096.939-.19 1.438-.298 4.304-1.025 7.086-1.501 9.298-1.573.785-.036 1.439.203 1.926.68.892.857.904 2.228.904 2.287a.483.483 0 0 1-.488.489.483.483 0 0 1-.487-.489c0-.024-.024-1.025-.607-1.585-.297-.286-.69-.417-1.212-.393-2.14.072-4.863.536-9.096 1.55-.511.118-.999.214-1.474.309-2.26.44-3.46.75-3.936 2.347-.309 1.037-.356 3.61-.404 6.59-.047 3.05-.107 6.505-.464 9.603-.273 2.443-.737 5.291-1.236 8.306-.416 2.561-.856 5.195-1.165 7.602a146.157 146.157 0 0 0-.44 3.753.49.49 0 0 1-.488.417z" fill="#5B2714"/>
    <path d="M31.983 74.193c-.179 0-.298 0-.357-.012a.483.483 0 0 1-.464-.512.476.476 0 0 1 .512-.465c1.14.048 3.174-.167 3.745-.93 1.2-1.632 2.413-3.824 2.2-5.063-.096-.549-.857-1.394-1.487-1.657-.82-.345-2.342-.047-3.947.263-1.57.31-3.353.643-4.958.5a.486.486 0 0 1-.44-.536.485.485 0 0 1 .535-.441c1.462.143 3.175-.19 4.672-.489 1.831-.357 3.413-.667 4.507-.202.844.357 1.914 1.453 2.069 2.395.332 1.894-1.558 4.695-2.378 5.815-.88 1.215-3.27 1.334-4.21 1.334z" fill="#5B2714"/>
    <path d="M34.348 71.847h-.047c-.072-.012-.761-.083-1.38-.536a.505.505 0 0 1-.106-.69.502.502 0 0 1 .69-.108c.403.298.879.345.879.345a.486.486 0 0 1 .44.537.473.473 0 0 1-.476.452zM37.357 66.164a.483.483 0 0 1-.476-.393c0-.012-.321-1.525-1.01-2.752-.678-1.204-1.201-1.692-2.64-1.609-1.51.095-3.127.334-4.697.56-2.247.334-4.565.667-6.563.572a.483.483 0 0 1-.463-.512c.012-.275.25-.465.511-.465 1.902.095 4.078-.226 6.373-.56 1.581-.239 3.222-.477 4.78-.572 2.104-.131 2.877.93 3.543 2.109.76 1.358 1.105 2.967 1.117 3.026a.498.498 0 0 1-.38.584c-.036.012-.072.012-.095.012z" fill="#5B2714"/>
    <path d="M33.991 61.11h-.071a.493.493 0 0 1-.416-.548s.095-.81-.464-1.43c-.511-.571-1.403-.846-2.675-.822-3.971.072-11.735.977-11.818.99a.494.494 0 0 1-.547-.43.495.495 0 0 1 .428-.548c.083-.012 7.895-.917 11.913-1 1.57-.025 2.723.357 3.436 1.155.856.965.702 2.157.69 2.205a.468.468 0 0 1-.476.428zM15.836 170.49c-2.342 0-4.41-.643-5.671-1.799-7.05-6.458-11.081-21.496-9.987-27.895 1.652-9.604 1.878-14.62 2.069-19.053.035-.917.083-1.811.13-2.716.25-4.612 1.213-6.864 1.855-8.353.119-.286.238-.548.321-.787a.493.493 0 0 1 .63-.286c.25.096.38.382.286.632-.096.262-.214.536-.345.834-.607 1.43-1.534 3.575-1.784 8.019-.047.906-.083 1.8-.13 2.705-.19 4.457-.417 9.509-2.081 19.172-1.034 6.041 2.972 20.852 9.678 27.001 1.284 1.18 3.603 1.728 6.183 1.489 3.424-.321 6.515-1.93 8.25-4.277 3.806-5.124 6.398-12.953 9.132-21.234 2.14-6.47 4.352-13.155 7.372-19.494a.491.491 0 0 1 .654-.226c.25.119.344.405.225.655-2.996 6.292-5.195 12.941-7.335 19.387-2.77 8.365-5.374 16.253-9.286 21.507-1.902 2.562-5.255 4.314-8.953 4.659-.38.036-.797.06-1.213.06z" fill="#5B2714"/>
    <path d="M29.937 152.203c-.035 0-.06 0-.095-.012a.48.48 0 0 1-.38-.572c1.403-7.089.642-10.664-.226-14.811-.44-2.097-.904-4.266-1.106-7.066-.261-3.527-.142-5.66-.035-7.542.118-2.24.225-4.016-.44-7.281a.489.489 0 0 1 .38-.572.48.48 0 0 1 .57.382c.678 3.396.583 5.219.453 7.53-.107 1.847-.215 3.944.035 7.412.202 2.728.654 4.861 1.082 6.935.856 4.063 1.665 7.912.226 15.204a.454.454 0 0 1-.464.393zM23.22 103.083c-2.27 0-4.59-.382-5.992-.953-4.554-1.859-8.18-6.125-10.356-8.663l-.31-.37c-.915-1.072-1.188-1.99-.808-2.728.511-1.001 2.093-1.382 4.673-1.144a.485.485 0 0 1 .44.536.485.485 0 0 1-.535.441c-2.39-.214-3.484.179-3.722.62-.178.333.072.93.678 1.644l.321.358c2.116 2.478 5.648 6.624 9.975 8.4 3.068 1.251 10.047 1.323 11.129-.703.38-.703.261-2.419-4.792-5.91a.497.497 0 0 1-.13-.68.493.493 0 0 1 .677-.13c4.34 2.99 6.052 5.41 5.101 7.185-.797 1.513-3.531 2.097-6.349 2.097z" fill="#5B2714"/>
    <path d="M20.235 116.34a21.14 21.14 0 0 1-4.803-.536c-5.564-1.287-12.852-6.852-12.662-8.508.606-5.302 2.176-14.763 2.818-16.575a.504.504 0 0 1 .63-.297c.25.095.38.369.297.631-.618 1.728-2.176 11.213-2.77 16.348.166.87 6.135 6.101 11.913 7.447 6.98 1.621 13.661-1.06 13.91-2.025a115.77 115.77 0 0 0-.237-1.371c-.321-1.894-.618-3.681-.654-4.861-.047-1.609.048-3.193.13-4.468.06-1.013.12-1.883.072-2.324a.486.486 0 0 1 .428-.548.486.486 0 0 1 .547.429c.06.524.012 1.394-.06 2.49-.082 1.251-.178 2.8-.13 4.373.036 1.108.32 2.872.63 4.731.083.464.155.941.238 1.418.06.357-.107.715-.488 1.072-1.224 1.144-5.16 2.574-9.809 2.574zM43.99 117.784a.498.498 0 0 1-.487-.417c-1.212-8.198-2.83-16.741-6.373-23.712-1.724-3.408-5.48-5.171-7.728-6.232l-.535-.25a.49.49 0 0 1 .428-.882l.523.25c2.2 1.037 6.302 2.967 8.18 6.673 3.603 7.102 5.232 15.741 6.468 24.01a.502.502 0 0 1-.416.56h-.06zM28.606 82.8a.503.503 0 0 1-.44-.273.496.496 0 0 1 .226-.656c2.556-1.25 5.517-2.395 8.644-3.61 5.885-2.276 11.984-4.635 15.1-7.698.19-.19.499-.19.689.012.19.191.19.5-.012.691-3.258 3.206-9.452 5.6-15.433 7.912-3.115 1.204-6.051 2.336-8.572 3.575a.558.558 0 0 1-.202.048zM79.79 40.457a.489.489 0 0 1-.428-.25.486.486 0 0 1 .179-.668c.107-.06 2.592-1.477 4.78-.727a.5.5 0 0 1 .308.62.497.497 0 0 1-.618.31c-1.76-.608-3.947.643-3.971.655a.637.637 0 0 1-.25.06z" fill="#5B2714"/>
    <path fill-rule="evenodd" clip-rule="evenodd" d="M61.742 61.766s6.432 5.088 12.318 5.683c5.885.596 9.927-4.146 9.927-4.146l-1.212 4.969s-5.291 4.384-10.606 1.858c-5.326-2.538-10.427-8.364-10.427-8.364z" fill="#5B2714"/>
    <path d="M99.8 33.582a.52.52 0 0 1-.297-.095.506.506 0 0 1-.095-.691c2.473-3.241 5.755-5.29 9.773-6.09a.48.48 0 0 1 .571.382.49.49 0 0 1-.381.572c-3.78.763-6.872 2.681-9.19 5.731a.433.433 0 0 1-.38.191zM63.799 197.927a.493.493 0 0 1-.488-.501c.19-14.87 1.439-29.205 2.545-41.847 1.355-15.443 2.52-28.776 1.498-39.035-1.332-13.298-6.86-31.16-9.821-40.752-.94-3.05-1.629-5.242-1.855-6.267-.297-1.359.868-3.194 2.188-5.112.273-.393.618-.894.666-1.025a.498.498 0 0 1 .618-.31c.25.084.392.37.309.62-.083.25-.333.608-.785 1.263-.796 1.156-2.27 3.289-2.045 4.338.214.976.892 3.157 1.831 6.184 2.985 9.627 8.525 27.548 9.869 40.953 1.034 10.355-.143 23.724-1.498 39.214-1.106 12.631-2.355 26.953-2.545 41.776a.493.493 0 0 1-.487.501z" fill="#5B2714"/>
    <path d="M62.812 92.522a.488.488 0 0 1-.452-.298c-3.032-7.066-10.094-8.412-12.745-8.925-.94-.178-1.368-.262-1.308-.786.071-.644.558-2.038 1.296-4.147.749-2.156 1.688-4.85 2.627-7.971.88-2.92 5.148-8.89 6.492-9.735a.497.497 0 0 1 .678.155.499.499 0 0 1-.155.679c-1.07.667-5.243 6.387-6.075 9.187-.94 3.145-1.927 5.958-2.64 8.019-.547 1.56-.999 2.86-1.177 3.563.13.023.285.06.452.083 2.532.489 10.225 1.954 13.459 9.497a.49.49 0 0 1-.262.643.538.538 0 0 1-.19.036zM27.82 194.608c-.035 0-.059 0-.094-.012a.479.479 0 0 1-.38-.571c1.997-10.152 4.184-17.743 5.635-22.771.392-1.358.725-2.514.975-3.456.713-2.657.463-4.325.166-5.481-1.367-5.338-1.046-11.903-.725-15.335a.485.485 0 0 1 .535-.441.485.485 0 0 1 .44.536c-.31 3.372-.618 9.819.701 15.002.488 1.895.428 3.741-.166 5.982-.25.953-.583 2.109-.987 3.479-1.45 5.004-3.626 12.583-5.624 22.687a.496.496 0 0 1-.475.381zM52.825 169.044c-4.97 0-11.878-4.886-14.767-10.462a.488.488 0 0 1 .202-.656.476.476 0 0 1 .654.203c2.747 5.29 9.25 9.926 13.9 9.926.273 0 .486.214.486.488a.476.476 0 0 1-.475.501zM112.07 196.217a.49.49 0 0 1-.487-.441c-1.581-16.622-4.696-42.05-10.594-68.801-6.313-28.704-15.076-46.077-18.809-53.488l-.428-.858a.492.492 0 0 1 .214-.656.49.49 0 0 1 .654.215l.428.858c3.757 7.447 12.544 24.891 18.893 53.727 5.897 26.81 9.024 52.273 10.605 68.919a.486.486 0 0 1-.44.537c0-.012-.024-.012-.036-.012z" fill="#5B2714"/>
    <path d="M89.67 88.152a.467.467 0 0 1-.25-.072.51.51 0 0 1-.166-.679c1.724-2.824 3.912-4.409 5.208-5.362.404-.298.856-.631 1.01-.81-.653-1.144-6.895-8.698-12.685-14.31a.487.487 0 1 1 .678-.703c5.801 5.623 12.638 13.797 12.97 14.786.215.644-.392 1.085-1.402 1.824-1.332.965-3.33 2.43-4.958 5.076a.428.428 0 0 1-.404.25z" fill="#5B2714"/>
    <path d="M96.733 90.184c-.369 0-.618-.381-1.094-1.108-.701-1.084-1.89-2.907-3.686-3.932a.476.476 0 0 1-.178-.667.474.474 0 0 1 .666-.179c1.938 1.108 3.186 2.955 3.947 4.135-.119-1.871-.654-5.482-.892-6.983a.487.487 0 0 1 .404-.56.486.486 0 0 1 .56.405c.106.691 1.058 6.745.915 8.174-.036.406-.202.644-.476.703-.06 0-.107.012-.166.012zM49.282 90.41a.577.577 0 0 1-.405-.179c-.13-.154-.392-.44-.582-7.494a.476.476 0 0 1 .475-.5c.286-.025.5.202.5.476.07 2.347.178 4.897.297 6.184.796-1.073 2.188-3.241 2.806-4.194.38-.584.559-.87.63-.966a.493.493 0 0 1 .785.596c-.048.072-.31.477-.595.906-3.162 4.909-3.483 5.147-3.876 5.171h-.035zM106.375 196.897a.491.491 0 0 1-.487-.452c-.44-5.994-1.129-12.619-1.783-19.03-.987-9.544-1.831-17.789-1.582-21.007.345-4.313.5-8.376.63-11.963.084-2.133.155-4.146.262-5.91.012-.274.25-.465.523-.465a.495.495 0 0 1 .464.525c-.107 1.751-.179 3.753-.262 5.886-.131 3.598-.285 7.673-.63 12.011-.25 3.134.595 11.331 1.57 20.828.665 6.423 1.343 13.06 1.783 19.065a.483.483 0 0 1-.452.524c-.012-.012-.024-.012-.036-.012zM80.004 101.97h-.119c-4.506-.345-14.85-9.258-20.07-18.79a.49.49 0 1 1 .857-.477c4.946 9.044 15.052 17.957 19.285 18.278.416.024 1.248-.333 2.283-1.465 2.211-2.407 5.588-8.735 4.232-17.207a.487.487 0 0 1 .404-.56.48.48 0 0 1 .56.406c1.236 7.733-1.356 14.632-4.483 18.028-1.058 1.168-2.105 1.787-2.949 1.787zM110.442 181.08a.488.488 0 0 1-.488-.477c-.166-6.506.048-15.037.274-24.069.439-17.23.927-36.76-.94-50.653a.494.494 0 0 1 .416-.549.485.485 0 0 1 .547.417c1.879 13.966 1.391 33.543.951 50.808-.225 9.02-.439 17.54-.273 24.022a.476.476 0 0 1-.476.501h-.011z" fill="#5B2714"/>
    <path d="M121.511 194.751a.491.491 0 0 1-.488-.441c-.808-8.805-1.629-16.431-2.425-23.795-.963-8.889-1.962-18.076-2.913-29.312-.488-5.696-.856-11.439-1.201-16.992-.892-13.774-1.653-25.666-3.805-30.242-2.342-4.968-7.764-8.913-12.543-12.38-2.556-1.859-4.958-3.61-6.504-5.267-.178-.202-.178-.512.024-.69.202-.18.511-.18.69.023 1.486 1.597 3.852 3.313 6.36 5.148 4.875 3.538 10.404 7.566 12.853 12.761 2.235 4.743 2.996 16.718 3.888 30.599.357 5.541.725 11.272 1.201 16.968.951 11.236 1.95 20.411 2.913 29.288.796 7.376 1.629 14.99 2.437 23.808a.493.493 0 0 1-.44.536c-.024-.012-.036-.012-.047-.012z" fill="#5B2714"/>
    <path d="M105.044 86.577a.483.483 0 0 1-.488-.488c0-.274.214-.489.488-.489.428 0 .808-.203 1.165-.608 1.022-1.203 1.403-3.693 1.153-5.326a.503.503 0 0 1 .404-.56.501.501 0 0 1 .559.405c.285 1.883-.154 4.683-1.379 6.113-.535.631-1.189.953-1.902.953z" fill="#5B2714"/>
    <path fill-rule="evenodd" clip-rule="evenodd" d="M116.291 22.342c-.368-1.013-.987-4.6-.987-4.6s-.606 3.873-.832 4.683c-.19.727-2.889 1.144-2.889 1.144s2.628.405 2.901 1.168c.274.762.975 5.1.975 5.1s.701-4.195.892-5.076c.178-.835 2.853-1.228 2.853-1.228s-2.627-.393-2.913-1.191z" fill="#fff"/>
</svg>
