<svg width="122" height="206" viewBox="0 0 122 206" fill="none" xmlns="http://www.w3.org/2000/svg">
    <g clip-path="url(#6byxbe6bga)">
        <path d="M22.841 15.94c-.644.384-1.502 1.01-2.36 1.765.143-.085.286-.17.415-.27.958-.627 1.573-1.125 1.945-1.496zm-.6-6.808h-.087c-2.989.185-6.078 2.25-8.51 5.654-1.272 1.794-2.088 3.574-2.402 4.885a20.421 20.421 0 0 0 3.976-2.008c3.332-2.151 5.32-4.686 6.221-6.01.358-.542.715-1.24.901-1.78.015-.058.029-.115.058-.158.071-.242.1-.441.057-.555-.057-.014-.115-.028-.215-.028zm-.859-7.734c-.157 0-.315 0-.458.014-1.744.057-3.475.47-4.219.698-3.99 1.21-8.08 4.088-11.227 7.905-2.76 3.346-4.334 6.921-4.02 9.072.287 1.894 2.046 1.894 2.618 1.894 1.945 0 3.833-.27 5.664-.783.2-1.695 1.216-4.017 2.76-6.196 2.675-3.745 6.15-6.024 9.569-6.238.672-.042 1.087.157 1.344.399C25.043 5.5 25.53 3.52 24.8 2.509c-.643-.897-2.13-1.111-3.418-1.111zm2.746 23.058a.703.703 0 0 1-.586-.313c-.172-.242-.272-.484-.372-.655-.043-.072-.086-.171-.129-.242-.014 0-.043.014-.086.014-.586.128-1.23.27-1.759.356-.257.043-.472.085-.63.1-.228.028-.757.1-.972-.414-.014-.042-.028-.085-.043-.142-1.716.541-2.474.442-2.989.2-.672-.314-.987-.94-.844-1.724-1.244.484-2.374.826-3.26.954-1.903.3-2.503-.384-2.675-.997v-.014a21.68 21.68 0 0 1-5.721.77c-1.33 0-3.604-.4-4.005-3.077-.386-2.564 1.273-6.452 4.32-10.155 3.303-4.016 7.651-7.064 11.9-8.346.07-.028 7.394-2.193 9.64.898 1.286 1.766.557 4.6-2.26 8.63-.287.898-.83 1.78-1.073 2.137-2.289 3.404-6.25 6.964-11.471 8.759v.028c.215.128 1.416.214 4.39-.997.373-.156.759-.313 1.13-.484.916-1.282 2.232-2.492 2.747-2.948.944-.84 3.247-2.763 4.462-2.62.53.056.887.455.901 1.01.043 1.14-1.573 2.635-4.777 4.43-.786.441-1.602.854-2.403 1.225 0 0 0 .014-.014.014-.586.897-.5 1.21-.5 1.21s.014.015.042.029c.13.057.73.214 2.632-.47 1.244-.442 2.532-1.054 3.304-1.424.229-.1.4-.2.53-.257.643-.284.957-.042 1.1.228.1.171.258.598-.329 1.026-.1.07-.243.17-.457.313-.157.1-.343.214-.558.356.63.114.901.655 1.073 1.011.085.157.157.328.271.499a.691.691 0 0 1-.2.968c-.057.071-.186.114-.329.114z" fill="#5B2714"/>
        <path fill-rule="evenodd" clip-rule="evenodd" d="M64.99 84.914s31.266 6.566 34.47 8.773c3.203 2.194 10.054 8.702 13.472 26.42 3.419 17.717 6.308 30.749 7.323 39.251 1.016 8.503 3.79 13.417-6.679 16.194-10.47 2.777-16.434 4.13-16.434 4.13l.572 20.423s-23.313 4.886-36.2 5.811c-12.886.912-38.959-4.885-45.395-8.559-1.244-.712-1.53-2.151-1.187-4.002 1.444-7.777 13.973-22.902 13.973-22.902S16.376 151.055 12.3 132.398c-3.032-13.915-7.409-27.972-1.73-38.611 1.759-3.29 2.603-5.54 7.408-7.548 6.207-2.593 24.114.256 30.965.028 14.088-.456 16.047-1.353 16.047-1.353z" fill="#D7DDE0"/>
        <path fill-rule="evenodd" clip-rule="evenodd" d="M19.165 85.113c-.743-4.145-.3-7.478-.5-9.543-.515-5.17-2.017-5.54-1.988-8.759.043-4.685 6.164-14.826 7.609-22.816.4-2.25.758-17.845 11.499-19.34 1.258-.172 4.39-5.513 8.51-7.008 6.78-2.464 16.39-1.752 19.809 2.507 3.29 4.102 15.418 17.29 18.207 22.232 2.789 4.942 1.63 7.377.73 13.131-.902 5.754.314 9.956 3.517 13.089 3.19 3.133 7.767 7.349 3.462 14.57-4.305 7.22-3.82 6.394-3.82 6.394-19.58-5.383-27.846-2.335-44.537-3.674-12.443-.969-22.44-.484-22.498-.783z" fill="#FEB7AA"/>
        <path fill-rule="evenodd" clip-rule="evenodd" d="M71.384 86.71c-5.335-.398-7.623-7.035-7.166-14.47 0 0 1.83-3.332 2.446-4.828.744-1.794 1.13-6.138 1.13-6.138s2.503-.84 2.903-1.381c1.445-1.952 2.603-5.954 1.874-8.36-.687-2.265-1.259-.741-2.846-2.108-3.462-2.963-2.79-4.13-5.564-7.762-2.06-2.706-1.66-7.92-3.619-10.696-5.349-5.199-15.59-2.55-21.453.156-3.476 1.61-4.563 3.703-5.793 7.506-.7 2.165-.658 4.586-.872 6.836-.115 1.14.086 3.062-.63 4.045-.543.74-2.216 1.154-2.774 1.908-1.087 1.467-.658 4.287-.157 6.025.257.897 1.687 3.005 2.545 3.86 1.373 1.381 2.317 1.31 2.317 1.31s1.774 5.284 2.96 7.192c1.188 1.909 4.02 5.099 4.02 5.099s.686 4.087.787 5.668c.271 3.96 4.233 2.977-1.674 5.484 4.105 6.893 12.372 22.374 13.359 22.545 0 0 4.133 5.626 6.693 3.062 4.09-4.045 10.627-22.303 11.514-24.952z" fill="#FEEEDF"/>
        <path d="M51.389 80.33c-3.132 0-6.68-1.41-9.998-3.96-2.889-2.221-5.249-5.084-6.164-7.462l-.129-.342c-1.616-4.201-2.431-6.31-3.36-10.739a.692.692 0 0 1 .543-.826.694.694 0 0 1 .83.541c.9 4.316 1.644 6.253 3.289 10.511l.129.342c1.63 4.244 8.595 10.525 14.846 10.525h.014c6.221 0 12.257-6.523 13.744-10.012 1.288-3.02 1.931-7.05 2.403-9.998.086-.584.186-1.125.272-1.61a.7.7 0 0 1 .815-.57.697.697 0 0 1 .572.812 63.878 63.878 0 0 0-.257 1.596c-.486 3.019-1.144 7.15-2.503 10.325-1.659 3.903-8.11 10.867-15.046 10.867 0 0 .014 0 0 0z" fill="#5B2714"/>
        <path d="M33.167 63.295a.666.666 0 0 1-.271-.057c-1.53-.627-3.018-2.222-4.048-4.4-.973-2.038-1.416-4.26-1.159-5.94.272-1.823 1.36-2.962 2.975-3.105a.704.704 0 0 1 .773.627.703.703 0 0 1-.63.769c-.972.086-1.53.712-1.702 1.923-.5 3.375 2.074 7.904 4.348 8.83.358.142.53.555.386.911a.748.748 0 0 1-.672.442zM68.709 61.726a.707.707 0 0 1-.7-.612c-.044-.385.228-.741.6-.784.8-.1 1.759-1.253 2.46-2.92 1.058-2.52 1.187-5.297.286-6.465-.4-.513-1.001-.712-1.83-.613a.707.707 0 0 1-.788-.612.685.685 0 0 1 .601-.783c1.688-.214 2.632.512 3.133 1.153 1.415 1.852.93 5.37-.115 7.848-.93 2.221-2.245 3.603-3.575 3.774-.015.014-.044.014-.072.014zM51.703 61.383a.617.617 0 0 1-.429-.157c-1.587-1.253-2.86-2.72-1.459-5.027l.115-.2c.772-1.267 1.444-2.35.343-5.64a.684.684 0 0 1 .444-.883.688.688 0 0 1 .886.442c1.302 3.902.358 5.455-.486 6.822l-.114.185c-.744 1.225-.487 1.937 1.13 3.205a.7.7 0 0 1 .114.982.7.7 0 0 1-.544.27z" fill="#5B2714"/>
        <path fill-rule="evenodd" clip-rule="evenodd" d="M40.862 52.24c-.043-1.098.587-2.01 1.402-2.052.815-.028 1.53.826 1.573 1.923.043 1.097-.586 2.008-1.402 2.05-.83.03-1.53-.825-1.573-1.922zM58.34 51.342c.057-1.096.772-1.951 1.601-1.894.816.043 1.43.968 1.374 2.065-.058 1.097-.773 1.951-1.602 1.894-.83-.042-1.445-.968-1.373-2.065z" fill="#5B2714"/>
        <path d="M37.658 47.154a.702.702 0 0 1-.586-.313.691.691 0 0 1 .2-.968c.844-.556 2.103-.641 3.562-.741 1.659-.114 3.532-.242 4.648-1.14.3-.242.744-.199.987.1.243.3.2.74-.1.983-1.46 1.182-3.576 1.325-5.435 1.453-1.216.085-2.346.156-2.89.512a.722.722 0 0 1-.386.114zM68.051 47.596h-.014c-3.504-.1-4.534-5.24-5.45-9.77-.457-2.264-.93-4.6-1.601-5.398-3.09-3.66-9.225-4.23-18.264-1.694a.72.72 0 0 1-.873-.485.716.716 0 0 1 .486-.868c9.612-2.692 16.248-1.966 19.723 2.15.901 1.068 1.36 3.361 1.903 6.025.772 3.83 1.73 8.588 4.104 8.645.387.014.701.327.687.726a.695.695 0 0 1-.7.67zM32.48 46.84a.7.7 0 0 1-.7-.699c0-3.802.443-6.864 1.373-9.342 1.087-2.906 2.875-5.028 5.306-6.296a.694.694 0 0 1 .944.3.688.688 0 0 1-.3.94c-2.145 1.125-3.662 2.933-4.648 5.54-.873 2.321-1.288 5.212-1.288 8.844a.683.683 0 0 1-.686.712z" fill="#5B2714"/>
        <path d="M87.488 87.404a.684.684 0 0 1-.472-.185.696.696 0 0 1-.057-.983c1.974-2.194 4.019-5.825 3.79-9.5-.143-2.435-1.273-4.586-3.347-6.395-6.164-5.383-5.85-8.146-4.906-16.35.115-1.025.244-2.179.372-3.418.758-7.377-2.932-11.023-6.85-14.883-1.717-1.695-3.49-3.447-4.95-5.554-4.619-6.694-10.626-13.502-20.137-13.274-3.876.1-7.494 1.48-10.755 4.144-2.46 1.994-3.79 4.002-3.805 4.03a.678.678 0 0 1-.572.314c-7.866.185-9.297 9.215-10.44 16.464-.13.798-.244 1.567-.373 2.293-.886 5.113-2.889 9.571-4.662 13.502-2.174 4.842-3.905 8.673-2.632 11.622 1.93 4.5 1.788 7.078 1.63 9.798-.042.883-.1 1.795-.085 2.806.014.684.3 1.51.858 2.435.2.328.086.77-.243.955a.699.699 0 0 1-.959-.242c-.686-1.14-1.03-2.194-1.058-3.134a37.183 37.183 0 0 1 .086-2.905c.143-2.664.272-4.97-1.53-9.172-1.516-3.518.414-7.79 2.646-12.747 1.73-3.86 3.69-8.218 4.548-13.16.128-.712.243-1.467.371-2.279 1.159-7.249 2.732-17.147 11.442-17.632.487-.669 1.774-2.321 3.848-4.016 2.417-1.98 6.407-4.358 11.656-4.486 4.62-.114 8.768 1.282 12.687 4.272 3.776 2.877 6.736 6.865 8.638 9.614 1.373 1.994 3.104 3.703 4.777 5.34 3.977 3.917 8.096 7.977 7.266 16.023a155.665 155.665 0 0 1-.386 3.433c-.93 8.075-1.173 10.24 4.434 15.14 2.374 2.064 3.661 4.543 3.833 7.362.243 4.088-1.988 8.119-4.148 10.511a.612.612 0 0 1-.515.257z" fill="#5B2714"/>
        <path d="M29.005 84.796a.731.731 0 0 1-.443-.157c-3.347-2.72-5.006-5.07-5.206-7.406-.186-2.165.872-4.088 2.002-6.11 1.488-2.678 3.175-5.711 2.76-10.312a.702.702 0 0 1 1.402-.113c.458 5.013-1.43 8.402-2.932 11.108-1.058 1.923-1.988 3.575-1.83 5.313.171 1.923 1.659 3.974 4.705 6.437.3.243.343.684.1.983a.757.757 0 0 1-.558.257zM81.538 87.063a.703.703 0 0 1-.4-.128.703.703 0 0 1-.186-.969c1.73-2.535 2.074-4.942 1.058-7.577-.93-2.42-2.846-4.685-4.863-7.092l-.371-.442c-2.818-3.361-2.532-9.215-2.36-12.704.057-1.082.114-2.322.014-2.62a.685.685 0 0 1 .2-.94.697.697 0 0 1 .973.185c.343.512.314 1.367.214 3.46-.157 3.29-.443 8.802 2.031 11.75l.372.442c2.002 2.393 4.076 4.856 5.092 7.491 1.173 3.062.786 5.954-1.202 8.873-.114.171-.343.27-.572.27zM41.677 84.09a.2.2 0 0 1-.2-.171l-1.001-8.688c-.014-.114.071-.214.172-.214.114-.014.2.071.214.171l1.001 8.688c.015.114-.071.213-.171.213h-.015zM71.384 87.406h-.086c-3.275-.385-5.535-2.222-6.694-5.484-.944-2.635-.986-5.625-1.03-7.819-.014-.726-.028-1.353-.071-1.808a.713.713 0 0 1 .63-.77c.386-.028.729.243.757.627.043.513.058 1.154.072 1.909.071 4.187.186 11.194 6.479 11.92a.705.705 0 0 1 .615.784.655.655 0 0 1-.672.64z" fill="#5B2714"/>
        <path d="M39.189 86.737a.698.698 0 0 1-.701-.626.714.714 0 0 1 .615-.784c6.293-.726 6.407-7.733 6.479-11.92.014-.755.029-1.41.071-1.909a.691.691 0 0 1 .758-.627c.387.043.673.37.63.77a20.972 20.972 0 0 0-.057 1.808c-.03 2.194-.086 5.184-1.03 7.82-1.159 3.26-3.419 5.098-6.694 5.482-.014-.014-.043-.014-.071-.014zM47.541 67.535a.702.702 0 0 1-.686-.555.702.702 0 0 1 .543-.826c1.187-.242 7.194-1.396 9.14-.086.314.214.4.655.186.969a.685.685 0 0 1-.973.185c-.272-.185-1.273-.584-4.505-.242-1.874.2-3.547.54-3.562.54-.057 0-.1.015-.143.015zM63.188 45.875a.666.666 0 0 1-.329-.086c-.572-.299-1.716-.285-2.917-.256-1.874.043-3.977.085-5.55-.969a.703.703 0 0 1-.186-.968.697.697 0 0 1 .973-.185c1.187.797 3.075.755 4.734.726 1.459-.028 2.732-.057 3.619.427a.703.703 0 0 1 .286.955.746.746 0 0 1-.63.356z" fill="#5B2714"/>
        <path fill-rule="evenodd" clip-rule="evenodd" d="M55.908 167.287s-5.506.755-8.61.314c-3.103-.427-6.279-1.011-7.766-3.817-1.473-2.806-3.747-4.942-4.076-5.811-.33-.854-1.702-2.321-3.39-3.831-1.673-1.496-1.073-2.35-4.863-1.894-3.79.455-7.952 2.221-9.64 2.221-1.687-.014-7.923-2.62-7.38-.754.544 1.865 2.189 4.415 2.189 4.415s-.3.712-2.489 2.15c-2.174 1.439 2.86 2.778 5.049 1.154l2.188-1.624s-3.719 7.591-3.39 8.446c.33.855 1.774.968 2.747.484.972-.484 2.33-4.187 2.86-5.383.53-1.182 1.302 4.685 2.474 6.138 1.173 1.439 2.232 3.019 3.733 2.848 1.502-.17 1.416.214 1.416.214s2.675 2.407 3.619 2.037c.944-.371.615-2.72-.086-3.774-.7-1.054 1.273-.812 1.645-.057.372.74.986 3.133 2.703 4.899 1.716 1.766 10.197 3.646 12.672 4.102 2.474.455 8.01 1.282 8.01 1.282l.385-13.759z" fill="#FEEEDF"/>
        <path d="M26.288 172.404c0 .014 0 .029-.014.057 0-.028 0-.043.014-.057zm4.577-2.991h.043c.686.015 1.559.371 1.873 1.04.1.199.2.456.315.769.386.997 1.03 2.678 2.26 3.959 1.416 1.467 9.039 3.29 12.3 3.903 1.873.356 5.578.911 7.194 1.153l.343-12.148c-1.673.185-5.52.555-7.98.213-3.462-.484-6.694-1.153-8.296-4.187-.844-1.609-2.002-3.033-2.832-4.059-.672-.826-1.101-1.367-1.287-1.823-.258-.655-1.445-1.994-3.204-3.56a8.459 8.459 0 0 1-.972-1.04c-.615-.741-.83-.997-3.319-.684-1.945.242-4.004.826-5.806 1.353-1.688.485-3.032.869-3.92.869-.672 0-1.758-.313-3.031-.655-1.03-.285-2.847-.783-3.59-.769.572 1.737 2.016 4.002 2.03 4.016.13.2.144.442.058.655-.086.214-.558 1.011-2.746 2.45a.504.504 0 0 0-.158.128c.158.114.501.285 1.102.399 1.044.185 2.46.114 3.29-.513l2.188-1.623a.691.691 0 0 1 .872.028.698.698 0 0 1 .186.84c-1.588 3.219-3.275 7.107-3.332 7.933.042.071.128.128.257.171.4.157 1.03.114 1.502-.114.572-.299 1.759-3.176 2.145-4.13.143-.356.272-.669.386-.897.258-.57.715-.584.858-.57.73.057.944.812 1.488 2.848.357 1.311.844 3.105 1.316 3.703.114.157.243.3.357.456.916 1.154 1.788 2.251 2.746 2.137 1.059-.129 1.66-.029 1.974.341.043.043.086.1.114.157 1.088.954 2.346 1.766 2.76 1.78.244-.27.172-1.837-.414-2.72-.4-.598-.272-1.04-.143-1.253.172-.356.558-.556 1.073-.556zm24.657 12.334h-.1c-.057-.014-5.578-.826-8.038-1.282-.114-.028-10.855-2.051-13.044-4.301-1.43-1.481-2.145-3.318-2.56-4.429-.1-.271-.2-.513-.257-.655a.655.655 0 0 0-.143-.114c.429.94.672 2.307.372 3.247-.2.655-.601.926-.902 1.04-.643.256-1.516-.043-2.831-.955a15.985 15.985 0 0 1-1.516-1.21c-.03-.014-.043-.043-.058-.071-.128-.015-.372-.015-.8.028-1.745.214-2.89-1.253-4.02-2.663-.114-.143-.229-.299-.357-.442-.672-.826-1.159-2.62-1.573-4.215-.072-.257-.143-.542-.23-.826-1.072 2.577-1.844 4.059-2.674 4.472-.83.398-1.86.47-2.632.17-.529-.199-.9-.555-1.087-1.025-.128-.342-.314-.812 1.588-5.084.215-.47.415-.94.615-1.368-1.602 1.125-4.19.94-5.463.371-.902-.413-1.13-.94-1.159-1.325-.029-.37.1-.897.844-1.396 1.173-.769 1.745-1.31 2.017-1.595-.501-.812-1.56-2.677-2.003-4.173-.186-.626.072-.997.243-1.168.744-.74 2.432-.327 5.135.428 1.073.299 2.188.598 2.675.612h.014c.686 0 2.06-.399 3.518-.812 1.86-.541 3.962-1.139 6.021-1.396 2.975-.37 3.619.029 4.577 1.183.215.256.472.569.83.883 1.387 1.239 3.132 2.962 3.575 4.101.1.243.587.855 1.059 1.439.872 1.082 2.074 2.563 2.989 4.287 1.287 2.435 4.033 3.005 7.237 3.446 2.975.413 8.367-.313 8.424-.313.2-.028.415.029.572.171a.671.671 0 0 1 .23.541l-.387 13.758c0 .2-.1.385-.257.513a.858.858 0 0 1-.444.128z" fill="#5B2714"/>
        <path d="M19.465 163.914a.707.707 0 0 1-.7-.612c-.1-.755.143-1.467.686-2.094 1.23-1.396 4.162-2.407 8.725-3.005 3.304-.427 6.236-.47 6.35-.484h.014c.386 0 .701.313.701.683 0 .385-.3.698-.7.712-3.219.043-12.015.684-14.046 3.006-.286.327-.4.641-.343 1.011a.706.706 0 0 1-.615.783h-.072zM26.602 173.116c-.2 0-.4-.086-.543-.257-.343-.427-3.375-4.158-2.76-6.451.186-.698.672-1.211 1.416-1.482 3.032-1.125 8.796-3.332 8.853-3.347a.715.715 0 0 1 .915.399.71.71 0 0 1-.4.912c-.057.028-5.821 2.236-8.868 3.361-.4.142-.5.356-.543.527-.315 1.139 1.273 3.731 2.488 5.198.243.299.2.741-.1.983-.143.1-.3.157-.457.157z" fill="#5B2714"/>
        <path d="M28.905 171.151a.698.698 0 0 1-.315-1.325c.03-.014.873-.427 1.803-.769 1.53-.57 2.402-.669 2.917-.299.315.228.4.655.172.968a.721.721 0 0 1-.93.214c-.414-.057-1.96.47-3.36 1.154a.861.861 0 0 1-.287.057zM12.372 158.842c-.2 0-.4-.086-.544-.257a.695.695 0 0 1 .086-.982c.486-.399 4.748-3.888 7.008-4.031a.702.702 0 0 1 .744.655.701.701 0 0 1-.658.741c-1.359.085-4.52 2.321-6.193 3.703a.64.64 0 0 1-.443.171zM17.12 160.512h-.071a.702.702 0 0 1-.63-.769c.143-1.452 1.53-2.734 4.02-3.731 1.158-.456 3.947-1.111 6.207-1.553 1.773-.356 4.891-.897 5.878-.697.386.085.63.455.543.826a.71.71 0 0 1-.83.541c-1.1-.228-9.096 1.324-11.27 2.179-1.916.755-3.06 1.695-3.132 2.564a.723.723 0 0 1-.715.64zM24.958 165.782a.234.234 0 0 1-.129-.042c-.086-.071-.086-.2-.014-.285 1.501-1.738 2.66-2.179 3.718-1.439.086.057.115.186.043.271-.071.086-.186.114-.271.043-.616-.427-1.474-.598-3.19 1.367-.057.057-.1.085-.157.085z" fill="#5B2714"/>
        <path fill-rule="evenodd" clip-rule="evenodd" d="M63.66 164.965s-13.816-1.567-14.974 1.31c-1.159 2.863-.801 11.622.686 13.815 1.487 2.179-1.559 2.535 6.222 2.92 7.766.384 8.066-18.045 8.066-18.045z" fill="#D7DDE0"/>
        <path d="M14.875 196.273h-.043a.701.701 0 0 1-.658-.741c.257-3.76 2.331-8.702 6.178-14.712 2.832-4.43 5.65-7.833 5.678-7.876a.705.705 0 0 1 .987-.1c.3.242.344.684.1.983-.114.128-10.955 13.345-11.542 21.79a.703.703 0 0 1-.7.656zM98.258 200.942a.7.7 0 0 1-.701-.641c-.014-.128-1.116-12.961-1.101-19.783a.701.701 0 0 1 1.401 0c-.014 6.765 1.087 19.526 1.087 19.654a.702.702 0 0 1-.643.755c0 .015-.029.015-.043.015z" fill="#5B2714"/>
        <path d="M60.6 184.435c-.601 0-1.173 0-1.745-.014-7.938-.143-8.668-1.14-8.94-1.51-1.444-1.966-2.173-6.124-2.402-9.357-.1-1.581-.33-6.894 1.244-8.66.4-.441 1.459-1.637 20.796-4.728 9.725-1.552 20.266-2.962 23.527-3.29 6.236-.627 14.403 2.663 14.76 2.791.358.143.53.556.387.912a.708.708 0 0 1-.916.385c-.086-.029-8.195-3.29-14.088-2.707-3.218.314-13.659 1.71-23.327 3.262-5.564.883-10.098 1.695-13.502 2.421-5.663 1.196-6.478 1.78-6.593 1.88-1.645 1.837-1.13 12.989 1.23 16.236.315.285 2.374.855 8.067.94 4.805.072 10.812-.228 16.462-.812 10.097-1.053 21.34-2.976 30.078-5.155 4.362-1.083 8.024-2.208 10.584-3.262 3.604-1.481 4.09-2.407 4.162-2.649.958-3.802-1.731-17.09-4.091-28.812-1.359-6.694-2.631-13.031-3.289-17.66-1.774-12.605-6.98-23.172-10.913-28.385-2.875-3.817-23.242-7.72-30.836-8.887a.696.696 0 0 1-.587-.798.706.706 0 0 1 .801-.584c.072.014 7.009 1.097 14.317 2.763 9.94 2.265 15.804 4.515 17.435 6.68 4.033 5.355 9.368 16.165 11.184 29.04.644 4.6 1.917 10.909 3.261 17.575 2.517 12.448 5.121 25.308 4.076 29.424-.3 1.182-1.887 2.336-4.991 3.604-2.66 1.082-6.279 2.207-10.784 3.318-8.925 2.222-19.966 4.102-30.278 5.184-5.106.57-10.513.855-15.09.855z" fill="#5B2714"/>
        <path d="M96.384 156.448a.799.799 0 0 1-.257-.043.693.693 0 0 1-.4-.897c2.831-7.349-1.645-22.275-4.606-32.159-1.673-5.597-2.546-8.588-2.331-9.856.629-3.731 2.731-7.961 2.831-8.146a.711.711 0 0 1 .945-.314.706.706 0 0 1 .314.94c-.014.043-2.102 4.23-2.703 7.748-.172 1.011 1.03 5.013 2.288 9.229 3.018 10.069 7.581 25.266 4.577 33.056a.699.699 0 0 1-.658.442zM19.537 157.06a.712.712 0 0 1-.63-.385c-1.258-2.506-4.604-14.441-7.45-26.59-1.66-7.05-5.407-23.927-4.563-28.527 2.46-13.473 8.267-16.535 16.233-17.02 3.29-.199 7.18.114 12.1.499 1.473.114 2.99.242 4.62.356a.694.694 0 0 1 .643.755.715.715 0 0 1-.758.655c-1.63-.114-3.146-.242-4.62-.356-4.862-.385-8.71-.684-11.9-.499-7.508.442-12.628 3.262-14.945 15.866-.544 3.005 1.158 13.459 4.548 27.958 2.789 11.864 6.15 23.898 7.351 26.291a.705.705 0 0 1-.314.94c-.1.029-.2.057-.315.057z" fill="#5B2714"/>
        <path d="M34.412 118.555a.699.699 0 0 1-.4-.128.702.702 0 0 1-.187-.968c1.259-1.838.53-4.358-.3-6.153a18.887 18.887 0 0 0-2.274-3.674.698.698 0 0 1 .1-.983c.3-.242.744-.2.987.099.229.285 5.692 7.036 2.631 11.508a.655.655 0 0 1-.557.299zM57.925 113.414c-.172 0-.343-.014-.5-.057-2.318-.555-6.008-5.17-11.242-14.071-3.776-6.438-6.994-12.804-7.023-12.875a.705.705 0 0 1 .315-.94.711.711 0 0 1 .944.313c.028.057 3.218 6.395 6.98 12.79 6.507 11.066 9.282 13.16 10.354 13.416.372.085 1.474-.043 3.533-3.233 1.33-2.065 2.832-5.056 4.448-8.873 2.775-6.537 4.963-13.317 4.992-13.388a.707.707 0 0 1 .886-.456.703.703 0 0 1 .458.884c-.014.07-2.231 6.907-5.02 13.501-3.762 8.83-6.68 12.989-9.125 12.989z" fill="#5B2714"/>
        <path fill-rule="evenodd" clip-rule="evenodd" d="M49.458 100.152s4.605-9.927 3.904-10.311c-.686-.385-11.198-4.97-12.657-6.723-1.46-1.751-6.436-8.018-6.98-9.998-.2-.755-.315-1.723-.372-2.677-.1-1.538-.83-2.493-1.015-3.746-.272-1.809.6-1.695.515-3.176-.015-.342-.029-.67-.058-.954-.071-1.524-.071-4.045 1.53-3.66.573.142 1.116 1.01 1.56 1.253 0 0 .63-.755 1.888.2.615.455 2.603 4.585 4.991 6.11 2.374 1.523 9.283 5.568 11.428 6.565 2.145.997 4.992 4.657 7.752 7.79 2.76 3.134 4.22 4.586 3.218 9.087-1.001 4.5-5.135 18.558-5.135 18.558l-10.57-8.318z" fill="#FEEEDF"/>
        <path d="M37.372 60.915s0 .014 0 0c0 .014 0 0 0 0zm12.944 39.023 9.325 7.335c.959-3.29 4.005-13.786 4.835-17.518.886-4.002-.272-5.312-2.79-8.16l-.271-.314-1.602-1.851c-2.117-2.479-4.32-5.028-5.907-5.769-2.245-1.04-9.268-5.17-11.513-6.608-1.731-1.11-3.218-3.418-4.205-4.942-.315-.484-.701-1.082-.83-1.21-.515-.385-.815-.357-.93-.285-.2.284-.543.313-.858.156-.286-.156-.515-.399-.772-.655-.172-.17-.486-.498-.615-.527-.2-.043-.258 0-.286.029-.157.128-.5.669-.386 2.92.014.284.028.612.057.953.043.84-.172 1.31-.343 1.681-.172.37-.3.641-.172 1.424.072.47.243.912.415 1.396.257.67.543 1.439.6 2.407.072 1.11.187 1.937.344 2.535.458 1.68 4.805 7.292 6.836 9.742 1.073 1.296 8.568 4.742 11.028 5.882.886.413 1.272.584 1.43.67.7.384.443 1.324 0 2.606-.3.883-.773 2.093-1.402 3.574a117.634 117.634 0 0 1-1.988 4.53zm9.726 9.244a.661.661 0 0 1-.43-.157l-10.583-8.317a.685.685 0 0 1-.2-.84c1.802-3.889 3.647-8.29 3.89-9.557-.258-.114-.615-.285-1.016-.47-5.32-2.45-10.397-4.914-11.513-6.267-.057-.071-6.45-7.79-7.123-10.269-.186-.698-.314-1.609-.386-2.805-.043-.77-.271-1.368-.515-2.008-.2-.527-.4-1.054-.486-1.681-.172-1.196.086-1.766.286-2.208.143-.299.243-.527.215-1.025-.015-.342-.029-.67-.043-.954-.086-1.581-.043-3.305.887-4.074.285-.242.772-.484 1.501-.313.544.128.958.556 1.316.926l.143.142c.53-.213 1.316-.213 2.26.499.286.213.558.64 1.158 1.566.916 1.425 2.303 3.561 3.776 4.515 2.474 1.595 9.282 5.569 11.342 6.523 1.874.869 4.062 3.418 6.393 6.124.53.613 1.059 1.24 1.588 1.838l.272.313c2.588 2.92 4.147 4.686 3.103 9.386-.987 4.472-4.977 18.03-5.149 18.6a.716.716 0 0 1-.457.47.728.728 0 0 1-.23.043z" fill="#5B2714"/>
        <path fill-rule="evenodd" clip-rule="evenodd" d="M48.685 98.924s-28.833 35.136-29.448 48.567c-.615 13.444 3.375 14.655 5.52 17.717 2.146 3.062 18.408-.612 25.774-22.603 7.351-21.99 11.956-36.645 11.956-36.645s-6.436-9.784-13.802-7.035z" fill="#D7DDE0"/>
        <path d="M49.115 99.525c-2.046 2.507-28.591 35.392-29.163 48.011-.486 10.696 1.902 13.331 4.019 15.638.486.541.958 1.054 1.373 1.638.329.456 1.487.812 3.347.541 5.263-.755 15.647-6.452 21.182-22.958C56.552 122.441 61 108.37 61.729 106.077c-1.087-1.496-6.593-8.63-12.614-6.552zM27.446 166.85c-1.544 0-2.703-.428-3.26-1.239-.372-.527-.802-.997-1.26-1.51-2.187-2.393-4.905-5.37-4.39-16.649.257-5.712 5.335-15.695 15.075-29.695 7.223-10.369 14.46-19.199 14.531-19.284.072-.1.186-.171.3-.214 3.261-1.21 6.837-.313 10.355 2.606 2.575 2.137 4.205 4.6 4.277 4.7a.732.732 0 0 1 .086.598c-.043.143-4.692 14.926-11.971 36.674-2.46 7.349-6.236 13.516-10.928 17.831-5.134 4.743-9.668 5.826-11.384 6.082-.5.071-.987.1-1.43.1zM45.081 74.117a.67.67 0 0 1-.4-.128c-.586-.413-5.792-4.145-6.65-5.74-.844-1.567-2.604-5.84-3.362-8.389a.696.696 0 0 1 .472-.868.7.7 0 0 1 .873.47c.743 2.478 2.431 6.608 3.246 8.118.53.982 4.105 3.745 6.236 5.255.315.228.386.67.157.983a.7.7 0 0 1-.572.299zM39.632 78.547c-.2 0-.4-.085-.543-.256 0 0-1.574-1.909-3.147-3.831a344.894 344.894 0 0 1-2.16-2.65c-1.13-1.38-1.13-1.38-1.144-1.623a.713.713 0 0 1 1.302-.427c.3.398 3.876 4.757 6.236 7.634.243.299.2.74-.1.982a.603.603 0 0 1-.444.171zM40.934 75.956a.735.735 0 0 1-.487-.2c-.9-.868-5.463-5.255-5.864-6.821-.128-.499-.5-1.481-.9-2.521-.93-2.464-1.588-4.273-1.603-5.17 0-.385.3-.698.687-.712.386-.014.715.299.715.698.014.726.872 3.019 1.502 4.7.429 1.125.786 2.093.944 2.663.2.783 2.946 3.746 5.478 6.167.286.27.286.712.028.997a.716.716 0 0 1-.5.2z" fill="#5B2714"/>
    </g>
    <defs>
        <clipPath id="6byxbe6bga">
            <path fill="#fff" d="M0 0h122v206H0z"/>
        </clipPath>
    </defs>
</svg>
