<svg width="36" height="36" viewBox="0 0 36 36" fill="none" xmlns="http://www.w3.org/2000/svg">
    <path fill-rule="evenodd" clip-rule="evenodd" d="M18 5.307A12.694 12.694 0 0 0 5.308 17.996 12.687 12.687 0 0 0 18 30.685c.035 0 .07.001.105.004a.846.846 0 0 0 .72-1.392 4.23 4.23 0 0 1 2.26-7.84h3.838c1.57 0 3.054-.557 4.129-1.512 1.07-.95 1.64-2.21 1.64-3.487 0-6.034-5.552-11.15-12.692-11.15zM7.393 7.392A15.002 15.002 0 0 1 18 3c8.152 0 15 5.902 15 13.458 0 1.983-.888 3.855-2.415 5.212-1.522 1.352-3.561 2.093-5.662 2.093h-3.865a1.923 1.923 0 0 0-.961 3.605c.08.045.156.1.224.162a3.153 3.153 0 0 1-2.369 5.462A15.002 15.002 0 0 1 3 17.996c0-3.977 1.58-7.792 4.393-10.604z" fill="#fff"/>
    <path fill-rule="evenodd" clip-rule="evenodd" d="M10.712 13.786a2.693 2.693 0 1 1 3.807 3.808 2.693 2.693 0 0 1-3.807-3.808zM16.866 9.171a2.693 2.693 0 1 1 3.807 3.81 2.693 2.693 0 0 1-3.807-3.81zM23.02 13.786a2.693 2.693 0 1 1 3.807 3.808 2.693 2.693 0 0 1-3.808-3.808z" fill="#fff"/>
</svg>
