<svg width="36" height="36" viewBox="0 0 36 36" fill="none" xmlns="http://www.w3.org/2000/svg">
    <path fill-rule="evenodd" clip-rule="evenodd" d="M4.542 9.729c.852 0 1.542.69 1.542 1.542v13.458a1.542 1.542 0 0 1-3.084 0V11.271c0-.852.69-1.542 1.542-1.542zM31.458 9.729c.852 0 1.542.69 1.542 1.542v13.458a1.542 1.542 0 0 1-3.084 0V11.271c0-.852.69-1.542 1.542-1.542zM9.729 4.542c0-.852.69-1.542 1.542-1.542h13.458a1.542 1.542 0 0 1 0 3.084H11.271c-.852 0-1.542-.69-1.542-1.542zM9.729 31.458c0-.852.69-1.542 1.542-1.542h13.458a1.542 1.542 0 0 1 0 3.084H11.271c-.852 0-1.542-.69-1.542-1.542z" fill="#fff"/>
</svg>
