<svg width="14" height="16" viewBox="0 0 14 16" fill="none" xmlns="http://www.w3.org/2000/svg">
    <g clip-path="url(#1mc2dqzwta)" fill="#fff">
        <path d="M5.005 10.285c-.422-.85-.794-1.605-1.171-2.358-.584-1.163-1.176-2.321-1.752-3.49-.389-.787-.194-1.632.455-2.082.608-.421 1.36-.195 1.763.563.382.719.738 1.456 1.097 2.191.122.251.204.334.42.074.391-.472.887-.545 1.405-.302.173.08.274.092.411-.088.429-.564.959-.746 1.57-.43.18.093.295.025.434-.103.65-.594 1.352-.484 1.774.329.74 1.42 1.483 2.844 2.158 4.306.875 1.9.354 4.15-1.011 5.52-.731.731-1.556 1.3-2.518 1.496-.948.194-1.878.083-2.724-.524-1.568-1.126-3.24-2.038-4.874-3.03-.536-.324-.96-.737-.905-1.515.065-.908.808-1.433 1.652-1.17.573.178 1.14.383 1.816.613zm4.196 4.904c.676.004 1.3-.185 1.995-.618 1.783-1.11 2.787-3.475 1.573-5.74-.658-1.227-1.26-2.493-1.885-3.744-.157-.316-.367-.467-.677-.303-.23.122-.284.48-.122.829.134.29.289.567.426.855.113.238.19.513-.039.693-.257.205-.412-.046-.53-.27-.244-.464-.47-.941-.716-1.405-.263-.499-.528-.602-.884-.37-.314.205-.378.615-.163 1.088.133.29.276.576.408.866.12.263.172.55-.104.704-.256.143-.373-.127-.48-.333-.245-.48-.474-.97-.721-1.45-.212-.407-.603-.536-.922-.322-.244.164-.321.62-.155 1 .122.28.264.55.4.822.123.24.212.497-.045.672-.262.179-.413-.052-.532-.284-.34-.665-.674-1.333-1.012-2-.432-.85-.852-1.71-1.301-2.548-.23-.428-.535-.495-.849-.256-.336.254-.393.562-.175.995.766 1.536 1.537 3.069 2.304 4.605.34.68.683 1.36 1.003 2.053.172.37.02.612-.345.593a1.353 1.353 0 0 1-.36-.09c-.686-.241-1.37-.492-2.058-.728-.2-.068-.408-.117-.623-.055-.169.048-.309.13-.34.344-.031.215-.046.438.136.584.141.114.293.213.445.31 1.575.993 3.215 1.85 4.737 2.957.515.376 1.069.507 1.61.546zM1.023 3.41c-.222-.074-.51-.148-.784-.267a.383.383 0 0 1-.23-.438c.048-.22.207-.313.4-.3.324.02.622.16.916.3.134.064.21.215.158.389-.062.202-.195.32-.46.316zM.283 5.36a.453.453 0 0 1 .204-.338c.23-.167.465-.322.7-.478.16-.107.314-.091.42.096.098.172.094.36-.039.507-.243.27-.542.445-.847.596C.547 5.83.283 5.58.283 5.36z"/>
        <path d="M6.107 1.985c-.02.043-.04.134-.09.187a2.846 2.846 0 0 1-.876.628c-.156.07-.298-.01-.38-.177-.083-.169-.064-.356.072-.464.265-.21.537-.41.825-.57.189-.106.448.123.45.396zM4.312.415c-.128.338-.116.727-.276 1.058-.083.175-.211.253-.369.208a.348.348 0 0 1-.25-.416c.076-.357.118-.732.274-1.063.083-.176.219-.238.377-.183.157.055.232.202.244.396zM2.446 1.499c-.006.194-.049.338-.193.409-.149.072-.268 0-.362-.13a3.123 3.123 0 0 1-.429-.85C1.398.74 1.38.516 1.564.392c.199-.134.367-.015.473.182.16.301.359.585.41.925z"/>
    </g>
    <defs>
        <clipPath id="1mc2dqzwta">
            <path fill="#fff" d="M0 0h14v16H0z"/>
        </clipPath>
    </defs>
</svg>
