<svg width="13" height="21" viewBox="0 0 13 21" fill="none" xmlns="http://www.w3.org/2000/svg">
    <g clip-path="url(#k5zsqg5gea)">
        <path d="M11.56 20c-.593.01-.92-.277-1.233-.575C7.578 16.82 4.84 14.2 2.09 11.6c-.741-.7-.752-1.386-.032-2.077 2.792-2.68 5.588-5.357 8.4-8.018.402-.383.921-.791 1.483-.232.609.605.09 1.114-.328 1.517C9.262 5.062 6.92 7.345 4.5 9.542c-.916.832-.816 1.381.021 2.152 2.473 2.273 4.899 4.591 7.33 6.9.265.252.651.514.487.957-.143.373-.54.383-.778.449z" fill="#000" stroke="#000"/>
    </g>
    <defs>
        <clipPath id="k5zsqg5gea">
            <path fill="#fff" transform="rotate(-180 6.474 10.5)" d="M0 0h12v21H0z"/>
        </clipPath>
    </defs>
</svg>
