<svg width="259" height="408" viewBox="0 0 259 408" fill="none" xmlns="http://www.w3.org/2000/svg">
<path d="M86.2013 407.689L-0.000455815 407.447L0.0341298 195.864C0.345458 135.493 23.4179 105.731 79.9056 102.947L79.9229 211.825C80.2515 275.655 106.039 305.278 169.878 304.95C172.974 304.933 175.983 304.846 178.906 304.69L178.906 310.121C179.269 373.916 150.04 407.361 86.2013 407.689Z" fill="#31D8D1"/>
<path d="M178.906 304.691L178.94 196.815C179.269 132.986 153.861 103.068 89.971 102.722C86.4946 102.705 83.1393 102.774 79.8877 102.947L79.8704 0.224805L166.089 -4.05391e-06C229.928 0.328572 259.158 33.7565 258.794 97.5515L258.829 210.857C259.14 271.609 236.154 301.647 178.906 304.691Z" fill="#FFD502"/>
<path d="M169.877 304.951C106.038 305.279 80.2506 275.656 79.922 211.826L79.9047 102.948C83.1563 102.775 86.5116 102.705 89.9881 102.723C153.878 103.051 179.286 132.969 178.957 196.816L178.922 304.691C175.982 304.847 172.973 304.933 169.877 304.951Z" fill="#0AB378"/>
</svg>
