<svg width="161" height="187" viewBox="0 0 161 187" fill="none" xmlns="http://www.w3.org/2000/svg">
<path d="M108.382 0.341874L162.227 0.493089L162.205 132.656C162.011 170.366 147.599 188.956 112.315 190.695L112.304 122.686C112.098 82.8154 95.9904 64.3115 56.1146 64.5168C54.1807 64.5276 52.3009 64.5816 50.4751 64.6788L50.4751 61.2869C50.2482 21.4382 68.5062 0.547104 108.382 0.341874Z" fill="#31D8D1"/>
<path d="M50.4758 64.6789L50.4542 132.062C50.249 171.932 66.1194 190.62 106.028 190.836C108.199 190.847 110.295 190.804 112.326 190.695L112.337 254.86L58.4812 255C18.6054 254.795 0.347462 233.914 0.574336 194.066L0.55273 123.291C0.358267 85.3432 14.7162 66.5801 50.4758 64.6789Z" fill="#FFD502"/>
<path d="M56.1157 64.5163C95.9915 64.3111 112.1 82.815 112.305 122.685L112.316 190.695C110.285 190.803 108.189 190.846 106.017 190.835C66.109 190.63 50.2386 171.943 50.4439 132.061L50.4655 64.6784C52.3021 64.5811 54.1819 64.5271 56.1157 64.5163Z" fill="#0AB378"/>
</svg>
