<svg width="20" height="20" viewBox="0 0 20 20" fill="none" xmlns="http://www.w3.org/2000/svg">
    <path d="M17.648 5.026a8.093 8.093 0 0 0-1.784-2.583A8.278 8.278 0 0 0 13.226.707 8.372 8.372 0 0 0 10 .068a8.412 8.412 0 0 0-3.225.637A8.315 8.315 0 0 0 4.137 2.44a8.116 8.116 0 0 0-1.784 2.583 7.927 7.927 0 0 0-.656 3.17c0 1.575.377 3.144 1.118 4.658.596 1.216 1.429 2.402 2.478 3.529 1.792 1.924 3.672 3.1 4.205 3.415a.98.98 0 0 0 1 0c.534-.315 2.413-1.491 4.206-3.415 1.049-1.125 1.881-2.313 2.477-3.53.746-1.51 1.123-3.077 1.123-4.655a7.929 7.929 0 0 0-.656-3.17zM10 18.22c-1.47-.935-6.696-4.638-6.696-10.024 0-1.74.694-3.373 1.955-4.605A6.747 6.747 0 0 1 10 1.675c1.793 0 3.476.681 4.741 1.918a6.385 6.385 0 0 1 1.956 4.603c0 5.386-5.226 9.089-6.697 10.024zm0-13.777a3.929 3.929 0 1 0 0 7.858 3.929 3.929 0 0 0 0-7.858zm1.768 5.697a2.493 2.493 0 0 1-1.768.732 2.491 2.491 0 0 1-1.768-.732A2.491 2.491 0 0 1 7.5 8.372c0-.667.262-1.295.732-1.768A2.482 2.482 0 0 1 10 5.872c.668 0 1.295.259 1.768.732.473.473.732 1.1.732 1.768 0 .667-.259 1.295-.732 1.768z" fill="#999"/>
</svg>
