<svg width="20" height="20" viewBox="0 0 20 20" fill="none" xmlns="http://www.w3.org/2000/svg">
    <path d="M17.734 15.613a8.346 8.346 0 0 0-1.8-2.667 8.383 8.383 0 0 0-2.667-1.8l-.027-.01A5.535 5.535 0 0 0 10 1.114a5.535 5.535 0 0 0-3.24 10.024l-.028.011a8.313 8.313 0 0 0-2.667 1.8 8.386 8.386 0 0 0-1.799 2.667 8.297 8.297 0 0 0-.659 3.082.179.179 0 0 0 .18.183h1.338a.178.178 0 0 0 .179-.174 6.655 6.655 0 0 1 1.96-4.56 6.652 6.652 0 0 1 4.736-1.962c1.79 0 3.471.696 4.737 1.962a6.655 6.655 0 0 1 1.96 4.56c.002.098.08.174.178.174h1.34a.177.177 0 0 0 .166-.113.179.179 0 0 0 .012-.07 8.317 8.317 0 0 0-.658-3.085zm-7.735-5.125c-1.024 0-1.988-.4-2.714-1.125A3.814 3.814 0 0 1 6.16 6.65c0-1.025.4-1.989 1.125-2.714A3.814 3.814 0 0 1 10 2.81c1.025 0 1.99.4 2.715 1.125a3.814 3.814 0 0 1 1.125 2.714c0 1.025-.4 1.989-1.125 2.714a3.814 3.814 0 0 1-2.715 1.125z" fill="#999"/>
</svg>
