<svg width="18" height="18" viewBox="0 0 18 18" fill="none"
    xmlns="http://www.w3.org/2000/svg">
    <path fill-rule="evenodd" clip-rule="evenodd" d="M10.8581 0C11.2429 0 11.5549 0.309957 11.5549 0.692308V4.38462C11.5549 4.44582 11.5794 4.50452 11.6229 4.54779C11.6665 4.59107 11.7255 4.61539 11.7871 4.61539H15.5033C15.8881 4.61539 16.2 4.92534 16.2 5.30769C16.2 5.69004 15.8881 6 15.5033 6H11.7871C11.356 6 10.9424 5.82981 10.6375 5.52687C10.3326 5.22392 10.1613 4.81304 10.1613 4.38462V0.692308C10.1613 0.309957 10.4733 0 10.8581 0Z" fill="#5EA88E"/>
    <path fill-rule="evenodd" clip-rule="evenodd" d="M4.35489 1.38462C4.04689 1.38462 3.75152 1.50618 3.53373 1.72257C3.31595 1.93896 3.1936 2.23244 3.1936 2.53846V15.4615C3.1936 15.7676 3.31595 16.061 3.53373 16.2774C3.75152 16.4938 4.04689 16.6154 4.35489 16.6154H13.6452C13.9532 16.6154 14.2486 16.4938 14.4664 16.2774C14.6842 16.061 14.8065 15.7676 14.8065 15.4615V5.59446L10.5695 1.38462H4.35489ZM2.54834 0.743498C3.02747 0.267444 3.6773 0 4.35489 0H10.8581C11.0429 0 11.2201 0.0729393 11.3508 0.202772L15.996 4.81816C16.1266 4.94799 16.2 5.12408 16.2 5.30769V15.4615C16.2 16.1348 15.9309 16.7804 15.4518 17.2565C14.9726 17.7326 14.3228 18 13.6452 18H4.35489C3.6773 18 3.02747 17.7326 2.54834 17.2565C2.06922 16.7804 1.80005 16.1348 1.80005 15.4615V2.53846C1.80005 1.86522 2.06922 1.21955 2.54834 0.743498Z" fill="#5EA88E"/>
    <path fill-rule="evenodd" clip-rule="evenodd" d="M5.51618 13.6154C5.51618 13.233 5.82813 12.9231 6.21295 12.9231H11.7871C12.172 12.9231 12.4839 13.233 12.4839 13.6154C12.4839 13.9977 12.172 14.3077 11.7871 14.3077H6.21295C5.82813 14.3077 5.51618 13.9977 5.51618 13.6154Z" fill="#5EA88E"/>
    <path fill-rule="evenodd" clip-rule="evenodd" d="M5.51618 9.92308C5.51618 9.54073 5.82813 9.23077 6.21295 9.23077H11.7871C12.172 9.23077 12.4839 9.54073 12.4839 9.92308C12.4839 10.3054 12.172 10.6154 11.7871 10.6154H6.21295C5.82813 10.6154 5.51618 10.3054 5.51618 9.92308Z" fill="#5EA88E"/>
</svg>
