<svg width="16" height="16" viewBox="0 0 16 16" fill="none" xmlns="http://www.w3.org/2000/svg">
<g id="Verified">
<g clip-path="url(#clip0_115_1666)">
<path id="Shape" fill-rule="evenodd" clip-rule="evenodd" d="M8.00013 0.888916C11.9276 0.888916 15.1111 4.07267 15.1111 8.00013C15.1111 11.9276 11.9276 15.1111 8.00013 15.1111C4.07267 15.1111 0.888916 11.9276 0.888916 8.00013C0.888916 4.07267 4.07267 0.888916 8.00013 0.888916ZM4.87597 7.28192L6.95928 9.36524L11.0962 4.77957C11.4137 4.42769 11.9562 4.39945 12.3084 4.71648C12.6602 5.03301 12.6887 5.57475 12.3722 5.92648L7.02194 11.8574L3.66131 8.49658C3.3259 8.16115 3.32591 7.61734 3.66133 7.28192C3.99674 6.94651 4.54055 6.94651 4.87597 7.28192Z" fill="#5EA88E"/>
<path id="Shape_2" d="M6.95925 9.36532L4.87594 7.282C4.54052 6.94659 3.99671 6.94659 3.6613 7.282C3.32588 7.61742 3.32587 8.16123 3.66128 8.49666L7.02191 11.8575L12.3721 5.92656C12.6887 5.57483 12.6601 5.03309 12.3084 4.71655C11.9561 4.39953 11.4136 4.42777 11.0962 4.77965L6.95925 9.36532Z" fill="white"/>
</g>
<rect x="0.5" y="0.5" width="15" height="15" rx="7.5" stroke="white"/>
</g>
<defs>
<clipPath id="clip0_115_1666">
<rect width="16" height="16" rx="8" fill="white"/>
</clipPath>
</defs>
</svg>
