<svg width="20" height="20" viewBox="0 0 20 20" fill="none" xmlns="http://www.w3.org/2000/svg">
    <path d="M18.875 17.648 13.08 11.85a6.637 6.637 0 0 0 1.386-4.08c0-1.79-.699-3.47-1.962-4.735a6.647 6.647 0 0 0-4.735-1.962 6.656 6.656 0 0 0-4.734 1.962 6.643 6.643 0 0 0-1.962 4.735c0 1.788.698 3.47 1.962 4.734a6.643 6.643 0 0 0 4.734 1.962 6.641 6.641 0 0 0 4.078-1.384l5.797 5.795a.183.183 0 0 0 .26 0l.972-.971a.184.184 0 0 0 0-.26zm-7.571-6.342a4.973 4.973 0 0 1-3.536 1.465c-1.335 0-2.59-.52-3.536-1.465a4.973 4.973 0 0 1-1.464-3.535 4.97 4.97 0 0 1 1.464-3.536A4.973 4.973 0 0 1 7.768 2.77a4.96 4.96 0 0 1 3.536 1.464 4.973 4.973 0 0 1 1.464 3.536 4.97 4.97 0 0 1-1.464 3.535z" fill="#61AB91"/>
</svg>
