<svg width="20" height="20" viewBox="0 0 20 20" fill="none" xmlns="http://www.w3.org/2000/svg">
<path d="M18.9459 17.7062L13.1027 11.863C14.0094 10.6907 14.4999 9.25746 14.4999 7.74997C14.4999 5.94548 13.7957 4.25349 12.5222 2.97774C11.2487 1.702 9.55221 1 7.74997 1C5.94773 1 4.25124 1.70425 2.97774 2.97774C1.702 4.25124 1 5.94548 1 7.74997C1 9.55221 1.70425 11.2487 2.97774 12.5222C4.25124 13.7979 5.94548 14.4999 7.74997 14.4999C9.25746 14.4999 10.6885 14.0094 11.8607 13.1049L17.7039 18.9459C17.7211 18.9631 17.7414 18.9767 17.7638 18.9859C17.7862 18.9952 17.8102 19 17.8344 19C17.8587 19 17.8827 18.9952 17.9051 18.9859C17.9274 18.9767 17.9478 18.9631 17.9649 18.9459L18.9459 17.9672C18.9631 17.95 18.9767 17.9297 18.9859 17.9073C18.9952 17.8849 19 17.8609 19 17.8367C19 17.8124 18.9952 17.7884 18.9859 17.766C18.9767 17.7437 18.9631 17.7233 18.9459 17.7062ZM11.314 11.314C10.36 12.2657 9.09546 12.7899 7.74997 12.7899C6.40448 12.7899 5.13998 12.2657 4.18599 11.314C3.23424 10.36 2.70999 9.09546 2.70999 7.74997C2.70999 6.40448 3.23424 5.13773 4.18599 4.18599C5.13998 3.23424 6.40448 2.70999 7.74997 2.70999C9.09546 2.70999 10.3622 3.23199 11.314 4.18599C12.2657 5.13998 12.7899 6.40448 12.7899 7.74997C12.7899 9.09546 12.2657 10.3622 11.314 11.314Z" fill="#484848"/>
</svg>
