<svg width="300" height="192" viewBox="0 0 300 192" fill="none" xmlns="http://www.w3.org/2000/svg">
    <path d="M279.258 183.016c-8.9 1.069-260.354 1.35-260.354 1.35-23.481-11.123-22.706-39.126-10.6-54.604C25.033 108.367 31.82 104.616 31.82 68.33c0-55.051 43.114-42.763 69.01-54.35 90.175-40.344 64.574 19.431 124.729 19.755 69.322.377 22.529 44.043 56.557 72.213 25.637 21.228 22.849 73.983-2.859 77.068z" fill="#fff" fill-opacity=".4"/>
    <path d="M296.993 179.107c0 11.912-133.833 12.893-148.496 12.893-13.576 0-148.496-.981-148.496-12.893 0-12.323 135.526-12.893 148.496-12.893 12.89 0 148.496.579 148.496 12.893z" fill="#fff"/>
    <path d="M194.935 129.464c-2.636.035-10.475-3.804-10.484-4.549-.009-.736 7.714-4.803 10.351-4.838 2.637-.035 4.801 2.033 4.837 4.627.027 2.595-2.076 4.725-4.704 4.76z" fill="#C3D4EC"/>
    <path d="M253.38 171.859c-.008 0-.017 0-.026-.009a.14.14 0 0 1-.107-.167c4.819-19.773 9.424-33.796 12.988-39.493.08-.123.133-.22.16-.263.036-.07.116-.106.187-.07.071.035.107.113.071.184-.026.061-.08.149-.178.298-3.545 5.67-8.142 19.668-12.952 39.414-.018.071-.08.106-.143.106z" fill="#099E6A"/>
    <path d="M268.871 131.041c-.428.64-2.664 1.902-2.851 1.779-.187-.113.072-2.646.49-3.286a1.413 1.413 0 0 1 1.942-.403c.659.411.847 1.27.419 1.91zM264.524 133.162c.267.736-.063 3.313-.276 3.392-.214.079-2.156-1.692-2.423-2.419-.276-.736.115-1.543.864-1.814a1.432 1.432 0 0 1 1.835.841z" fill="#099E6A"/>
    <path d="M267.535 137.466c-.793.096-3.269-.806-3.296-1.034-.026-.228 2.156-1.683 2.949-1.779a1.435 1.435 0 0 1 1.603 1.235c.089.78-.472 1.49-1.256 1.578zM258.485 146.424c.588 1.174.499 5.539.16 5.705-.338.167-3.901-2.436-4.489-3.611a2.357 2.357 0 0 1 1.104-3.181 2.431 2.431 0 0 1 3.225 1.087z" fill="#099E6A"/>
    <path d="M264.302 153.075c-1.301.298-5.603-.771-5.684-1.13-.089-.368 3.287-3.199 4.588-3.497 1.301-.298 2.601.499 2.904 1.77.294 1.28-.517 2.559-1.808 2.857zM255.305 151.481c1.024 1.253 2.111 6.486 1.746 6.766-.365.289-5.327-1.867-6.352-3.12a2.879 2.879 0 0 1 .446-4.093 3 3 0 0 1 4.16.447z" fill="#099E6A"/>
    <path d="M263.571 160.149c-1.621.201-6.716-1.63-6.779-2.086-.062-.456 4.41-3.48 6.031-3.681 1.621-.202 3.1.929 3.305 2.515.205 1.595-.935 3.05-2.557 3.252zM253.523 157.94c1.024 1.254 2.111 6.486 1.746 6.766-.365.29-5.327-1.866-6.352-3.12a2.878 2.878 0 0 1 .446-4.093c1.274-.999 3.135-.806 4.16.447z" fill="#099E6A"/>
    <path d="M261.79 166.608c-1.622.202-6.717-1.63-6.779-2.086-.063-.455 4.409-3.479 6.03-3.681 1.622-.201 3.1.929 3.305 2.516.214 1.595-.935 3.05-2.556 3.251zM249.282 166.17c1.435.772 4.463 5.198 4.241 5.601-.223.403-5.648.272-7.082-.508a2.879 2.879 0 0 1-1.167-3.945c.784-1.411 2.583-1.928 4.008-1.148z" fill="#099E6A"/>
    <path d="M260.258 172.98c-1.586.403-6.868-.789-6.993-1.236-.116-.447 3.937-3.996 5.514-4.4 1.577-.403 3.189.535 3.599 2.095.419 1.56-.535 3.147-2.12 3.541zM262.662 137.291c.276.745-.071 3.365-.285 3.444-.214.079-2.191-1.718-2.467-2.463a1.428 1.428 0 0 1 .873-1.84 1.472 1.472 0 0 1 1.879.859z" fill="#099E6A"/>
    <path d="M265.62 141.717c-.801.096-3.313-.824-3.349-1.043-.027-.228 2.191-1.709 2.993-1.806a1.459 1.459 0 0 1 1.63 1.254 1.432 1.432 0 0 1-1.274 1.595zM260.489 141.147c.481 1.025.303 4.777.009 4.908-.294.132-3.305-2.173-3.777-3.199-.481-1.025-.018-2.235 1.024-2.708a2.08 2.08 0 0 1 2.744.999z" fill="#099E6A"/>
    <path d="M265.21 147.423c-1.14.14-4.712-1.166-4.757-1.49-.035-.316 3.109-2.428 4.249-2.568a2.068 2.068 0 0 1 2.316 1.779c.143 1.122-.668 2.138-1.808 2.279z" fill="#099E6A"/>
    <path d="M261.54 174.558c-.009 0-.018-.009-.027-.009a.143.143 0 0 1-.062-.193c9.585-18.011 17.54-30.501 22.404-35.173.106-.105.187-.175.222-.219.045-.061.143-.07.205-.017.063.043.071.14.018.192a4.588 4.588 0 0 1-.241.246c-4.845 4.645-12.782 17.117-22.35 35.103-.035.052-.107.087-.169.07z" fill="#C2FFEA"/>
    <path d="M286.705 138.701c-.57.517-3.056 1.201-3.207 1.043-.152-.157.73-2.55 1.3-3.067a1.424 1.424 0 0 1 1.987.07c.526.561.49 1.428-.08 1.954zM281.958 139.709c.08.78-.891 3.2-1.114 3.217-.223.018-1.666-2.156-1.746-2.936-.08-.78.49-1.473 1.283-1.551.793-.071 1.496.49 1.577 1.27z" fill="#C2FFEA"/>
    <path d="M283.81 144.609c-.784-.097-2.966-1.569-2.94-1.788.027-.219 2.512-1.113 3.296-1.017a1.426 1.426 0 0 1 1.247 1.587c-.098.771-.819 1.314-1.603 1.218zM272.809 151.112c.276 1.28-.891 5.496-1.265 5.574-.374.079-3.18-3.295-3.457-4.584-.276-1.279.553-2.541 1.862-2.822 1.301-.263 2.584.552 2.86 1.832z" fill="#C2FFEA"/>
    <path d="M276.8 158.965c-1.337-.026-5.238-2.094-5.229-2.471.008-.377 3.981-2.305 5.318-2.288 1.336.026 2.396 1.105 2.369 2.419a2.4 2.4 0 0 1-2.458 2.34zM268.471 155.249c.686 1.455.437 6.793.018 6.985-.419.193-4.703-3.094-5.38-4.548-.686-1.455-.036-3.182 1.452-3.857a2.967 2.967 0 0 1 3.91 1.42z" fill="#C2FFEA"/>
    <path d="M274.332 165.653c-1.621-.193-6.111-3.199-6.058-3.655.054-.456 5.14-2.314 6.762-2.121 1.621.193 2.779 1.639 2.574 3.234-.187 1.595-1.657 2.735-3.278 2.542zM265.14 161.086c.686 1.455.436 6.793.017 6.986-.418.193-4.703-3.094-5.389-4.549-.686-1.455-.036-3.182 1.452-3.857 1.488-.674 3.243-.035 3.92 1.42z" fill="#C2FFEA"/>
    <path d="M271.01 171.49c-1.621-.193-6.111-3.199-6.058-3.655.054-.456 5.14-2.314 6.762-2.121 1.621.193 2.779 1.639 2.574 3.234-.187 1.595-1.666 2.726-3.278 2.542zM258.984 168.046c1.194 1.095 3.038 6.118 2.717 6.451-.321.333-5.541-1.096-6.743-2.192a2.875 2.875 0 0 1-.152-4.11 2.998 2.998 0 0 1 4.178-.149z" fill="#C2FFEA"/>
    <path d="M267.936 177.301c-1.63.009-6.467-2.419-6.467-2.875 0-.455 4.81-2.927 6.44-2.936 1.63-.008 2.967 1.289 2.967 2.893.008 1.604-1.31 2.91-2.94 2.918zM279.133 143.268c.08.789-.899 3.252-1.131 3.269-.232.026-1.693-2.191-1.782-2.98a1.444 1.444 0 0 1 1.31-1.578 1.461 1.461 0 0 1 1.603 1.289z" fill="#C2FFEA"/>
    <path d="M280.897 148.272c-.802-.096-3.011-1.595-2.984-1.823.027-.228 2.548-1.131 3.349-1.034.802.096 1.372.815 1.265 1.604a1.452 1.452 0 0 1-1.63 1.253zM276.06 146.485c.205 1.113-.89 4.697-1.211 4.759-.321.061-2.664-2.901-2.868-4.014-.205-1.114.534-2.174 1.665-2.384 1.123-.202 2.21.525 2.414 1.639z" fill="#C2FFEA"/>
    <path d="M279.08 153.698c-1.14-.141-4.285-2.27-4.24-2.586.044-.324 3.625-1.613 4.757-1.472 1.14.14 1.942 1.165 1.799 2.278-.134 1.131-1.176 1.92-2.316 1.78zM43.65 173.138c.01 0 .018 0 .036-.008a.162.162 0 0 0 .125-.193c-5.46-22.543-10.69-38.539-14.734-45.042a4.58 4.58 0 0 1-.178-.298c-.036-.079-.134-.114-.214-.079-.08.035-.116.131-.08.21.035.07.098.167.196.333 4.026 6.469 9.246 22.438 14.69 44.946.008.079.08.131.16.131z" fill="#C2FFEA"/>
    <path d="M26.057 126.58c.481.728 3.038 2.165 3.252 2.033.213-.131-.08-3.015-.562-3.751a1.622 1.622 0 0 0-2.218-.464 1.567 1.567 0 0 0-.472 2.182zM31.01 129.008c-.31.833.072 3.778.313 3.865.24.088 2.458-1.919 2.77-2.761a1.604 1.604 0 0 0-.98-2.068 1.645 1.645 0 0 0-2.102.964z" fill="#C2FFEA"/>
    <path d="M27.572 133.907c.9.105 3.724-.92 3.76-1.165.035-.255-2.46-1.929-3.36-2.034-.899-.114-1.718.517-1.825 1.402-.116.886.525 1.692 1.425 1.797zM37.869 144.136c-.668 1.341-.58 6.319-.187 6.503.392.193 4.454-2.769 5.13-4.11a2.69 2.69 0 0 0-1.255-3.629c-1.363-.657-3.011-.105-3.688 1.236z" fill="#C2FFEA"/>
    <path d="M31.233 151.709c1.479.341 6.387-.868 6.485-1.28.098-.412-3.741-3.646-5.22-3.988-1.479-.342-2.958.561-3.314 2.016-.347 1.455.57 2.91 2.049 3.252zM41.494 149.903c-1.167 1.42-2.423 7.388-2.004 7.713.41.324 6.075-2.121 7.242-3.55a3.286 3.286 0 0 0-.499-4.663c-1.452-1.148-3.572-.929-4.739.5z" fill="#C2FFEA"/>
    <path d="M32.052 159.772c1.844.237 7.661-1.849 7.723-2.366.072-.518-5.024-3.98-6.868-4.208-1.844-.236-3.536 1.052-3.768 2.867-.24 1.814 1.06 3.47 2.913 3.707zM43.508 157.266c-1.167 1.419-2.423 7.388-2.005 7.712.41.325 6.076-2.121 7.243-3.549a3.286 3.286 0 0 0-.5-4.663c-1.451-1.139-3.571-.92-4.738.5z" fill="#C2FFEA"/>
    <path d="M34.065 167.134c1.844.237 7.661-1.849 7.724-2.366.07-.517-5.025-3.979-6.868-4.207-1.844-.237-3.537 1.052-3.768 2.866-.241 1.814 1.069 3.479 2.912 3.707zM48.319 166.652c-1.63.877-5.096 5.925-4.846 6.381.258.456 6.44.316 8.07-.561 1.63-.876 2.236-2.892 1.346-4.496-.891-1.613-2.94-2.2-4.57-1.324z" fill="#C2FFEA"/>
    <path d="M35.803 174.409c1.8.456 7.83-.885 7.964-1.393.133-.509-4.481-4.567-6.28-5.023-1.8-.455-3.644.605-4.107 2.376-.463 1.77.615 3.584 2.423 4.04zM33.121 133.714c-.312.85.072 3.839.321 3.927.25.088 2.494-1.955 2.815-2.805a1.637 1.637 0 0 0-.998-2.103 1.683 1.683 0 0 0-2.138.981z" fill="#C2FFEA"/>
    <path d="M29.746 138.763c.917.114 3.786-.929 3.812-1.192.036-.254-2.494-1.955-3.411-2.069a1.66 1.66 0 0 0-1.862 1.429 1.67 1.67 0 0 0 1.46 1.832zM35.597 138.114c-.543 1.166-.356 5.443-.017 5.592.338.158 3.768-2.472 4.311-3.646.552-1.166.027-2.551-1.158-3.094-1.185-.526-2.592-.018-3.136 1.148z" fill="#C2FFEA"/>
    <path d="M30.208 145.257c1.3.158 5.38-1.323 5.425-1.691.045-.368-3.545-2.779-4.837-2.936-1.3-.158-2.476.745-2.637 2.024-.178 1.28.749 2.446 2.05 2.603z" fill="#C2FFEA"/>
    <path d="M45.183 56.83c-1.371-.342-3.002-1.174-2.877-2.56.107-1.235 1.612-1.875 2.877-1.849 1.265.027 2.54.439 3.768.14 1.604-.385 2.664-1.831 3.653-3.137 1.042-1.385 2.2-2.735 3.723-3.594 1.523-.859 3.483-1.13 5.015-.298 1.176.631 1.987 1.832 3.234 2.323 1.684.666 3.545-.14 5.3-.57 1.764-.43 4.125-.14 4.66 1.57.445 1.428-.651 3.242.373 4.347 5.247 5.635-5.042 3.698-8.783 3.944-6.966.482-14.075 1.393-20.943-.316zM249.639 61.292c1.211 1.963.231 4.759-1.755 5.968-1.987 1.21-4.632 1-6.69-.087-1.096-.579-2.093-1.394-3.305-1.64-2.975-.613-6.627 2.954-9.407.886-2.405-1.797-1.265-3.427.57-4.812 5.497-4.146 14.52 1.429 20.587-.315zM117.81 33.735c-.945.517-2.103.71-3.225.886-.828.131-1.657.262-2.476.394-1.862.298-3.822.587-5.621.096-1.301-.35-2.406-1.095-3.742-1.358-1.327-.272-2.734-.044-4.106-.105-.392-.018-.793-.062-1.15-.193-.757-.28-1.229-.982-1.095-1.64.133-.657.864-1.2 1.701-1.27 1.105-.097 2.432.508 3.207-.123.267-.219.365-.534.552-.797.375-.535 1.096-.868 1.818-1.087 2.28-.693 4.186-.202 6.476.052 1.55.176 2.966-.105 4.507-.21 1.96-.131 3.955.096 4.65 1.78.517 1.261-.125 2.813-1.496 3.575zM164.042 19.8c-1.033.57-2.316.78-3.554.972-.908.14-1.826.29-2.735.43-2.048.324-4.213.64-6.191.105-1.434-.386-2.654-1.2-4.124-1.499-1.47-.298-3.02-.052-4.525-.114-.437-.017-.873-.061-1.265-.21-.838-.307-1.363-1.087-1.212-1.806.152-.718.953-1.323 1.88-1.402 1.211-.105 2.681.561 3.527-.14.294-.246.401-.587.606-.885.41-.596 1.212-.956 2.005-1.192 2.52-.763 4.614-.22 7.135.06 1.71.194 3.269-.113 4.97-.227 2.156-.14 4.356.105 5.123 1.955.587 1.393-.116 3.111-1.64 3.952z" fill="#fff"/>
    <path d="M200.983 169.939c0 5.872-22.964 9.098-51.354 9.098-28.381 0-51.435-3.226-51.435-9.098 0-.473-.294-2.989 0-3.453 3.314-5.215 25.344-6.591 51.435-6.591 26.546 0 48.638 1.314 51.354 6.591.188.368 0 3.076 0 3.453z" fill="#008053"/>
    <path d="M200.983 166.494c0 3.971-23.009 7.187-51.39 7.187-28.39 0-51.399-3.216-51.399-7.187 0-3.97 23.009-7.187 51.399-7.187 28.381 0 51.39 3.217 51.39 7.187z" fill="#0AB378"/>
    <path d="M174.01 162.322c0 3.822-10.921 5.916-24.416 5.916-13.496 0-24.453-2.094-24.453-5.916 0-.307-.133-1.946 0-2.244 1.577-3.392 12.053-4.286 24.453-4.286 12.622 0 23.125.859 24.416 4.286.089.237 0 1.999 0 2.244z" fill="#008053"/>
    <path d="M174.01 160.079c0 2.577-10.939 4.671-24.434 4.671-13.496 0-24.435-2.094-24.435-4.671 0-2.577 10.939-4.672 24.435-4.672 13.495-.009 24.434 2.086 24.434 4.672z" fill="#0AB378"/>
    <path d="M153.148 157.625c0 .473-1.577.85-3.519.85-1.942 0-3.519-.377-3.519-.85 0-.474 1.577-.851 3.519-.851 1.942 0 3.519.386 3.519.851z" fill="#202C5B"/>
    <path d="M131.439 124.143c0 5.18-15.75 8.02-35.223 8.02-19.463 0-35.275-2.84-35.275-8.02 0-.421-.196-2.638 0-3.041 2.271-4.602 17.38-5.82 35.275-5.82 18.208 0 33.361 1.165 35.223 5.82.124.324 0 2.708 0 3.041z" fill="#008053"/>
    <path d="M131.439 121.102c0 3.497-15.776 6.337-35.249 6.337-19.464 0-35.249-2.84-35.249-6.337s15.785-6.337 35.25-6.337c19.463 0 35.248 2.84 35.248 6.337z" fill="#0AB378"/>
    <path d="M128.669 121.382 96.065 52.597l-32.594 68.785-1.95-1.288 34.544-73.115 34.546 73.115-1.942 1.288z" fill="#C2FFEA"/>
    <path d="M238.566 124.143c0 5.18-15.749 8.02-35.222 8.02-19.464 0-35.276-2.84-35.276-8.02 0-.421-.196-2.638 0-3.041 2.272-4.602 17.38-5.82 35.276-5.82 18.208 0 33.36 1.165 35.222 5.82.125.324 0 2.708 0 3.041z" fill="#008053"/>
    <path d="M238.567 121.102c0 3.497-15.776 6.337-35.249 6.337-19.464 0-35.249-2.84-35.249-6.337s15.785-6.337 35.249-6.337c19.464 0 35.249 2.84 35.249 6.337z" fill="#0AB378"/>
    <path d="m235.796 121.382-32.603-68.785-32.594 68.785-1.951-1.288 34.545-73.115 34.545 73.115-1.942 1.288z" fill="#C2FFEA"/>
    <path d="M215.869 51.396H83.399V44.99h132.47v6.407z" fill="#0AB378"/>
    <path d="M153.147 157.729h-7.028V45.559h7.028v112.17z" fill="#0AB378"/>
    <path d="M143.17 47.61c0-3.514 2.895-6.354 6.458-6.354 3.573 0 6.459 2.848 6.459 6.354 0 3.515-2.895 6.355-6.459 6.355-3.563 0-6.458-2.849-6.458-6.355z" fill="#008053"/>
    <path d="m149.628 25.952-6.458 15.295h12.926l-6.468-15.295z" fill="#0AB378"/>
    <path d="M62.526 171.278h.02a.1.1 0 0 0 .096-.114c-1.042-15.004-2.645-25.782-4.527-30.369l-.077-.209a.114.114 0 0 0-.125-.076c-.058.01-.087.067-.077.124.01.047.038.123.086.237 1.873 4.568 3.475 15.327 4.508 30.312.01.047.048.085.096.095z" fill="#099E6A"/>
    <path d="M56.34 139.636c.231.523 1.708 1.71 1.853 1.643.154-.066.28-1.937.048-2.459a1.043 1.043 0 0 0-1.37-.532 1.017 1.017 0 0 0-.531 1.348zM59.245 141.707c-.29.503-.367 2.421-.222 2.507.145.085 1.786-.969 2.075-1.472.29-.504.106-1.14-.405-1.425a1.068 1.068 0 0 0-1.448.39z" fill="#099E6A"/>
    <path d="M56.514 144.489c.56.161 2.48-.19 2.529-.351.048-.162-1.361-1.491-1.92-1.653-.56-.161-1.16.152-1.323.703-.174.551.145 1.13.714 1.301zM61.986 152.114c-.579.789-1.061 3.979-.83 4.141.232.161 3.156-1.301 3.726-2.089.579-.789.395-1.89-.406-2.45a1.8 1.8 0 0 0-2.49.398z" fill="#099E6A"/>
    <path d="M56.92 156.255c.907.37 4.179.114 4.285-.143.106-.256-1.998-2.725-2.905-3.105a1.792 1.792 0 0 0-2.336.94 1.739 1.739 0 0 0 .956 2.308zM63.675 156.179c-.907.788-2.355 4.473-2.123 4.729.231.256 4.121-.722 5.019-1.5a2.126 2.126 0 0 0 .183-3.039c-.791-.893-2.172-.969-3.079-.19z" fill="#099E6A"/>
    <path d="M56.563 161.506c1.158.342 5.105-.37 5.202-.693.096-.323-2.78-3.077-3.938-3.419-1.158-.342-2.374.294-2.722 1.434-.357 1.13.3 2.336 1.458 2.678zM64.158 161.107c-.907.789-2.355 4.473-2.123 4.73.231.256 4.12-.722 5.018-1.501a2.126 2.126 0 0 0 .184-3.039 2.2 2.2 0 0 0-3.08-.19z" fill="#099E6A"/>
    <path d="M57.045 166.425c1.158.342 5.105-.37 5.202-.703.096-.322-2.78-3.076-3.938-3.418-1.158-.342-2.374.294-2.722 1.434a2.151 2.151 0 0 0 1.458 2.687zM66.224 167.622c-1.14.389-3.909 3.248-3.793 3.57.116.323 4.082.884 5.23.494 1.14-.389 1.748-1.614 1.352-2.735a2.211 2.211 0 0 0-2.79-1.329z" fill="#099E6A"/>
    <path d="M57.363 171.259c1.1.484 5.106.256 5.25-.057.146-.314-2.364-3.39-3.474-3.875-1.11-.484-2.393 0-2.886 1.092a2.143 2.143 0 0 0 1.11 2.84zM60.085 144.945c-.299.512-.376 2.459-.222 2.545.145.085 1.815-.988 2.104-1.491.3-.513.116-1.159-.405-1.453a1.088 1.088 0 0 0-1.477.399z" fill="#099E6A"/>
    <path d="M57.373 147.822c.57.171 2.52-.2 2.568-.361.048-.162-1.38-1.51-1.96-1.681a1.074 1.074 0 0 0-1.341.722c-.164.551.164 1.149.733 1.32zM61.184 148.021c-.472.693-.82 3.447-.617 3.58.203.133 2.683-1.187 3.156-1.88.473-.693.3-1.633-.405-2.099a1.554 1.554 0 0 0-2.133.399z" fill="#099E6A"/>
    <path d="M56.958 152.02c.81.237 3.58-.276 3.658-.513.068-.228-1.969-2.146-2.78-2.393-.81-.238-1.67.218-1.91 1.016a1.513 1.513 0 0 0 1.032 1.89z" fill="#099E6A"/>
    <path d="M176.184 164.146s-11.687 1.586-16.293 1.823c-4.605.236-35.703-.982-37.101-.763-1.408.219 4.124 5.294 4.124 5.294l19.036 7.275 7.394.832 22.84-14.461z" fill="#078055"/>
    <path d="M147.82 185.496c-.98-.026-1.746-.035-2.236 0-3.919.255-15.767 3.208-16.444 1.99-.677-1.218 4.668-3.041 5.577-3.97.908-.921 3.705-4.637 5.122-4.269 1.416.377 3.661 2.016 5.71 1.788.249-.026 1.024-.184 2.173-.42l.098 4.881z" fill="#008053"/>
    <path d="M145.023 120.191s-.454-.798-.9-.526c-1.131.692-.169 1.788.517 2.068l.383-1.542z" fill="#F8D4BA"/>
    <path d="m145.06 117.386.026-.237c.339-3.532 3.742-6.091 7.492-5.53 3.118.464 5.46 3.067 5.469 6.065a5.974 5.974 0 0 1-.828 3.041c-.739 1.385-1.381 2.568-2.04 3.541a8.483 8.483 0 0 0-1.407 5.434l.115 1.499c-4.169 1.665-5.799-.359-5.799-.359l.187-2.717c.027-.351-.24-.666-.614-.719h-.009c-4.9-.736-2.797-7.906-2.592-10.018z" fill="#F8D4BA"/>
    <path d="M151.411 121.19c.026-.316.32-.553.659-.518.329.027.579.307.543.623-.027.315-.32.552-.659.517-.33-.027-.579-.307-.543-.622zM146.199 119.919a.588.588 0 0 1 .659-.518c.33.027.579.307.544.623-.027.315-.321.552-.66.517-.329-.035-.57-.307-.543-.622zM153.647 120.488c.062.009.124 0 .187-.035a.33.33 0 0 0 .169-.447c-.258-.508-1.113-1.323-2.521-.797-.178.07-.276.263-.196.438.071.175.276.254.463.193 1.158-.43 1.604.429 1.622.464.044.105.16.176.276.184zM148.097 119.104a.365.365 0 0 0 .187-.035.331.331 0 0 0 .17-.448c-.259-.508-1.114-1.323-2.521-.797-.178.07-.276.263-.196.438a.36.36 0 0 0 .463.193c1.158-.43 1.603.429 1.621.465a.32.32 0 0 0 .276.184zM158.546 118.744l-2.146 4.006-1.158-.325-.188-5.425 3.492 1.744z" fill="#0D152E"/>
    <path d="M155.072 122.277a.934.934 0 0 1 .543-.386c.464-.132 1.265-.254 1.764.307.722.824-1.069 2.682-2.548 1.551-.008.009-.418-.465.241-1.472z" fill="#F8D4BA"/>
    <path d="M148.115 122.995c.552.316 1.095.07 1.104.062.054-.027.071-.088.045-.132-.027-.052-.089-.07-.143-.044-.027.009-.632.281-1.158-.263-.089-.087-.125-.157-.125-.21 0-.07.098-.149.232-.263.303-.254.802-.684 1.051-1.735.009-.053-.027-.105-.08-.123-.053-.009-.116.026-.125.079-.231.982-.686 1.376-.98 1.63-.16.14-.285.245-.294.403-.008.105.054.219.179.351.089.105.196.184.294.245z" fill="#DA6564"/>
    <path d="M146.324 115.098s-.989.543-1.576 4.251c0 0 .08-4.181.614-4.602.535-.421.962.351.962.351zM147.741 124.669c.374.105.828.132 1.354-.035a.1.1 0 0 0 .062-.114c-.018-.044-.062-.07-.116-.061-1.452.456-2.325-.631-2.334-.649-.026-.035-.089-.044-.124-.017-.036.026-.045.087-.018.122.009.018.427.544 1.176.754z" fill="#0D152E"/>
    <path d="M180.619 165.557s3.849 4.864-2.111 10.07c-5.95 5.206-30.688 9.869-30.688 9.869l-4.65-7.318s25.504-12.271 30.688-13.629c5.193-1.359 6.761 1.008 6.761 1.008z" fill="#099E6A"/>
    <path d="M150.556 185.496c.98-.026 1.746-.035 2.236 0 3.919.255 15.767 3.208 16.444 1.99.677-1.218-4.668-3.041-5.577-3.97-.908-.921-3.705-4.637-5.122-4.269-1.416.377-3.661 2.016-5.71 1.788-.249-.026-1.015-.184-2.173-.42l-.098 4.881z" fill="#008053"/>
    <path d="M119.235 165.557s-3.848 4.864 2.112 10.07c5.95 5.206 31.062 11.614 31.062 11.614l3.456-9.449s-24.684-11.885-29.869-13.243c-5.193-1.359-6.761 1.008-6.761 1.008z" fill="#099E6A"/>
    <path d="m152.497 187.266-.178-.061 3.34-9.405c-9.104-4.224-26.34-12.156-26.928-12.218l-.009-.184c.597 0 24.372 11.018 27.089 12.271l.071.035-.027.079-3.358 9.483z" fill="#078055"/>
    <path d="M120.803 163.19s-2.574-.745-3.554-.797c-.989-.062-1.907-.859-2.12-.325-.214.535 1.496 1.403 1.496 1.403s-1.826.815-2.423.981c-.597.167-1.594.737-1.505 1.192.089.456 2.913-.534 2.913-.534s-2.29 1.078-2.299 1.507c-.009.438 3.118-.491 3.118-.491s-2.503 1.026-2.628 1.28c-.124.254.196.429 1.167.289.98-.14 1.933-.543 1.933-.543s-1.701.85-1.87 1.025c-.17.176-.268.544 1.149.176 1.425-.369 4.356-1.674 5.549-2.928l-.926-2.235zM180.78 162.603s2.663-.281 3.643-.176c.98.114 2.031-.517 2.147.044.116.561-1.719 1.113-1.719 1.113s1.648 1.122 2.209 1.385c.561.263 1.434.999 1.265 1.429-.169.429-2.77-1.034-2.77-1.034s2.066 1.454 1.986 1.884c-.071.429-2.975-1.026-2.975-1.026s2.28 1.438 2.36 1.71c.081.271-.267.394-1.202.078-.935-.306-1.8-.867-1.8-.867s1.524 1.139 1.657 1.332c.134.202.17.578-1.167-.026-1.336-.605-3.99-2.402-4.944-3.848l1.31-1.998z" fill="#F8D4BA"/>
    <path d="M144.694 130.173s-6.699 1.587-9.398 7.196c-2.548 5.312-4.499 13.542-6.262 15.189-1.764 1.648-8.703 10.492-8.703 10.492s1.389 2.366 1.407 2.358c.018-.009 12.195-4.067 16.257-13.358l-.481 13.471s6.227.465 13.041.64c7.064.184 11.946-.271 11.946-.271l-1.078-14.532s3.439 6.415 7.349 8.764c3.296 1.981 10.69 4.514 10.69 4.514l1.309-2.033s-8.881-9.194-9.46-10.553c-1.773-4.154-6.102-16.425-9.888-19.756-1.942-1.709-3.821-2.121-3.821-2.121h-12.908z" fill="#C2FFEA"/>
    <path d="m154.965 129.779-4.285.167-3.456-.368-2.904 37.732h12.515l-1.87-37.531z" fill="#fff"/>
    <path d="m149.157 131.409 1.533 2.489-2.735 30.055 4.222 6.468 3.136-6.635-3.038-30.063 1.131-2.314-1.959-1.402-2.29 1.402z" fill="#F8D25C"/>
    <path d="m147.224 129.577 1.042-1.305 2.949 1.428 2.565-1.586 1.185 1.665-1.149 2.296-2.467-1.831-2.593 1.788-1.532-2.455z" fill="#fff"/>
    <path d="M159.196 118.683a.744.744 0 0 0-.098-.92c.419-.29.446-.982.054-1.306-.098-.079-.205-.132-.294-.219-.143-.141-.196-.333-.241-.526a5.027 5.027 0 0 1-.115-1.21c.008-.254.035-.526-.107-.736-.187-.289-.606-.351-.811-.631-.24-.333-.125-.877-.463-1.104-.178-.123-.419-.097-.633-.149-.668-.167-.98-1.026-1.657-1.157-.213-.044-.436 0-.65 0-.65 0-1.238-.36-1.844-.579-.614-.219-1.398-.263-1.808.246-.071.096-.134.201-.232.271-.142.097-.32.079-.49.062-.445-.062-.882-.176-1.327-.167-.445.009-.926.184-1.149.57-.071.123-.116.272-.223.368-.116.123-.294.158-.454.193-.668.114-1.497.184-1.746.797-.196.465.045 1.087-.312 1.447-.133.131-.32.201-.454.324-.356.324-.223.955.16 1.253.383.298.909.333 1.399.289.481-.043.971-.166 1.452-.131.133.009.276.044.347.149.045.079.045.175.054.263.044.386.374.701.739.841.365.141.775.149 1.167.132.695-.027 1.39-.114 2.067-.246.525-.105 1.069-.236 1.594-.14.365.07.704.254 1.042.421.544.263 1.105.499 1.666.727.161.062.321.132.481.202.624.237 2.352 1.446 2.886.666z" fill="#0D152E"/>
    <path d="m154.964 129.779 2.646.394s2.227 2.209 2.859 3.042c1.844 2.419 5.025 34.778 5.025 34.778l-9.336.876-1.194-39.09z" fill="#C2FFEA"/>
    <path d="m157.61 130.173-1.149 8.353 1.835.727-2.708 14.936-.624-24.41 2.646.394z" fill="#099E6A"/>
    <path d="m147.224 129.578-2.53.596s-2.227 2.208-2.859 3.041c-1.844 2.419-5.024 34.778-5.024 34.778l9.335.877 1.078-39.292z" fill="#C2FFEA"/>
    <path d="m144.693 130.174 1.15 8.352-1.835.728 2.708 14.935.507-24.611-2.53.596z" fill="#099E6A"/>
    <path d="m129.523 90.303-29.459 13.024 5.123 11.219 29.458-13.033-5.122-11.21z" fill="#C2FFEA"/>
    <path d="m100.653 103.547 4.757 10.412 28.648-12.665-4.757-10.412-28.648 12.665zm4.312 11.578-5.488-12.008 30.27-13.384 5.487 12.008-30.269 13.384z" fill="#006E46"/>
    <path d="M122.157 100.181c-1.158-2.542-4.195-3.673-6.779-2.533-2.583 1.14-3.732 4.128-2.574 6.67 1.158 2.541 4.195 3.672 6.779 2.533 2.583-1.14 3.741-4.129 2.574-6.67z" fill="#006E46"/>
    <path d="m118.682 107.008-.525-1.157c-.677.289-1.47.386-2.014.281l-.071-.894a3.568 3.568 0 0 0 1.906-.246c.829-.368 1.167-1.087.873-1.735-.285-.631-.917-.815-1.942-.78-1.398.07-2.369-.132-2.823-1.131-.437-.947-.081-1.98.917-2.62l-.525-1.157.721-.316.508 1.113c.713-.29 1.274-.316 1.692-.272l.054.886c-.303-.027-.9-.07-1.648.263-.9.394-.998 1.069-.784 1.533.276.596.837.702 2.04.666 1.416-.052 2.298.281 2.761 1.298.41.902.161 2.033-.953 2.761l.544 1.192-.731.315z" fill="#B9C9E6"/>
    <path d="M125.55 98.831a1.182 1.182 0 0 0-1.55-.578 1.148 1.148 0 0 0-.588 1.525c.268.578.962.841 1.55.578.588-.263.856-.947.588-1.525z" fill="#008053"/>
    <path d="M111.315 105.124a1.182 1.182 0 0 0-1.55-.578 1.147 1.147 0 0 0-.587 1.525c.267.578.962.841 1.55.578a1.14 1.14 0 0 0 .587-1.525z" fill="#6089C3"/>
    <path d="M119.315 77.62 94.337 99.024l8.418 9.509 24.969-21.403-8.409-9.51z" fill="#C2FFEA"/>
    <path d="m94.978 99.068 7.821 8.834 24.292-20.816-7.812-8.835-24.3 20.817zm7.732 10.097L93.695 98.98l25.664-21.99 9.015 10.184-25.664 21.991z" fill="#AFE6D2"/>
    <path d="M115.074 89.47c-1.906-2.156-5.229-2.384-7.42-.5a5.11 5.11 0 0 0-.508 7.301c1.907 2.156 5.229 2.384 7.421.508a5.136 5.136 0 0 0 .507-7.31z" fill="#006E46"/>
    <path d="m113.721 97.183-.864-.982c-.579.482-1.327.815-1.888.868l-.339-.85a3.507 3.507 0 0 0 1.791-.798c.703-.605.819-1.402.329-1.963-.472-.535-1.149-.535-2.138-.202-1.354.474-2.369.561-3.118-.28-.712-.807-.677-1.92.107-2.84l-.864-.982.615-.526.837.947c.606-.49 1.149-.684 1.586-.763l.321.85a3.178 3.178 0 0 0-1.541.737c-.758.648-.651 1.34-.303 1.735.445.509 1.033.447 2.2.062 1.381-.465 2.343-.395 3.1.464.677.772.775 1.955-.098 2.989l.891 1.008-.624.526z" fill="#C2FFEA"/>
    <path d="M117.987 87.148a1.223 1.223 0 0 0-1.701-.114 1.177 1.177 0 0 0-.116 1.674c.437.49 1.194.543 1.693.114.516-.43.561-1.175.124-1.674z" fill="#006E46"/>
    <path d="M105.927 97.49a1.224 1.224 0 0 0-1.702-.115 1.167 1.167 0 0 0-.116 1.666c.437.49 1.194.543 1.693.114.508-.421.561-1.166.125-1.666z" fill="#8EABD6"/>
    <path d="m97.998 107.193-5.683-22.447a.99.99 0 0 1 .73-1.2l12.195-2.99a1.01 1.01 0 0 1 1.221.72l5.683 22.446a.99.99 0 0 1-.73 1.201l-12.195 2.988a.994.994 0 0 1-1.22-.718z" fill="#0AB378"/>
    <path d="m106.479 104.291-1.942-7.677 1.096-.272 1.951 7.678-1.105.271z" fill="#E4989B"/>
    <path d="m97.953 90.496-1.54-6.066.418-.105 1.532 6.065-.41.106zM96.563 88.48l-.98-3.848.42-.105.97 3.856-.41.097zM98.756 84.29c-.294.07-.428.184-.392.307.035.131.213.158.498.088.277-.07.428-.176.392-.307-.026-.114-.204-.158-.498-.088zm.169.631c-.392.097-.668.009-.74-.28-.07-.272.143-.482.517-.57.374-.096.668 0 .74.28.062.28-.17.483-.517.57zM99.031 85.403c-.294.07-.427.184-.392.307.036.131.214.158.5.088.275-.07.427-.176.391-.307-.027-.114-.196-.158-.499-.088zm.17.631c-.392.097-.669.009-.74-.28-.071-.272.143-.482.517-.57.374-.088.668 0 .74.28.061.28-.161.483-.517.57zM99.317 86.516c-.294.07-.428.184-.392.307.036.131.214.158.499.088.276-.07.427-.176.392-.307-.027-.114-.205-.158-.5-.088zm.17.631c-.393.097-.669.009-.74-.28-.072-.272.142-.482.516-.57.375-.096.668 0 .74.28.062.281-.16.483-.517.57zM99.593 87.63c-.294.07-.428.184-.392.306.035.132.214.158.499.088.276-.07.427-.175.391-.307-.026-.114-.195-.157-.498-.087zm.178.63c-.392.097-.668.01-.74-.28-.07-.272.143-.482.517-.57.374-.087.668 0 .731.281.071.28-.161.482-.508.57zM100.136 89.777c-.294.07-.427.184-.392.307.036.131.214.157.499.087.276-.07.428-.175.392-.306-.027-.114-.196-.167-.499-.088zm.169.622c-.392.097-.668.009-.739-.28-.071-.272.143-.482.517-.57.374-.096.668 0 .73.28.072.29-.151.483-.508.57zM100.421 90.89c-.294.07-.428.184-.392.307.036.131.214.158.499.088.276-.07.427-.176.392-.307-.027-.114-.196-.167-.499-.088zm.169.623c-.392.096-.668.008-.74-.281-.07-.272.143-.482.517-.57.375-.096.669 0 .731.28.071.29-.152.483-.508.57zM100.698 92.003c-.294.07-.428.184-.392.307.035.131.213.157.499.087.276-.07.427-.175.391-.306-.026-.114-.196-.167-.498-.088zm.178.622c-.392.097-.668.009-.74-.28-.071-.272.143-.482.517-.57.374-.096.668 0 .731.28.071.29-.161.483-.508.57zM100.982 93.116c-.294.07-.428.184-.392.307.036.131.214.157.499.087.276-.07.427-.175.392-.306-.027-.114-.196-.167-.499-.088zm.169.622c-.392.097-.668.009-.739-.28-.071-.272.142-.482.516-.57.375-.088.669 0 .731.28.071.29-.151.483-.508.57zM101.526 95.255c-.294.07-.428.184-.392.306.036.132.214.158.499.088.276-.07.427-.175.392-.307-.027-.114-.196-.157-.499-.087zm.169.622c-.392.096-.668.009-.739-.28-.072-.272.142-.483.516-.57.375-.088.669 0 .731.28.071.29-.152.482-.508.57z" fill="#006E46"/>
    <path d="M101.811 96.368c-.294.07-.428.184-.392.307.035.131.213.157.498.087.277-.07.428-.175.392-.306-.035-.114-.204-.158-.498-.088zm.169.622c-.392.097-.668.009-.74-.28-.071-.272.143-.482.517-.57.374-.088.668 0 .731.28.071.29-.161.483-.508.57zM102.087 97.48c-.294.07-.428.185-.392.307.036.132.214.158.499.088.276-.07.427-.175.392-.307-.027-.114-.196-.157-.499-.087zm.169.623c-.392.096-.668.009-.739-.28-.071-.272.142-.482.508-.57.374-.088.668 0 .739.28.071.29-.152.482-.508.57zM102.372 98.594c-.294.07-.428.184-.392.307.035.132.213.158.498.088.277-.07.428-.176.392-.307-.026-.114-.196-.158-.498-.088zm.169.623c-.392.096-.668.008-.74-.28-.071-.273.143-.483.517-.57.374-.097.668 0 .739.28.063.29-.16.482-.516.57zM102.916 100.733c-.294.07-.428.184-.392.306.036.132.214.158.499.088.276-.07.427-.175.392-.307-.027-.114-.205-.157-.499-.087zm.169.622c-.392.096-.668.009-.739-.281-.071-.271.142-.482.517-.569.374-.088.668 0 .739.28.062.289-.169.482-.517.57zM103.191 101.846c-.294.07-.427.184-.392.306.036.132.214.158.499.088.276-.07.428-.175.392-.307-.027-.114-.196-.157-.499-.087zm.169.622c-.392.096-.668.009-.739-.28-.071-.272.143-.483.517-.57.374-.097.668 0 .739.28.062.29-.16.491-.517.57zM103.477 102.959c-.294.07-.428.184-.392.306.036.132.214.158.499.088.276-.07.428-.175.392-.307-.027-.114-.196-.157-.499-.087zm.169.622c-.392.096-.668.009-.739-.28-.071-.272.142-.483.517-.57.374-.088.668 0 .739.28.062.29-.16.491-.517.57zM103.762 104.072c-.294.07-.428.184-.392.307.035.131.214.158.499.087.276-.07.427-.175.392-.306-.036-.114-.205-.158-.499-.088zm.169.631c-.392.096-.668.009-.739-.28-.072-.272.142-.482.516-.57.374-.088.668 0 .74.28.062.281-.17.482-.517.57z" fill="#E4989B"/>
    <path d="M96.252 91.582c-1.265-2.392-4.213-3.356-6.574-2.138-2.37 1.21-3.26 4.137-1.986 6.53 1.265 2.392 4.213 3.356 6.574 2.138 2.36-1.218 3.251-4.137 1.986-6.53z" fill="#F8D25C"/>
    <path d="M92.02 93.274c-.846.061-1.255 0-1.478-.42-.17-.325-.134-.816.48-1.14a2.14 2.14 0 0 1 .616-.21 1.01 1.01 0 0 1 .213-.027c.134-.017.24-.009.321-.009l-.009-.06-.071-.57a2.43 2.43 0 0 0-1.194.245l-.41-.79-.498.255.427.798.01.017c-.286.21-.482.456-.589.737-.08.192-.098.394-.08.604 0 .08.009.158.018.22 0 .008-.01.017 0 .026.027.114.071.236.133.341.375.71 1.078.824 2.067.728.722-.061 1.185.052 1.416.5.17.324.125.666-.115.946-.098.132-.24.245-.419.333-.098.044-.196.088-.294.123-.116.035-.223.07-.33.087a2.202 2.202 0 0 1-.712.027l.089.64c.258.035.597.008.926-.088.036-.009.072-.017.098-.026a2.11 2.11 0 0 0 .392-.15l.116.211.32.614.5-.263-.214-.403-.045-.08-.16-.306-.027-.053c.063-.044.116-.096.17-.14.053-.053.097-.105.15-.158.01-.008.019-.017.019-.026.062-.079.124-.158.169-.246.107-.175.16-.368.187-.552a1.461 1.461 0 0 0-.17-.902c-.382-.71-1.024-.92-2.021-.833z" fill="#fff"/>
    <path d="M119.627 121.093H86.543c-.953 0-1.737-.762-1.737-1.709V97.271c0-.938.775-1.71 1.737-1.71h33.084c.953 0 1.737.763 1.737 1.71v22.122a1.73 1.73 0 0 1-1.737 1.7z" fill="#008053"/>
    <path d="M89.108 97.183h-.82a.117.117 0 0 1-.116-.114c0-.06.054-.113.116-.113h.82c.062 0 .115.052.115.114.01.06-.044.114-.115.114zm1.639 0h-.82a.117.117 0 0 1-.116-.114c0-.06.054-.113.116-.113h.82c.062 0 .116.052.116.114a.117.117 0 0 1-.116.114zm1.63 0h-.82a.117.117 0 0 1-.115-.114c0-.06.053-.113.115-.113h.82c.062 0 .116.052.116.114a.117.117 0 0 1-.116.114zm1.63 0h-.82a.117.117 0 0 1-.115-.114c0-.06.053-.113.116-.113h.82c.062 0 .115.052.115.114.009.06-.045.114-.116.114zm1.64 0h-.82a.117.117 0 0 1-.116-.114c0-.06.053-.113.116-.113h.82c.061 0 .115.052.115.114a.117.117 0 0 1-.116.114zm1.63 0h-.82a.117.117 0 0 1-.116-.114c0-.06.053-.113.116-.113h.82c.062 0 .115.052.115.114a.117.117 0 0 1-.116.114zm1.63 0h-.82a.117.117 0 0 1-.116-.114c0-.06.054-.113.116-.113h.82c.062 0 .115.052.115.114a.117.117 0 0 1-.116.114zm1.63 0h-.82a.117.117 0 0 1-.116-.114c0-.06.054-.113.116-.113h.82c.062 0 .115.052.115.114.009.06-.044.114-.115.114zm1.639 0h-.82a.117.117 0 0 1-.116-.114c0-.06.054-.113.116-.113h.82c.062 0 .116.052.116.114a.117.117 0 0 1-.116.114zm1.63 0h-.82a.117.117 0 0 1-.115-.114c0-.06.053-.113.115-.113h.82c.062 0 .116.052.116.114a.117.117 0 0 1-.116.114zm1.63 0h-.819a.117.117 0 0 1-.116-.114c0-.06.053-.113.116-.113h.819c.062 0 .116.052.116.114.009.06-.045.114-.116.114zm1.63 0h-.819a.111.111 0 0 1-.116-.114c0-.06.053-.113.116-.113h.819c.063 0 .116.052.116.114.009.06-.045.114-.116.114zm1.639 0h-.819a.117.117 0 0 1-.116-.114c0-.06.053-.113.116-.113h.819c.063 0 .116.052.116.114a.117.117 0 0 1-.116.114zm1.63 0h-.819a.117.117 0 0 1-.116-.114c0-.06.054-.113.116-.113h.819c.063 0 .116.052.116.114a.117.117 0 0 1-.116.114zm1.631 0h-.82a.117.117 0 0 1-.116-.114c0-.06.054-.113.116-.113h.82c.062 0 .115.052.115.114.009.06-.044.114-.115.114zm1.63 0h-.82a.117.117 0 0 1-.116-.114c0-.06.054-.113.116-.113h.82c.062 0 .116.052.116.114.008.06-.045.114-.116.114zm1.639 0h-.82a.112.112 0 0 1-.116-.114c0-.06.054-.113.116-.113h.82c.062 0 .116.052.116.114a.117.117 0 0 1-.116.114zm1.63 0h-.82a.117.117 0 0 1-.115-.114c0-.06.053-.113.115-.113h.82c.062 0 .116.052.116.114a.117.117 0 0 1-.116.114zm1.63.018h-.018c-.062-.009-.124-.009-.196-.009h-.605a.117.117 0 0 1-.116-.114c0-.061.053-.114.116-.114h.605c.072 0 .152.01.223.018.062.009.107.07.098.131.009.044-.045.088-.107.088zm-31.712.43a.129.129 0 0 1-.09-.036.12.12 0 0 1 0-.166 1.7 1.7 0 0 1 .758-.42c.062-.018.125.017.142.087.018.061-.017.123-.089.14a1.49 1.49 0 0 0-.65.36c-.009.026-.044.034-.071.034zm32.95.508a.117.117 0 0 1-.107-.07 1.463 1.463 0 0 0-.454-.588c-.053-.035-.062-.113-.018-.166.036-.053.116-.061.17-.018.231.176.418.412.525.675.027.062 0 .132-.062.15a.09.09 0 0 1-.054.017zm-33.413.973a.117.117 0 0 1-.116-.114v-.386c0-.149.018-.298.062-.438a.115.115 0 0 1 .143-.079.112.112 0 0 1 .08.14 1.33 1.33 0 0 0-.054.377v.386a.117.117 0 0 1-.115.114zm33.529.613a.117.117 0 0 1-.116-.114v-.806c0-.061.054-.114.116-.114.062 0 .116.053.116.114v.806a.117.117 0 0 1-.116.114zm-33.53.991a.117.117 0 0 1-.115-.114v-.807c0-.061.053-.114.116-.114.062 0 .115.053.115.114v.807a.117.117 0 0 1-.115.114zm33.53.622a.118.118 0 0 1-.116-.114v-.806c0-.062.054-.114.116-.114.062 0 .116.052.116.114v.806a.118.118 0 0 1-.116.114zm-33.53.982a.117.117 0 0 1-.115-.114v-.807c0-.061.053-.114.116-.114.062 0 .115.053.115.114v.807a.117.117 0 0 1-.115.114zm33.53.622a.118.118 0 0 1-.116-.114v-.806c0-.062.054-.114.116-.114.062 0 .116.052.116.114v.806a.118.118 0 0 1-.116.114zm-33.53.99a.117.117 0 0 1-.115-.114v-.806c0-.061.053-.114.116-.114.062 0 .115.053.115.114v.806a.117.117 0 0 1-.115.114zm33.53.614a.118.118 0 0 1-.116-.114v-.806c0-.062.054-.114.116-.114.062 0 .116.052.116.114v.806a.118.118 0 0 1-.116.114zm-33.53.99a.117.117 0 0 1-.115-.114v-.806c0-.061.053-.114.116-.114.062 0 .115.053.115.114v.806a.117.117 0 0 1-.115.114zm33.53.623a.118.118 0 0 1-.116-.114v-.807c0-.061.054-.114.116-.114.062 0 .116.053.116.114v.807a.118.118 0 0 1-.116.114zm-33.53.981a.117.117 0 0 1-.115-.114v-.806c0-.061.053-.114.116-.114.062 0 .115.053.115.114v.806a.117.117 0 0 1-.115.114zm33.53.622a.117.117 0 0 1-.116-.113v-.807c0-.061.054-.114.116-.114.062 0 .116.053.116.114v.807a.117.117 0 0 1-.116.113zm-33.53.991a.117.117 0 0 1-.115-.114v-.806c0-.062.053-.114.116-.114.062 0 .115.052.115.114v.806a.117.117 0 0 1-.115.114zm33.53.613a.117.117 0 0 1-.116-.114v-.806c0-.061.054-.114.116-.114.062 0 .116.053.116.114v.806a.117.117 0 0 1-.116.114zm-33.53.991a.117.117 0 0 1-.115-.114v-.806c0-.062.053-.114.116-.114.062 0 .115.052.115.114v.806a.117.117 0 0 1-.115.114zm33.53.613a.117.117 0 0 1-.116-.114v-.806c0-.061.054-.114.116-.114.062 0 .116.053.116.114v.806a.117.117 0 0 1-.116.114zm-33.53.991a.117.117 0 0 1-.115-.114v-.807c0-.061.053-.113.116-.113.062 0 .115.052.115.113v.807a.117.117 0 0 1-.115.114zm33.53.622a.118.118 0 0 1-.116-.114v-.806c0-.062.054-.114.116-.114.062 0 .116.052.116.114v.806a.118.118 0 0 1-.116.114zm-33.53.982a.117.117 0 0 1-.115-.114v-.807c0-.061.053-.114.116-.114.062 0 .115.053.115.114v.807a.117.117 0 0 1-.115.114zm33.53.622a.118.118 0 0 1-.116-.114v-.806c0-.062.054-.114.116-.114.062 0 .116.052.116.114v.806a.118.118 0 0 1-.116.114zm-33.53.99a.117.117 0 0 1-.115-.114v-.806c0-.061.053-.114.116-.114.062 0 .115.053.115.114v.806a.117.117 0 0 1-.115.114zm33.53.614a.118.118 0 0 1-.116-.114v-.806c0-.062.054-.114.116-.114.062 0 .116.052.116.114v.806a.118.118 0 0 1-.116.114zm-33.53.99a.117.117 0 0 1-.115-.114v-.806c0-.061.053-.114.116-.114.062 0 .115.053.115.114v.806a.117.117 0 0 1-.115.114zm33.53.614a.118.118 0 0 1-.116-.114v-.806c0-.062.054-.114.116-.114.062 0 .116.052.116.114v.806c0 .07-.054.114-.116.114zm-33.52.99c-.063 0-.107-.044-.116-.105a1.816 1.816 0 0 1-.018-.219v-.596c0-.061.053-.114.116-.114.062 0 .115.053.115.114v.596c0 .061.01.131.01.193a.117.117 0 0 1-.099.131h-.009zm33.297.579a.167.167 0 0 1-.062-.018.125.125 0 0 1-.044-.158 1.39 1.39 0 0 0 .204-.701c0-.061.054-.114.116-.114.063 0 .116.053.116.123-.009.289-.089.57-.24.824-.009.026-.045.044-.09.044zm-32.344.64c-.018 0-.027 0-.045-.009a1.82 1.82 0 0 1-.695-.517c-.044-.053-.026-.123.018-.167.053-.035.125-.035.17.018.15.193.356.35.596.447.063.026.09.096.063.149-.01.044-.054.079-.107.079zm1.62.114h-.819a.117.117 0 0 1-.115-.114c0-.062.053-.114.115-.114h.82c.062 0 .116.052.116.114a.117.117 0 0 1-.116.114zm1.631 0h-.82a.117.117 0 0 1-.115-.114c0-.062.053-.114.115-.114h.82c.062 0 .116.052.116.114.009.061-.045.114-.116.114zm1.63 0h-.82a.117.117 0 0 1-.115-.114c0-.062.053-.114.116-.114h.82c.061 0 .115.052.115.114.009.061-.045.114-.116.114zm1.64 0h-.82a.117.117 0 0 1-.116-.114c0-.062.053-.114.116-.114h.82c.07 0 .115.052.115.114a.117.117 0 0 1-.116.114zm1.63 0h-.82a.117.117 0 0 1-.116-.114c0-.062.053-.114.116-.114h.82c.062 0 .115.052.115.114a.117.117 0 0 1-.116.114zm1.63 0h-.82a.117.117 0 0 1-.116-.114c0-.062.054-.114.116-.114h.82c.062 0 .115.052.115.114.01.061-.044.114-.115.114zm1.639 0h-.82a.117.117 0 0 1-.116-.114c0-.062.054-.114.116-.114h.82c.062 0 .115.052.115.114a.117.117 0 0 1-.115.114zm1.63 0h-.82a.117.117 0 0 1-.116-.114c0-.062.054-.114.116-.114h.82c.062 0 .116.052.116.114a.118.118 0 0 1-.116.114zm1.63 0h-.82a.117.117 0 0 1-.115-.114c0-.062.053-.114.115-.114h.82c.062 0 .116.052.116.114.009.061-.045.114-.116.114zm1.63 0h-.819a.117.117 0 0 1-.116-.114c0-.062.053-.114.116-.114h.819c.062 0 .116.052.116.114.009.061-.045.114-.116.114zm1.639 0h-.819a.117.117 0 0 1-.116-.114c0-.062.053-.114.116-.114h.819c.063 0 .116.052.116.114a.117.117 0 0 1-.116.114zm1.63 0h-.819a.117.117 0 0 1-.116-.114c0-.062.053-.114.116-.114h.819c.063 0 .116.052.116.114a.117.117 0 0 1-.116.114zm1.63 0h-.819a.118.118 0 0 1-.116-.114c0-.062.054-.114.116-.114h.819c.063 0 .116.052.116.114a.111.111 0 0 1-.116.114zm1.631 0h-.82a.118.118 0 0 1-.116-.114c0-.062.054-.114.116-.114h.82c.062 0 .115.052.115.114.009.061-.044.114-.115.114zm1.639 0h-.82a.118.118 0 0 1-.116-.114c0-.062.054-.114.116-.114h.82c.062 0 .116.052.116.114a.118.118 0 0 1-.116.114zm1.63 0h-.82a.117.117 0 0 1-.115-.114c0-.062.053-.114.115-.114h.82c.062 0 .116.052.116.114a.118.118 0 0 1-.116.114zm1.63 0h-.82a.117.117 0 0 1-.115-.114c0-.062.053-.114.115-.114h.82c.062 0 .116.052.116.114.009.061-.045.114-.116.114zm1.63 0h-.819a.117.117 0 0 1-.116-.114c0-.062.053-.114.116-.114h.819c.063 0 .116.052.116.114.009.061-.045.114-.116.114zm1.639 0h-.819a.111.111 0 0 1-.116-.114c0-.062.053-.114.116-.114h.819c.25 0 .49-.062.704-.176a.116.116 0 0 1 .16.044c.036.053.009.132-.044.158-.25.123-.535.202-.82.202z" fill="#004029"/>
    <path d="M121.355 109.848h-14.252c-1.452 0-2.637-1.157-2.637-2.594v-.193c0-1.429 1.185-2.594 2.637-2.594h14.252v5.381z" fill="#004029"/>
    <path d="M108.19 105.168h-.526v-.079h.526v.079zm1.042 0h-.526v-.079h.526v.079zm1.042 0h-.525v-.079h.525v.079zm1.042 0h-.516v-.079h.516v.079zm1.043 0h-.517v-.079h.517v.079zm1.042 0h-.517v-.079h.517v.079zm1.042 0h-.517v-.079h.517v.079zm1.042 0h-.525v-.079h.525v.079zm1.042 0h-.525v-.079h.525v.079zm1.052 0h-.526v-.079h.526v.079zm1.042 0h-.526v-.079h.526v.079zm1.042 0h-.517v-.079h.517v.079zm1.042 0h-.516v-.079h.516v.079zm.651 0h-.134v-.079h.134v.079zm-14.707.131-.027-.07c.169-.061.338-.096.516-.114l.009.079a1.647 1.647 0 0 0-.498.105zm-.847.544-.062-.053c.116-.123.258-.237.401-.333l.044.061a2.734 2.734 0 0 0-.383.325zm-.472.876-.08-.017c.036-.167.107-.333.187-.491l.071.035c-.08.158-.142.315-.178.473zm-.044 1.017a1.974 1.974 0 0 1-.089-.517h.08c.009.166.035.333.08.491l-.071.026zm.552.885a2.479 2.479 0 0 1-.339-.403l.072-.044c.089.14.196.272.32.386l-.053.061zm.909.508a2.591 2.591 0 0 1-.49-.201l.035-.07c.152.087.303.149.472.193l-.017.078zm1.051.097h-.526l.009-.079h.517v.079zm1.042 0h-.517v-.079h.517v.079zm1.042 0h-.525v-.079h.525v.079zm1.042 0h-.525v-.079h.525v.079zm1.043 0h-.526v-.079h.526v.079zm1.042 0h-.517v-.079h.517v.079zm1.042 0h-.517v-.079h.517v.079zm1.051 0h-.516v-.079h.516v.079zm1.042 0h-.516v-.079h.516v.079zm1.043 0h-.517v-.079h.517v.079zm1.042 0h-.526v-.079h.526v.079zm1.042 0h-.525v-.079h.525v.079zm1.042 0h-.516v-.079h.516v.079zm1.043 0h-.517v-.079h.517v.079z" fill="#008053"/>
    <path d="M106.095 107.105c0-.614.508-1.113 1.132-1.113.623 0 1.131.499 1.131 1.113 0 .613-.508 1.113-1.131 1.113-.624 0-1.132-.5-1.132-1.113z" fill="#C2FFEA"/>
    <path d="M62.731 109.235c-.009-7.853 6.45-14.225 14.431-14.234 7.982-.009 14.458 6.346 14.467 14.199.009 7.853-6.45 14.225-14.431 14.234-7.982.009-14.458-6.346-14.467-14.199z" fill="#F8D25C"/>
    <path d="M65.119 109.051c.089-6.556 5.567-11.789 12.23-11.701 6.664.087 11.982 5.478 11.893 12.034-.09 6.556-5.568 11.788-12.231 11.701-6.663-.097-11.981-5.478-11.892-12.034z" fill="#F8FAFD"/>
    <path d="M86.988 110.05a.715.715 0 0 1-.704-.71.716.716 0 0 1 .721-.693.715.715 0 0 1 .704.71.71.71 0 0 1-.721.693zM67.355 109.778a.714.714 0 0 1-.704-.71.715.715 0 0 1 .722-.692c.392.009.712.324.703.71a.703.703 0 0 1-.721.692zM78.027 99.567a.715.715 0 0 1-.722.693.715.715 0 0 1-.704-.71.715.715 0 0 1 .722-.693c.4 0 .713.325.704.71zM77.76 118.885a.715.715 0 0 1-.722.692c-.392-.009-.713-.324-.704-.71a.715.715 0 0 1 .722-.692c.392 0 .703.324.703.71zM72.753 100.313a.69.69 0 0 1-.267.955.713.713 0 0 1-.971-.263.69.69 0 0 1 .267-.955.71.71 0 0 1 .97.263zM82.507 117.079a.69.69 0 0 1-.267.955.714.714 0 0 1-.97-.262.69.69 0 0 1 .266-.956.713.713 0 0 1 .971.263zM81.688 100.435a.693.693 0 0 0 .24.964.718.718 0 0 0 .98-.236.693.693 0 0 0-.24-.964.717.717 0 0 0-.98.236zM71.461 116.93a.693.693 0 0 0 .24.964.718.718 0 0 0 .98-.236.693.693 0 0 0-.24-.964.718.718 0 0 0-.98.236zM69.127 103.31a.7.7 0 0 1 .223.964.725.725 0 0 1-.98.219.708.708 0 0 1-.222-.973.714.714 0 0 1 .98-.21zM85.696 113.679a.7.7 0 0 1 .223.964.726.726 0 0 1-.98.219.7.7 0 0 1-.222-.964.709.709 0 0 1 .98-.219zM85.153 103.88a.688.688 0 0 0-.285.946.723.723 0 0 0 .962.29.692.692 0 0 0 .285-.947.715.715 0 0 0-.962-.289zM67.863 113.047a.692.692 0 0 0-.285.947.714.714 0 0 0 .962.281.69.69 0 0 0 .285-.947.718.718 0 0 0-.962-.281zM77.082 110.629a1.058 1.058 0 0 1-1.042-1.052c.009-.57.49-1.034 1.069-1.026a1.058 1.058 0 0 1 1.042 1.052 1.042 1.042 0 0 1-1.069 1.026z" fill="#008053"/>
    <path d="M77.1 109.805h.214c.116 0 .214-.088.214-.202 0-.114-.09-.21-.205-.21l.08-6.39.258.377a.216.216 0 0 0 .294.061.199.199 0 0 0 .054-.289l-.633-.929c-.053-.079-.142-.105-.231-.079a.205.205 0 0 0-.152.193l-.089 7.257c-.018.114.08.202.196.211z" fill="#008053"/>
    <path d="M76.468 103.397a.21.21 0 0 0 .16-.07l.722-.85a.204.204 0 0 0-.027-.289.213.213 0 0 0-.294.026l-.722.85a.206.206 0 0 0 .027.29c.036.026.09.043.134.043zM80.877 110.523a.21.21 0 0 0 .152-.061l.632-.622c.062-.062.08-.149.045-.219a.226.226 0 0 0-.188-.132l-4.908-.052c-.115 0-.213.087-.213.201v.21c0 .114.089.211.204.211.116 0 .214-.088.214-.202l4.205.044-.285.281a.204.204 0 0 0 0 .289.336.336 0 0 0 .142.052z" fill="#008053"/>
    <path d="M81.51 109.892a.244.244 0 0 0 .134-.043.207.207 0 0 0 .035-.29l-.57-.71a.215.215 0 0 0-.294-.035.205.205 0 0 0-.035.289l.57.71a.19.19 0 0 0 .16.079zM75.702 79.505c-.508 1.288-2.005 1.893-3.34 1.34-1.337-.552-2.005-2.041-1.488-3.33.507-1.288 2.004-1.893 3.34-1.34 1.327.551 1.995 2.041 1.488 3.33zm.775.324c.685-1.744-.214-3.76-2.014-4.505-1.799-.745-3.821.061-4.516 1.805-.686 1.745.214 3.76 2.013 4.505 1.809.745 3.822-.06 4.517-1.805z" fill="#008053"/>
    <path d="m72.031 82.765-.89-.368.49-1.227.89.36-.49 1.235zM73.883 83.01l-.944.036-.098-1.341.953-.026.09 1.332zM75.594 82.476l-.846.403-.624-1.218.847-.394.623 1.21zM76.842 81.424l-.668.65-.971-.974.668-.648.97.972zM69.18 76.288l-.338.868 1.274.526.339-.868-1.274-.526zM77.572 79.76l-.338.858-1.274-.526.347-.859 1.265.526zM69.617 81.249l.668.692.98-.885-.668-.701-.98.894zM68.763 79.654l.329.885 1.274-.43-.33-.884-1.273.43zM68.575 78.015l.044.938 1.363-.01-.044-.937-1.363.009zM75.31 74.526l-.891-.368-.49 1.236.89.368.49-1.236zM76.806 75.666l-.66-.692-.979.885.66.701.979-.894zM77.67 77.261l-.338-.885-1.274.43.339.885 1.273-.43zM77.848 78.9l-.045-.938-1.354.018.045.929 1.354-.009zM72.54 73.904l.953-.035.097 1.341-.953.026-.098-1.332zM70.837 74.439l.846-.395.624 1.21-.846.394-.624-1.21zM69.59 75.49l.669-.648.97.981-.667.64-.971-.973z" fill="#008053"/>
    <path d="M64.593 88.532c-1.292.727-2.984.254-3.768-1.043-.784-1.297-.374-2.945.917-3.664 1.292-.727 2.985-.254 3.768 1.043.793 1.297.375 2.936-.917 3.664zm2.111 1.578a5.05 5.05 0 0 0 1.078-1.306l2.29.412.41-2.7-2.059-.377a5.047 5.047 0 0 0-.195-1.192l1.683-.938-1.452-2.392-1.684.937a5.703 5.703 0 0 0-.98-.754l.678-1.91-2.637-.99-.757 2.112a5.154 5.154 0 0 0-1.71.254l-1.123-1.858-2.387 1.332 1.238 2.042c-.24.29-.446.596-.615.92l-2.44-.447-.41 2.7 2.316.42c.026.334.089.676.187 1.009l-1.933 1.078 1.452 2.392 1.933-1.078c.258.246.525.465.82.649l-.767 2.147 2.637.99.802-2.26c.383.017.757 0 1.14-.062l1.238 2.042 2.387-1.332-1.14-1.84z" fill="#0AB378"/>
    <path d="M64.674 74.587c-.713.403-1.648.14-2.084-.578-.437-.719-.205-1.622.507-2.025.713-.403 1.648-.14 2.085.579.436.718.205 1.63-.508 2.024zm1.167.877c.24-.21.445-.456.597-.719l1.265.228.222-1.49-1.14-.21a2.81 2.81 0 0 0-.107-.658l.927-.517-.802-1.323-.926.517a3.047 3.047 0 0 0-.544-.412l.374-1.052-1.46-.552-.42 1.166a2.655 2.655 0 0 0-.944.14l-.623-1.026-1.318.737.685 1.13c-.133.158-.249.333-.338.509l-1.345-.246-.223 1.49 1.283.237c.018.184.044.377.098.56l-1.069.597.802 1.323 1.069-.596c.142.132.294.254.454.36l-.419 1.183 1.461.552.446-1.245c.213.01.418 0 .632-.035l.686 1.131 1.318-.736-.641-1.043z" fill="#F8FAFD"/>
    <path d="M201.187 93.669c-.729.266-1.196.884-1.196 1.567v15.161c0 3.1 1.495 6.006 3.994 7.775l9.023 5.703a1.926 1.926 0 0 0 2.019 0l9.023-5.703c2.499-1.769 3.994-4.675 3.994-7.775V95.28c0-.705-.496-1.338-1.254-1.59-10.969-3.704-15.363-3.804-25.603-.021z" fill="#008053"/>
    <path d="M216.92 96.103h-5.804v19.498h5.804V96.103z" fill="#F8FAFD"/>
    <path d="M224.658 108.467v-5.706h-19.83v5.706h19.83z" fill="#F8FAFD"/>
    <path d="M176.469 71.433c.008-1.841-1.461-3.34-3.27-3.349-1.817-.008-3.296 1.482-3.296 3.322-.009 1.84 1.461 3.34 3.27 3.348 1.817.01 3.296-1.472 3.296-3.321zM168.46 79.96l9.389.045s-.222-3.962-4.676-3.988c-4.463-.027-4.713 3.944-4.713 3.944zM186.187 74.097h-7.242V72.44h7.242v1.657z" fill="#fff"/>
    <path d="M181.671 76.945v-7.344h1.79v7.344h-1.79z" fill="#fff"/>
    <path d="M212.776 72.08c.016-3.692-3.005-6.695-6.757-6.71-3.752-.015-6.803 2.957-6.819 6.648-.016 3.692 3.005 6.695 6.757 6.71 3.752.03 6.804-2.956 6.819-6.648zM196.227 89.145l19.399.076s-.452-7.935-9.668-7.98c-9.217-.031-9.731 7.904-9.731 7.904zM229.879 74.731h-14.946v-3.309h14.946v3.31z" fill="#FFD600"/>
    <path d="M220.569 80.445V65.724h3.69v14.721h-3.69zM194.846 96.376c-7.332-9.317-17.006 2.104-17.006 2.104s-9.674-11.42-17.005-2.104c-7.331 9.317 17.005 27.25 17.005 27.25s24.337-17.933 17.006-27.25z" fill="#FFD600"/>
</svg>
