<svg width="149" height="214" viewBox="0 0 149 214" fill="none" xmlns="http://www.w3.org/2000/svg">
    <path d="M106.152 84.449c-.068-13.705 6.28-19.24 19.957-19.31l21.06-.005.047 18.506c-.069 13.704-7.234 19.98-20.906 19.901v.005c-13.672.069-20.084-5.387-20.158-19.097z" fill="#0AB378"/>
    <path d="M127.709 49.919c-15.081.079-21.17-6.937-21.249-22.048L106.455.054l20.362-.053c15.081.08 21.989 7.995 21.899 23.095l.011 4.553c.079 15.11-5.926 22.19-21.018 22.27z" fill="#FFD502"/>
    <path d="M127.709 213.999c-15.081.08-21.17-6.936-21.249-22.047l-.011-73.139 20.363-.053c15.081.079 21.983 7.994 21.899 23.095l.016 49.874c.079 15.106-5.926 22.191-21.018 22.27zM27.519 21.06c-.08 15.111 6.923 21.213 22.004 21.292l44.741.01.053-20.403C94.238 6.848 86.34-.068 71.268.017L49.75 0C34.669-.08 27.598 5.938 27.519 21.06z" fill="#31D8D1"/>
    <path d="M27.519 192.939c-.08-15.111 6.923-21.212 22.004-21.292l44.741-.01.053 20.403c-.079 15.111-7.978 22.027-23.049 21.942l-21.518.011c-15.081.085-22.152-5.932-22.231-21.054zM0 78.512C-.078 63.4 6.925 57.299 22.006 57.22l72.26-.01.052 20.403c-.079 15.111-7.978 22.027-23.049 21.942l-49.042.01C7.146 99.65.08 93.635.001 78.513z" fill="#FFD502"/>
    <path d="M49.803 135.487c-.079 15.111 6.924 21.213 22.004 21.292l22.453.011.053-20.404c-.08-15.111-7.979-22.027-23.05-21.942l.766-.011c-15.076-.084-22.146 5.933-22.226 21.054z" fill="#0AB378"/>
</svg>
