<svg width="414" height="401" viewBox="0 0 414 401" fill="none" xmlns="http://www.w3.org/2000/svg">
<path d="M281.885 86.999C281.885 62.0748 282.185 37.1507 281.706 12.2266C281.526 3.42633 284.159 -0.0583247 293.495 0.000737252C312.646 0.177923 312.706 -0.23551 312.706 18.6052C312.706 32.7211 312.765 46.7778 312.706 60.8936C312.706 66.2682 313.543 68.0992 319.408 64.9098C345.62 50.6759 376.799 55.2237 393.915 75.3047C410.791 95.0905 411.629 135.134 395.591 155.629C379.193 176.537 346.338 182.62 321.503 169.331C317.732 167.323 315.877 164.016 311.209 170.808C305.943 178.486 294.573 174.293 286.075 173.407C279.911 172.757 281.945 166.024 281.885 161.83C281.706 136.906 281.826 111.982 281.826 87.058L281.885 86.999ZM312.287 116.53C312.287 138.147 323.298 149.605 343.885 149.486C364.471 149.368 375.722 137.733 375.722 116.471C375.722 95.2086 364.531 83.6325 343.825 83.5143C323.238 83.3962 312.287 94.8542 312.346 116.53H312.287Z" fill="#09A56E"/>
<path d="M10.0699 315.261C10.0699 291.341 10.2495 267.362 9.95024 243.442C9.83055 235.527 12.5236 232.102 20.9617 232.456C43.8225 233.519 66.9226 230.33 89.6038 234.228C118.629 239.189 134.308 259.152 134.308 289.333C134.308 318.805 116.654 340.421 88.8857 345.855C76.0191 348.395 63.0327 347.686 50.1661 347.568C43.2839 347.568 40.5908 349.871 40.8302 356.722C41.1893 367.531 40.6507 378.398 41.0098 389.206C41.1893 395.999 38.3167 398.361 31.6141 398.656C10.429 399.66 10.1298 399.542 10.1298 379.166C10.1298 357.845 10.1298 336.523 10.1298 315.202L10.0699 315.261ZM40.8901 289.982C40.8901 297.188 41.0098 304.393 40.8901 311.599C40.7704 316.915 42.9847 319.454 48.5502 319.336C58.1853 319.159 67.8202 319.691 77.3954 318.982C93.8528 317.801 102.111 307.051 101.812 288.211C101.573 271.555 93.015 262.105 76.797 261.337C67.521 260.865 58.245 261.396 48.9691 261.16C42.8649 260.983 40.6507 263.641 40.8901 269.429C41.1295 276.28 40.8901 283.19 40.9499 290.041L40.8901 289.982Z" fill="#09A56E"/>
<path d="M231.137 387.553C217.911 398.715 204.566 401.373 190.203 400.96C163.692 400.133 144.003 384.422 138.497 358.849C136.103 347.509 135.924 335.874 138.437 324.652C146.636 287.679 188.707 270.138 222.579 289.215C226.29 291.282 228.444 293.172 233.89 289.746C240.473 285.553 249.988 287.384 258.187 289.156C261.778 289.923 261.718 293.585 261.718 296.538C261.718 328.018 261.718 359.498 261.718 391.037C261.718 396.885 258.905 399.365 253.1 399.129C249.09 398.952 245.081 398.893 241.131 399.129C234.369 399.601 229.94 397.711 231.077 387.671L231.137 387.553ZM231.257 341.839C231.316 320.163 220.365 308.646 199.778 308.705C179.491 308.764 168.12 320.754 168.12 342.016C168.12 362.983 178.952 374.146 199.299 374.323C220.245 374.5 231.137 363.396 231.257 341.839Z" fill="#09A56E"/>
<path d="M267.104 113.636C267.104 150.904 241.311 176.005 202.83 176.064C164.889 176.064 138.677 150.727 138.976 114.227C139.275 77.6672 165.906 51.8571 203.01 52.0934C241.37 52.3296 267.044 77.0175 267.104 113.636ZM236.104 114.935C236.224 92.3146 224.315 79.5572 203.01 79.439C181.526 79.3209 170.634 90.9561 170.634 113.931C170.634 135.843 182.722 149.073 203.01 149.309C223.716 149.546 236.044 136.729 236.164 114.935H236.104Z" fill="#09A56E"/>
<path d="M123.476 67.981C123.476 83.3962 123.656 98.8114 123.476 114.227C122.878 164.902 80.268 191.48 32.8708 170.926C19.286 165.02 9.11242 155.688 1.7515 143.049C-1.24074 137.91 -0.522626 134.544 4.86341 132.004C6.65876 131.177 8.27459 129.937 9.95024 128.933C17.5705 124.366 24.2133 125.645 29.8786 132.772C39.753 145.293 56.3899 150.609 70.7526 145.825C85.295 141.041 92.4763 130.882 92.596 113.222C92.8354 81.7425 92.596 50.2625 92.596 18.8415C92.596 8.80097 97.7826 3.7807 108.156 3.7807C109.472 3.7807 110.849 3.89883 112.165 3.7807C120.663 2.77665 124.074 6.02506 123.775 14.8253C123.237 32.4848 123.596 50.2034 123.596 67.922H123.536L123.476 67.981Z" fill="#09A56E"/>
<path d="M372.251 300.436C382.724 293.29 392.419 287.797 403.67 285.73C410.672 284.431 413.784 286.143 413.963 294.058C414.262 304.807 413.006 311.363 400.199 315.438C380.27 321.817 372.969 339.181 371.892 358.849C371.294 369.303 371.593 379.816 371.772 390.329C371.892 396.589 369.259 398.893 362.915 399.129C342.568 400.015 342.568 400.192 342.568 380.17C342.568 353.946 342.568 327.723 342.568 301.499C342.568 287.384 342.568 287.679 356.692 287.207C365.728 286.911 373.628 287.029 372.191 300.436H372.251Z" fill="#09A56E"/>
<path d="M317.852 343.256C317.852 358.671 317.613 374.028 317.972 389.443C318.151 396.707 315.159 399.011 307.978 399.129C287.092 399.483 287.092 399.72 287.092 379.461C287.092 352.588 287.391 325.715 286.912 298.842C286.793 289.746 290.084 286.911 299.121 287.088C317.912 287.443 317.912 287.088 317.912 305.811C317.912 318.273 317.912 330.735 317.912 343.138L317.852 343.256Z" fill="#09A56E"/>
<path d="M302.891 241.67C312.825 241.847 320.246 249.171 319.827 258.502C319.408 267.244 311.449 274.39 302.472 274.154C292.897 273.918 285.057 266.003 285.416 257.085C285.835 248.344 293.495 241.552 302.891 241.729V241.67Z" fill="#09A56E"/>
</svg>
