<svg width="291" height="313" viewBox="0 0 291 313" fill="none" xmlns="http://www.w3.org/2000/svg">
<path d="M70.106 312.996C47.8274 311.911 23.2815 303.033 1.59438 287.25C-43.3571 254.499 -82.2954 215.139 -117.291 172.228C-149.328 132.869 -146.765 96.6655 -114.037 58.0949C-99.0536 40.4373 -82.3939 24.8512 -62.5798 12.8164C-34.8794 -3.95348 -6.78474 -4.24942 21.5071 11.8299C38.3639 21.3986 52.6577 34.1239 66.36 47.4411C73.5562 54.445 78.4851 54.2477 85.287 47.2438C99.0879 33.1374 114.269 20.5107 131.717 11.0407C158.432 -3.46025 185.442 -3.5589 211.467 11.9285C238.181 27.8106 259.77 49.4141 277.021 75.2593C298.215 106.925 294.272 138.787 272.191 166.902C235.914 213.068 194.906 254.992 146.8 289.124C123.93 305.302 97.1163 313.194 69.9088 312.996H70.106Z" fill="#09A56E"/>
</svg>
