<svg width="20" height="20" viewBox="0 0 20 20" fill="none" xmlns="http://www.w3.org/2000/svg">
<g clip-path="url(#clip0_95_466)">
<path fill-rule="evenodd" clip-rule="evenodd" d="M2.83144 2.87739C3.3638 2.34844 4.08584 2.05128 4.83871 2.05128H6.90323C7.3308 2.05128 7.67742 2.39568 7.67742 2.82051C7.67742 3.24535 7.3308 3.58974 6.90323 3.58974H4.83871C4.49649 3.58974 4.1683 3.72482 3.92631 3.96525C3.68433 4.20568 3.54839 4.53177 3.54839 4.87179V17.1795C3.54839 17.5195 3.68433 17.8456 3.92631 18.086C4.1683 18.3265 4.4965 18.4615 4.83871 18.4615H15.1613C15.5035 18.4615 15.8317 18.3265 16.0737 18.086C16.3157 17.8456 16.4516 17.5195 16.4516 17.1795V4.87179C16.4516 4.53177 16.3157 4.20568 16.0737 3.96525C15.8317 3.72482 15.5035 3.58974 15.1613 3.58974H13.0968C12.6692 3.58974 12.3226 3.24535 12.3226 2.82051C12.3226 2.39568 12.6692 2.05128 13.0968 2.05128H15.1613C15.9142 2.05128 16.6362 2.34844 17.1686 2.87739C17.7009 3.40634 18 4.12375 18 4.87179V17.1795C18 17.9275 17.7009 18.6449 17.1686 19.1739C16.6362 19.7028 15.9142 20 15.1613 20H4.83871C4.08584 20 3.3638 19.7028 2.83144 19.1739C2.29908 18.6449 2 17.9275 2 17.1795V4.87179C2 4.12375 2.29908 3.40634 2.83144 2.87739Z" fill="#484848"/>
<path fill-rule="evenodd" clip-rule="evenodd" d="M8.96774 1.53846C8.62553 1.53846 8.29733 1.67353 8.05535 1.91397C7.81336 2.1544 7.67742 2.48049 7.67742 2.82051C7.67742 3.16053 7.81336 3.48663 8.05535 3.72706C8.29733 3.96749 8.62553 4.10256 8.96774 4.10256H11.0323C11.3745 4.10256 11.7027 3.96749 11.9447 3.72706C12.1866 3.48663 12.3226 3.16053 12.3226 2.82051C12.3226 2.48049 12.1866 2.1544 11.9447 1.91397C11.7027 1.67353 11.3745 1.53846 11.0323 1.53846H8.96774ZM6.96047 0.826109C7.49283 0.29716 8.21487 0 8.96774 0H11.0323C11.7851 0 12.5072 0.29716 13.0395 0.826109C13.5719 1.35506 13.871 2.07247 13.871 2.82051C13.871 3.56856 13.5719 4.28597 13.0395 4.81492C12.5072 5.34386 11.7851 5.64102 11.0323 5.64103H8.96774C8.21487 5.64102 7.49283 5.34386 6.96047 4.81492C6.42811 4.28597 6.12903 3.56856 6.12903 2.82051C6.12903 2.07247 6.42811 1.35506 6.96047 0.826109Z" fill="#484848"/>
<path fill-rule="evenodd" clip-rule="evenodd" d="M6.12903 10C6.12903 9.57516 6.47565 9.23077 6.90323 9.23077H13.0968C13.5244 9.23077 13.871 9.57516 13.871 10C13.871 10.4248 13.5244 10.7692 13.0968 10.7692H6.90323C6.47565 10.7692 6.12903 10.4248 6.12903 10Z" fill="#484848"/>
<path fill-rule="evenodd" clip-rule="evenodd" d="M6.12903 14.1026C6.12903 13.6777 6.47565 13.3333 6.90323 13.3333H13.0968C13.5244 13.3333 13.871 13.6777 13.871 14.1026C13.871 14.5274 13.5244 14.8718 13.0968 14.8718H6.90323C6.47565 14.8718 6.12903 14.5274 6.12903 14.1026Z" fill="#484848"/>
</g>
<defs>
<clipPath id="clip0_95_466">
<rect width="20" height="20" fill="white"/>
</clipPath>
</defs>
</svg>
