<svg width="20" height="20" viewBox="0 0 20 20" fill="none" xmlns="http://www.w3.org/2000/svg">
<g id="Setting" clip-path="url(#clip0_95_470)">
<g id="Vector">
<path fill-rule="evenodd" clip-rule="evenodd" d="M10.9704 2.30135C10.7236 1.28416 9.27636 1.28416 9.0296 2.30135C8.62349 3.97141 6.71472 4.7635 5.24448 3.86959C4.34955 3.32475 3.32586 4.34876 3.87011 5.24263M10.9704 2.30135C11.0645 2.68954 11.2489 3.05003 11.5086 3.3535C11.7684 3.65702 12.0961 3.89492 12.4652 4.04783C12.8343 4.20074 13.2343 4.26434 13.6326 4.23346C14.0308 4.20259 14.4161 4.07814 14.7571 3.87026C15.6511 3.32567 16.6755 4.34908 16.1306 5.24409C15.923 5.58501 15.7988 5.97011 15.7679 6.36809C15.7371 6.76613 15.8007 7.16582 15.9534 7.53468C16.1062 7.90353 16.3438 8.23114 16.6469 8.49088C16.9501 8.75062 17.3103 8.93516 17.6982 9.0295C18.7154 9.27626 18.7158 10.7236 17.6986 10.9704C17.3105 11.0645 16.95 11.2489 16.6465 11.5086C16.343 11.7684 16.1051 12.0961 15.9522 12.4652C15.7993 12.8343 15.7357 13.2343 15.7665 13.6326C15.7974 14.0308 15.9219 14.4161 16.1297 14.7571C16.6743 15.6511 15.6509 16.6755 14.7559 16.1306C14.415 15.923 14.0299 15.7988 13.6319 15.7679C13.2339 15.7371 12.8342 15.8007 12.4653 15.9534C12.0965 16.1062 11.7689 16.3438 11.5091 16.6469C11.2494 16.9501 11.0648 17.3103 10.9705 17.6982C10.7237 18.7154 9.27636 18.7158 9.0296 17.6986C8.93551 17.3105 8.7511 16.95 8.49139 16.6465C8.23162 16.343 7.90386 16.1051 7.53478 15.9522C7.1657 15.7993 6.76573 15.7357 6.36742 15.7665C5.96921 15.7974 5.58391 15.9219 5.24287 16.1297C4.34899 16.6743 3.32457 15.651 3.86927 14.756C4.07694 14.4151 4.20124 14.0299 4.23205 13.6319C4.26286 13.2339 4.19931 12.8342 4.04658 12.4653C3.89385 12.0965 3.65623 11.7689 3.35305 11.5091C3.04988 11.2494 2.68969 11.0648 2.30177 10.9705C1.28458 10.7237 1.28416 9.27636 2.30135 9.0296C2.68954 8.93551 3.05003 8.7511 3.3535 8.49139C3.65702 8.23162 3.89492 7.90386 4.04783 7.53478C4.20074 7.1657 4.26434 6.76573 4.23346 6.36742C4.20259 5.96921 4.078 5.58367 3.87011 5.24263M7.5345 1.93865C8.16158 -0.646216 11.8384 -0.646216 12.4655 1.93865C12.5025 2.09151 12.5752 2.23367 12.6775 2.35317C12.7797 2.47266 12.9088 2.56632 13.0541 2.62652C13.1994 2.68672 13.3568 2.71176 13.5136 2.6996C13.6705 2.68745 13.8222 2.63843 13.9565 2.55655C16.2277 1.17294 18.8281 3.77194 17.4447 6.04412C17.363 6.17835 17.314 6.33012 17.3018 6.48682C17.2897 6.64353 17.3147 6.80088 17.3748 6.9461C17.435 7.09132 17.5285 7.2203 17.6479 7.32255C17.7671 7.42472 17.9088 7.49733 18.0614 7.5345C20.6462 8.16158 20.6462 11.8384 18.0614 12.4655C17.9085 12.5025 17.7663 12.5752 17.6468 12.6775C17.5273 12.7797 17.4337 12.9088 17.3735 13.0541C17.3133 13.1994 17.2882 13.3568 17.3004 13.5136C17.3126 13.6705 17.3616 13.8222 17.4434 13.9565C18.8271 16.2277 16.2281 18.8281 13.9559 17.4447C13.8216 17.363 13.6699 17.314 13.5132 17.3018C13.3565 17.2897 13.1991 17.3147 13.0539 17.3748C12.9087 17.435 12.7797 17.5285 12.6774 17.6479C12.5753 17.7671 12.5027 17.9088 12.4655 18.0614C11.8384 20.6462 8.16158 20.6462 7.5345 18.0614C7.49747 17.9085 7.42481 17.7663 7.32254 17.6468C7.22027 17.5273 7.09124 17.4337 6.94593 17.3735C6.80062 17.3133 6.64316 17.2882 6.48635 17.3004C6.32954 17.3126 6.17781 17.3616 6.04352 17.4434C3.77233 18.8271 1.17195 16.2281 2.55526 13.9559C2.63703 13.8216 2.68604 13.6699 2.69817 13.5132C2.7103 13.3565 2.68529 13.1991 2.62516 13.0539C2.56503 12.9087 2.47148 12.7797 2.35212 12.6774C2.23287 12.5753 2.09121 12.5027 1.93865 12.4655C-0.646216 11.8384 -0.646216 8.16158 1.93865 7.5345C2.09151 7.49747 2.23367 7.42481 2.35317 7.32254C2.47266 7.22027 2.56632 7.09124 2.62652 6.94593C2.68672 6.80063 2.71176 6.64316 2.6996 6.48635C2.68745 6.32954 2.63843 6.17781 2.55655 6.04352C1.17301 3.77246 3.77165 1.17224 6.04373 2.55503M7.5345 1.93865C7.37429 2.59637 6.62459 2.90785 6.04373 2.55503L7.5345 1.93865Z" fill="#484848"/>
<path fill-rule="evenodd" clip-rule="evenodd" d="M7.28036 7.28036C8.00165 6.55906 8.97994 6.15385 10 6.15385C11.0201 6.15385 11.9983 6.55906 12.7196 7.28036C13.4409 8.00165 13.8462 8.97994 13.8462 10C13.8462 11.0201 13.4409 11.9983 12.7196 12.7196C11.9983 13.4409 11.0201 13.8462 10 13.8462C8.97994 13.8462 8.00165 13.4409 7.28036 12.7196C6.55906 11.9983 6.15385 11.0201 6.15385 10C6.15385 8.97994 6.55906 8.00165 7.28036 7.28036ZM10 7.69231C9.38796 7.69231 8.80099 7.93544 8.36821 8.36821C7.93544 8.80099 7.69231 9.38796 7.69231 10C7.69231 10.612 7.93544 11.199 8.36821 11.6318C8.80099 12.0646 9.38796 12.3077 10 12.3077C10.612 12.3077 11.199 12.0646 11.6318 11.6318C12.0646 11.199 12.3077 10.612 12.3077 10C12.3077 9.38796 12.0646 8.80099 11.6318 8.36821C11.199 7.93544 10.612 7.69231 10 7.69231Z" fill="#484848"/>
</g>
</g>
<defs>
<clipPath id="clip0_95_470">
<rect width="20" height="20" fill="white"/>
</clipPath>
</defs>
</svg>
