<svg width="18" height="18" viewBox="0 0 18 18" fill="none" xmlns="http://www.w3.org/2000/svg">
<g id="Wallet" clip-path="url(#clip0_356_1086)">
<path id="Vector " fill-rule="evenodd" clip-rule="evenodd" d="M0.828469 0.828469C1.35893 0.298009 2.07839 0 2.82857 0H13.1143C13.5917 0 14.0495 0.189642 14.3871 0.527208C14.7246 0.864774 14.9143 1.32261 14.9143 1.8V4.11429H15.1714C15.6488 4.11429 16.1067 4.30393 16.4442 4.64149C16.7818 4.97906 16.9714 5.4369 16.9714 5.91429V8.22857H17.2286C17.6546 8.22857 18 8.57395 18 9V13.1143C18 13.5403 17.6546 13.8857 17.2286 13.8857H16.9714V16.2C16.9714 16.6774 16.7818 17.1352 16.4442 17.4728C16.1067 17.8104 15.6488 18 15.1714 18H2.82857C2.07839 18 1.35893 17.702 0.828469 17.1715C0.298009 16.6411 0 15.9216 0 15.1714V2.82857C0 2.07839 0.298009 1.35893 0.828469 0.828469ZM1.54286 5.34805V15.1714C1.54286 15.5124 1.67832 15.8394 1.91943 16.0806C2.16055 16.3217 2.48758 16.4571 2.82857 16.4571H15.1714C15.2396 16.4571 15.305 16.43 15.3533 16.3818C15.4015 16.3336 15.4286 16.2682 15.4286 16.2V13.8857H13.1143C12.3641 13.8857 11.6446 13.5877 11.1142 13.0572C10.5837 12.5268 10.2857 11.8073 10.2857 11.0571C10.2857 10.307 10.5837 9.5875 11.1142 9.05704C11.6446 8.52658 12.3641 8.22857 13.1143 8.22857H15.4286V5.91429C15.4286 5.84608 15.4015 5.78068 15.3533 5.73246C15.305 5.68423 15.2396 5.65714 15.1714 5.65714H2.82857C2.37741 5.65714 1.93736 5.54936 1.54286 5.34805ZM13.3714 4.11429H2.82857C2.48758 4.11429 2.16055 3.97883 1.91943 3.73771C1.67832 3.49659 1.54286 3.16956 1.54286 2.82857C1.54286 2.48758 1.67832 2.16055 1.91943 1.91943C2.16055 1.67832 2.48758 1.54286 2.82857 1.54286H13.1143C13.1825 1.54286 13.2479 1.56995 13.2961 1.61817C13.3443 1.6664 13.3714 1.7318 13.3714 1.8V4.11429ZM13.1143 9.77143C12.7733 9.77143 12.4463 9.90689 12.2051 10.148C11.964 10.3891 11.8286 10.7162 11.8286 11.0571C11.8286 11.3981 11.964 11.7252 12.2051 11.9663C12.4463 12.2074 12.7733 12.3429 13.1143 12.3429H16.4571V9.77143H13.1143Z" fill="#484848"/>
</g>
<defs>
<clipPath id="clip0_356_1086">
<rect width="18" height="18" fill="white"/>
</clipPath>
</defs>
</svg>
